<?xml version="1.0" encoding="UTF-8" standalone="no"?>
<!DOCTYPE svg PUBLIC "-//W3C//DTD SVG 1.1//EN" "http://www.w3.org/Graphics/SVG/1.1/DTD/svg11.dtd">
<!-- Created with Vectornator (http://vectornator.io/) -->
<svg height="100%" stroke-miterlimit="10" style="fill-rule:nonzero;clip-rule:evenodd;stroke-linecap:round;stroke-linejoin:round;" version="1.1" viewBox="33.7322 40.2361 256.902 233.163" width="100%" xml:space="preserve" xmlns="http://www.w3.org/2000/svg" xmlns:xlink="http://www.w3.org/1999/xlink">
<defs/>
<g id="bangs-5">
<path d="M156.875 43.0938C154.561 43.2938 152.53 44.3543 150.031 44.875C142.165 46.5139 134.835 47.7736 127.125 50.3438C121.749 52.1358 116.111 53.104 110.75 54.9688C105.636 56.7476 101.206 60.1007 96.3125 62.3438C91.9992 64.3207 86.9231 65.6868 82.9375 68.3438C74.5855 73.9117 67.3856 83.3834 61.6562 91.5C57.1588 97.8714 53.4177 105.54 49.9375 112.5C46.9589 118.457 46.0489 125.709 43.4062 131.875C39.3767 141.277 34.9812 153.52 36.5625 164.062C38.1723 174.795 38.4748 185.912 41.5 196.5C43.225 202.538 45.3901 208.455 47.3125 214.438C47.5957 214.742 48.1 215.231 48.25 215.469C48.5948 215.996 48.5729 216.018 48.6875 216.219C48.8446 216.491 49.01 216.777 49.1875 217.125C49.5832 217.901 49.931 218.622 50.1875 219.281C50.2988 219.567 50.4057 219.922 50.5 220.188C50.9739 221.262 51.3546 222.146 51.4688 222.406C51.6249 222.762 51.6651 222.822 51.8125 223.156C51.7257 231.875 62.1976 244.998 63.4375 252.438C63.8501 254.913 62.55 265.369 65.0625 266.625C66.2502 267.219 67.8436 264.906 68.3438 264.156C69.7112 262.105 70.4662 259.932 70.9062 257.688C71.5297 259.028 72.2589 260.339 72.8125 261.688C73.9063 256.515 74.9343 251.326 76.6562 246.406C78.7596 240.397 83.2495 234.667 86.5 229.25C90.6861 222.273 92.6284 212.745 93.0312 204.688C93.4949 195.414 90.367 186.741 88.9375 177.688C84.3051 148.349 74.3792 121.624 93.5625 95.0625C95.2814 92.6825 95.4707 89.6396 97.4062 87.4062C100.028 84.3807 104.75 80.8441 108.312 78.9688C112.32 76.8594 115.017 77.6628 119.219 77.0625C123.872 76.3977 128.247 74.2994 132.844 73.5C135.152 73.0985 139.173 72.5865 141.562 73.25C145.305 74.2896 146.797 78.0271 151.125 77.3438C155.608 76.636 158.716 72.1277 163.656 73.5C167.077 74.4501 168.406 78.3814 172.125 78.9688C179.692 80.1636 187.827 75.9688 195.844 75.9688C196.167 75.9688 201.115 75.6982 201.844 76.5C202.398 77.1091 201.515 78.415 202.125 78.9688C202.783 79.567 207.306 79.0763 207.844 78.9688C214.381 77.6614 220.336 72.1163 226.656 77.5938C228.249 78.974 229.813 83.0866 231.031 84.9688C232.481 87.2088 234.691 89.1447 235.938 91.5C238.438 96.2237 239.273 101.701 241.406 106.5C243.204 110.544 245.387 115.199 246.312 119.594C248.163 128.385 247.161 137.961 247.656 146.875C248.397 160.201 247.785 173.055 244.938 186.156C241.946 199.919 232.97 221.465 239.5 235.25C241.764 240.029 245.258 241.968 249.562 244.5C250.297 244.932 252.997 247.277 253.938 247.5C255.685 247.916 261.397 247.98 263.219 247.5C264.048 247.282 264.693 245.68 265.406 246.156C266.104 246.621 264.968 247.765 264.844 248.594C264.762 249.142 264.735 249.697 264.688 250.25C265.191 250.096 265.628 249.97 266.062 249.844C267.257 257.89 272.562 266.805 278.344 268.25C279.206 268.466 275.988 260.433 275.594 259.25C273.979 254.406 274.797 247.989 277.031 242.906C277.049 242.77 277.068 242.655 277.094 242.5C277.206 241.819 277.346 241.117 277.469 240.594C277.633 239.896 278.28 237.618 278.344 237.375C278.401 237.156 278.475 236.743 278.594 236.094C278.641 235.837 279.005 233.859 279.094 233.406C278.644 234.217 277.521 234.823 276.156 235.375C276.357 234.368 276.606 233.154 276.656 232.906C276.951 231.441 277.266 230.025 277.594 228.656C278.152 226.326 278.72 224.382 279.344 222.781C279.839 221.51 280.373 220.402 281.156 219.312C281.601 218.694 282.321 218.226 282.906 217.688C285.822 186.101 291.139 154.694 284.5 123.156C283.731 119.503 282.427 115.261 280.125 112.25C278.706 110.395 277.323 110.023 276.312 107.875C274.833 104.731 275.199 101.27 273.312 98.0625C271.813 95.5135 269.523 93.8817 267.562 91.7812C265.184 89.2332 263.473 86.0435 261.312 83.3438C256.691 77.5672 249.736 73.8954 244.125 69.4062C241.959 67.6734 240.993 65.0568 238.406 63.6875C232.982 60.816 226.846 57.6471 220.938 55.7812C213.146 53.3209 202.562 51.5782 194.5 53.5938C191.292 54.3956 187.328 55.4464 184.656 57.4062C183.304 58.3975 182.516 60.576 180.844 60.6875C178.384 60.8515 176.748 53.9957 175.656 52.25L178.406 63.4062C176.844 59.8902 175.3 54.3586 172.938 51.4062C171.192 49.2238 167.995 48.9576 165.844 47.3438C163.527 45.6061 162.375 43.8625 159.312 43.25C158.446 43.0767 157.646 43.027 156.875 43.0938Z" fill="#ffacca" fill-rule="nonzero" opacity="1" stroke="#ffacca" stroke-linecap="round" stroke-linejoin="round" stroke-width="5"/>
<path d="M178.485 75.5641C178.485 67.8775 157.953 62.7007 152.303 61.3823C125.208 55.0601 102.863 78.4263 91.7574 100.11C70.7538 141.117 96.33 177.41 89.8483 217.11C88.7521 223.824 80.8444 253.642 68.0302 241.655C64.953 238.776 62.0806 234.511 61.4928 231.572" fill="none" opacity="1" stroke="#fa4485" stroke-linecap="round" stroke-linejoin="round" stroke-width="5"/>
<path d="M180.394 75.0186C183.378 66.0668 203.258 66.9409 209.576 68.7459C228.168 74.058 237.244 93.2275 242.576 110.746C249.499 133.496 247.638 159.628 243.939 182.746C241.612 197.291 235.952 212.022 237.121 226.928C238.254 241.369 254.337 257.497 271.108 243.521" fill="none" opacity="1" stroke="#fa4485" stroke-linecap="round" stroke-linejoin="round" stroke-width="5"/>
<path d="M92.2668 63.0084C57.0405 83.9425 34.9725 134.991 37.4847 171.837C38.4556 186.077 42.5488 199.701 46.2559 213.41" fill="none" opacity="1" stroke="#fa4485" stroke-linecap="round" stroke-linejoin="round" stroke-width="5"/>
<path d="M62.8483 231.019C72.8637 236.026 75.6241 219.898 74.3029 213.291C73.1162 207.358 65.2223 201.413 62.7307 195.807C58.4567 186.191 53.1222 175.85 52.118 165.737C50.8629 153.097 50.4813 140.641 56.2897 128.444" fill="none" opacity="1" stroke="#fa4485" stroke-linecap="round" stroke-linejoin="round" stroke-width="5"/>
<path d="M267.121 106.928C266.614 107.941 267.183 107.916 267.939 108.564C273.332 113.187 275.968 125.58 277.757 132.291C282.16 148.8 279.289 169.517 274.212 185.473C269.3 200.912 259.475 216.949 258.121 233.2C257.707 238.169 264.128 249.292 271.388 242.032" fill="none" opacity="1" stroke="#fa4485" stroke-linecap="round" stroke-linejoin="round" stroke-width="5"/>
<path d="M230.103 59.4108C242.597 67.619 255.134 75.5012 265.212 87.0186C298.871 125.487 286.819 172.665 282.281 218.254" fill="none" opacity="1" stroke="#fa4485" stroke-linecap="round" stroke-linejoin="round" stroke-width="5"/>
<path d="M265.241 248.246C264.861 248.436 264.675 249.167 264.634 250.275" fill="none" opacity="1" stroke="#fa4485" stroke-linecap="round" stroke-linejoin="round" stroke-width="5"/>
<path d="M72.7805 261.648C74.0571 256.388 74.8483 250.946 74.8483 245.2" fill="none" opacity="1" stroke="#fa4485" stroke-linecap="round" stroke-linejoin="round" stroke-width="5"/>
<path d="M104.285 80.5467C115.051 78.1544 124.317 74.2248 135.583 73.5206C140.83 73.1927 148.191 77.8975 152.51 77.0337C155.367 76.4622 156.138 73.2012 159.855 73.2012C168.21 73.2012 175.486 84.7351 179.976 75.7562" fill="none" opacity="1" stroke="#fa4485" stroke-linecap="round" stroke-linejoin="round" stroke-width="5"/>
<path d="M180.614 77.6724C178.6 77.6724 184.539 75.8824 185.086 75.7562C188.496 74.9692 191.793 75.1175 195.305 75.1175C200.561 75.1175 199.612 77.6689 202.012 79.2693C204.399 80.8606 219.097 71.2826 222.452 77.9918" fill="none" opacity="1" stroke="#fa4485" stroke-linecap="round" stroke-linejoin="round" stroke-width="5"/>
<path d="M179.611 62.8462C179.461 63.147 183.236 59.4234 184.058 58.6013C185.921 56.7387 192.081 54.5502 194.771 53.9523C206.741 51.2925 219.649 54.1214 230.404 59.4986" fill="none" opacity="1" stroke="#fa4485" stroke-linecap="round" stroke-linejoin="round" stroke-width="5"/>
<path d="M84.8036 67.4526C92.4525 59.8037 154.778 36.8767 166.882 44.1386C172.995 47.807 175.656 56.8975 178.698 62.9814" fill="none" opacity="1" stroke="#fa4485" stroke-linecap="round" stroke-linejoin="round" stroke-width="5"/>
<path d="M44.6818 207.9C48.6815 223.898 56.7053 238.658 61.5909 254.536C62.8386 258.591 60.9022 265.015 61.8636 267.9C63.3638 272.4 72.9087 262.993 73.3182 260.536" fill="none" opacity="1" stroke="#fa4485" stroke-linecap="round" stroke-linejoin="round" stroke-width="5"/>
<path d="M265.045 249.627C265.045 259.662 270.943 270.9 282.227 270.9" fill="none" opacity="1" stroke="#fa4485" stroke-linecap="round" stroke-linejoin="round" stroke-width="5"/>
<path d="M282.773 213.627C282.773 228.454 269.475 257.329 282.227 270.081" fill="none" opacity="1" stroke="#fa4485" stroke-linecap="round" stroke-linejoin="round" stroke-width="5"/>
</g>
</svg>
