<?xml version="1.0" encoding="UTF-8" standalone="no"?>
<!DOCTYPE svg PUBLIC "-//W3C//DTD SVG 1.1//EN" "http://www.w3.org/Graphics/SVG/1.1/DTD/svg11.dtd">
<!-- Created with Vectornator (http://vectornator.io/) -->
<svg height="100%" stroke-miterlimit="10" style="fill-rule:nonzero;clip-rule:evenodd;stroke-linecap:round;stroke-linejoin:round;" version="1.1" viewBox="11.0773 46.51 309.894 158.134" width="100%" xml:space="preserve" xmlns="http://www.w3.org/2000/svg" xmlns:xlink="http://www.w3.org/1999/xlink">
<defs/>
<g id="bangs-6">
<path d="M164.031 49.0312C159.227 48.9391 154.439 49.1365 149.031 49.8125C144.911 50.3275 140.597 49.3538 136.469 49.8125C129.31 50.6079 120.573 51.7882 113.75 54.0625C105.996 56.6473 98.2081 60.0441 91.0312 64.0312C89.0399 65.1375 87.3653 66.8017 85.3438 67.8125C76.4555 72.2566 68.3191 78.3168 61.6562 85.8125C53.7529 94.7037 47.4199 106.117 42.375 116.812C39.9533 121.947 38.3948 127.387 35.375 132.219C33.3797 135.411 30.6722 138.396 28.5 141.438C26.4702 144.279 24.3399 147.035 21.875 149.5C21.3658 150.009 19.0377 151.418 18.8125 152.094C18.5831 152.782 21.132 150.94 21.1875 150.906C22.6181 150.048 24.4826 150.681 25.9062 149.969C27.4448 149.199 28.6524 147.839 29.9375 146.875C30.8686 146.177 32.792 146.579 33.9688 145.938C35.7655 144.957 36.9458 143.462 38.4688 142.156C38.7971 141.875 41.0481 140.321 41.5312 140.031C42.1697 139.648 43.964 138.317 43.4375 138.844C41.6331 140.648 42.25 143.028 42.25 144.531C42.25 144.926 41.4591 144.852 41.3125 145.219C40.2048 147.988 38.4242 151.387 38.2188 154.469C38.1344 155.733 37.7184 159.044 39.1562 159.906C39.4702 160.095 39.7161 160.086 39.9688 160.125C40.026 161.708 40.2441 164.94 41.3125 164.406C42.3323 163.896 40.0416 161.358 40.8125 160.844C45.4262 157.768 41.273 170.536 41.3125 170.812C41.5979 172.81 43.9156 171.974 44.625 173.156C45.1326 174.002 44.5213 174.975 44.8438 175.781C45.9987 178.669 47.3803 181.453 48.4062 184.531C48.6571 185.284 49.6883 185.318 49.8125 186.188C49.9577 187.204 49.9522 194.719 51 194.719C51.0615 194.719 50.9278 188.962 51 188.312C51.3839 184.858 53.0084 181.162 54.0938 177.906C55.3783 174.053 58.0527 166.974 60 163.469C61.643 160.511 65.19 158.856 67.3438 156.344C69.1354 154.253 70.3048 150.943 72.5625 149.25C72.8628 149.025 74.5093 149.184 74.9062 149.25C80.5776 150.195 78.4688 156.751 78.4688 161.094C78.4687 161.36 78.1382 164.794 78.4688 165.125C78.7183 165.375 79.1567 164.906 79.4062 164.656C81.5298 162.533 83.524 159.739 85.3438 157.312C86.5396 155.718 87.0221 154.085 87.7188 152.344C88.7919 149.661 93.3342 146.472 95.2812 144.281C98.1413 141.064 99.5141 136.811 101.188 132.906C102.837 129.057 104.009 125.42 105.938 121.562C106.283 120.872 107.565 116.815 109 118.25C111.023 120.273 110.188 123.659 110.188 126.062C110.188 128.228 111.291 129.498 111.625 131.5C112.116 134.447 110.88 137.623 110.438 140.5C110.376 140.902 110 142.854 109.594 144.875C110.166 144.133 110.747 143.348 111.25 142.781C111.878 142.074 112.44 141.506 113.156 140.938C113.546 140.628 113.976 140.318 114.469 140.031C114.773 139.854 115.204 139.806 115.531 139.656C115.811 139.413 115.983 139.225 116.281 138.969C116.341 138.918 116.409 138.893 116.469 138.844C117.507 137.252 118.659 135.755 119.656 134.094C121.666 130.745 120.561 126.83 122.5 123.438C127.814 114.138 128.29 107.589 130.781 97.625C131.18 96.0316 133.371 85.3125 135.281 85.3125C136.362 85.3125 137.802 93.729 137.906 94.5625C138.548 99.698 138.815 105.164 140.25 110.188C141.055 113.006 143.027 115.635 143.594 118.469C144.058 120.792 144.374 123.154 145.469 125.344C145.899 126.205 146.552 127.174 147.125 127.938C155.325 138.87 150.285 117.738 153.062 116.812C154.156 116.448 157.893 120.237 158.5 120.844C161.121 123.465 160.959 127.256 162.281 130.562C163.456 133.5 166.118 136.324 167.031 139.062C167.323 139.937 169.324 146.389 169.375 146.406C170.029 146.624 171.329 143.85 171.531 143.344C172.855 140.034 174.676 136.197 176.5 133.156C183.225 121.949 188.264 109.696 190.469 96.4688C190.943 93.6212 192.185 90.7992 192.594 87.9375C192.907 85.7445 191.912 83.1899 192.125 80.8438C192.197 80.0485 192.149 75.6658 193.312 75.375C194.277 75.1338 195.297 78.2087 195.656 78.6875C196.86 80.2929 199.201 80.6432 200.406 82.25C201.693 83.9658 201.972 86.2235 203 87.9375C204.154 89.861 206.127 91.2324 207.281 93.1562C208.463 95.125 208.244 97.9186 208.938 100C209.653 102.148 211.395 104.088 211.781 106.406C212.399 110.113 212.921 114.072 213.656 117.75C214.165 120.292 216.953 121.228 217.219 124.156C217.518 127.45 216.414 130.905 215.094 133.875C214.703 134.753 213.188 136.763 213.188 137.656C213.188 138.495 214.32 136.405 214.844 135.75C215.719 134.656 216.853 133.8 217.688 132.688C219.012 130.921 220.904 129.516 222.188 127.719C223.153 126.366 223.424 123.889 224.562 122.75C225.654 121.658 227.972 120.958 229.281 120.125C229.737 119.835 233.651 115.833 234.031 116.594C236.312 121.156 237.134 126.608 238.531 131.5C239.495 134.871 242.315 137.227 243.25 140.5C244.243 143.977 244.256 147.483 245.625 150.906C246.466 153.01 248.603 155.072 250.125 156.594C252.169 158.637 253.3 161.894 255.344 163.938C255.795 164.389 261.921 166.329 262.438 165.812C262.943 165.307 262.001 157.813 264.812 160.625C268.757 164.569 269.514 169.09 271.906 173.875C272.763 175.589 274.107 177.596 274.5 179.562C274.94 181.763 274.969 183.935 274.969 186.188C274.969 186.464 275.038 189.84 275.219 189.75C277.587 188.566 278.231 179.542 278.531 177.438C279.082 173.581 282.216 170.509 283.281 166.781C284.572 162.264 284.552 155.023 285.156 150.188C285.307 148.979 284.813 139.187 284.938 139.062C285.69 138.31 290.37 140.311 291.312 140.5C292.3 140.698 293.86 139.926 294.875 139.781C298.672 139.239 302.463 139.904 306.25 139.062C306.667 138.97 312.406 138.587 312.406 138.375C312.406 137.642 309.761 136.918 309.312 136.469C306.033 133.19 300.389 136.327 296.75 132.688C295.373 131.311 294.804 129.427 293.688 127.938C292.229 125.993 289.919 124.888 288.25 123.219C284.748 119.716 280.87 116.089 277.344 112.562C274.637 109.856 276.376 103.846 274.031 100.719C270.333 95.7873 267.007 89.9135 262.656 85.5625C260.716 83.6225 259.831 82.6342 258.065 80.4266C256.768 78.805 253.644 77.048 252.25 75.375C247.232 69.3539 239.213 65.1593 232.594 61.1875C229.404 59.2737 225.396 58.2896 221.938 56.9062C216.13 54.5831 210.644 52.1861 204.188 51.4688C195.814 50.5383 187.431 50.8963 179.094 50.0625C173.651 49.5182 168.836 49.1234 164.031 49.0312ZM44.0938 146.469C43.9724 146.935 43.8092 147.385 43.6562 147.844C43.2546 149.049 42.7181 150.15 42.2188 151.281C42.2252 151.163 42.2382 150.77 42.25 150.688C42.4635 149.193 43.3422 147.845 44.0938 146.469Z" fill="#ffacca" fill-rule="nonzero" opacity="1" stroke="#ffacca" stroke-linecap="round" stroke-linejoin="round" stroke-width="5"/>
<path d="M139.748 71.2859C132.027 86.7285 136.249 125.833 152.994 134.206" fill="none" opacity="1" stroke="#fa4485" stroke-linecap="round" stroke-linejoin="round" stroke-width="5"/>
<path d="M154.65 136.524C151.702 133.575 152.994 127.011 152.994 123.278C152.994 121.948 152.137 118.709 153.326 119.304C159.072 122.177 166.292 149.134 167.565 149.77" fill="none" opacity="1" stroke="#fa4485" stroke-linecap="round" stroke-linejoin="round" stroke-width="5"/>
<path d="M167.897 150.432C188.162 130.167 193.064 105.677 193.064 78.5713" fill="none" opacity="1" stroke="#fa4485" stroke-linecap="round" stroke-linejoin="round" stroke-width="5"/>
<path d="M194.72 77.909C196.212 83.8749 201.449 88.8039 204.655 93.8045C212.826 106.551 216.295 127.625 210.616 141.822" fill="none" opacity="1" stroke="#fa4485" stroke-linecap="round" stroke-linejoin="round" stroke-width="5"/>
<path d="M209.953 144.803C213.073 141.683 232.452 118.641 233.134 118.641" fill="none" opacity="1" stroke="#fa4485" stroke-linecap="round" stroke-linejoin="round" stroke-width="5"/>
<path d="M233.134 119.304C230.285 125.002 244.45 156.949 249.692 161.692C251.347 163.189 263.601 171.27 263.601 172.951C263.601 175.025 261.323 169.362 260.952 167.321C260.672 165.786 260.498 164.232 260.289 162.685C258.881 152.265 259.341 156.837 258.965 144.803C258.851 141.16 258.693 137.518 258.634 133.875C258.536 127.895 259.152 121.611 258.302 115.661" fill="none" opacity="1" stroke="#fa4485" stroke-linecap="round" stroke-linejoin="round" stroke-width="5"/>
<path d="M136.437 86.1879C126.919 105.224 125.747 136.586 105.97 149.77" fill="none" opacity="1" stroke="#fa4485" stroke-linecap="round" stroke-linejoin="round" stroke-width="5"/>
<path d="M107.957 118.641C107.957 129.689 109.018 139.565 106.301 150.432" fill="none" opacity="1" stroke="#fa4485" stroke-linecap="round" stroke-linejoin="round" stroke-width="5"/>
<path d="M107.957 119.635C102.936 129.678 98.9875 139.783 92.7238 149.439C88.6003 155.796 81.5519 160.192 78.1529 166.99" fill="none" opacity="1" stroke="#fa4485" stroke-linecap="round" stroke-linejoin="round" stroke-width="5"/>
<path d="M77.4906 170.633C77.4906 159.886 73.7925 149.803 72.5232 139.173C69.5832 114.551 75.5836 85.8127 92.0615 66.9808" fill="none" opacity="1" stroke="#fa4485" stroke-linecap="round" stroke-linejoin="round" stroke-width="5"/>
<path d="M243.4 78.5713C249.936 78.5713 258.302 107.599 258.302 114.667" fill="none" opacity="1" stroke="#fa4485" stroke-linecap="round" stroke-linejoin="round" stroke-width="5"/>
<path d="M41.9339 115.417C35.0373 129.206 25.7789 143.599 13.5773 152.751" fill="none" opacity="1" stroke="#fa4485" stroke-linecap="round" stroke-linejoin="round" stroke-width="5"/>
<path d="M15.5642 153.413C22.4131 153.413 33.4731 149.82 37.7517 144.472" fill="none" opacity="1" stroke="#fa4485" stroke-linecap="round" stroke-linejoin="round" stroke-width="5"/>
<path d="M39.7387 147.452C32.3278 158.568 41.3922 179.862 46.693 189.84C46.827 190.092 55.3124 203.058 55.6342 202.093C56.6851 198.94 54.1183 193.036 54.6408 189.509C56.7041 175.582 65.8278 161.966 73.5167 150.432" fill="none" opacity="1" stroke="#fa4485" stroke-linecap="round" stroke-linejoin="round" stroke-width="5"/>
<path d="M260.289 158.049C269.636 172.07 274.468 184.591 269.562 201.762" fill="none" opacity="1" stroke="#fa4485" stroke-linecap="round" stroke-linejoin="round" stroke-width="5"/>
<path d="M269.231 201.099C268.488 203.327 272.979 196.02 273.536 195.139C276.487 190.465 279.428 185.375 281.483 180.237C286.348 168.074 287.113 155.046 287.113 142.153" fill="none" opacity="1" stroke="#fa4485" stroke-linecap="round" stroke-linejoin="round" stroke-width="5"/>
<path d="M278.08 107.553C283.455 114.582 289.627 121.023 295.723 126.589C300.097 130.582 304.73 133.444 310.294 135.53C312.051 136.189 313.556 136.759 315.261 137.517C316.255 137.959 319.329 138.842 318.242 138.842C308.565 138.842 297.315 146.096 288.107 141.491" fill="none" opacity="1" stroke="#fa4485" stroke-linecap="round" stroke-linejoin="round" stroke-width="5"/>
<path d="M36.7583 146.79L37.4206 145.465L38.0829 144.472L38.7452 143.478L39.4075 142.816L40.0698 142.153L40.401 141.491L41.0633 140.829L41.7256 140.167L41.3945 140.829L41.3945 141.822L41.0633 142.485L40.401 143.809L40.0698 145.465L39.4075 147.121L39.4075 148.114" fill="none" opacity="1" stroke="#fa4485" stroke-linecap="round" stroke-linejoin="round" stroke-width="5"/>
</g>
</svg>
