<?xml version="1.0" encoding="UTF-8" standalone="no"?>
<!DOCTYPE svg PUBLIC "-//W3C//DTD SVG 1.1//EN" "http://www.w3.org/Graphics/SVG/1.1/DTD/svg11.dtd">
<!-- Created with Vectornator (http://vectornator.io/) -->
<svg height="100%" stroke-miterlimit="10" style="fill-rule:nonzero;clip-rule:evenodd;stroke-linecap:round;stroke-linejoin:round;" version="1.1" viewBox="36.6253 31.6271 249.658 191.65" width="100%" xml:space="preserve" xmlns="http://www.w3.org/2000/svg" xmlns:xlink="http://www.w3.org/1999/xlink">
<defs/>
<g id="bangs-3">
<g opacity="1">
<path d="M159.213 34.1779C138.256 34.6775 117.533 38.8322 99.713 45.7716C76.027 54.9955 54.5471 80.8435 46.9318 104.678C45.79 108.252 39.265 126.276 42.3068 128.709C42.3449 128.74 40.9578 152.468 41.088 155.522C41.836 173.063 41.5701 188.284 45.6193 202.303C47.8923 203.402 49.704 204.299 52.1505 205.459C52.1601 205.464 52.1723 205.455 52.1818 205.459C53.9481 206.255 55.4144 206.904 58.7443 208.303C58.7503 208.305 62.6984 209.968 64.2443 210.647C65.6165 211.249 69.0124 212.812 69.463 213.022C69.4761 213.027 69.5178 213.038 69.5568 213.053C69.5941 213.069 69.5986 213.077 69.6818 213.115C69.7185 213.13 69.7681 213.144 69.7755 213.147C70.4665 213.417 70.8063 213.572 71.3693 213.865C71.7411 214.059 72.1217 214.278 72.5255 214.553C72.4005 213.232 72.3575 212.542 72.1505 210.865C69.097 186.124 68.9114 155.753 75.7443 131.709C76.6458 128.537 81.5342 109.883 84.6505 109.178C86.8415 108.682 86.5527 111.046 86.6818 112.053C87.5736 119.009 80.933 133.913 91.4005 134.678C96.8917 135.079 112.418 136.474 115.619 130.959C117.796 127.209 127.65 94.742 133.619 97.8966C136.423 99.3785 126.797 130.341 129.588 133.334C131.62 135.513 140.308 134.626 143.088 134.615C149.652 134.59 181.303 137.495 184.244 132.428C187.34 127.094 185.992 112.727 185.901 106.584C185.891 105.948 185.185 99.1801 185.963 99.0841C193.669 98.1331 192.742 128.447 194.494 130.709C196.923 133.844 209.264 130.746 212.932 131.053C215.62 131.278 223.425 133.101 225.588 131.147C229.32 127.774 224.914 110.619 224.369 105.772C224.304 105.194 223.672 104.332 224.182 104.053C225.27 103.457 231.09 111.097 231.713 112.022C237.551 120.677 240.559 131.06 242.869 141.272C248.51 166.208 247.788 194.068 242.713 219.053C242.683 219.201 242.619 219.343 242.588 219.49C245.556 218.136 248.705 216.806 252.338 215.49C255.027 214.516 263.666 211.568 264.244 211.365C265.299 210.995 266.222 210.657 267.088 210.334C267.214 210.287 271.159 208.794 272.494 208.303C273.183 208.05 273.832 207.808 274.463 207.584C274.703 207.499 274.855 207.478 275.088 207.397C277.583 196.796 278.309 185.768 279.682 174.959C283.09 148.116 283.437 118.985 272.182 93.7716C252.519 49.725 205.319 33.0788 159.213 34.1779Z" fill="#ffacca" fill-rule="nonzero" stroke="none"/>
<path d="M159.913 32.4429C143.829 32.9453 127.863 35.293 112.418 39.8582C105.366 41.9427 98.2858 44.3425 91.8033 47.8526C73.8991 57.5475 59.0222 74.475 50.0323 92.6035C47.6162 97.4756 45.807 102.538 44.0955 107.686C42.7439 111.75 41.431 115.851 40.4831 120.032C40.2914 120.877 40.1121 121.723 39.9648 122.577C39.6592 124.35 39.0284 127.922 40.3459 129.619C40.2011 131.137 40.1975 132.688 40.1173 134.207C39.8537 139.193 39.592 144.186 39.378 149.175C39.1103 155.418 39.3914 161.593 39.6143 167.839C39.8607 174.745 40.1387 181.664 40.9632 188.53C41.4084 192.237 42.0168 195.932 42.8837 199.565C43.1411 200.644 43.4218 202.688 44.2784 203.543C44.7829 204.047 45.8705 204.441 46.4732 204.732C46.8211 204.9 47.1694 205.067 47.5173 205.235C48.6385 205.776 49.7836 206.458 50.9925 206.798C50.9453 206.801 50.899 206.805 50.9239 206.843C51.0976 207.108 51.5029 207.103 51.7927 207.232C52.7648 207.663 53.7408 208.088 54.7192 208.505C59.244 210.43 63.7402 212.399 68.2466 214.365C68.7753 214.596 69.3212 214.784 69.8394 215.044C70.902 215.575 71.6527 216.411 73.086 215.554C73.3048 215.423 73.5053 215.267 73.688 215.089C73.8246 214.956 73.9289 214.793 74.031 214.632C74.5108 213.875 74.1244 212.37 74.0462 211.645C73.8266 209.605 73.5512 207.571 73.3299 205.532C73.0393 202.856 72.7834 200.176 72.5754 197.492C72.2315 193.055 71.9925 188.604 71.8742 184.155C71.5171 170.715 72.1519 157.149 74.4959 143.893C75.3978 138.793 76.6592 133.784 78.0397 128.796C79.2575 124.396 80.5366 120.002 82.1627 115.733C82.8349 113.969 83.5237 111.939 84.731 110.429C84.7668 110.436 84.7839 110.427 84.7996 110.444C84.8736 110.528 84.9276 110.635 84.9596 110.742C85.112 111.25 85.1106 111.772 85.1501 112.296C85.2849 114.086 85.2176 115.778 84.9977 117.57C84.4617 121.938 83.0275 127.383 84.5862 131.654C85.9703 135.446 89.28 135.764 92.794 136.005C94.4096 136.117 96.0223 136.216 97.641 136.265C98.8854 136.302 100.131 136.316 101.375 136.295C103.082 136.267 104.794 136.18 106.489 135.975C109.569 135.603 112.974 134.904 115.383 132.805C117.579 130.891 118.483 127.202 119.468 124.566C121.317 119.615 123.153 114.649 125.29 109.812C126.653 106.728 128.096 103.568 130.084 100.827C130.428 100.352 131.609 98.6893 132.324 98.7309C133.046 98.7728 132.883 100.015 132.866 100.606C132.798 102.853 132.368 105.106 131.966 107.312C130.722 114.151 128.98 120.93 128.133 127.836C127.842 130.206 127.091 133.779 129.825 134.931C131.184 135.504 132.726 135.634 134.184 135.716C137.323 135.892 140.446 135.519 143.581 135.586C153.179 135.792 162.756 136.671 172.366 136.196C175.553 136.038 178.924 135.849 181.96 134.778C183.198 134.342 184.428 133.705 185.154 132.568C185.839 131.494 186.204 130.153 186.48 128.926C187.079 126.258 187.226 123.489 187.28 120.763C187.376 115.903 187.168 110.992 186.891 106.139C186.819 104.862 186.665 103.591 186.625 102.313C186.601 101.577 186.64 100.839 186.655 100.103C187.489 100.463 188.054 101.121 188.545 101.993C189.802 104.222 190.348 106.872 190.809 109.362C191.812 114.784 192.13 120.297 192.653 125.778C192.787 127.184 192.801 130.083 193.666 131.258C194.115 131.866 194.861 132.214 195.564 132.431C197.321 132.973 199.256 132.915 201.066 132.82C204.137 132.659 207.169 132.146 210.227 131.86C213.634 131.541 216.965 132.555 220.363 132.721C221.907 132.796 223.651 132.818 225.096 132.157C227.898 130.875 227.956 127.114 227.9 124.482C227.804 119.944 226.937 115.428 226.109 110.978C225.857 109.622 225.597 108.269 225.37 106.908C225.302 106.499 225.249 106.083 225.18 105.674C225.973 106.376 226.719 107.12 227.428 107.952C229.539 110.432 231.438 112.935 233.06 115.764C238.135 124.618 240.809 134.764 242.853 144.693C246.256 161.227 246.892 178.314 245.543 195.114C245.023 201.591 244.197 208.043 243.066 214.441C242.973 214.968 242.881 215.494 242.784 216.019C242.591 217.064 242.381 218.109 242.174 219.151C242.119 219.43 241.883 219.787 242.373 219.875C242.908 219.972 243.738 219.39 244.179 219.197C244.69 218.973 245.198 218.747 245.711 218.526C246.235 218.301 246.761 218.082 247.288 217.863C250.535 216.518 253.839 215.35 257.157 214.198C261.841 212.571 266.511 210.929 271.15 209.183C272.053 208.843 272.956 208.5 273.863 208.169C274.189 208.05 275.067 207.882 275.372 207.544C275.714 207.165 275.746 206.47 275.852 205.99C275.95 205.545 276.049 205.102 276.142 204.656C276.234 204.21 276.314 203.762 276.401 203.315C276.487 202.868 276.578 202.421 276.66 201.973C276.741 201.525 276.812 201.081 276.888 200.632C277.811 195.237 278.424 189.793 279.015 184.353C279.85 176.659 280.901 168.988 281.507 161.269C282.587 147.503 282.548 133.548 280.303 119.895C278.652 109.857 275.762 100.001 271.317 90.8354C268.372 84.7622 264.771 79.0058 260.564 73.7262C236.659 43.7234 197.412 33.4529 160.522 33.8299C160.572 33.1806 160.357 32.6226 159.913 32.4429ZM160.37 34.5234C195.637 34.1878 233.082 43.5658 257.119 71.0359C261.177 75.6725 264.756 80.7004 267.789 86.0647C272.062 93.6219 275.226 101.765 277.376 110.17C282.798 131.359 281.897 153.533 279.266 175.056C278.381 182.293 277.704 189.563 276.629 196.776C276.228 199.468 275.773 202.152 275.212 204.816C275.095 205.372 274.963 205.929 274.838 206.485C274.796 206.675 274.759 206.868 274.709 207.057C274.701 207.088 274.697 207.099 274.678 207.148C274.568 207.179 274.515 207.196 274.434 207.224C274.218 207.299 274.002 207.375 273.787 207.453C272.875 207.783 271.967 208.12 271.058 208.459C268.778 209.31 266.51 210.179 264.215 210.989C258.514 213 252.738 214.793 247.143 217.094C246.09 217.527 245.041 217.981 243.996 218.435C243.758 218.538 243.524 218.641 243.287 218.747C243.378 218.294 243.472 217.836 243.562 217.383C243.665 216.859 243.767 216.338 243.866 215.813C244.266 213.696 244.631 211.571 244.964 209.442C246.063 202.412 246.794 195.33 247.166 188.225C248.258 167.385 246.275 145.496 239.324 125.709C238.162 122.402 236.778 119.158 235.117 116.069C233.943 113.883 232.64 111.784 231.116 109.827C230.233 108.693 229.341 107.573 228.396 106.489C228.117 106.17 227.853 105.877 227.565 105.567C226.736 104.674 225.138 102.587 223.724 103.692C223.539 103.837 223.378 104.022 223.274 104.233C222.989 104.816 223.437 105.412 223.564 105.963C223.904 107.436 224.04 109.003 224.311 110.49C225.182 115.277 226.155 120.128 226.239 125.008C226.268 126.72 226.379 129.26 225.187 130.671C224.463 131.527 221.953 131.349 221.087 131.303C220.673 131.281 220.258 131.24 219.845 131.204C217.488 131.001 215.132 130.336 212.765 130.305C209.356 130.261 205.944 131.04 202.553 131.28C200.725 131.41 198.778 131.533 196.982 131.075C194.831 130.525 194.933 129.164 194.703 127.173C194.532 125.69 194.415 124.201 194.291 122.714C194.139 120.883 193.993 119.057 193.819 117.227C193.346 112.247 192.931 106.815 190.969 102.145C190.199 100.314 188.949 98.329 186.747 98.2507C184.951 98.1869 184.628 99.8426 184.605 101.215C184.577 102.865 184.725 104.517 184.849 106.161C185.044 108.754 185.059 111.375 185.146 113.973C185.269 117.639 185.337 121.326 185.032 124.985C184.864 127 184.607 129.071 183.919 130.983C183.75 131.453 183.568 132.034 183.241 132.424C182.529 133.272 180.34 133.611 179.331 133.788C176.225 134.332 173.036 134.436 169.889 134.489C161.598 134.628 153.339 133.964 145.059 133.689C140.99 133.553 136.832 134.294 132.805 133.498C132.058 133.351 131.172 133.142 130.625 132.568C130.214 132.138 130.27 131.172 130.267 130.64C130.255 128.648 130.596 126.662 130.915 124.703C131.987 118.11 133.627 111.624 134.756 105.041C135.103 103.016 135.52 100.88 135.381 98.8147C135.334 98.1291 135.212 97.3169 134.55 96.9475C133.039 96.1044 131.237 97.0112 130.061 98.0069C127.652 100.046 126.08 103.159 124.696 105.933C122.098 111.139 119.986 116.579 117.921 122.013C117.113 124.138 116.329 126.272 115.49 128.384C115.016 129.577 114.62 130.953 113.554 131.761C112.081 132.877 110.044 133.256 108.265 133.529C106.717 133.766 105.15 133.88 103.585 133.933C102.376 133.973 101.168 133.973 99.9578 133.948C98.8173 133.924 97.6749 133.874 96.536 133.811C93.4369 133.637 89.0549 134.04 87.5584 130.64C86.8289 128.983 86.8247 127.053 86.9182 125.283C87.0026 123.686 87.2169 122.101 87.4441 120.519C87.6175 119.312 87.8071 118.11 87.9623 116.899C88.0834 115.955 88.1295 115.547 88.2062 114.606C88.2982 113.475 88.2376 112.379 88.1604 111.252C88.0127 109.095 87.4622 107.241 84.7615 107.975C84.2977 108.101 84.0254 108.225 83.6183 108.486C81.6212 109.765 80.5633 112.595 79.7087 114.659C78.0329 118.706 76.7719 122.926 75.5476 127.127C73.8768 132.86 72.3523 138.63 71.2874 144.511C68.8604 157.914 68.2238 171.623 68.5362 185.222C68.7016 192.423 69.1667 199.618 69.9004 206.782C70.0627 208.368 70.2505 209.954 70.4262 211.538C69.7572 211.246 69.0936 210.941 68.4371 210.639C67.8963 210.389 67.3557 210.139 66.8138 209.892C63.6356 208.442 60.3949 207.124 57.1884 205.738C56.2246 205.322 55.2651 204.897 54.3077 204.465C54.0182 204.335 53.7411 204.174 53.4389 204.077C53.429 204.074 53.4184 204.072 53.4084 204.069C53.0959 203.785 52.6469 203.705 52.2652 203.52C51.2031 203.008 50.1386 202.492 49.0796 201.973C48.7286 201.801 48.3789 201.627 48.0279 201.455C47.8264 201.356 47.5255 201.287 47.3878 201.105C47.1243 200.756 47.0208 200.083 46.9381 199.748C46.7932 199.16 46.6341 198.569 46.4961 197.98C46.3585 197.393 46.232 196.81 46.1074 196.219C45.6035 193.831 45.2083 191.415 44.8881 188.995C43.4892 178.424 43.481 167.718 43.0819 157.078C42.9324 153.094 43.1509 149.14 43.3486 145.158C43.5849 140.399 43.8507 135.642 44.1107 130.884C44.1613 129.957 44.4673 128.756 44.2098 127.828C43.9829 127.01 43.7682 127.545 43.5696 126.647C43.2287 125.105 43.5571 123.336 43.8211 121.823C44.7074 116.743 46.3825 111.786 48.0203 106.908C49.4677 102.598 50.9708 98.3419 52.9283 94.2268C61.1147 77.0167 74.9628 60.7453 91.6204 51.2593C98.4424 47.3743 106.009 44.8588 113.531 42.7008C128.176 38.4989 143.296 36.3677 158.51 35.9104C159.132 36.1619 159.953 35.5866 160.34 34.6301C160.354 34.5939 160.357 34.5597 160.37 34.5234Z" fill="#ffacca" stroke="none"/>
</g>
<path d="M84.5823 133.825C84.5823 116.358 86.5848 103.586 93.8661 87.4055C95.1775 84.4913 98.8227 74.0641 102.045 73.2586" fill="none" opacity="1" stroke="#fa4485" stroke-linecap="round" stroke-linejoin="round" stroke-width="5"/>
<path d="M213.451 74.3639C219.341 86.1428 223.179 98.5428 225.609 111.499C226.566 116.607 226.297 121.866 226.935 126.972C227.08 128.134 226.621 129.439 227.156 130.509" fill="none" opacity="1" stroke="#fa4485" stroke-linecap="round" stroke-linejoin="round" stroke-width="5"/>
<path d="M85.2454 134.488C89.8946 134.488 112.771 135.698 115.086 133.383" fill="none" opacity="1" stroke="#fa4485" stroke-linecap="round" stroke-linejoin="round" stroke-width="5"/>
<path d="M115.971 133.825C115.971 135.431 116.909 130.109 117.076 129.625C118.207 126.346 118.838 124.078 120.17 120.783C123.658 112.157 128.103 104.532 133.654 97.1314" fill="none" opacity="1" stroke="#fa4485" stroke-linecap="round" stroke-linejoin="round" stroke-width="5"/>
<path d="M134.538 97.1314C134.538 96.3946 134.624 98.6101 134.538 99.3419C134.138 102.746 133.195 106.149 132.549 109.51C130.966 117.741 129.896 126.098 129.896 134.488" fill="none" opacity="1" stroke="#fa4485" stroke-linecap="round" stroke-linejoin="round" stroke-width="5"/>
<path d="M186.484 94.0368C190.13 101.329 191.474 109.696 192.673 117.689C193.082 120.414 193.457 123.156 193.999 125.867C194.156 126.652 194.441 130.857 194.441 129.404" fill="none" opacity="1" stroke="#fa4485" stroke-linecap="round" stroke-linejoin="round" stroke-width="5"/>
<path d="M194.662 131.393C193.568 130.846 197.708 131.172 197.978 131.172C200.557 131.172 203.136 131.172 205.715 131.172C212.673 131.172 219.572 131.835 226.493 131.835" fill="none" opacity="1" stroke="#fa4485" stroke-linecap="round" stroke-linejoin="round" stroke-width="5"/>
<path d="M185.379 92.4895C184.999 91.7304 185.711 96.4361 185.821 97.1314C186.207 99.5793 186.705 101.707 186.705 104.205C186.705 113.142 185.6 122.065 185.6 130.951" fill="none" opacity="1" stroke="#fa4485" stroke-linecap="round" stroke-linejoin="round" stroke-width="5"/>
<path d="M130.338 134.93C144.297 134.93 158.353 135.151 172.337 135.151C174.731 135.151 183.52 136.215 184.936 133.383" fill="none" opacity="1" stroke="#fa4485" stroke-linecap="round" stroke-linejoin="round" stroke-width="5"/>
<path d="M47.5092 101.459C37.3688 133.323 36.5462 175.606 44.3952 204.078" fill="none" opacity="1" stroke="#fa4485" stroke-linecap="round" stroke-linejoin="round" stroke-width="5"/>
<path d="M74.8057 217.311C73.8944 212.371 73.2262 207.419 73.0355 202.653C71.8235 172.354 69.9582 132.815 87.7628 106.108" fill="none" opacity="1" stroke="#fa4485" stroke-linecap="round" stroke-linejoin="round" stroke-width="5"/>
<path d="M272.026 91.9525C284.685 117.423 286.224 151.392 280.892 185.57C279.345 195.486 278.424 201.652 277.192 206.734" fill="none" opacity="1" stroke="#fa4485" stroke-linecap="round" stroke-linejoin="round" stroke-width="5"/>
<path d="M225.217 103.653C247.777 126.213 250.624 179.683 243.249 219.407" fill="none" opacity="1" stroke="#fa4485" stroke-linecap="round" stroke-linejoin="round" stroke-width="5"/>
<path d="M44.9956 203.476C44.5745 204.318 69.1286 217.622 73.942 217.622" fill="none" opacity="1" stroke="#fa4485" stroke-linecap="round" stroke-linejoin="round" stroke-width="5"/>
<path d="M243.703 220.669C243.469 221.137 245.147 219.961 246.097 219.581C248.548 218.601 251.016 217.638 253.497 216.752C261.113 214.032 268.643 211.137 275.696 207.611" fill="none" opacity="1" stroke="#fa4485" stroke-linecap="round" stroke-linejoin="round" stroke-width="5"/>
</g>
</svg>
