<?xml version="1.0" encoding="UTF-8" standalone="no"?>
<!DOCTYPE svg PUBLIC "-//W3C//DTD SVG 1.1//EN" "http://www.w3.org/Graphics/SVG/1.1/DTD/svg11.dtd">
<!-- Created with Vectornator (http://vectornator.io/) -->
<svg height="100%" stroke-miterlimit="10" style="fill-rule:nonzero;clip-rule:evenodd;stroke-linecap:round;stroke-linejoin:round;" version="1.1" viewBox="36.6253 31.6271 249.658 224.08" width="100%" xml:space="preserve" xmlns="http://www.w3.org/2000/svg" xmlns:xlink="http://www.w3.org/1999/xlink">
<defs/>
<g id="bangs-2">
<g opacity="1">
<path d="M42.3089 128.726C42.347 128.757 40.9444 152.492 41.0746 155.546C42.3117 184.56 40.5966 207.315 60.642 228.574C62.041 230.058 60.4834 228.676 62.1348 230.177C64.7485 232.552 76.3236 244.318 80.228 243.723C82.1127 243.436 76.2501 234.45 75.9636 233.592C72.6375 223.626 73.4369 221.389 72.1392 210.874C69.0856 186.133 68.9096 155.764 75.7425 131.72C76.6441 128.548 81.5381 109.887 84.6545 109.182C86.8454 108.687 86.5613 111.069 86.6904 112.076C87.5822 119.032 80.9432 133.923 91.4107 134.688C96.9018 135.089 112.432 136.499 115.634 130.984C117.81 127.234 127.638 94.7567 133.607 97.9113C136.411 99.3931 126.797 130.36 129.588 133.353C131.62 135.532 140.319 134.648 143.099 134.638C149.663 134.613 181.296 137.502 184.237 132.436C187.333 127.102 185.985 112.749 185.893 106.606C185.883 105.97 185.191 99.1863 185.969 99.0903C193.674 98.1393 192.749 128.444 194.502 130.706C196.93 133.84 209.269 130.768 212.936 131.074C215.625 131.299 223.425 133.127 225.588 131.172C229.319 127.8 224.929 110.639 224.385 105.792C224.32 105.214 223.681 104.339 224.19 104.06C225.279 103.464 231.091 111.102 231.715 112.027C237.553 120.683 240.559 131.061 242.869 141.273C248.51 166.21 247.78 194.072 242.705 219.057C240.873 228.076 237.692 237.007 235.939 245.846C235.824 246.426 235.517 247.213 235.946 247.62C238.098 249.668 245.154 242.22 246.693 241.045C254.229 235.289 267.955 227.808 271.617 218.634C277.163 204.742 277.831 189.666 279.697 174.973C283.106 148.13 283.442 119.008 272.187 93.7945C243.587 29.7268 156.739 23.5813 99.7158 45.7876C76.0298 55.0115 54.5509 80.8566 46.9356 104.691C45.7938 108.265 39.267 126.293 42.3089 128.726Z" fill="#ffacca" fill-rule="nonzero" stroke="none"/>
<path d="M165.59 33.7978C160.678 33.7409 155.796 33.89 150.984 34.2265C144.414 34.6862 137.862 35.4994 131.379 36.6609C123.113 38.1418 114.941 40.188 106.974 42.8463C103.502 44.0049 100.033 45.2298 96.6932 46.7352C87.8919 50.7029 79.995 56.5413 73.0768 63.2322C60.9052 75.0041 51.6177 89.5008 46.2606 105.558C44.4286 111.049 42.4753 116.583 41.4837 122.3C41.2602 123.589 40.7995 125.973 41.2387 127.666C40.4753 128.11 40.0311 128.793 40.2206 129.389C40.2225 129.326 40.2158 129.518 40.2129 129.58C40.2063 129.725 40.1972 129.888 40.19 130.032C40.1723 130.382 40.155 130.73 40.1364 131.081C40.0909 131.938 40.0448 132.795 39.9986 133.653C39.8564 136.292 39.7129 138.928 39.5776 141.568C39.3369 146.264 38.985 150.986 38.9958 155.692C39.0042 159.392 39.2631 163.116 39.3862 166.815C39.8253 180.017 40.1844 193.544 44.4539 206.178C46.3173 211.692 48.9352 216.931 52.247 221.718C53.8966 224.103 55.7038 226.377 57.6439 228.532C58.0505 228.983 58.4638 229.425 58.8764 229.871C58.929 229.928 59.2396 230.294 59.351 230.369C59.41 230.49 59.4761 230.606 59.5577 230.713C60.291 231.679 61.5144 232.537 62.3978 233.377C65.973 236.78 69.5891 240.251 73.6816 243.031C75.3373 244.155 77.6431 245.785 79.8135 245.358C82.0842 244.911 83.02 243.229 82.332 241.193C81.6465 239.165 80.5265 237.277 79.469 235.429C78.9819 234.578 78.2157 233.591 77.892 232.643C76.504 228.574 75.516 224.429 75.0825 220.149C74.3153 212.574 73.3965 205.005 72.8166 197.413C72.0031 186.766 71.8039 176.056 72.3726 165.391C72.8144 157.105 73.7141 148.82 75.3505 140.68C76.2234 136.338 77.3818 132.065 78.581 127.804C79.7257 123.736 80.9372 119.673 82.4469 115.724C82.9579 114.387 83.4864 113.047 84.1616 111.782C84.3201 111.485 84.4907 111.191 84.6745 110.909C84.7403 111.131 84.7596 111.205 84.7894 111.445C84.8593 112.01 84.8862 112.592 84.9348 113.16C85.0313 114.285 84.9469 115.423 84.8353 116.543C84.4006 120.906 83.2777 125.282 83.7942 129.687C84.0213 131.624 84.8272 133.577 86.4429 134.755C88.2609 136.081 90.5137 136.122 92.6666 136.271C94.2861 136.383 95.9049 136.481 97.5277 136.531C100.492 136.623 103.482 136.594 106.431 136.24C109.611 135.859 113.099 135.135 115.586 132.971C117.558 131.256 118.286 128.551 119.177 126.189C120.727 122.077 122.236 117.948 123.9 113.879C125.438 110.119 127.04 106.332 129.121 102.833C129.714 101.835 130.358 100.843 131.126 99.9697C131.382 99.6789 131.647 99.4019 131.961 99.1735C132.153 99.0335 132.382 99.1092 132.313 99.074C132.182 99.0071 132.413 99.3575 132.436 99.5027C132.452 99.6128 132.458 99.7208 132.466 99.8319C132.486 100.112 132.49 100.45 132.481 100.728C132.456 101.569 132.361 102.412 132.252 103.246C131.857 106.273 131.239 109.274 130.637 112.264C129.589 117.464 128.393 122.672 127.751 127.942C127.553 129.56 126.999 133.02 128.225 134.357C129.284 135.512 131.167 135.771 132.635 135.934C135.816 136.288 139.009 135.991 142.196 135.911C145.541 135.827 148.916 136.138 152.255 136.286C159.248 136.597 166.29 136.892 173.284 136.455C176.728 136.239 182.623 135.975 185.073 133.155C185.743 132.384 186.133 131.322 186.436 130.361C187.289 127.65 187.494 124.748 187.599 121.925C187.832 115.649 187.411 109.341 187.033 103.078C186.984 102.265 186.934 101.44 186.941 100.628C186.964 100.646 186.986 100.647 187.01 100.666C189.212 102.468 189.975 106.88 190.462 109.508C191.419 114.666 191.768 119.915 192.238 125.132C192.375 126.645 192.506 128.168 192.774 129.664C192.882 130.265 192.985 130.966 193.356 131.471C194.138 132.535 195.655 132.873 196.885 133.033C199.522 133.375 202.244 133.068 204.869 132.78C207.316 132.512 209.92 131.926 212.402 132.091C215.46 132.294 218.421 133.107 221.512 133.071C223.363 133.049 225.402 132.765 226.694 131.295C228.15 129.639 228.265 127.075 228.264 124.987C228.26 120.241 227.334 115.512 226.472 110.863C226.215 109.476 225.958 108.079 225.737 106.683C226.207 107.176 226.683 107.666 227.123 108.184C229.226 110.655 231.118 113.15 232.734 115.969C237.283 123.903 239.833 132.851 241.829 141.721C247.532 167.072 246.939 193.817 241.821 219.215C240.379 226.373 238.174 233.36 236.363 240.428C235.891 242.268 235.516 244.13 235.107 245.986C234.948 246.71 234.656 247.515 235.199 248.152C235.828 248.89 237.068 248.707 237.856 248.451C239.829 247.809 241.567 246.336 243.123 245.021C243.486 244.714 243.846 244.403 244.202 244.087C244.638 243.7 245.167 243.208 245.618 242.793C248.07 240.542 250.876 238.741 253.61 236.853C257.789 233.967 261.991 231.049 265.698 227.559C268.407 225.009 270.911 222.099 272.327 218.618C276.313 208.821 277.741 198.159 278.911 187.722C279.582 181.731 280.304 175.747 280.955 169.755C283.951 142.145 283.186 112.711 269.816 87.6754C266.704 81.8472 262.96 76.3726 258.663 71.3544C235.818 44.6757 199.98 34.1968 165.59 33.7978ZM164.756 34.4868C200.203 34.7856 237.138 45.8205 259.765 74.3017C264.11 79.7706 267.803 85.7676 270.781 92.0848C282.185 116.281 282.558 143.968 279.63 170.069C278.958 176.065 278.219 182.056 277.525 188.051C276.328 198.395 274.877 208.952 270.903 218.656C269.398 222.332 266.574 225.31 263.639 227.904C259.918 231.191 255.79 233.971 251.704 236.776C249.561 238.248 247.308 239.654 245.373 241.4C243.362 243.216 241.395 245.185 239.05 246.575C238.577 246.855 237.254 247.71 236.692 247.088C236.386 246.75 236.692 246.086 236.776 245.71C237.024 244.603 237.265 243.495 237.511 242.388C238.51 237.9 239.856 233.49 241.079 229.06C245.781 212.017 247.898 194.215 247.785 176.545C247.725 167.237 246.985 157.923 245.45 148.741C244.354 142.189 242.87 135.67 240.91 129.32C238.502 121.518 235.153 114.092 229.956 107.755C229.573 107.289 229.118 106.748 228.708 106.278C227.598 105.004 225.479 102.02 223.525 103.545C223.286 103.731 223.084 103.977 222.951 104.249C222.732 104.695 223.294 106.681 223.387 107.288C223.81 110.044 224.38 112.775 224.834 115.525C225.193 117.702 225.517 119.888 225.715 122.086C225.909 124.253 226.06 126.523 225.653 128.677C225.537 129.295 225.372 130.19 224.88 130.644C224.358 131.126 222.952 131.061 222.377 131.065C221.995 131.068 221.617 131.055 221.236 131.035C220.826 131.013 220.413 130.978 220.004 130.943C217.638 130.738 215.275 130.064 212.9 130.032C211.054 130.007 209.192 130.31 207.365 130.522C204.279 130.879 200.007 131.682 196.923 130.713C195.194 130.17 195.249 128.65 195.063 127.039C194.892 125.559 194.773 124.075 194.65 122.591C194.497 120.759 194.349 118.924 194.175 117.094C193.7 112.097 193.289 106.654 191.32 101.968C190.525 100.078 189.303 98.2073 187.102 97.964C183.623 97.5795 184.221 102.019 184.33 103.996C184.361 104.548 184.398 105.099 184.438 105.65C184.64 108.464 184.68 111.297 184.774 114.117C184.897 117.772 184.972 121.446 184.667 125.094C184.501 127.084 184.244 129.123 183.565 131.012C183.412 131.436 183.247 131.97 182.96 132.328C182.405 133.022 180.188 133.359 179.385 133.5C176.303 134.041 173.138 134.15 170.015 134.204C161.735 134.346 153.488 133.676 145.22 133.4C141.335 133.27 137.41 133.894 133.546 133.301C132.69 133.169 131.586 132.999 130.95 132.344C130.479 131.858 130.633 130.572 130.652 129.986C130.71 128.19 131.007 126.412 131.295 124.642C132.368 118.05 133.999 111.567 135.123 104.984C135.471 102.94 135.893 100.783 135.75 98.6989C135.698 97.9376 135.543 97.0868 134.816 96.6779C133.41 95.8871 131.673 96.5317 130.46 97.3746C127.882 99.1663 126.241 102.3 124.834 105.014C121.845 110.781 119.559 116.913 117.271 122.981C116.512 124.992 115.773 127.006 114.966 128.998C114.62 129.853 114.317 130.855 113.596 131.479C112.465 132.456 110.81 132.836 109.386 133.117C104.421 134.095 99.2026 133.77 94.19 133.4C91.8535 133.228 89.2798 133.193 88.0352 130.851C86.9582 128.824 87.1219 126.266 87.3156 124.068C87.6576 120.186 88.7207 116.309 88.571 112.394C88.4837 110.108 88.4741 107.217 85.3099 107.648C84.8931 107.705 84.5206 107.796 84.131 107.969C81.6324 109.08 80.3984 112.343 79.4383 114.668C77.2759 119.903 75.75 125.401 74.2328 130.851C67.0999 156.474 66.938 183.768 70.0071 210.044C70.5788 214.939 70.7997 219.904 71.5458 224.773C72.0534 228.085 72.9202 231.382 74.0414 234.541C74.2988 235.266 74.7775 235.946 75.1591 236.608C75.9071 237.906 76.6598 239.2 77.3408 240.535C77.3512 240.555 77.3611 240.576 77.3714 240.596C76.5318 240.018 75.7117 239.384 75.0978 238.912C71.9459 236.488 69.0314 233.77 66.1565 231.027C65.4444 230.348 64.735 229.66 64.0131 228.991C63.7573 228.754 63.5033 228.516 63.2475 228.279C63.1913 228.227 63.0721 228.05 63.0791 228.126C63.0896 228.24 63.2033 228.315 63.2552 228.417C63.2769 228.459 63.318 228.599 63.3011 228.555C62.9225 227.551 61.857 226.705 61.1883 225.959C60.3986 225.079 59.6817 224.237 58.9376 223.318C56.5614 220.385 54.4373 217.248 52.6297 213.933C46.4661 202.629 44.6753 189.819 43.9793 177.134C43.7027 172.093 43.5691 167.046 43.4052 162C43.3069 158.975 43.0752 155.948 43.1602 152.921C43.3199 147.229 43.6694 141.535 43.9793 135.85C44.12 133.269 44.4137 130.651 44.3927 128.064C44.1683 127.359 43.1529 127.058 42.0732 127.329C41.6392 125.718 42.1101 123.287 42.3105 122.132C42.3819 121.72 42.479 121.316 42.5631 120.907C43.6838 115.445 45.537 110.182 47.2634 104.892C52.5497 88.6952 62.4617 73.9684 74.8758 62.3595C81.7496 55.9316 89.5915 50.3349 98.3008 46.6816C108.188 42.534 118.713 39.7213 129.236 37.7097C135.998 36.417 142.834 35.513 149.698 34.9921C154.655 34.6159 159.692 34.4441 164.756 34.4868Z" fill="#ffacca" stroke="none"/>
</g>
<path d="M84.5823 133.835C84.5823 116.368 86.5848 103.596 93.8661 87.4156C95.1775 84.5014 98.8227 74.0743 102.045 73.2687" fill="none" opacity="1" stroke="#fa4485" stroke-linecap="round" stroke-linejoin="round" stroke-width="5"/>
<path d="M213.451 74.374C219.341 86.1529 223.179 98.5529 225.609 111.509C226.566 116.617 226.297 121.876 226.935 126.983C227.08 128.144 226.621 129.449 227.156 130.519" fill="none" opacity="1" stroke="#fa4485" stroke-linecap="round" stroke-linejoin="round" stroke-width="5"/>
<path d="M85.2454 134.498C89.8946 134.498 112.771 135.708 115.086 133.393" fill="none" opacity="1" stroke="#fa4485" stroke-linecap="round" stroke-linejoin="round" stroke-width="5"/>
<path d="M115.971 133.835C115.971 135.441 116.909 130.12 117.076 129.635C118.207 126.356 118.838 124.088 120.17 120.793C123.658 112.167 128.103 104.543 133.654 97.1415" fill="none" opacity="1" stroke="#fa4485" stroke-linecap="round" stroke-linejoin="round" stroke-width="5"/>
<path d="M134.538 97.1415C134.538 96.4047 134.624 98.6202 134.538 99.352C134.138 102.756 133.195 106.159 132.549 109.52C130.966 117.751 129.896 126.109 129.896 134.498" fill="none" opacity="1" stroke="#fa4485" stroke-linecap="round" stroke-linejoin="round" stroke-width="5"/>
<path d="M186.484 94.0469C190.13 101.339 191.474 109.707 192.673 117.699C193.082 120.424 193.457 123.166 193.999 125.877C194.156 126.662 194.441 130.867 194.441 129.414" fill="none" opacity="1" stroke="#fa4485" stroke-linecap="round" stroke-linejoin="round" stroke-width="5"/>
<path d="M194.662 131.403C193.568 130.856 197.708 131.182 197.978 131.182C200.557 131.182 203.136 131.182 205.715 131.182C212.673 131.182 219.572 131.846 226.493 131.846" fill="none" opacity="1" stroke="#fa4485" stroke-linecap="round" stroke-linejoin="round" stroke-width="5"/>
<path d="M185.379 92.4996C184.999 91.7405 185.711 96.4463 185.821 97.1415C186.207 99.5894 186.705 101.717 186.705 104.215C186.705 113.152 185.6 122.075 185.6 130.961" fill="none" opacity="1" stroke="#fa4485" stroke-linecap="round" stroke-linejoin="round" stroke-width="5"/>
<path d="M130.338 134.94C144.297 134.94 158.353 135.161 172.337 135.161C174.731 135.161 183.52 136.226 184.936 133.393" fill="none" opacity="1" stroke="#fa4485" stroke-linecap="round" stroke-linejoin="round" stroke-width="5"/>
<path d="M47.5092 101.469C35.427 139.435 36.5729 192.193 49.8537 218.754" fill="none" opacity="1" stroke="#fa4485" stroke-linecap="round" stroke-linejoin="round" stroke-width="5"/>
<path d="M51.2174 220.663C51.2174 223.468 78.343 244.789 82.8537 249.3" fill="none" opacity="1" stroke="#fa4485" stroke-linecap="round" stroke-linejoin="round" stroke-width="5"/>
<path d="M83.1264 248.209C83.8911 251.267 79.4595 237.632 78.7628 234.845C76.2094 224.632 73.4567 213.192 73.0355 202.663C71.8235 172.364 69.9582 132.825 87.7628 106.118" fill="none" opacity="1" stroke="#fa4485" stroke-linecap="round" stroke-linejoin="round" stroke-width="5"/>
<path d="M272.026 91.9626C284.685 117.433 286.224 151.402 280.892 185.58C277.804 205.38 277.21 210.231 271.652 221.345" fill="none" opacity="1" stroke="#fa4485" stroke-linecap="round" stroke-linejoin="round" stroke-width="5"/>
<path d="M225.217 103.663C255.12 133.567 250.388 217.777 233.126 252.3" fill="none" opacity="1" stroke="#fa4485" stroke-linecap="round" stroke-linejoin="round" stroke-width="5"/>
<path d="M233.126 253.118C232.785 253.801 236.336 250.344 237.217 249.573C240.758 246.475 244.56 243.63 248.126 240.573C255.944 233.872 268.612 227.661 273.302 218.281" fill="none" opacity="1" stroke="#fa4485" stroke-linecap="round" stroke-linejoin="round" stroke-width="5"/>
</g>
</svg>
