<?xml version="1.0" encoding="UTF-8" standalone="no"?>
<!DOCTYPE svg PUBLIC "-//W3C//DTD SVG 1.1//EN" "http://www.w3.org/Graphics/SVG/1.1/DTD/svg11.dtd">
<!-- Created with Vectornator (http://vectornator.io/) -->
<svg height="100%" stroke-miterlimit="10" style="fill-rule:nonzero;clip-rule:evenodd;stroke-linecap:round;stroke-linejoin:round;" version="1.1" viewBox="4.02336 47.296 300.399 226.464" width="100%" xml:space="preserve" xmlns="http://www.w3.org/2000/svg" xmlns:xlink="http://www.w3.org/1999/xlink">
<defs/>
<g id="bangs-4">
<g opacity="1">
<path d="M204.562 49.0938C199.578 47.7513 186.231 55.3809 183.781 59.9062C183.616 59.8249 183.446 59.8502 183.281 59.75C155.363 42.7704 98.2842 59.0759 75.0938 76.4688C68.8783 81.1303 63.6892 87.5471 58.8125 93.4688C48.5165 105.971 45.2129 123.814 36.5 137.219C33.1747 142.335 27.4681 149.223 21.7812 151.75C20.9544 152.117 13.6152 153.587 13.4688 154.062C11.1772 161.51 37.8089 159.001 38.4375 160.438C39.3987 162.634 37.8428 168.738 37.7188 171.219C37.3335 178.924 37.2269 187.617 39.3125 195.125C41.5944 203.34 49.7305 214.73 55.625 220.625C58.5743 223.574 62.4111 224.679 65.3438 228.062C69.7884 233.191 76.1169 242.415 77.9375 248.969C78.2628 250.14 79.6091 262.031 79.6875 262.062C88.3221 265.516 85.6904 238.472 84.4688 235.156C80.8668 225.38 76.2729 216.694 70.3125 208.25C69.547 207.166 65.2389 201.209 66.4062 199.75C67.2047 198.752 77.5101 203.281 79.5312 203.281C81.3913 203.281 93.4 199.767 92.0938 196.719C91.4797 195.286 87.147 195.56 85.9062 194.969C79.9048 192.111 74.3945 186.82 71.375 180.781C63.5261 165.083 82.8666 122.192 92.8125 109.594C94.2174 107.814 106.738 97.2274 107.844 97.7188C108.249 97.8988 107.457 107.082 107.312 108C105.767 117.789 104.041 126.654 100.406 136C99.8108 137.531 93.2272 146.582 94.0312 147.688C95.6396 149.899 106.825 145.571 108.562 144.656C117.386 140.012 127.069 133.644 132.125 124.656C133.547 122.129 136.775 112.726 139.562 111.906C142.643 111 144.546 118.096 145.406 120.031C149.289 128.768 148.601 137.531 149.125 146.438C149.237 148.338 151.788 148.905 153.188 148.75C157.708 148.248 159.711 139.344 161.875 139.344C162.423 139.344 166.132 110.141 165.219 103.75C164.775 100.645 163.597 85.0606 168.062 84.8125C172.096 84.5884 174.032 91.5269 176.75 92.7812C179.925 94.2466 186.085 83.3181 190.562 84.4375C193.114 85.0755 195.896 92.25 196.562 92.25C197.019 92.25 200.157 89.1701 201 88.875C205.307 87.3675 210.387 88.8527 214.469 90.2812C219.82 92.1543 223.626 99.4488 227.375 103.406C242.629 119.508 246.774 139.389 250.062 161.312C250.653 165.247 252.633 168.996 251.469 173.188C249.169 181.467 246.646 191.447 240.312 197.781C237.44 200.654 228.404 206.668 230.75 210.188C233.462 214.256 254.902 201.191 256.25 204.156C256.893 205.57 250.877 215.143 249.875 216.562C247.792 219.514 248.629 223.847 247.75 227.188C246.154 233.252 241.901 238.767 240.312 245.438C238.269 254.019 238.317 263.737 246.688 268.969C247.16 269.264 247.613 270.156 248.094 269.875C249.847 268.852 244.849 253.969 245.906 249.219C249.57 246.696 255.363 238.543 257.844 236.938C267.709 230.554 284.55 219.893 287.594 207.719C288.855 202.674 288.7 178.973 290.25 176.906C291.329 175.467 297.756 175.736 296.094 171.938C294.924 169.263 291.544 171.312 290.25 168.562C284.675 156.715 286.934 140.59 284.25 127.844C276.706 92.0121 248.999 57.1608 210.219 51.3438C208.891 51.1445 207.611 51.2021 206.375 51.375C206.318 51.1116 206.373 50.8596 206.281 50.5938C206.008 49.8063 205.398 49.3188 204.562 49.0938Z" fill="#ffacca" fill-rule="nonzero" stroke="none"/>
<path d="M203.65 48.778C202.612 48.7194 201.564 48.902 200.55 49.15C199.506 49.4055 198.486 49.7498 197.486 50.142C197.126 50.2831 196.76 50.4318 196.405 50.5849C194.187 51.5417 192.06 52.7031 190.037 54.0216C188.509 55.017 187.016 56.1071 185.688 57.3608C185.278 57.7477 184.81 58.228 184.448 58.6629C184.281 58.862 184.136 59.0681 183.978 59.274C183.881 59.4014 183.81 59.554 183.712 59.6815C183.617 59.6567 183.513 59.6356 183.438 59.5929C183.141 59.4251 182.848 59.2484 182.552 59.0792C182.253 58.9084 181.952 58.7368 181.649 58.5743C180.416 57.9142 179.149 57.3191 177.858 56.7851C173.755 55.0894 169.409 53.9874 165.023 53.3307C158.145 52.3008 151.154 52.2123 144.226 52.7284C137.71 53.2138 131.238 54.2028 124.855 55.5893C114.452 57.8487 104.238 61.1205 94.4913 65.4034C90.3561 67.2204 86.3035 69.23 82.4008 71.5062C79.8509 72.9934 77.3529 74.5887 74.996 76.3689C70.2428 79.9591 66.2176 84.3728 62.3919 88.9111C60.0457 91.6942 57.659 94.4657 55.6425 97.5028C48.5655 108.162 45.2873 120.741 39.3625 131.994C36.8069 136.847 33.6885 141.412 29.8939 145.386C28.2594 147.098 26.4999 148.717 24.5351 150.045C23.6466 150.646 22.7187 151.164 21.745 151.613C21.4845 151.733 21.1792 151.79 20.9036 151.861C20.5217 151.96 20.1356 152.052 19.7521 152.144C18.335 152.486 16.9085 152.803 15.5005 153.181C15.0146 153.311 14.5392 153.463 14.0568 153.606C13.7882 153.685 13.4506 153.895 13.3039 154.128C13.1632 154.352 13.1341 154.766 13.1356 155.005C13.1365 155.146 13.1466 155.283 13.171 155.422C13.4593 157.059 15.3607 157.892 16.7583 158.353C18.3243 158.87 19.9715 159.138 21.6033 159.346C23.7276 159.616 25.8689 159.755 28.0073 159.85C29.5192 159.918 31.0295 159.957 32.5423 160.001C34.0258 160.044 35.52 160.056 36.9976 160.214C37.3599 160.252 37.7632 160.286 38.1047 160.426C38.1506 160.445 38.2301 160.475 38.2553 160.532C38.4977 161.08 38.5423 161.722 38.5565 162.313C38.5799 163.291 38.4895 164.266 38.3705 165.236C38.1513 167.02 37.7833 168.789 37.591 170.577C37.4968 171.453 37.4765 172.336 37.4404 173.216C37.2334 178.266 37.2065 183.347 37.8213 188.371C38.1931 191.409 38.7601 194.447 39.8231 197.326C41.4912 201.844 44.0211 206.033 46.7319 209.992C48.4819 212.548 50.3564 215.019 52.3741 217.371C53.3663 218.527 54.3833 219.68 55.4742 220.745C57.6617 222.881 60.4417 224.191 62.8525 226.033C63.1237 226.24 63.4109 226.428 63.6673 226.653C63.937 226.89 64.1753 227.161 64.4291 227.415C65.5599 228.545 66.5574 229.775 67.538 231.038C69.2943 233.298 70.9481 235.65 72.4628 238.079C74.6115 241.526 76.6131 245.132 77.7684 249.045C77.8966 249.479 77.9424 249.964 78.0076 250.409C78.0967 251.017 78.1751 251.625 78.2556 252.234C78.4895 254.003 78.7101 255.776 78.9287 257.548C79.0392 258.443 79.1448 259.337 79.2565 260.232C79.2916 260.513 79.3516 260.944 79.3893 261.233C79.4056 261.357 79.4168 261.48 79.4336 261.605C79.4443 261.684 79.4658 261.807 79.4779 261.888C79.5292 262.234 79.5274 262.177 79.8765 262.296C79.9563 262.323 80.0415 262.359 80.1245 262.375C80.2932 262.41 80.4586 262.46 80.6294 262.482C80.7921 262.502 80.9525 262.512 81.1165 262.508C82.9779 262.471 84.0379 260.787 84.6329 259.231C85.1315 257.927 85.4053 256.535 85.5984 255.157C85.8651 253.252 85.9655 251.321 85.9881 249.399C86.0016 248.249 85.9769 247.13 85.935 245.98C85.8511 243.681 85.6747 241.389 85.3858 239.107C85.2381 237.94 85.0812 236.759 84.7924 235.617C84.6397 235.013 84.3939 234.447 84.1723 233.863C84.0189 233.459 83.8696 233.052 83.7117 232.65C83.2438 231.457 82.7491 230.274 82.2414 229.098C80.0729 224.074 77.5539 219.206 74.686 214.545C73.3464 212.368 71.9183 210.259 70.461 208.159C69.5302 206.818 68.5799 205.478 67.7861 204.049C67.3189 203.208 66.8918 202.372 66.5726 201.463C66.4323 201.063 66.3171 200.596 66.3777 200.169C66.4075 199.96 66.4354 199.951 66.5372 199.78C66.5661 199.731 66.9736 199.737 67.042 199.744C67.1718 199.757 67.3029 199.777 67.4318 199.797C67.7532 199.849 68.1014 199.93 68.4149 200.01C70.756 200.608 73.022 201.493 75.306 202.269C75.7486 202.419 76.1994 202.566 76.6435 202.712C77.5436 203.007 78.5122 203.373 79.469 203.411C79.8548 203.427 80.2638 203.331 80.6382 203.252C81.249 203.124 81.8524 202.975 82.454 202.809C84.5258 202.237 86.5831 201.52 88.5213 200.586C89.5656 200.083 90.6424 199.515 91.4886 198.708C91.8431 198.37 92.1867 197.957 92.3035 197.468C92.6358 196.077 90.9709 195.693 89.9651 195.51C89.7987 195.48 89.4765 195.425 89.3097 195.404C88.8723 195.348 88.4361 195.301 87.9988 195.245C87.6077 195.194 87.2076 195.161 86.8207 195.085C86.5428 195.031 86.2702 194.957 86.0058 194.855C85.489 194.657 85.0115 194.36 84.5266 194.093C84.0565 193.834 83.5289 193.519 83.074 193.234C79.4092 190.942 76.188 187.893 73.7028 184.359C72.3445 182.427 71.1416 180.339 70.5053 178.052C69.5931 174.774 69.5662 171.281 69.8233 167.911C70.165 163.43 71.0789 158.998 72.2236 154.66C73.4944 149.844 75.0789 145.119 76.8649 140.47C78.6301 135.876 80.5996 131.356 82.7463 126.927C84.4019 123.512 86.1691 120.145 88.0962 116.874C89.5707 114.372 91.1336 111.925 92.9146 109.629C93.3455 109.073 93.9075 108.59 94.4204 108.114C95.3179 107.281 96.2388 106.469 97.1662 105.669C99.3356 103.799 101.539 101.952 103.836 100.24C104.316 99.8821 104.802 99.5345 105.288 99.1857C105.834 98.7944 106.396 98.4266 106.98 98.0962C107.186 97.9801 107.509 97.772 107.76 97.8217C107.773 97.8242 107.81 98.1694 107.813 98.2202C107.818 98.3203 107.828 98.4212 107.831 98.5214C107.844 99.1135 107.821 99.7015 107.795 100.293C107.744 101.467 107.653 102.637 107.565 103.809C107.429 105.629 107.279 107.437 106.989 109.239C106.042 115.134 104.953 121.021 103.349 126.777C102.477 129.903 101.441 132.971 100.293 136.006C100.121 136.461 99.8187 136.898 99.5666 137.308C99.2461 137.83 98.9137 138.343 98.5834 138.858C97.3901 140.721 96.1654 142.569 95.0847 144.5C94.8812 144.864 94.6912 145.237 94.5001 145.608C94.2348 146.122 93.9358 146.7 93.8535 147.282C93.8178 147.534 93.858 147.714 94.0395 147.893C94.6482 148.492 95.9265 148.447 96.7056 148.371C98.8011 148.168 100.855 147.585 102.853 146.945C103.369 146.78 103.882 146.611 104.394 146.431C104.864 146.266 105.326 146.083 105.793 145.909C106.647 145.591 107.504 145.255 108.327 144.864C109.561 144.277 110.753 143.572 111.94 142.897C113.073 142.253 114.193 141.595 115.297 140.904C120.144 137.873 124.777 134.347 128.495 129.974C129.617 128.655 130.658 127.259 131.569 125.785C131.865 125.304 132.153 124.817 132.41 124.314C132.95 123.26 133.397 122.157 133.871 121.072C134.768 119.023 135.664 116.951 136.803 115.023C137.027 114.643 137.268 114.274 137.512 113.907C138.037 113.116 138.883 112.018 139.912 111.923C141.322 111.792 142.384 113.438 142.968 114.491C143.053 114.645 143.138 114.803 143.216 114.961C143.375 115.282 143.53 115.599 143.677 115.926C143.823 116.252 143.959 116.587 144.093 116.918C144.22 117.234 144.344 117.548 144.465 117.866C144.671 118.41 144.857 118.962 145.067 119.505C145.426 120.432 145.845 121.332 146.183 122.268C146.699 123.695 147.118 125.155 147.45 126.635C148.501 131.322 148.657 136.139 148.805 140.922C148.851 142.402 148.9 143.881 148.973 145.36C148.992 145.73 149.004 146.105 149.027 146.476C149.063 147.083 149.364 147.608 149.833 147.99C149.947 148.084 150.068 148.163 150.196 148.238C150.326 148.315 150.465 148.381 150.603 148.442C150.891 148.568 151.174 148.657 151.48 148.725C151.905 148.82 152.347 148.867 152.782 148.858C155.511 148.803 157.291 145.967 158.504 143.872C159.106 142.831 159.668 141.765 160.32 140.754C160.461 140.535 160.693 140.235 160.869 140.036C161.066 139.814 161.31 139.552 161.604 139.461C161.737 139.419 161.916 139.427 162.003 139.319C162.106 139.189 162.137 138.902 162.171 138.752C162.256 138.379 162.326 138.004 162.392 137.627C162.653 136.145 162.862 134.653 163.066 133.163C163.81 127.725 164.417 122.263 164.89 116.794C165.104 114.327 165.284 111.855 165.386 109.381C165.444 107.979 165.488 106.575 165.431 105.173C165.372 103.726 165.128 102.288 165.023 100.842C164.812 97.9442 164.736 95.0171 164.952 92.1175C165.049 90.8174 165.198 89.5041 165.519 88.2379C165.706 87.5005 165.949 86.7507 166.343 86.0944C166.54 85.766 166.793 85.4536 167.105 85.2264C168.197 84.4309 169.741 85.1025 170.665 85.8464C171.513 86.5281 172.194 87.4073 172.818 88.291C173.459 89.2005 174.066 90.135 174.731 91.028C175.316 91.8136 176.263 92.9812 177.344 92.9855C178.593 92.9905 179.937 91.8192 180.798 91.0634C180.998 90.8884 181.196 90.703 181.392 90.5231C183.239 88.821 184.941 86.9784 186.998 85.5187C187.839 84.9223 188.896 84.394 189.957 84.4292C191.008 84.4641 191.776 85.2134 192.41 85.9793C193.526 87.3262 194.349 88.8992 195.2 90.4168C195.341 90.667 195.483 90.9119 195.626 91.1609C195.819 91.4994 196.015 91.8719 196.281 92.1618C196.347 92.2333 196.417 92.3115 196.52 92.3212C196.643 92.3327 196.789 92.2229 196.883 92.1618C197.197 91.9598 197.483 91.7162 197.769 91.4797C198.662 90.742 199.507 89.9348 200.453 89.2654C200.63 89.1403 200.823 89.0191 201.02 88.9288C201.357 88.7743 201.722 88.7027 202.083 88.6188C202.817 88.448 203.571 88.36 204.324 88.3265C207.037 88.2058 209.731 88.8387 212.304 89.6374C213.232 89.9253 214.186 90.2113 215.077 90.6028C216.928 91.4165 218.483 92.7999 219.851 94.261C222.232 96.8046 224.114 99.7535 226.37 102.401C227.562 103.8 228.854 105.111 230.037 106.52C232.298 109.213 234.35 112.082 236.166 115.094C243.16 126.692 246.429 139.991 248.699 153.216C249.008 155.011 249.296 156.811 249.576 158.61C249.82 160.178 250.026 161.75 250.391 163.296C251.078 166.197 252.145 169.137 251.64 172.162C251.463 173.222 251.113 174.265 250.825 175.298C250.319 177.119 249.799 178.93 249.24 180.736C247.557 186.172 245.443 191.682 241.773 196.113C240.428 197.737 238.851 199.056 237.247 200.409C235.775 201.65 234.298 202.9 232.969 204.297C232.291 205.009 231.637 205.762 231.117 206.6C230.507 207.586 229.976 208.876 230.559 209.992C231.112 211.049 232.425 211.09 233.473 210.993C234.652 210.885 235.807 210.58 236.937 210.24C238.341 209.818 239.722 209.313 241.091 208.788C242.045 208.422 243.077 208.012 244.023 207.627C244.991 207.234 245.951 206.833 246.919 206.441C248.229 205.909 249.54 205.381 250.87 204.899C251.274 204.753 251.677 204.598 252.083 204.456C253.061 204.114 254.153 203.761 255.201 203.757C255.582 203.755 256.006 203.815 256.202 204.182C256.327 204.417 256.215 204.807 256.149 205.041C256.108 205.184 256.072 205.326 256.025 205.466C255.69 206.454 255.209 207.403 254.731 208.327C253.594 210.528 252.32 212.661 251.002 214.758C250.668 215.289 250.335 215.814 249.984 216.334C249.765 216.657 249.543 216.978 249.364 217.326C248.372 219.256 248.324 221.499 248.177 223.615C248.114 224.526 248.058 225.444 247.893 226.343C247.747 227.143 247.513 227.929 247.256 228.699C246.046 232.317 244.098 235.62 242.544 239.089C242.314 239.6 242.113 240.122 241.897 240.639C241.681 241.156 241.439 241.662 241.25 242.189C241.059 242.723 240.918 243.276 240.754 243.819C240.591 244.361 240.416 244.893 240.267 245.44C239.978 246.505 239.788 247.62 239.612 248.708C239.318 250.524 239.14 252.359 239.151 254.2C239.182 259.313 240.717 264.211 244.722 267.601C245.02 267.853 245.328 268.098 245.644 268.328C245.971 268.565 246.319 268.774 246.653 269.001C247.082 269.29 247.52 270.137 248.097 269.904C248.44 269.766 248.485 269.175 248.505 268.877C248.566 267.93 248.409 266.956 248.265 266.025C247.607 261.756 246.455 257.567 245.962 253.27C245.891 252.642 245.835 252.05 245.812 251.419C245.802 251.144 245.797 250.861 245.803 250.586C245.808 250.339 245.833 250.097 245.847 249.851C245.858 249.662 245.897 249.399 246.007 249.231C246.104 249.082 246.263 249.003 246.397 248.894C246.56 248.762 246.723 248.632 246.884 248.496C247.056 248.35 247.23 248.205 247.397 248.053C247.767 247.717 248.099 247.388 248.451 247.034C248.804 246.68 249.21 246.257 249.55 245.892C251.249 244.069 252.838 242.149 254.492 240.285C255.438 239.219 256.403 238.071 257.539 237.194C258.041 236.806 258.593 236.484 259.125 236.14C259.569 235.852 260.019 235.569 260.462 235.28C262.406 234.015 264.339 232.731 266.246 231.41C270.917 228.172 275.48 224.711 279.47 220.648C282.134 217.936 284.596 214.916 286.255 211.472C286.837 210.264 287.301 209.013 287.637 207.716C287.963 206.455 288.048 205.112 288.159 203.819C288.328 201.862 288.44 199.899 288.54 197.937C288.74 194.041 288.888 190.141 289.107 186.246C289.25 183.704 289.349 181.126 289.78 178.61C289.864 178.12 289.968 177.326 290.285 176.919C290.645 176.457 291.321 176.255 291.853 176.086C292.636 175.837 293.433 175.632 294.2 175.333C295.343 174.887 296.568 174.194 296.388 172.791C296.347 172.471 296.257 172.211 296.131 171.914C296.044 171.709 295.931 171.515 295.794 171.338C295.166 170.524 294.185 170.403 293.244 170.24C292.864 170.174 292.469 170.151 292.101 170.036C291.742 169.925 291.363 169.807 291.073 169.567C290.74 169.291 290.517 168.905 290.285 168.54C290.139 168.31 290.058 168.045 289.949 167.796C289.724 167.282 289.535 166.797 289.337 166.272C288.449 163.911 287.832 161.453 287.38 158.973C285.904 150.879 286.118 142.609 285.281 134.447C285.109 132.771 284.902 131.094 284.608 129.434C284.111 126.634 283.412 123.861 282.641 121.126C275.492 95.746 258.588 72.0593 235.059 59.5486C228.763 56.2011 222.002 53.6992 215.032 52.1881C213.843 51.9303 212.645 51.7047 211.445 51.5061C210.809 51.4009 210.212 51.2896 209.576 51.2315C208.932 51.1726 208.282 51.1739 207.636 51.2138C207.426 51.2268 207.217 51.2491 207.007 51.2669C206.837 51.2813 206.633 51.3487 206.467 51.2935C206.402 51.2719 206.403 51.2283 206.396 51.1695C206.394 51.1471 206.387 51.0761 206.387 51.0986C206.384 51.0119 206.389 50.9279 206.379 50.8418C206.367 50.7517 206.355 50.6619 206.325 50.576C206.281 50.4474 206.223 50.3231 206.157 50.204C205.83 49.609 205.281 49.3107 204.669 49.0968C204.689 49.0294 204.721 48.9585 204.678 48.9285C204.335 48.8508 203.997 48.7975 203.65 48.778ZM203.216 49.1146C203.629 49.1246 204.045 49.1735 204.448 49.2651C204.503 49.3042 204.586 49.2541 204.651 49.1766C205.238 49.3858 205.762 49.6754 206.077 50.2483C206.142 50.3655 206.193 50.485 206.237 50.6115C206.265 50.6945 206.279 50.7811 206.29 50.8683C206.303 50.9748 206.258 51.3122 206.414 51.3643C206.59 51.4232 206.808 51.3435 206.981 51.3289C207.19 51.3112 207.4 51.2887 207.61 51.2758C208.251 51.2361 208.901 51.2439 209.541 51.3023C210.174 51.3602 210.768 51.4723 211.401 51.5769C212.6 51.7753 213.8 51.9925 214.988 52.2501C221.953 53.7601 228.706 56.2655 234.997 59.6106C258.516 72.116 275.415 95.7924 282.561 121.161C283.332 123.895 284.023 126.671 284.519 129.469C284.813 131.128 285.029 132.798 285.201 134.474C286.039 142.637 285.824 150.913 287.3 159.009C287.802 161.76 288.498 164.483 289.55 167.078C289.653 167.332 289.759 167.589 289.869 167.84C289.979 168.091 290.067 168.353 290.214 168.584C290.449 168.953 290.674 169.351 291.011 169.629C291.306 169.872 291.683 169.993 292.048 170.107C292.418 170.223 292.817 170.245 293.199 170.311C294.128 170.472 295.103 170.579 295.724 171.383C295.858 171.557 295.965 171.756 296.051 171.959C296.176 172.252 296.268 172.511 296.308 172.827C296.523 174.5 294.691 175.13 293.412 175.546C292.665 175.788 291.888 175.969 291.162 176.272C290.814 176.417 290.452 176.588 290.214 176.892C289.886 177.313 289.788 178.12 289.701 178.628C289.269 181.146 289.162 183.728 289.019 186.272C288.77 190.699 288.621 195.131 288.372 199.558C288.28 201.193 288.182 202.826 288.027 204.456C287.933 205.436 287.829 206.424 287.628 207.388C287.334 208.799 286.799 210.176 286.175 211.472C284.25 215.469 281.263 218.89 278.08 221.932C274.421 225.429 270.364 228.487 266.211 231.365C264.305 232.686 262.37 233.963 260.427 235.227C259.562 235.79 258.684 236.342 257.823 236.91C257.71 236.985 257.602 237.067 257.495 237.149C256.352 238.031 255.381 239.186 254.43 240.258C252.777 242.121 251.187 244.043 249.488 245.865C248.958 246.433 248.427 246.992 247.867 247.53C247.555 247.83 247.171 248.179 246.839 248.46C246.68 248.596 246.515 248.727 246.352 248.859C246.221 248.966 246.038 249.065 245.936 249.222C245.818 249.402 245.771 249.655 245.759 249.869C245.744 250.116 245.72 250.365 245.714 250.613C245.708 250.889 245.713 251.169 245.723 251.445C245.734 251.745 245.753 252.041 245.776 252.34C245.802 252.662 245.837 252.984 245.874 253.305C246.366 257.603 247.529 261.79 248.186 266.06C248.338 267.052 248.532 268.134 248.398 269.142C248.373 269.334 248.311 269.754 248.088 269.842C248.02 269.869 247.949 269.902 247.876 269.895C247.706 269.879 247.535 269.712 247.424 269.612C247.181 269.394 246.997 269.124 246.724 268.939C246.39 268.712 246.041 268.503 245.714 268.266C245.4 268.037 245.099 267.791 244.802 267.539C244.515 267.296 244.23 267.041 243.961 266.777C240.545 263.429 239.267 258.849 239.24 254.173C239.227 251.965 239.486 249.76 239.895 247.592C240.032 246.868 240.162 246.143 240.356 245.431C240.504 244.885 240.688 244.352 240.852 243.81C241.015 243.269 241.148 242.713 241.339 242.18C241.528 241.654 241.77 241.155 241.985 240.639C242.201 240.123 242.403 239.6 242.632 239.089C244.189 235.618 246.133 232.311 247.344 228.69C247.603 227.917 247.843 227.129 247.991 226.326C248.156 225.424 248.219 224.502 248.283 223.589C248.43 221.484 248.474 219.245 249.461 217.326C249.692 216.877 249.99 216.48 250.267 216.06C250.664 215.457 251.049 214.841 251.428 214.226C252.744 212.091 254.041 209.938 255.157 207.689C255.582 206.832 255.994 205.956 256.255 205.032C256.326 204.781 256.433 204.38 256.299 204.129C256.035 203.631 255.377 203.642 254.891 203.686C253.936 203.772 252.975 204.062 252.074 204.377C251.668 204.519 251.265 204.673 250.861 204.82C250.456 204.966 250.049 205.109 249.647 205.263C248.241 205.801 246.851 206.384 245.458 206.954C244.441 207.371 243.556 207.735 242.535 208.141C241.577 208.522 240.614 208.883 239.647 209.24C238.35 209.718 237.038 210.161 235.697 210.497C234.827 210.716 233.93 210.905 233.031 210.931C232.126 210.957 231.132 210.808 230.675 209.93C229.994 208.626 230.829 207.12 231.596 206.06C232.353 205.011 233.271 204.077 234.209 203.19C235.399 202.064 236.658 201.021 237.911 199.966C239.326 198.775 240.677 197.569 241.861 196.139C245.792 191.396 247.956 185.454 249.709 179.629C250.248 177.839 250.743 176.028 251.242 174.226C251.426 173.561 251.65 172.818 251.764 172.136C252.271 169.099 251.203 166.155 250.515 163.243C250.15 161.699 249.952 160.123 249.709 158.557C249.43 156.758 249.14 154.958 248.832 153.163C246.565 139.928 243.303 126.614 236.308 115.005C234.491 111.99 232.442 109.119 230.179 106.422C228.996 105.013 227.695 103.712 226.503 102.312C224.075 99.461 222.074 96.253 219.426 93.5878C218.191 92.3455 216.798 91.1893 215.183 90.4788C214.629 90.2354 214.056 90.0502 213.482 89.8588C212.73 89.6078 212.058 89.4013 211.294 89.1857C208.175 88.3049 204.728 87.7076 201.542 88.6365C201.133 88.7559 200.731 88.9313 200.382 89.1768C200.088 89.3836 199.81 89.6139 199.532 89.8411C198.906 90.3523 198.304 90.8852 197.681 91.4C197.55 91.5081 197.415 91.6217 197.282 91.7277C197.098 91.8748 196.913 92.0212 196.706 92.1352C196.674 92.1532 196.637 92.1862 196.6 92.1795C196.402 92.1431 196.233 91.8098 196.139 91.6657C196.08 91.5753 196.027 91.4836 195.971 91.3912C195.588 90.7576 195.237 90.1045 194.873 89.4602C194.099 88.0912 193.314 86.6742 192.242 85.5098C191.643 84.8589 190.943 84.3182 190.028 84.2875C188.915 84.2502 187.802 84.8044 186.919 85.4301C186.486 85.7365 186.063 86.0517 185.652 86.3867C183.903 87.8128 182.387 89.4976 180.692 90.9837C179.886 91.6903 178.591 92.8488 177.415 92.8438C176.385 92.8394 175.445 91.6673 174.89 90.9217C174.454 90.3358 174.047 89.7339 173.633 89.1325C172.656 87.7148 171.555 85.998 169.983 85.1732C169.71 85.0299 169.381 84.8993 169.08 84.8278C167.793 84.5215 166.859 84.9683 166.192 86.0767C165.633 87.0068 165.358 88.1051 165.156 89.1591C164.899 90.5029 164.78 91.8684 164.713 93.2335C164.582 95.9259 164.662 98.6339 164.873 101.32C164.975 102.626 165.192 103.927 165.245 105.235C165.312 106.912 165.248 108.591 165.165 110.266C165.056 112.461 164.885 114.65 164.695 116.839C164.221 122.305 163.617 127.771 162.871 133.207C162.647 134.841 162.422 136.476 162.118 138.096C162.059 138.409 161.995 138.719 161.914 139.027C161.898 139.086 161.889 139.145 161.87 139.204C161.861 139.23 161.839 139.258 161.834 139.283C161.082 139.358 160.532 140.151 160.16 140.727C159.963 141.033 159.771 141.344 159.585 141.657C159.376 142.008 159.176 142.366 158.973 142.72C158.758 143.097 158.544 143.469 158.327 143.845C157.172 145.84 155.463 148.638 152.853 148.69C152.285 148.701 151.702 148.616 151.161 148.442C150.896 148.357 150.587 148.229 150.346 148.088C150.054 147.915 149.932 147.801 149.7 147.556C149.127 146.951 149.206 146.049 149.168 145.289C149.15 144.918 149.131 144.552 149.115 144.182C149.068 143.074 149.043 141.968 149.009 140.86C148.862 136.07 148.704 131.241 147.654 126.546C147.321 125.062 146.904 123.593 146.387 122.162C146.049 121.225 145.63 120.326 145.271 119.398C145.061 118.856 144.875 118.312 144.669 117.769C144.423 117.121 144.163 116.452 143.88 115.82C143.734 115.492 143.579 115.168 143.42 114.846C143.287 114.576 143.064 114.182 142.906 113.925C142.288 112.916 141.319 111.619 139.974 111.746C138.833 111.853 137.922 112.988 137.335 113.871C137.088 114.242 136.844 114.613 136.617 114.996C135.354 117.132 134.386 119.44 133.393 121.71C133.013 122.578 132.647 123.462 132.215 124.305C131.767 125.181 131.225 126.016 130.674 126.83C129.707 128.258 128.627 129.61 127.468 130.887C124.219 134.463 120.366 137.442 116.316 140.054C114.497 141.227 112.639 142.336 110.745 143.384C109.934 143.833 109.111 144.307 108.273 144.704C107.014 145.301 105.689 145.793 104.376 146.254C103.343 146.617 102.3 146.946 101.249 147.255C100.803 147.386 100.118 147.563 99.664 147.671C99.1908 147.785 98.6297 147.905 98.1494 147.99C97.9132 148.032 97.6697 148.074 97.4319 148.105C96.6748 148.207 95.8689 148.282 95.1113 148.132C94.8013 148.071 94.475 147.967 94.2433 147.742C94.0037 147.509 94.078 147.211 94.1635 146.919C94.2946 146.469 94.4987 146.031 94.7127 145.616C94.9026 145.249 95.095 144.879 95.2973 144.518C96.3761 142.591 97.6049 140.752 98.796 138.894C99.2165 138.238 99.6351 137.578 100.036 136.91C100.212 136.617 100.402 136.318 100.523 135.997C101.676 132.957 102.714 129.883 103.588 126.75C105.196 120.987 106.287 115.088 107.237 109.186C107.685 106.407 107.871 103.582 108.017 100.771C108.051 100.116 108.085 99.4609 108.087 98.8048C108.089 98.4717 108.132 98.051 108.017 97.7242C107.964 97.5756 107.794 97.5839 107.662 97.6091C107.394 97.6605 107.136 97.8039 106.901 97.9368C106.733 98.0314 106.559 98.1281 106.396 98.2291C105.465 98.8027 104.586 99.4553 103.712 100.107C101.134 102.027 98.6632 104.112 96.245 106.227C95.4822 106.895 94.7243 107.57 93.9864 108.265C93.5496 108.676 93.0804 109.091 92.7109 109.567C90.6144 112.266 88.8075 115.176 87.113 118.141C85.1778 121.526 83.3938 124.996 81.7277 128.522C79.3349 133.584 77.1739 138.758 75.2883 144.031C73.8318 148.104 72.5406 152.239 71.5062 156.44C70.4532 160.717 69.6384 165.097 69.4424 169.505C69.3134 172.406 69.441 175.373 70.2219 178.185C70.7095 179.941 71.5233 181.547 72.4805 183.092C73.2408 184.32 74.0912 185.489 75.0137 186.6C77.4139 189.489 80.3316 191.993 83.57 193.898C84.0636 194.189 84.5396 194.452 85.0492 194.713C85.2996 194.842 85.5394 194.985 85.8021 195.085C86.4502 195.333 87.16 195.404 87.8482 195.493C88.2855 195.549 88.7217 195.596 89.1591 195.652C89.3213 195.673 89.6352 195.729 89.7968 195.758C90.6846 195.92 92.3111 196.255 92.0112 197.512C91.8262 198.287 90.9742 198.904 90.3548 199.319C89.3063 200.022 88.1445 200.551 86.9801 201.029C85.9714 201.443 84.9461 201.807 83.9066 202.136C82.8456 202.471 81.763 202.767 80.6736 202.995C80.3297 203.067 79.9477 203.169 79.593 203.154C78.8642 203.124 78.1404 202.872 77.4495 202.658C76.8 202.458 76.1533 202.24 75.5097 202.021C74.5413 201.691 73.5804 201.354 72.6134 201.02C71.479 200.628 70.3405 200.24 69.1855 199.913C68.663 199.765 68.1281 199.618 67.5912 199.532C66.9083 199.422 66.2007 199.356 66.0677 200.231C65.9569 200.961 66.2968 201.794 66.5726 202.437C66.9048 203.212 67.3138 203.953 67.7418 204.678C68.9229 206.679 70.3308 208.539 71.6302 210.462C72.8145 212.215 73.9422 213.999 75.0314 215.812C77.6297 220.137 79.9237 224.634 81.9225 229.266C82.6008 230.838 83.2459 232.422 83.8535 234.023C84.0726 234.6 84.3136 235.161 84.4646 235.759C84.8619 237.331 85.0474 238.968 85.2175 240.577C85.4705 242.971 85.6173 245.38 85.6515 247.787C85.6677 248.923 85.6447 250.062 85.6072 251.197C85.5466 253.037 85.3798 254.891 85.0226 256.698C84.8146 257.75 84.5355 258.8 84.0926 259.78C83.556 260.968 82.662 262.199 81.2317 262.225C80.919 262.23 80.6083 262.171 80.3016 262.11C80.2122 262.092 79.993 261.984 79.841 261.941C79.8152 261.786 79.7911 261.628 79.7702 261.472C79.7535 261.348 79.7332 261.224 79.717 261.1C79.697 260.946 79.6834 260.793 79.6639 260.639C79.6412 260.46 79.6153 260.287 79.593 260.108C79.4178 258.7 79.2445 257.291 79.0704 255.883C78.8875 254.402 78.7035 252.915 78.5036 251.436C78.4296 250.889 78.3568 250.344 78.2733 249.798C78.2272 249.497 78.1913 249.187 78.105 248.894C76.9479 244.967 74.9361 241.344 72.7817 237.884C71.0926 235.172 69.2353 232.554 67.2458 230.055C66.4479 229.052 65.6362 228.091 64.7302 227.185C64.474 226.928 64.2319 226.653 63.9596 226.414C63.7003 226.186 63.4101 225.995 63.1359 225.785C60.7326 223.947 57.9556 222.637 55.7754 220.506C54.3918 219.154 53.1116 217.681 51.8781 216.193C50.1704 214.132 48.5702 211.989 47.0596 209.78C44.3587 205.831 41.8392 201.655 40.1774 197.149C39.1202 194.283 38.5624 191.263 38.1933 188.238C37.5041 182.591 37.5928 176.841 37.9099 171.17C37.9736 170.031 38.1856 168.895 38.3616 167.769C38.5777 166.387 38.7951 165.003 38.8931 163.606C38.9539 162.739 38.9876 161.841 38.8133 160.984C38.7763 160.802 38.703 160.508 38.6185 160.338C38.5332 160.166 38.3067 160.109 38.1402 160.063C37.8269 159.977 37.4968 159.938 37.1747 159.904C35.6881 159.744 34.1855 159.726 32.6928 159.682C31.1821 159.638 29.6678 159.599 28.1578 159.532C25.7768 159.425 23.3879 159.274 21.0276 158.929C19.476 158.703 17.9088 158.411 16.4394 157.849C15.26 157.397 13.7952 156.651 13.5519 155.271C13.5296 155.144 13.5169 155.01 13.5165 154.881C13.516 154.742 13.5414 154.604 13.5519 154.465C13.5586 154.376 13.5857 154.255 13.6316 154.182C13.7033 154.067 13.8546 154.011 13.9682 153.951C13.9955 153.937 14.0207 153.921 14.0479 153.907C14.5276 153.769 15.0008 153.611 15.4828 153.482C16.1039 153.316 16.7277 153.176 17.3517 153.021C18.2777 152.792 19.2151 152.574 20.1418 152.348C20.648 152.225 21.1631 152.119 21.6565 151.95C22.2086 151.759 22.7538 151.439 23.2597 151.152C23.7261 150.888 24.2509 150.558 24.6946 150.258C27.2086 148.559 29.4094 146.418 31.4174 144.155C34.6836 140.474 37.4262 136.36 39.7168 132.011C43.741 124.371 46.5531 116.176 50.142 108.335C52.1195 104.015 54.3365 99.769 57.1217 95.9085C58.0879 94.5692 59.1359 93.3025 60.1864 92.0289C61.4341 90.5161 62.6888 89.0065 63.9685 87.5205C67.3849 83.5532 71.0015 79.736 75.1909 76.5726C78.0892 74.3842 81.2016 72.4679 84.3761 70.709C89.101 68.0911 94.0141 65.8278 99.0263 63.8179C107.783 60.3064 116.867 57.5733 126.103 55.6514C133.284 54.1572 140.577 53.1366 147.911 52.8435C156.146 52.5144 164.559 53.0427 172.508 55.3413C175.232 56.1293 177.891 57.1393 180.426 58.4149C181.052 58.7299 181.634 59.0324 182.242 59.3803C182.538 59.5499 182.83 59.7364 183.128 59.9029C183.188 59.9368 183.256 59.9621 183.323 59.9826C183.376 59.9991 183.536 60.032 183.482 60.0181C183.462 60.0129 183.524 60.0292 183.544 60.0358C183.578 60.047 183.604 60.0545 183.641 60.0535C183.882 60.0469 184.034 59.8102 184.146 59.6283C184.186 59.5649 184.231 59.4969 184.27 59.4335C184.28 59.4176 184.287 59.4051 184.297 59.3892C184.3 59.3835 184.3 59.3799 184.306 59.3715C184.3 59.3784 184.31 59.3609 184.315 59.3538C184.464 59.159 184.609 58.9665 184.766 58.778C184.943 58.566 185.125 58.3579 185.316 58.158C186.231 57.1975 187.263 56.3518 188.327 55.5628C189.896 54.3992 191.56 53.3643 193.278 52.4361C195.287 51.3508 197.377 50.4232 199.558 49.7434C200.721 49.3812 201.979 49.0843 203.216 49.1146Z" fill="#ffacca" stroke="none"/>
</g>
<path d="M194.686 80.868C189.285 70.0652 170.804 59.0084 166.446 77.8953C162.832 93.5537 171.507 148.179 148.822 148.179" fill="none" opacity="1" stroke="#fa4485" stroke-linecap="round" stroke-linejoin="round" stroke-width="5"/>
<path d="M146.274 148.391C144.839 148.869 147.03 146.393 147.336 145.631C148.646 142.354 148.521 139.124 148.185 135.651C147.459 128.154 142.027 119.95 142.027 113.143" fill="none" opacity="1" stroke="#fa4485" stroke-linecap="round" stroke-linejoin="round" stroke-width="5"/>
<path d="M140.328 112.081C134.669 120.57 131.609 128.391 123.554 135.226C116.386 141.308 109.085 145.201 99.9846 147.542C99.8317 147.581 89.6487 150.277 90.0048 150.514C91.0006 151.178 92.4215 148.849 92.7651 148.391C97.6437 141.886 100.023 133.628 102.108 125.883C107.285 106.653 106.746 75.0716 132.26 69.4019" fill="none" opacity="1" stroke="#fa4485" stroke-linecap="round" stroke-linejoin="round" stroke-width="5"/>
<path d="M107.204 97.0056C90.2029 108.34 68.7945 152.122 70.8945 172.597C72.027 183.638 77.2972 195.018 89.5801 195.53C91.2664 195.6 93.1959 196.088 94.2515 194.68" fill="none" opacity="1" stroke="#fa4485" stroke-linecap="round" stroke-linejoin="round" stroke-width="5"/>
<path d="M93.1898 194.893C87.52 206.232 66.7281 205.406 63.4627 192.344" fill="none" opacity="1" stroke="#fa4485" stroke-linecap="round" stroke-linejoin="round" stroke-width="5"/>
<path d="M166.24 85.266C171.341 86.1162 174.293 90.6549 178.296 91.9893" fill="none" opacity="1" stroke="#fa4485" stroke-linecap="round" stroke-linejoin="round" stroke-width="5"/>
<path d="M177.832 92.453C177.396 92.453 184.311 84.7265 187.801 84.3387C191.068 83.9757 195.452 90.711 195.452 93.6121" fill="none" opacity="1" stroke="#fa4485" stroke-linecap="round" stroke-linejoin="round" stroke-width="5"/>
<path d="M194.756 82.484C195.588 85.3944 195.649 88.3753 196.379 91.2938" fill="none" opacity="1" stroke="#fa4485" stroke-linecap="round" stroke-linejoin="round" stroke-width="5"/>
<path d="M197.177 91.7645C197.177 87.6656 208.168 86.055 210.724 87.6521C222.128 94.7801 229.281 103.407 236.124 114.988C252.763 143.146 259.681 187.983 229.109 208.364" fill="none" opacity="1" stroke="#fa4485" stroke-linecap="round" stroke-linejoin="round" stroke-width="5"/>
<path d="M215.32 69.2671C215.32 66.0662 227.705 67.6537 229.109 67.8156C240.259 69.1022 250.381 79.1051 256.444 88.3778C269.657 108.586 269.586 136.201 280.635 157.563C283.815 163.712 293.434 175.838 301.923 171.594" fill="none" opacity="1" stroke="#fa4485" stroke-linecap="round" stroke-linejoin="round" stroke-width="5"/>
<path d="M273.378 173.771C281.091 179.556 294.718 177.841 301.923 172.078" fill="none" opacity="1" stroke="#fa4485" stroke-linecap="round" stroke-linejoin="round" stroke-width="5"/>
<path d="M229.109 209.09C214.655 216.316 250.447 206.693 255.96 202.558" fill="none" opacity="1" stroke="#fa4485" stroke-linecap="round" stroke-linejoin="round" stroke-width="5"/>
<path d="M254.993 202.316C251.534 219.611 219.926 261.683 251.848 271.26" fill="none" opacity="1" stroke="#fa4485" stroke-linecap="round" stroke-linejoin="round" stroke-width="5"/>
<path d="M251.122 269.809C249.701 269.809 248.36 266.39 247.736 265.454C242.938 258.258 247.763 251.134 251.606 244.408C255.642 237.344 264.305 233.322 270.233 227.959C285.161 214.452 292.005 202.488 292.005 181.996" fill="none" opacity="1" stroke="#fa4485" stroke-linecap="round" stroke-linejoin="round" stroke-width="5"/>
<path d="M186.049 57.1717C197.135 46.0856 213.086 49.4079 226.448 54.7526C257.174 67.0432 275.718 92.8317 284.022 124.664C285.242 129.341 289.606 163.866 290.311 164.337" fill="none" opacity="1" stroke="#fa4485" stroke-linecap="round" stroke-linejoin="round" stroke-width="5"/>
<path d="M289.827 164.579L290.553 167.482" fill="none" opacity="1" stroke="#fa4485" stroke-linecap="round" stroke-linejoin="round" stroke-width="5"/>
<path d="M251.074 205.259C261.616 198.231 269.954 188.355 271.791 175.496" fill="none" opacity="1" stroke="#fa4485" stroke-linecap="round" stroke-linejoin="round" stroke-width="5"/>
<path d="M271.791 175.788L272.083 171.995" fill="none" opacity="1" stroke="#fa4485" stroke-linecap="round" stroke-linejoin="round" stroke-width="5"/>
<path d="M184.542 59.3607C179.557 59.3607 171.566 51.9705 165.459 51.1824C131.197 46.7615 96.3298 59.0716 69.7975 80.9217C49.805 97.3861 47.0243 119.914 33.3668 140.4C28.0817 148.328 17.1286 155.877 8.08846 150.066" fill="none" opacity="1" stroke="#fa4485" stroke-linecap="round" stroke-linejoin="round" stroke-width="5"/>
<path d="M6.52336 150.009C17.6514 161.137 23.118 162.558 38.5101 158.71" fill="none" opacity="1" stroke="#fa4485" stroke-linecap="round" stroke-linejoin="round" stroke-width="5"/>
<path d="M37.7425 158.71C37.1185 157.462 37.4866 161.289 37.4866 161.78C37.4866 164.873 37.4987 167.91 37.2307 170.993C36.4926 179.481 38.0679 189.771 40.5573 197.862C47.0124 218.84 69.6482 228.944 76.6384 246.737C78.7866 252.206 80.8462 263.888 73.8236 266.697" fill="none" opacity="1" stroke="#fa4485" stroke-linecap="round" stroke-linejoin="round" stroke-width="5"/>
<path d="M65.1232 193C63.4565 189.666 70.0343 208.287 73.5677 212.703C82.3363 223.664 93.6309 255.171 77.4061 264.906" fill="none" opacity="1" stroke="#fa4485" stroke-linecap="round" stroke-linejoin="round" stroke-width="5"/>
</g>
</svg>
