<?xml version="1.0" encoding="UTF-8" standalone="no"?>
<!DOCTYPE svg PUBLIC "-//W3C//DTD SVG 1.1//EN" "http://www.w3.org/Graphics/SVG/1.1/DTD/svg11.dtd">
<!-- Created with Vectornator (http://vectornator.io/) -->
<svg height="100%" stroke-miterlimit="10" style="fill-rule:nonzero;clip-rule:evenodd;stroke-linecap:round;stroke-linejoin:round;" version="1.1" viewBox="32.2912 47.3226 263.111 238.435" width="100%" xml:space="preserve" xmlns="http://www.w3.org/2000/svg" xmlns:xlink="http://www.w3.org/1999/xlink">
<defs/>
<g id="bangs-1">
<path d="M59.2521 203.57C59.2521 217.931 59.4929 232.301 59.4929 246.665C59.4929 250.546 60.3032 254.897 60.9374 258.703C61.0047 259.106 61.5186 259.679 61.1782 259.906C59.5132 261.016 55.8524 251.978 55.4001 250.998C51.3462 242.215 48.7869 232.603 45.7699 223.552C38.6607 202.225 33.3361 164.707 38.788 142.9C41.0772 133.743 42.736 125.133 46.9737 116.657C48.4088 113.787 49.1682 110.824 50.585 107.99C51.2118 106.737 52.2703 102.737 52.2703 104.138C52.2703 106.66 50.401 109.505 49.622 111.842C46.8471 120.167 44.9318 128.802 42.1586 137.122C41.6466 138.658 39.876 149.727 36.3805 145.067C32.9862 140.541 39.213 128.624 40.714 124.121C48.316 101.315 66.4615 78.2892 87.1797 65.8583C106.004 54.5637 134.356 46.2585 156.517 50.6908C160.659 51.5191 165.418 50.3881 169.518 51.413C172.175 52.0773 177.754 52.9555 179.87 54.5428C181.227 55.5605 182.954 61.0432 184.685 61.0432C185.955 61.0432 192.67 51.7041 196.723 50.6908C200.298 49.797 204.457 51.4672 207.798 52.1353C222.406 55.0569 233.275 62.3459 246.559 68.9881C267.116 79.2668 276.647 102.432 283.635 123.399C285.704 129.606 288.582 134.319 289.413 140.974C289.46 141.343 290.05 146.27 289.895 146.27C289.371 146.27 289.107 143.732 288.932 143.381C287.993 141.504 286.42 140.084 285.321 138.325C281.361 131.991 273.252 120.892 272.561 113.287C272.129 108.544 276.071 100.933 279.302 108.472C281.744 114.172 282.886 121.819 284.117 127.973C285.174 133.259 287.833 138.504 289.173 143.863C290.703 149.984 288.858 156.661 289.895 162.882C293.472 184.348 285.279 208.817 277.857 228.608C274.318 238.045 263.294 256.368 255.949 262.795C253.059 265.324 252.068 269.43 248.485 271.222C248.311 271.309 247.246 272.011 247.041 271.703C245.648 269.615 250.717 261.441 251.133 258.943C252.629 249.973 254.35 241.157 255.467 232.22C256.071 227.391 253.323 222.718 254.263 218.015C255.27 212.979 254.986 207.955 254.986 202.848C254.986 202.446 255.344 201.823 254.986 201.644C254.71 201.506 252.977 203.861 252.819 204.051C250.336 207.031 247.955 209.204 244.874 211.515C244.355 211.904 239.32 214.097 239.096 213.2C238.705 211.636 243.227 206.555 244.152 205.014C245.006 203.59 243.965 201.518 244.633 199.959C246.341 195.973 247.833 193.591 248.726 189.125C250.932 178.096 246.155 169.287 244.152 159.271C240.933 143.181 232.579 127.234 220.798 115.454C218.667 113.322 220.097 123.744 220.317 124.843C221.743 131.975 224.679 138.71 226.095 145.789C226.146 146.043 226.11 146.581 225.854 146.752C225.181 147.2 223.296 147.339 222.484 147.474C220.056 147.879 210.549 147.612 208.761 146.27C206.83 144.822 206.373 141.716 204.668 140.011C203.025 138.368 200.617 137.782 199.612 135.436C198.3 132.375 198.677 128.991 197.204 126.047C193.971 119.58 189.938 114.86 189.019 107.509C188.615 104.28 185.495 83.3566 182.759 81.9888C181.945 81.5817 180.737 84.7324 180.592 85.1186C178.637 90.332 178.391 96.7075 177.703 102.212C176.157 114.58 168.881 129.303 161.573 139.048C159.939 141.226 156.57 147.175 153.869 147.715C151.712 148.146 134.662 145.897 134.608 145.789C134.318 145.207 135.348 144.734 135.571 144.585C138.074 142.916 141.66 136.154 142.072 133.27C142.604 129.544 143.319 123.967 141.59 120.51C141.361 120.051 139.148 113.011 140.146 114.009C144.198 118.061 133.197 126.977 129.552 130.621C117.603 142.571 115.438 152.304 96.5691 149.159C94.0748 148.744 92 150.364 89.5872 149.882C83.431 148.65 92.0995 132.4 92.717 128.695C92.8833 127.698 93.8859 121.164 91.754 124.362C79.2411 143.131 71.6624 162.309 68.8823 184.55C68.1099 190.729 74.9256 205.663 73.4566 210.07C73.3692 210.332 72.6737 210.356 72.4936 210.311C70.5357 209.821 59.9171 203.054 59.2521 204.051C57.6121 206.511 58.7985 214.338 58.5299 217.293C57.08 233.241 61.6597 248.046 61.6597 263.518" fill="#ffacca" fill-rule="nonzero" opacity="1" stroke="#ffacca" stroke-linecap="round" stroke-linejoin="round" stroke-width="0.92836"/>
<path d="M180.5 81.2178C180.675 80.6932 180.773 79.5814 180.773 79.5814C180.773 79.5814 180.383 86.1255 180.227 89.3996C180.003 94.1117 178.545 98.6771 177.773 103.309C174.984 120.041 166.713 135.368 154.864 147.218" fill="none" opacity="1" stroke="#fa4485" stroke-linecap="round" stroke-linejoin="round" stroke-width="5"/>
<path d="M140.955 118.581C140.955 125.322 141.576 131.911 138.773 138.218C138.399 139.059 133.538 146.184 133.864 146.672C134.904 148.232 145.047 147.909 146.955 148.036C149.484 148.205 152.247 149.344 154.318 148.309" fill="none" opacity="1" stroke="#fa4485" stroke-linecap="round" stroke-linejoin="round" stroke-width="5"/>
<path d="M140.136 117.218C133.831 129.829 124.624 137.488 114.227 146.4" fill="none" opacity="1" stroke="#fa4485" stroke-linecap="round" stroke-linejoin="round" stroke-width="5"/>
<path d="M88.3182 150.218C96.5098 150.218 105.185 150.296 113.136 148.309" fill="none" opacity="1" stroke="#fa4485" stroke-linecap="round" stroke-linejoin="round" stroke-width="5"/>
<path d="M100.318 110.672C97.8718 112.303 97.0618 118.379 96.2273 120.763C93.1016 129.694 87.2273 141.057 87.2273 150.763" fill="none" opacity="1" stroke="#fa4485" stroke-linecap="round" stroke-linejoin="round" stroke-width="5"/>
<path d="M96.5 116.945C93.7813 119.664 92.2427 124.375 90.2273 127.581C78.0201 147.002 70.1881 167.656 71.4091 190.854C71.7031 196.44 72.332 210.889 79.3182 213.218" fill="none" opacity="1" stroke="#fa4485" stroke-linecap="round" stroke-linejoin="round" stroke-width="5"/>
<path d="M60.2273 203.4C59.264 202.918 65.8297 207.068 66.5 207.49C69.7603 209.543 74.2001 212.672 78.2273 212.672" fill="none" opacity="1" stroke="#fa4485" stroke-linecap="round" stroke-linejoin="round" stroke-width="5"/>
<path d="M59.1364 202.854C59.1364 225.362 58.1945 249.342 66.2273 270.763" fill="none" opacity="1" stroke="#fa4485" stroke-linecap="round" stroke-linejoin="round" stroke-width="5"/>
<path d="M34.8636 151.581C34.8636 150.703 34.8636 157.025 34.8636 157.854C34.8636 161.036 34.7007 164.222 34.8636 167.4C35.3152 176.206 35.8579 185.189 37.5909 193.854C41.6244 214.021 46.89 234.175 55.5909 252.763C58.7474 259.507 60.9162 266.801 65.9545 272.4" fill="none" opacity="1" stroke="#fa4485" stroke-linecap="round" stroke-linejoin="round" stroke-width="5"/>
<path d="M173.955 49.8541C147.726 49.8541 122.032 48.7643 96.7727 59.3996C90.9045 61.8704 85.5872 66.6571 80.6818 70.5814C54.0701 91.8708 35.1364 118.06 35.1364 154.036" fill="none" opacity="1" stroke="#fa4485" stroke-linecap="round" stroke-linejoin="round" stroke-width="5"/>
<path d="M175.255 50.654C179.11 52.9669 182.584 57.0316 185.063 60.7507" fill="none" opacity="1" stroke="#fa4485" stroke-linecap="round" stroke-linejoin="round" stroke-width="5"/>
<path d="M186.217 59.5968C185.28 57.7216 191.566 52.5955 193.141 51.8079" fill="none" opacity="1" stroke="#fa4485" stroke-linecap="round" stroke-linejoin="round" stroke-width="5"/>
<path d="M193.718 50.654C205.236 50.654 219.189 53.8699 229.488 59.0198C241.575 65.0629 254.301 69.4412 263.24 80.3669C303.813 129.956 300.9 199.991 265.836 252.586" fill="none" opacity="1" stroke="#fa4485" stroke-linecap="round" stroke-linejoin="round" stroke-width="5"/>
<path d="M240.163 283.258C240.954 281.677 243.514 280.26 244.663 278.758C251.01 270.458 260.479 262.637 265.146 253.302" fill="none" opacity="1" stroke="#fa4485" stroke-linecap="round" stroke-linejoin="round" stroke-width="5"/>
<path d="M255.163 204.7C252.413 215.699 255.963 228.99 254.586 240.47C252.675 256.39 246.865 269.182 239.874 283.165" fill="none" opacity="1" stroke="#fa4485" stroke-linecap="round" stroke-linejoin="round" stroke-width="5"/>
<path d="M237.566 214.508C235.839 215.371 242.832 213.461 243.047 213.354C246.796 211.479 251.62 208.86 254.009 205.276" fill="none" opacity="1" stroke="#fa4485" stroke-linecap="round" stroke-linejoin="round" stroke-width="5"/>
<path d="M220.834 114.984C220.558 114.984 226.064 123.412 226.892 124.792C230.102 130.142 233.852 135.281 236.989 140.658C246.988 157.8 252.942 179.437 246.22 198.642C245.429 200.9 237.605 215.373 235.835 215.373" fill="none" opacity="1" stroke="#fa4485" stroke-linecap="round" stroke-linejoin="round" stroke-width="5"/>
<path d="M220.045 116.127C220.045 114.849 221.342 124.501 221.682 125.945C223.154 132.201 224.546 140.128 227.409 145.854" fill="none" opacity="1" stroke="#fa4485" stroke-linecap="round" stroke-linejoin="round" stroke-width="5"/>
<path d="M210.227 147.218C208.517 147.788 214.842 147.442 215.955 147.49C220.001 147.666 223.698 146.4 227.682 146.4" fill="none" opacity="1" stroke="#fa4485" stroke-linecap="round" stroke-linejoin="round" stroke-width="5"/>
<path d="M181.864 78.4905C182.418 78.2135 183.012 86.8318 183.227 88.0359C183.906 91.8352 185.021 95.4851 185.955 99.2178C189.451 113.203 192.713 125.139 200.955 137.127C202.684 139.642 206.426 147.763 209.955 147.763" fill="none" opacity="1" stroke="#fa4485" stroke-linecap="round" stroke-linejoin="round" stroke-width="5"/>
</g>
</svg>
