<?xml version="1.0" encoding="UTF-8" standalone="no"?>
<!DOCTYPE svg PUBLIC "-//W3C//DTD SVG 1.1//EN" "http://www.w3.org/Graphics/SVG/1.1/DTD/svg11.dtd">
<!-- Created with Vectornator (http://vectornator.io/) -->
<svg height="100%" stroke-miterlimit="10" style="fill-rule:nonzero;clip-rule:evenodd;stroke-linecap:round;stroke-linejoin:round;" version="1.1" viewBox="72.9289 147.746 180.672 51.3274" width="100%" xml:space="preserve" xmlns="http://www.w3.org/2000/svg" xmlns:xlink="http://www.w3.org/1999/xlink">
<defs/>
<g id="eye-2">
<g opacity="1">
<path d="M196.393 164.371C187.633 168.751 193.102 182.696 199.817 186.053C214.333 193.311 238.177 187.334 241.583 170.305C242.232 167.061 244.148 162.653 242.496 159.35" fill="#ffffff" fill-rule="nonzero" opacity="1" stroke="#ffffff" stroke-linecap="round" stroke-linejoin="round" stroke-width="0.5"/>
<g opacity="1">
<path d="M216.064 160.368C215.64 160.375 215.347 160.399 214.876 160.399C214.618 160.399 214.392 160.4 213.939 160.399C213.202 160.397 213.099 160.424 212.595 160.43C212.357 160.447 212.113 160.458 211.876 160.462C210.453 160.893 209.939 160.913 207.939 161.555C206.07 162.156 205.237 162.417 204.189 162.743C202.915 163.139 201.917 163.391 200.782 163.712C200.549 164.663 200.251 165.596 200.251 166.618C200.251 174.902 206.967 181.618 215.251 181.618C223.535 181.618 230.251 174.902 230.251 166.618C230.251 165.169 230.002 163.775 229.595 162.462C226.99 162.143 224.4 161.826 223.095 161.649C220.213 161.258 218.213 160.817 216.064 160.368Z" fill="#ffbbc4" fill-rule="nonzero" opacity="1" stroke="#fa4485" stroke-linecap="butt" stroke-linejoin="round" stroke-width="4"/>
<path d="M215.251 163.118C213.318 163.118 211.751 164.685 211.751 166.618C211.751 168.551 213.318 170.118 215.251 170.118C217.184 170.118 218.751 168.551 218.751 166.618C218.751 164.685 217.184 163.118 215.251 163.118Z" fill="#fa4485" fill-rule="nonzero" opacity="1" stroke="#fa4485" stroke-linecap="butt" stroke-linejoin="round" stroke-width="4.5"/>
</g>
<path d="M194.877 164.416C194.659 164.416 197.681 163.629 198.595 163.446C200.875 162.99 203.694 163.037 205.706 161.83C208.091 160.399 208.746 158.432 209.262 155.849C209.301 155.657 209.538 153.102 209.747 153.102C210.184 153.102 211.067 160.122 211.525 160.213C216.306 161.17 222.422 159.338 225.749 156.011C227.039 154.72 228.001 151.992 228.819 150.354C229.178 149.638 229.061 147.525 229.628 148.091C231.579 150.042 227.976 156.038 228.819 157.304C229.264 157.971 233.929 157.142 234.8 157.142C239.881 157.142 245.049 155.545 249.993 154.556C250.888 154.377 252.547 153.102 253.226 153.102C253.722 153.102 252.607 153.882 252.256 154.233C251.223 155.266 249.893 155.95 248.862 156.981C245.495 160.348 243.807 160.197 239.164 160.86C229.333 162.264 218.231 162.638 208.292 162.638C205.071 162.638 201.766 163.726 198.595 164.254C196.986 164.522 193.746 164.901 193.746 164.901C193.746 164.901 195.108 164.065 195.847 163.769C198.999 162.508 202.348 160.723 205.706 160.052C214.716 158.25 223.729 157.466 233.022 157.466C234.563 157.466 246.429 156.828 245.306 157.951" fill="#000000" fill-rule="nonzero" opacity="1" stroke="#000000" stroke-linecap="round" stroke-linejoin="round" stroke-width="0.5"/>
<path d="M203.197 188.465C204.379 189.017 206.65 188.608 207.988 188.67C215.496 189.022 222.982 189.146 229.938 185.592C232.109 184.483 234.144 182.288 236.49 181.626C238.07 181.181 241.603 187.77 241.802 189.082C241.823 189.217 241.984 190.139 241.917 190.173C241.866 190.199 241.131 189.467 241.101 189.44C239.547 188.084 237.398 186.403 235.295 186.039C231.229 185.336 226.245 188.908 222.476 190.2C222.359 190.241 222.085 196.109 221.796 197.003C221.601 197.604 221.813 198.999 221.213 198.805C220.563 198.594 221.308 197.397 221.054 196.763C220.497 195.375 219.344 191.385 217.624 191.088C216.725 190.932 210.146 190.345 209.558 191.052C209.242 191.432 208.35 195.343 207.551 195.084C206.27 194.67 207.869 192.173 207.093 191.073C206.641 190.431 203.174 188.455 203.197 188.465Z" fill="#000000" fill-rule="nonzero" opacity="1" stroke="#000000" stroke-linecap="round" stroke-linejoin="round" stroke-width="0.5"/>
<path d="M220.852 190.679C220.7 190.655 221.978 190.449 222.334 190.378C223.144 190.218 223.938 189.96 224.759 189.846C227.288 189.494 230.646 188.123 232.862 186.791C233.393 186.471 236.358 184.383 235.964 184.323" fill="#000000" fill-rule="nonzero" opacity="1" stroke="#000000" stroke-linecap="round" stroke-linejoin="round" stroke-width="0.5"/>
</g>
<g opacity="1">
<path d="M130.137 164.371C138.897 168.751 133.428 182.696 126.713 186.053C112.197 193.311 88.3526 187.334 84.9468 170.305C84.2979 167.061 82.3821 162.653 84.0338 159.35" fill="#ffffff" fill-rule="nonzero" opacity="1" stroke="#ffffff" stroke-linecap="round" stroke-linejoin="round" stroke-width="0.5"/>
<g opacity="1">
<path d="M110.466 160.368C110.89 160.375 111.184 160.399 111.654 160.399C111.912 160.399 112.138 160.4 112.591 160.399C113.328 160.397 113.431 160.424 113.935 160.43C114.173 160.447 114.417 160.458 114.654 160.462C116.077 160.893 116.591 160.913 118.591 161.555C120.461 162.156 121.293 162.417 122.341 162.743C123.615 163.139 124.613 163.391 125.748 163.712C125.981 164.663 126.279 165.596 126.279 166.618C126.279 174.902 119.563 181.618 111.279 181.618C102.995 181.618 96.2789 174.902 96.2789 166.618C96.2789 165.169 96.5282 163.775 96.9352 162.462C99.5398 162.143 102.13 161.826 103.435 161.649C106.317 161.258 108.317 160.817 110.466 160.368Z" fill="#ffbbc4" fill-rule="nonzero" opacity="1" stroke="#fa4485" stroke-linecap="butt" stroke-linejoin="round" stroke-width="4"/>
<path d="M111.279 163.118C113.212 163.118 114.779 164.685 114.779 166.618C114.779 168.551 113.212 170.118 111.279 170.118C109.346 170.118 107.779 168.551 107.779 166.618C107.779 164.685 109.346 163.118 111.279 163.118Z" fill="#fa4485" fill-rule="nonzero" opacity="1" stroke="#fa4485" stroke-linecap="butt" stroke-linejoin="round" stroke-width="4.5"/>
</g>
<path d="M131.653 164.416C131.871 164.416 128.849 163.629 127.936 163.446C125.655 162.99 122.836 163.037 120.824 161.83C118.44 160.399 117.784 158.432 117.268 155.849C117.229 155.657 116.992 153.102 116.783 153.102C116.346 153.102 115.463 160.122 115.005 160.213C110.224 161.17 104.109 159.338 100.782 156.011C99.4911 154.72 98.5295 151.992 97.7106 150.354C97.3524 149.638 97.4688 147.525 96.9024 148.091C94.9514 150.042 98.5544 156.038 97.7106 157.304C97.2657 157.971 92.6008 157.142 91.7303 157.142C86.6491 157.142 81.4806 155.545 76.537 154.556C75.6421 154.377 73.9834 153.102 73.3043 153.102C72.8076 153.102 73.9229 153.882 74.2741 154.233C75.3075 155.266 76.6373 155.95 77.6684 156.981C81.0356 160.348 82.7231 160.197 87.3662 160.86C97.1973 162.264 108.299 162.638 118.238 162.638C121.46 162.638 124.764 163.726 127.936 164.254C129.544 164.522 132.784 164.901 132.784 164.901C132.784 164.901 131.422 164.065 130.683 163.769C127.531 162.508 124.182 160.723 120.824 160.052C111.814 158.25 102.801 157.466 93.5082 157.466C91.9666 157.466 80.1014 156.828 81.2243 157.951" fill="#000000" fill-rule="nonzero" opacity="1" stroke="#000000" stroke-linecap="round" stroke-linejoin="round" stroke-width="0.5"/>
<path d="M123.334 188.465C122.151 189.017 119.88 188.608 118.542 188.67C111.034 189.022 103.548 189.146 96.5918 185.592C94.421 184.483 92.3858 182.288 90.0401 181.626C88.46 181.181 84.927 187.77 84.728 189.082C84.7075 189.217 84.5464 190.139 84.6129 190.173C84.6639 190.199 85.3987 189.467 85.4292 189.44C86.9826 188.084 89.1324 186.403 91.2346 186.039C95.3006 185.336 100.285 188.908 104.054 190.2C104.171 190.241 104.445 196.109 104.734 197.003C104.929 197.604 104.717 198.999 105.318 198.805C105.967 198.594 105.222 197.397 105.476 196.763C106.033 195.375 107.186 191.385 108.906 191.088C109.805 190.932 116.384 190.345 116.972 191.052C117.288 191.432 118.181 195.343 118.98 195.084C120.26 194.67 118.661 192.173 119.437 191.073C119.889 190.431 123.356 188.455 123.334 188.465Z" fill="#000000" fill-rule="nonzero" opacity="1" stroke="#000000" stroke-linecap="round" stroke-linejoin="round" stroke-width="0.5"/>
<path d="M105.678 190.679C105.83 190.655 104.552 190.449 104.196 190.378C103.386 190.218 102.592 189.96 101.771 189.846C99.2417 189.494 95.8836 188.123 93.6677 186.791C93.1368 186.471 90.1725 184.383 90.5665 184.323" fill="#000000" fill-rule="nonzero" opacity="1" stroke="#000000" stroke-linecap="round" stroke-linejoin="round" stroke-width="0.5"/>
</g>
</g>
</svg>
