<?xml version="1.0" encoding="UTF-8" standalone="no"?>
<!DOCTYPE svg PUBLIC "-//W3C//DTD SVG 1.1//EN" "http://www.w3.org/Graphics/SVG/1.1/DTD/svg11.dtd">
<!-- Created with Vectornator (http://vectornator.io/) -->
<svg height="100%" stroke-miterlimit="10" style="fill-rule:nonzero;clip-rule:evenodd;stroke-linecap:round;stroke-linejoin:round;" version="1.1" viewBox="72.9289 155.163 180.298 39.4334" width="100%" xml:space="preserve" xmlns="http://www.w3.org/2000/svg" xmlns:xlink="http://www.w3.org/1999/xlink">
<defs/>
<g id="eye-5">
<g opacity="1">
<path d="M191.614 161.931C190.411 162.22 190.584 167.652 190.584 168.746C190.584 174.913 193.906 180.549 198.667 184.119C208.445 191.453 239.015 187.456 243.836 175.403C244.574 173.559 250.607 158.242 250.017 157.652C249.896 157.53 238.678 157.924 237.655 157.81C229.122 156.862 219.826 158.453 211.346 159.395C204.503 160.155 198.226 160.342 191.614 161.931Z" fill="#ffffff" fill-rule="nonzero" opacity="1" stroke="#ffffff" stroke-linecap="round" stroke-linejoin="round" stroke-width="0.5"/>
<g opacity="1">
<path d="M227.188 161.24C226.215 161.294 225.651 161.328 224.251 161.396C218.898 161.654 216.926 161.746 214.157 161.958C207.534 162.467 202.248 163.313 197.72 164.646C198.053 172.635 204.586 179.021 212.657 179.021C220.941 179.021 227.657 172.305 227.657 164.021C227.657 163.039 227.419 162.14 227.188 161.24Z" fill="#ffbbc4" fill-rule="nonzero" opacity="1" stroke="#fa4485" stroke-linecap="butt" stroke-linejoin="round" stroke-width="4"/>
<path d="M215.376 161.896C215.058 161.919 214.491 161.933 214.157 161.958C212.417 162.092 211.166 162.372 209.595 162.552C209.378 163.008 209.157 163.481 209.157 164.021C209.157 165.954 210.724 167.521 212.657 167.521C214.59 167.521 216.157 165.954 216.157 164.021C216.157 163.206 215.848 162.472 215.376 161.896Z" fill="#fa4485" fill-rule="nonzero" opacity="1" stroke="#fa4485" stroke-linecap="butt" stroke-linejoin="round" stroke-width="4.5"/>
</g>
<path d="M223.813 155.521C220.839 155.661 217.857 155.93 214.97 156.208C206.723 157.002 198.312 157.399 190.22 159.333C190.225 159.536 190.343 160.474 190.345 160.49C190.526 161.973 190.585 162.712 190.501 163.771C190.494 163.858 190.448 163.934 190.438 164.021C191.295 163.627 192.183 163.164 192.876 163.021C195.51 162.476 198.228 161.961 200.907 161.615C208.917 160.578 216.863 160.162 224.907 159.771C229.44 159.551 234.011 158.754 238.563 158.677C242.079 158.618 245.623 158.724 249.126 158.677C249.305 158.675 252.825 158.759 252.907 158.615C253.092 158.288 252.898 155.96 252.438 155.833C251.227 155.498 249.893 155.959 248.657 155.896C246.048 155.762 243.571 155.621 240.938 155.615C238.193 155.608 235.397 155.661 232.657 155.521C229.757 155.372 226.788 155.381 223.813 155.521Z" fill="#000000" fill-rule="nonzero" opacity="1" stroke="#000000" stroke-linecap="round" stroke-linejoin="round" stroke-width="0.5"/>
<path d="M250.188 158.177L190.313 160.052C190.335 160.238 190.344 160.484 190.345 160.49C190.526 161.973 190.585 162.712 190.501 163.771C190.495 163.848 190.446 163.913 190.438 163.99C191.172 163.808 191.915 163.599 192.595 163.521C197.364 162.975 202.244 162.617 206.938 161.552C212.904 160.199 219.845 160.213 225.938 159.896C229.799 159.695 233.754 159.01 237.657 158.958C241.763 158.904 246.224 159.277 250.188 158.177Z" fill="#000000" fill-rule="nonzero" opacity="1" stroke="#000000" stroke-linecap="round" stroke-linejoin="round" stroke-width="0.5"/>
<path d="M199.236 185.245C198.993 185.093 198.746 184.908 198.61 184.655C198.438 184.336 199.289 184.92 199.597 185.112C200.337 185.574 199.82 185.198 200.577 185.326C202.161 185.593 203.632 186.516 205.24 186.645C209.709 187.006 214.372 187.51 218.877 186.963C224.14 186.324 229.975 185.82 234.835 183.561C236.564 182.757 238.715 182.243 240.235 181.086C240.822 180.64 241.505 180.239 242.018 179.694C242.335 179.357 242.927 178.376 243.086 178.81C243.468 179.85 240.768 182.528 240.058 183.282C239.951 183.395 239.191 183.768 239.225 183.915C239.416 184.739 241.74 185.916 242.238 186.988C242.365 187.26 243.3 190.65 243.078 190.612C242.339 190.488 241.212 188.704 240.573 188.255C237.681 186.219 233.698 185.979 230.429 186.736C229.819 186.877 228.034 186.744 227.651 187.428C227.552 187.606 228.367 188.533 228.425 188.865C228.703 190.467 228.8 192.431 228.336 193.978C228.299 194.101 228.353 194.342 228.225 194.346C228.132 194.349 227.783 192.607 227.68 192.416C227.275 191.664 224.782 188.002 224.019 188.025C223.444 188.042 218.022 188.624 217.838 188.82C217.054 189.653 217.554 191.462 216.975 192.496C216.919 192.596 216.823 192.825 216.74 192.746C215.831 191.891 216.256 189.228 214.427 188.679C212.971 188.243 208.634 188.489 207.001 188.539C204.333 188.619 201.41 186.603 199.236 185.245Z" fill="#000000" fill-rule="nonzero" opacity="1" stroke="#000000" stroke-linecap="round" stroke-linejoin="round" stroke-width="0.5"/>
</g>
<g opacity="1">
<path d="M134.541 161.931C135.744 162.22 135.571 167.652 135.571 168.746C135.571 174.913 132.249 180.549 127.488 184.119C117.71 191.453 87.1404 187.456 82.3191 175.403C81.5815 173.559 75.548 158.242 76.138 157.652C76.2594 157.53 87.4775 157.924 88.5002 157.81C97.0332 156.862 106.33 158.453 114.809 159.395C121.652 160.155 127.929 160.342 134.541 161.931Z" fill="#ffffff" fill-rule="nonzero" opacity="1" stroke="#ffffff" stroke-linecap="round" stroke-linejoin="round" stroke-width="0.5"/>
<g opacity="1">
<path d="M98.967 161.24C99.9399 161.294 100.505 161.328 101.905 161.396C107.257 161.654 109.23 161.746 111.998 161.958C118.622 162.467 123.907 163.313 128.436 164.646C128.102 172.635 121.569 179.021 113.498 179.021C105.214 179.021 98.4983 172.305 98.4983 164.021C98.4983 163.039 98.7365 162.14 98.967 161.24Z" fill="#ffbbc4" fill-rule="nonzero" opacity="1" stroke="#fa4485" stroke-linecap="butt" stroke-linejoin="round" stroke-width="4"/>
<path d="M110.78 161.896C111.098 161.919 111.664 161.933 111.998 161.958C113.739 162.092 114.989 162.372 116.561 162.552C116.777 163.008 116.998 163.481 116.998 164.021C116.998 165.954 115.431 167.521 113.498 167.521C111.565 167.521 109.998 165.954 109.998 164.021C109.998 163.206 110.308 162.472 110.78 161.896Z" fill="#fa4485" fill-rule="nonzero" opacity="1" stroke="#fa4485" stroke-linecap="butt" stroke-linejoin="round" stroke-width="4.5"/>
</g>
<path d="M102.342 155.521C105.317 155.661 108.298 155.93 111.186 156.208C119.433 157.002 127.843 157.399 135.936 159.333C135.931 159.536 135.813 160.474 135.811 160.49C135.63 161.973 135.57 162.712 135.655 163.771C135.662 163.858 135.708 163.934 135.717 164.021C134.861 163.627 133.972 163.164 133.28 163.021C130.646 162.476 127.928 161.961 125.248 161.615C117.239 160.578 109.292 160.162 101.248 159.771C96.7149 159.551 92.1446 158.754 87.592 158.677C84.0768 158.618 80.5322 158.724 77.0295 158.677C76.8503 158.675 73.3301 158.759 73.2483 158.615C73.0634 158.288 73.2578 155.96 73.717 155.833C74.9281 155.498 76.2621 155.959 77.4983 155.896C80.1072 155.762 82.5849 155.621 85.217 155.615C87.9626 155.608 90.7588 155.661 93.4983 155.521C96.3981 155.372 99.3675 155.381 102.342 155.521Z" fill="#000000" fill-rule="nonzero" opacity="1" stroke="#000000" stroke-linecap="round" stroke-linejoin="round" stroke-width="0.5"/>
<path d="M75.967 158.177L135.842 160.052C135.821 160.238 135.811 160.484 135.811 160.49C135.63 161.973 135.57 162.712 135.655 163.771C135.661 163.848 135.709 163.913 135.717 163.99C134.984 163.808 134.24 163.599 133.561 163.521C128.791 162.975 123.911 162.617 119.217 161.552C113.251 160.199 106.31 160.213 100.217 159.896C96.3563 159.695 92.4009 159.01 88.4983 158.958C84.3924 158.904 79.9314 159.277 75.967 158.177Z" fill="#000000" fill-rule="nonzero" opacity="1" stroke="#000000" stroke-linecap="round" stroke-linejoin="round" stroke-width="0.5"/>
<path d="M126.92 185.245C127.163 185.093 127.41 184.908 127.546 184.655C127.718 184.336 126.866 184.92 126.559 185.112C125.818 185.574 126.335 185.198 125.579 185.326C123.994 185.593 122.523 186.516 120.915 186.645C116.446 187.006 111.783 187.51 107.279 186.963C102.015 186.324 96.18 185.82 91.3209 183.561C89.5914 182.757 87.4402 182.243 85.9204 181.086C85.3333 180.64 84.6502 180.239 84.1374 179.694C83.8206 179.357 83.2284 178.376 83.0691 178.81C82.6873 179.85 85.3876 182.528 86.0974 183.282C86.2042 183.395 86.9641 183.768 86.93 183.915C86.7392 184.739 84.415 185.916 83.9171 186.988C83.7907 187.26 82.8552 190.65 83.0776 190.612C83.816 190.488 84.9436 188.704 85.5822 188.255C88.4741 186.219 92.457 185.979 95.7268 186.736C96.3359 186.877 98.1212 186.744 98.5043 187.428C98.6036 187.606 97.7886 188.533 97.7309 188.865C97.4525 190.467 97.3555 192.431 97.8197 193.978C97.8566 194.101 97.8021 194.342 97.9303 194.346C98.0237 194.349 98.3722 192.607 98.4753 192.416C98.8801 191.664 101.374 188.002 102.136 188.025C102.711 188.042 108.133 188.624 108.318 188.82C109.102 189.653 108.601 191.462 109.18 192.496C109.236 192.596 109.332 192.825 109.416 192.746C110.325 191.891 109.9 189.228 111.729 188.679C113.185 188.243 117.521 188.489 119.155 188.539C121.822 188.619 124.745 186.603 126.92 185.245Z" fill="#000000" fill-rule="nonzero" opacity="1" stroke="#000000" stroke-linecap="round" stroke-linejoin="round" stroke-width="0.5"/>
</g>
</g>
</svg>
