<?xml version="1.0" encoding="UTF-8" standalone="no"?>
<!DOCTYPE svg PUBLIC "-//W3C//DTD SVG 1.1//EN" "http://www.w3.org/Graphics/SVG/1.1/DTD/svg11.dtd">
<!-- Created with Vectornator (http://vectornator.io/) -->
<svg height="100%" stroke-miterlimit="10" style="fill-rule:nonzero;clip-rule:evenodd;stroke-linecap:round;stroke-linejoin:round;" version="1.1" viewBox="72.4827 140.345 181.035 57.5987" width="100%" xml:space="preserve" xmlns="http://www.w3.org/2000/svg" xmlns:xlink="http://www.w3.org/1999/xlink">
<defs/>
<g id="eye-1">
<g opacity="1">
<path d="M197.057 158.321C192.89 158.874 187.442 178.113 189.76 181.203C196.727 190.493 227.316 188.498 235.067 180.747C238.084 177.73 239.514 168.927 240.844 164.935C242.99 158.499 235.973 157.156 231.418 155.204C222.858 151.536 214.693 149.985 205.419 153.076C202.29 154.119 200.294 157.892 197.057 158.321Z" fill="#ffffff" fill-rule="nonzero" opacity="1" stroke="#ffffff" stroke-linecap="round" stroke-linejoin="round" stroke-width="0.5"/>
<g opacity="1">
<path d="M214.634 152.318C212.574 152.394 210.566 152.55 208.602 152.787C208.563 152.802 208.517 152.803 208.477 152.818C202.874 154.992 198.884 160.384 198.884 166.755C198.884 175.04 205.599 181.755 213.884 181.755C222.168 181.755 228.884 175.04 228.884 166.755C228.884 159.955 224.337 154.282 218.134 152.443C217 152.44 215.735 152.277 214.634 152.318Z" fill="#ffbbc4" fill-rule="nonzero" opacity="1" stroke="#fa4485" stroke-linecap="butt" stroke-linejoin="round" stroke-width="4"/>
<path d="M210.393 166.764C210.393 164.831 211.96 163.264 213.893 163.264C215.826 163.264 217.393 164.831 217.393 166.764C217.393 168.697 215.826 170.264 213.893 170.264C211.96 170.264 210.393 168.697 210.393 166.764Z" fill="#fa4485" fill-rule="nonzero" opacity="1" stroke="#fa4485" stroke-linecap="butt" stroke-linejoin="round" stroke-width="4.5"/>
</g>
<path d="M191.989 163.746C193.471 158.712 197.435 153.92 202.15 151.541C204.144 150.534 206.579 149.887 208.105 148.156C209.205 146.91 211.618 140.853 212.007 140.597C212.138 140.511 212.389 143.291 212.431 143.559C212.912 146.585 210.896 147.837 214.438 148.119C217.617 148.371 222.539 149.493 225.01 146.692C226.015 145.553 226.873 144.211 227.468 142.809C227.677 142.318 227.864 141.746 228.163 141.307C228.283 141.131 228.496 140.522 228.413 140.718C227.808 142.145 229.247 144.521 229.035 146.082C228.917 146.957 228.985 147.84 228.625 148.689C228.56 148.842 228.038 149.876 228.055 149.896C228.914 150.903 230.81 151.634 231.896 152.452C235.761 155.367 240.305 157.817 245.119 155.569C246.903 154.736 248.925 154.153 250.792 153.398C251.533 153.098 252.553 152.272 253.174 151.743C253.205 151.717 253.281 151.629 253.265 151.665C252.317 153.901 243.187 163.582 240.889 163.22C238.575 162.856 235.559 159.615 233.425 158.548C227.371 155.522 220.962 152.758 214.042 152.876C208.131 152.977 191.407 159.158 190.809 166.665" fill="#000000" fill-rule="nonzero" opacity="1" stroke="#000000" stroke-linecap="round" stroke-linejoin="round" stroke-width="0.5"/>
<path d="M236.115 181.803C235.907 181.932 236.458 182.155 236.625 182.334C237.127 182.876 237.707 183.443 238.04 184.114C238.908 185.862 239.585 187.714 240.478 189.433C240.762 189.979 241.109 190.674 241.319 191.259C241.434 191.58 241.942 192.46 241.723 192.198C235.311 184.549 228.979 185.059 220.811 189.301C220.66 189.379 220.835 189.781 220.868 189.918C221.227 191.423 220.94 193.603 220.524 195.089C220.369 195.639 220.131 196.22 219.931 196.761C219.82 197.063 219.582 197.941 219.507 197.628C218.819 194.737 217.346 190.937 214.02 190.288C212.952 190.08 211.919 189.839 210.828 189.743C210.266 189.694 209.021 188.963 209.152 189.512C209.48 190.891 208.502 192.015 207.677 193.151C207.513 193.377 207.444 194.094 207.265 193.88C205.891 192.241 208.414 188.567 204.145 188.724C203.555 188.745 201.66 191.814 201.012 192.398C200.861 192.533 200.745 192.924 200.572 192.818C200.516 192.784 200.835 192.14 200.846 192.077C200.986 191.262 201.123 190.408 201.15 189.573C201.164 189.13 200.382 185.882 200.873 185.765C201.413 185.637 202.604 186.713 203.156 186.843C204.963 187.265 207.047 187.483 208.908 187.544C214.298 187.718 219.548 187.777 224.747 185.976C227.35 185.073 229.761 183.892 232.284 182.828C232.685 182.659 236.531 181.545 236.115 181.803Z" fill="#000000" fill-rule="nonzero" opacity="1" stroke="#000000" stroke-linecap="round" stroke-linejoin="round" stroke-width="0.5"/>
</g>
<g opacity="1">
<path d="M128.631 158.055C132.799 158.608 138.247 177.847 135.929 180.937C128.962 190.227 98.3729 188.232 90.6216 180.481C87.6047 177.464 86.1748 168.661 84.8442 164.669C82.6987 158.232 89.7161 156.89 94.2706 154.938C102.831 151.27 110.996 149.719 120.269 152.81C123.398 153.853 125.394 157.626 128.631 158.055Z" fill="#ffffff" fill-rule="nonzero" opacity="1" stroke="#ffffff" stroke-linecap="round" stroke-linejoin="round" stroke-width="0.5"/>
<path d="M127.107 166.764C127.107 158.48 120.391 151.764 112.107 151.764C103.823 151.764 97.1069 158.48 97.1069 166.764C97.1069 175.049 103.823 181.764 112.107 181.764C120.391 181.764 127.107 175.049 127.107 166.764Z" fill="#ffbbc4" fill-rule="nonzero" opacity="1" stroke="#fa4485" stroke-linecap="butt" stroke-linejoin="round" stroke-width="4"/>
<path d="M115.607 166.764C115.607 164.831 114.04 163.264 112.107 163.264C110.174 163.264 108.607 164.831 108.607 166.764C108.607 168.697 110.174 170.264 112.107 170.264C114.04 170.264 115.607 168.697 115.607 166.764Z" fill="#fa4485" fill-rule="nonzero" opacity="1" stroke="#fa4485" stroke-linecap="butt" stroke-linejoin="round" stroke-width="4.5"/>
<path d="M134.011 163.746C132.529 158.712 128.565 153.92 123.85 151.541C121.856 150.534 119.421 149.887 117.895 148.156C116.795 146.91 114.382 140.853 113.993 140.597C113.862 140.511 113.611 143.291 113.569 143.559C113.088 146.585 115.104 147.837 111.562 148.119C108.383 148.371 103.461 149.493 100.99 146.692C99.9853 145.553 99.1265 144.211 98.532 142.809C98.3235 142.318 98.1365 141.746 97.8371 141.307C97.7169 141.131 97.5038 140.522 97.5871 140.718C98.1923 142.145 96.7529 144.521 96.9647 146.082C97.0835 146.957 97.0151 147.84 97.3752 148.689C97.4402 148.842 97.9619 149.876 97.9451 149.896C97.0864 150.903 95.1898 151.634 94.1039 152.452C90.2387 155.367 85.6954 157.817 80.8809 155.569C79.0971 154.736 77.0751 154.153 75.208 153.398C74.4666 153.098 73.4469 152.272 72.8255 151.743C72.7953 151.717 72.7192 151.629 72.7347 151.665C73.6829 153.901 82.8135 163.582 85.1114 163.22C87.4246 162.856 90.441 159.615 92.5751 158.548C98.6291 155.522 105.038 152.758 111.958 152.876C117.869 152.977 134.593 159.158 135.191 166.665" fill="#000000" fill-rule="nonzero" opacity="1" stroke="#000000" stroke-linecap="round" stroke-linejoin="round" stroke-width="0.5"/>
<path d="M89.8848 181.803C90.0935 181.932 89.5423 182.155 89.3753 182.334C88.8726 182.876 88.2935 183.443 87.9604 184.114C87.0925 185.862 86.4146 187.714 85.522 189.433C85.2381 189.979 84.8915 190.674 84.6814 191.259C84.5662 191.58 84.0584 192.46 84.2774 192.198C90.6889 184.549 97.0207 185.059 105.189 189.301C105.34 189.379 105.165 189.781 105.132 189.918C104.773 191.423 105.06 193.603 105.476 195.089C105.631 195.639 105.869 196.22 106.069 196.761C106.18 197.063 106.418 197.941 106.493 197.628C107.181 194.737 108.654 190.937 111.98 190.288C113.048 190.08 114.081 189.839 115.172 189.743C115.734 189.694 116.979 188.963 116.848 189.512C116.52 190.891 117.498 192.015 118.323 193.151C118.487 193.377 118.556 194.094 118.735 193.88C120.109 192.241 117.586 188.567 121.855 188.724C122.445 188.745 124.34 191.814 124.988 192.398C125.139 192.533 125.255 192.924 125.428 192.818C125.484 192.784 125.165 192.14 125.154 192.077C125.014 191.262 124.877 190.408 124.85 189.573C124.836 189.13 125.618 185.882 125.127 185.765C124.587 185.637 123.396 186.713 122.844 186.843C121.037 187.265 118.953 187.483 117.092 187.544C111.702 187.718 106.452 187.777 101.253 185.976C98.6498 185.073 96.2393 183.892 93.7162 182.828C93.3148 182.659 89.4687 181.545 89.8848 181.803Z" fill="#000000" fill-rule="nonzero" opacity="1" stroke="#000000" stroke-linecap="round" stroke-linejoin="round" stroke-width="0.5"/>
</g>
</g>
</svg>
