<?xml version="1.0" encoding="UTF-8" standalone="no"?>
<!DOCTYPE svg PUBLIC "-//W3C//DTD SVG 1.1//EN" "http://www.w3.org/Graphics/SVG/1.1/DTD/svg11.dtd">
<!-- Created with Vectornator (http://vectornator.io/) -->
<svg height="100%" stroke-miterlimit="10" style="fill-rule:nonzero;clip-rule:evenodd;stroke-linecap:round;stroke-linejoin:round;" version="1.1" viewBox="65.2905 143.943 194.71 52.1001" width="100%" xml:space="preserve" xmlns="http://www.w3.org/2000/svg" xmlns:xlink="http://www.w3.org/1999/xlink">
<defs/>
<g id="eye-4">
<g opacity="1">
<path d="M208.493 161.614C203.572 159.974 185.675 173.903 191.693 181.425C195.65 186.371 202 185.864 207.542 186.972C221.191 189.702 243.837 184.592 246.531 168.429C249.063 153.233 218.823 158.446 211.98 161.297C209.428 162.361 206.871 163.264 204.214 164.15" fill="#ffffff" fill-rule="nonzero" opacity="1" stroke="#ffffff" stroke-linecap="round" stroke-linejoin="round" stroke-width="0.5"/>
<g opacity="1">
<path d="M224.431 161.139C223.14 161.223 221.567 161.462 220.181 161.607C213.424 163.146 205.988 165.554 197.837 168.826C199.086 175.838 205.09 181.201 212.462 181.201C220.746 181.201 227.462 174.485 227.462 166.201C227.462 164.377 227.051 162.705 226.399 161.139C225.72 161.167 225.134 161.093 224.431 161.139Z" fill="#ffbbc4" fill-rule="nonzero" opacity="1" stroke="#fa4485" stroke-linecap="butt" stroke-linejoin="round" stroke-width="4"/>
<path d="M214.118 163.17C212.573 163.616 211.041 164.049 209.431 164.576C209.16 165.065 208.962 165.598 208.962 166.201C208.962 168.134 210.529 169.701 212.462 169.701C214.395 169.701 215.962 168.134 215.962 166.201C215.962 164.875 215.206 163.764 214.118 163.17Z" fill="#fa4485" fill-rule="nonzero" opacity="1" stroke="#fa4485" stroke-linecap="butt" stroke-linejoin="round" stroke-width="4.5"/>
</g>
<path d="M254.649 144.326C254.955 143.722 253.718 145.356 253.118 145.67C251.629 146.45 250.179 147.24 248.618 147.889C243.908 149.846 239.355 152.312 234.149 152.826C233.035 152.936 221.14 154.728 221.087 154.701C220.101 154.203 222.136 145.653 219.056 145.639C218.114 145.634 219.026 147.544 218.774 148.451C218.058 151.029 216.736 153.632 215.087 155.732C211.913 159.774 203.492 161.542 199.118 164.139C196.99 165.402 195.039 166.645 193.212 168.326C192.544 168.941 190.413 171.577 190.368 171.545C190.264 171.472 190.073 172.207 189.868 172.826C190.625 172.434 191.399 172.03 192.337 171.67C198.644 166.902 210.84 162.823 215.837 162.014C222.533 160.929 229.35 160.145 236.118 160.889C240.6 161.382 244.843 163.743 249.337 163.764C250.525 163.769 259.411 164.453 259.681 163.92C260.259 162.776 257.106 163.467 255.962 162.889C254.821 162.312 244.457 158.098 244.337 157.732C243.827 156.18 247.1 155.848 248.087 154.545C250.484 151.379 252.858 147.867 254.649 144.326Z" fill="#000000" fill-rule="nonzero" opacity="1" stroke="#000000" stroke-linecap="round" stroke-linejoin="round" stroke-width="0.5"/>
<path d="M203.273 187.227C212.541 186.785 222.439 186.64 231.366 183.964C232.547 183.61 240.973 179.262 241.043 179.3C241.507 179.55 238.819 182.511 238.722 182.891C238.517 183.698 244.983 187.805 243.848 189.912C243.442 190.664 242.429 188.955 241.677 188.549C239.965 187.627 238.341 186.857 236.481 186.331C232.719 185.268 227.903 186.89 224.38 187.946C220.869 188.999 221.763 190.233 220.707 193.326C220.429 194.14 220.552 196.147 219.795 195.739C219.096 195.363 218.917 190.976 217.683 189.954C215.737 188.343 212.486 190.211 210.293 189.653C207.907 189.045 200.8 187.344 203.273 187.227Z" fill="#000000" fill-rule="nonzero" opacity="1" stroke="#000000" stroke-linecap="round" stroke-linejoin="round" stroke-width="0.5"/>
</g>
<g opacity="1">
<path d="M116.798 161.614C121.719 159.974 139.616 173.903 133.598 181.425C129.641 186.371 123.291 185.864 117.749 186.972C104.1 189.702 81.4544 184.592 78.7606 168.429C76.2279 153.233 106.468 158.446 113.311 161.297C115.864 162.361 118.42 163.264 121.077 164.15" fill="#ffffff" fill-rule="nonzero" opacity="1" stroke="#ffffff" stroke-linecap="round" stroke-linejoin="round" stroke-width="0.5"/>
<g opacity="1">
<path d="M100.861 161.139C102.151 161.223 103.724 161.462 105.111 161.607C111.867 163.146 119.303 165.554 127.454 168.826C126.206 175.838 120.201 181.201 112.829 181.201C104.545 181.201 97.8294 174.485 97.8294 166.201C97.8294 164.377 98.2401 162.705 98.8919 161.139C99.5708 161.167 100.157 161.093 100.861 161.139Z" fill="#ffbbc4" fill-rule="nonzero" opacity="1" stroke="#fa4485" stroke-linecap="butt" stroke-linejoin="round" stroke-width="4"/>
<path d="M111.173 163.17C112.719 163.616 114.25 164.049 115.861 164.576C116.131 165.065 116.329 165.598 116.329 166.201C116.329 168.134 114.763 169.701 112.829 169.701C110.896 169.701 109.329 168.134 109.329 166.201C109.329 164.875 110.085 163.764 111.173 163.17Z" fill="#fa4485" fill-rule="nonzero" opacity="1" stroke="#fa4485" stroke-linecap="butt" stroke-linejoin="round" stroke-width="4.5"/>
</g>
<path d="M70.6419 144.326C70.3364 143.722 71.5735 145.356 72.1732 145.67C73.6625 146.45 75.112 147.24 76.6732 147.889C81.3831 149.846 85.9362 152.312 91.1419 152.826C92.2558 152.936 104.151 154.728 104.204 154.701C105.19 154.203 103.155 145.653 106.236 145.639C107.177 145.634 106.265 147.544 106.517 148.451C107.233 151.029 108.555 153.632 110.204 155.732C113.378 159.774 121.799 161.542 126.173 164.139C128.302 165.402 130.252 166.645 132.079 168.326C132.747 168.941 134.878 171.577 134.923 171.545C135.027 171.472 135.218 172.207 135.423 172.826C134.666 172.434 133.892 172.03 132.954 171.67C126.647 166.902 114.452 162.823 109.454 162.014C102.758 160.929 95.9413 160.145 89.1732 160.889C84.6907 161.382 80.4482 163.743 75.9544 163.764C74.7662 163.769 65.8801 164.453 65.6107 163.92C65.0321 162.776 68.1855 163.467 69.3294 162.889C70.47 162.312 80.8345 158.098 80.9544 157.732C81.464 156.18 78.191 155.848 77.2044 154.545C74.8069 151.379 72.4328 147.867 70.6419 144.326Z" fill="#000000" fill-rule="nonzero" opacity="1" stroke="#000000" stroke-linecap="round" stroke-linejoin="round" stroke-width="0.5"/>
<path d="M122.019 187.227C112.75 186.785 102.852 186.64 93.9247 183.964C92.7444 183.61 84.3182 179.262 84.2477 179.3C83.7837 179.55 86.4725 182.511 86.5692 182.891C86.7745 183.698 80.3085 187.805 81.4436 189.912C81.8488 190.664 82.8621 188.955 83.6142 188.549C85.3265 187.627 86.9497 186.857 88.8099 186.331C92.5719 185.268 97.3878 186.89 100.911 187.946C104.422 188.999 103.528 190.233 104.584 193.326C104.862 194.14 104.739 196.147 105.497 195.739C106.195 195.363 106.375 190.976 107.609 189.954C109.554 188.343 112.805 190.211 114.999 189.653C117.385 189.045 124.491 187.344 122.019 187.227Z" fill="#000000" fill-rule="nonzero" opacity="1" stroke="#000000" stroke-linecap="round" stroke-linejoin="round" stroke-width="0.5"/>
</g>
</g>
</svg>
