<?xml version="1.0" encoding="UTF-8" standalone="no"?>
<!DOCTYPE svg PUBLIC "-//W3C//DTD SVG 1.1//EN" "http://www.w3.org/Graphics/SVG/1.1/DTD/svg11.dtd">
<!-- Created with Vectornator (http://vectornator.io/) -->
<svg height="100%" stroke-miterlimit="10" style="fill-rule:nonzero;clip-rule:evenodd;stroke-linecap:round;stroke-linejoin:round;" version="1.1" viewBox="71.0217 144.782 183.408 51.0958" width="100%" xml:space="preserve" xmlns="http://www.w3.org/2000/svg" xmlns:xlink="http://www.w3.org/1999/xlink">
<defs/>
<g id="eye-3">
<g opacity="1">
<path d="M197.716 159.712C197.716 158.964 196.506 160.655 196.29 160.98C195.265 162.518 193.692 163.688 192.644 165.259C190.454 168.545 187.525 177.769 190.267 181.425C194.998 187.733 215.881 186.287 222.757 184.912C225.156 184.432 229.981 183.786 231.633 181.584C233.785 178.713 240.107 166.126 236.863 162.882C235.652 161.671 233.156 161.499 231.633 160.822C223.071 157.016 209.778 153.126 200.727 157.652" fill="#ffffff" fill-rule="nonzero" opacity="1" stroke="#ffffff" stroke-linecap="round" stroke-linejoin="round" stroke-width="0.5"/>
<g opacity="1">
<path d="M206.605 159.32C205.816 159.486 205.14 159.605 204.261 159.82C203.001 160.129 201.789 160.442 199.824 160.976C199.21 161.143 199.286 161.124 198.793 161.258C198.239 162.753 197.824 164.312 197.824 166.008C197.824 174.292 204.54 181.008 212.824 181.008C221.108 181.008 227.824 174.292 227.824 166.008C227.824 164.643 227.519 163.379 227.105 162.164C217.734 160.58 212.301 159.791 206.605 159.32Z" fill="#ffbbc4" fill-rule="nonzero" opacity="1" stroke="#fa4485" stroke-linecap="butt" stroke-linejoin="round" stroke-width="4"/>
<path d="M212.824 162.508C210.891 162.508 209.324 164.075 209.324 166.008C209.324 167.941 210.891 169.508 212.824 169.508C214.757 169.508 216.324 167.941 216.324 166.008C216.324 164.075 214.757 162.508 212.824 162.508Z" fill="#fa4485" fill-rule="nonzero" opacity="1" stroke="#fa4485" stroke-linecap="butt" stroke-linejoin="round" stroke-width="4.5"/>
</g>
<path d="M188.969 168.316C191.12 165.415 192.462 162.205 195.071 159.568C197.54 157.071 201.204 155.767 203.751 153.31C205.141 151.968 206.823 150.498 207.588 148.653C208.057 147.523 208.406 144.155 208.96 145.247C209.863 147.029 207.926 150.544 208.625 151.923C210.263 155.154 222.432 150.495 224.371 149.365C225.894 148.477 227.996 145.513 227.996 145.513C227.996 145.513 227.625 146.425 227.54 146.906C227.226 148.688 226.679 150.481 226.117 152.198C225.986 152.599 224.76 154.077 225.233 154.428C229.768 157.791 239.24 159.417 244.631 158.617C246.738 158.304 248.698 157.761 250.711 157.162C251.888 156.812 253.984 154.661 254.165 155.876C254.65 159.145 242.976 163.469 240.959 165.126C240.497 165.505 238.027 172.185 237.41 171.728C236.453 171.018 237.88 166.084 237.28 164.899C234.634 159.678 217.606 156.466 212.545 156.753C206.47 157.098 200.429 158.917 195.488 162.378C193.503 163.768 188.892 168.42 188.969 168.316Z" fill="#000000" fill-rule="nonzero" opacity="1" stroke="#000000" stroke-linecap="round" stroke-linejoin="round" stroke-width="0.5"/>
<path d="M198.29 159.513C198.319 158.679 206.768 158.178 207.809 158.31C216.253 159.373 223.949 160.627 232.097 163.263C233.293 163.65 238.409 166.454 239.364 164.7C240.7 162.244 232.166 159.538 230.854 158.9C221.839 154.513 210.917 154.59 201.641 157.329" fill="#000000" fill-rule="nonzero" opacity="1" stroke="#000000" stroke-linecap="round" stroke-linejoin="round" stroke-width="0.5"/>
<path d="M232.662 183.187C232.384 183.045 232.058 182.94 231.867 182.693C231.564 182.3 232.849 182.897 233.296 183.113C233.936 183.423 234.572 183.792 235.193 184.139C237.449 185.399 239.632 187.017 241.452 188.855C241.803 189.208 243.79 192.164 243.598 192.178C242.817 192.231 241.099 190.634 240.158 190.404C235.133 189.177 230.633 187.494 225.402 187.398C224.908 187.389 220.02 186.752 219.927 187.47C219.82 188.299 223.241 194.786 220.822 195.627C220.706 195.667 219.849 193.529 219.718 193.298C218.834 191.734 217.032 190.33 215.723 189.189C214.832 188.412 210.497 187.062 209.513 188.306C209.294 188.583 207.973 192.456 207.153 192.059C206.9 191.937 206.996 188.647 206.202 187.954C205.33 187.195 200.347 187.011 198.957 186.625C198.721 186.559 198.102 186.454 198.296 186.305C199.353 185.49 204.208 186.92 205.814 186.733C212.107 185.999 218.292 186.092 224.559 184.869C226.805 184.43 228.897 182.924 231.033 182.507C231.423 182.431 233.724 183.729 232.662 183.187Z" fill="#000000" fill-rule="nonzero" opacity="1" stroke="#000000" stroke-linecap="round" stroke-linejoin="round" stroke-width="0.5"/>
</g>
<g opacity="1">
<path d="M127.735 159.712C127.735 158.964 128.945 160.655 129.161 160.98C130.186 162.518 131.759 163.688 132.807 165.259C134.997 168.545 137.926 177.769 135.184 181.425C130.453 187.733 109.57 186.287 102.694 184.912C100.295 184.432 95.4701 183.786 93.8183 181.584C91.6657 178.713 85.3442 166.126 88.5882 162.882C89.7994 161.671 92.2949 161.499 93.8183 160.822C102.38 157.016 115.673 153.126 124.724 157.652" fill="#ffffff" fill-rule="nonzero" opacity="1" stroke="#ffffff" stroke-linecap="round" stroke-linejoin="round" stroke-width="0.5"/>
<g opacity="1">
<path d="M118.846 159.32C119.635 159.486 120.311 159.605 121.19 159.82C122.45 160.129 123.662 160.442 125.627 160.976C126.241 161.143 126.165 161.124 126.658 161.258C127.212 162.753 127.627 164.312 127.627 166.008C127.627 174.292 120.911 181.008 112.627 181.008C104.343 181.008 97.6271 174.292 97.6271 166.008C97.6271 164.643 97.9315 163.379 98.3459 162.164C107.717 160.58 113.15 159.791 118.846 159.32Z" fill="#ffbbc4" fill-rule="nonzero" opacity="1" stroke="#fa4485" stroke-linecap="butt" stroke-linejoin="round" stroke-width="4"/>
<path d="M112.627 162.508C114.56 162.508 116.127 164.075 116.127 166.008C116.127 167.941 114.56 169.508 112.627 169.508C110.694 169.508 109.127 167.941 109.127 166.008C109.127 164.075 110.694 162.508 112.627 162.508Z" fill="#fa4485" fill-rule="nonzero" opacity="1" stroke="#fa4485" stroke-linecap="butt" stroke-linejoin="round" stroke-width="4.5"/>
</g>
<path d="M136.482 168.316C134.331 165.415 132.989 162.205 130.38 159.568C127.911 157.071 124.247 155.767 121.7 153.31C120.31 151.968 118.628 150.498 117.863 148.653C117.394 147.523 117.045 144.155 116.491 145.247C115.588 147.029 117.525 150.544 116.826 151.923C115.188 155.154 103.019 150.495 101.08 149.365C99.5569 148.477 97.4548 145.513 97.4548 145.513C97.4548 145.513 97.8259 146.425 97.9106 146.906C98.2245 148.688 98.7719 150.481 99.334 152.198C99.465 152.599 100.691 154.077 100.218 154.428C95.6825 157.791 86.2109 159.417 80.8199 158.617C78.7125 158.304 76.7525 157.761 74.7403 157.162C73.5629 156.812 71.4668 154.661 71.2864 155.876C70.8012 159.145 82.4746 163.469 84.4924 165.126C84.9538 165.505 87.4236 172.185 88.0408 171.728C88.9982 171.018 87.5706 166.084 88.1709 164.899C90.8174 159.678 107.845 156.466 112.906 156.753C118.981 157.098 125.022 158.917 129.963 162.378C131.948 163.768 136.559 168.42 136.482 168.316Z" fill="#000000" fill-rule="nonzero" opacity="1" stroke="#000000" stroke-linecap="round" stroke-linejoin="round" stroke-width="0.5"/>
<path d="M127.161 159.513C127.132 158.679 118.683 158.178 117.642 158.31C109.198 159.373 101.502 160.627 93.3543 163.263C92.1579 163.65 87.0416 166.454 86.0871 164.7C84.7509 162.244 93.2846 159.538 94.5967 158.9C103.611 154.513 114.534 154.59 123.81 157.329" fill="#000000" fill-rule="nonzero" opacity="1" stroke="#000000" stroke-linecap="round" stroke-linejoin="round" stroke-width="0.5"/>
<path d="M92.7888 183.187C93.0665 183.045 93.3933 182.94 93.5837 182.693C93.8867 182.3 92.6015 182.897 92.1547 183.113C91.5146 183.423 90.8793 183.792 90.2578 184.139C88.0023 185.399 85.8195 187.017 83.9986 188.855C83.6482 189.208 81.6605 192.164 81.8529 192.178C82.6344 192.231 84.352 190.634 85.2925 190.404C90.3181 189.177 94.8177 187.494 100.049 187.398C100.543 187.389 105.43 186.752 105.524 187.47C105.631 188.299 102.21 194.786 104.629 195.627C104.745 195.667 105.602 193.529 105.733 193.298C106.617 191.734 108.419 190.33 109.728 189.189C110.619 188.412 114.954 187.062 115.938 188.306C116.157 188.583 117.478 192.456 118.298 192.059C118.551 191.937 118.455 188.647 119.249 187.954C120.121 187.195 125.104 187.011 126.494 186.625C126.73 186.559 127.349 186.454 127.155 186.305C126.098 185.49 121.243 186.92 119.637 186.733C113.344 185.999 107.159 186.092 100.892 184.869C98.646 184.43 96.5538 182.924 94.4183 182.507C94.0283 182.431 91.7268 183.729 92.7888 183.187Z" fill="#000000" fill-rule="nonzero" opacity="1" stroke="#000000" stroke-linecap="round" stroke-linejoin="round" stroke-width="0.5"/>
</g>
</g>
</svg>
