<?xml version="1.0" encoding="UTF-8" standalone="no"?>
<!DOCTYPE svg PUBLIC "-//W3C//DTD SVG 1.1//EN" "http://www.w3.org/Graphics/SVG/1.1/DTD/svg11.dtd">
<!-- Created with Vectornator (http://vectornator.io/) -->
<svg height="100%" stroke-miterlimit="10" style="fill-rule:nonzero;clip-rule:evenodd;stroke-linecap:round;stroke-linejoin:round;" version="1.1" viewBox="95.3156 122.978 135.65 7.98455" width="100%" xml:space="preserve" xmlns="http://www.w3.org/2000/svg" xmlns:vectornator="http://vectornator.io" xmlns:xlink="http://www.w3.org/1999/xlink">
<defs/>
<g id="Layer">
<g opacity="1">
<path d="M131 123.25C128.416 123.186 125.805 123.281 123.219 123.281C119.305 123.281 115.407 123.281 111.5 123.438C109.94 123.5 94.4917 125.604 95.625 128.438C96.1727 129.807 105.932 129.588 107.375 129.656C114.777 130.009 122.171 130.5 129.594 130.5C131.572 130.5 137.758 131.408 139.25 129.469C139.995 128.5 139.562 124.344 138.656 124.125C136.145 123.519 133.584 123.314 131 123.25ZM195.281 123.25C192.698 123.314 190.136 123.519 187.625 124.125C186.719 124.344 186.286 128.5 187.031 129.469C188.523 131.408 194.709 130.5 196.688 130.5C204.11 130.5 211.536 130.009 218.938 129.656C220.381 129.588 230.109 129.807 230.656 128.438C231.79 125.604 216.342 123.5 214.781 123.438C210.874 123.281 206.976 123.281 203.062 123.281C200.476 123.281 197.865 123.186 195.281 123.25Z" fill="#fc7caa" fill-rule="nonzero" stroke="none"/>
<path d="M129.133 123.065C127.186 123.067 125.239 123.106 123.292 123.114C120.685 123.123 118.078 123.111 115.472 123.165C114.169 123.192 112.865 123.242 111.562 123.284C111.488 123.286 111.355 123.297 111.286 123.303C109.026 123.503 106.767 123.912 104.544 124.349C102.635 124.726 100.717 125.146 98.8741 125.779C98.3711 125.952 97.8811 126.163 97.3886 126.364C97.2385 126.425 96.9002 126.598 96.7539 126.68C96.5845 126.775 96.3888 126.897 96.2308 127.011C95.7776 127.339 95.0422 128.134 95.6226 128.692C95.9547 129.011 96.5055 129.121 96.931 129.212C97.4583 129.325 97.9966 129.396 98.5324 129.453C101.01 129.719 103.513 129.715 106.002 129.727C107.682 129.735 109.357 129.839 111.035 129.921C113.505 130.041 115.974 130.17 118.445 130.275C120.916 130.38 123.389 130.472 125.862 130.514C127.187 130.536 128.516 130.511 129.841 130.547C130.77 130.572 131.696 130.659 132.624 130.702C134.302 130.779 136.161 130.863 137.788 130.377C138.372 130.202 139.07 129.903 139.375 129.335C139.634 128.855 139.661 128.218 139.671 127.69C139.678 127.293 139.657 126.895 139.614 126.5C139.548 125.889 139.442 125.256 139.194 124.688C139.108 124.492 138.991 124.256 138.799 124.14C138.763 124.118 138.723 124.101 138.681 124.091C138.262 123.994 137.842 123.899 137.42 123.818C136.999 123.737 136.575 123.669 136.15 123.607C134.484 123.366 132.808 123.278 131.127 123.22C131.134 123.155 131.124 123.097 131.08 123.077C130.431 123.067 129.782 123.064 129.133 123.065ZM131.113 123.291C133.212 123.364 135.306 123.49 137.374 123.886C137.795 123.967 138.214 124.061 138.632 124.158C138.668 124.167 138.703 124.182 138.735 124.202C138.974 124.348 139.112 124.683 139.195 124.935C139.367 125.457 139.471 125.985 139.53 126.531C139.593 127.111 139.6 127.685 139.557 128.266C139.53 128.62 139.469 129.012 139.3 129.329C138.957 129.974 138.061 130.28 137.396 130.415C135.835 130.73 134.245 130.706 132.662 130.627C131.735 130.58 130.809 130.49 129.882 130.462C128.558 130.421 127.231 130.442 125.908 130.415C123.44 130.363 120.974 130.26 118.509 130.145C116.044 130.031 113.58 129.892 111.116 129.762C109.439 129.673 107.764 129.562 106.084 129.547C103.609 129.524 101.118 129.517 98.6538 129.241C97.988 129.167 97.3097 129.079 96.6646 128.891C96.3961 128.813 96.0669 128.711 95.857 128.509C95.7365 128.393 95.6926 128.215 95.7049 128.052C95.7405 127.579 96.2285 127.241 96.5907 127.015C96.6738 126.963 96.7588 126.913 96.8446 126.866C96.9374 126.814 97.0313 126.765 97.1263 126.718C98.2297 126.17 99.4446 125.812 100.629 125.493C102.825 124.903 105.071 124.477 107.316 124.121C108.644 123.91 109.989 123.688 111.332 123.598C112.017 123.551 112.702 123.558 113.388 123.539C114.688 123.504 115.987 123.479 117.287 123.468C119.671 123.446 122.056 123.463 124.44 123.444C126.601 123.427 128.759 123.387 130.919 123.423C130.982 123.452 131.068 123.398 131.112 123.302C131.114 123.298 131.112 123.295 131.113 123.291ZM195.35 123.077C193.193 123.152 191.039 123.28 188.914 123.688C188.488 123.77 188.065 123.86 187.644 123.963C187.572 123.981 187.504 124.011 187.441 124.049C186.923 124.354 186.756 125.155 186.645 125.691C186.467 126.551 186.401 127.453 186.486 128.327C186.554 129.034 186.733 129.626 187.343 130.036C188.019 130.49 188.872 130.656 189.665 130.755C190.961 130.917 192.279 130.882 193.58 130.817C194.407 130.775 195.233 130.701 196.059 130.662C197.485 130.594 198.915 130.63 200.341 130.601C202.819 130.552 205.297 130.446 207.773 130.33C210.248 130.214 212.722 130.074 215.196 129.943C217.039 129.845 218.876 129.742 220.72 129.724C223.037 129.702 225.373 129.685 227.677 129.422C228.046 129.38 228.414 129.326 228.781 129.269C229.315 129.185 230.195 129.033 230.599 128.632C231.157 128.078 230.502 127.357 230.047 127.031C229.494 126.635 228.854 126.361 228.223 126.119C227.394 125.801 226.54 125.546 225.683 125.316C223.195 124.647 220.648 124.199 218.105 123.805C217.097 123.649 216.083 123.506 215.066 123.419C214.334 123.357 213.534 123.356 212.845 123.337C211.511 123.299 210.274 123.279 208.94 123.266C206.986 123.245 205.032 123.253 203.078 123.246C200.519 123.237 197.961 123.195 195.402 123.215C195.406 123.151 195.394 123.094 195.35 123.077ZM195.395 123.285C197.947 123.265 200.496 123.307 203.047 123.316C205.652 123.325 208.256 123.315 210.86 123.362C212.162 123.385 213.579 123.388 214.877 123.48C216.527 123.596 218.184 123.891 219.809 124.175C221.434 124.459 223.059 124.782 224.66 125.18C225.564 125.405 226.463 125.654 227.344 125.954C228.295 126.277 229.349 126.64 230.124 127.303C230.435 127.57 230.895 128.173 230.489 128.569C230.288 128.764 229.961 128.858 229.703 128.931C229.45 129.004 229.069 129.084 228.814 129.123C228.451 129.179 228.087 129.232 227.722 129.273C227.31 129.318 226.896 129.351 226.483 129.38C224.055 129.552 221.626 129.503 219.196 129.555C217.272 129.597 215.344 129.735 213.422 129.829C212.188 129.89 210.953 129.949 209.719 130.006C207.867 130.09 206.014 130.171 204.162 130.229C201.69 130.308 199.221 130.327 196.749 130.355C194.756 130.378 192.773 130.643 190.777 130.525C189.824 130.468 188.797 130.366 187.935 129.924C186.97 129.43 186.867 128.66 186.849 127.64C186.838 126.966 186.901 126.283 187.04 125.622C187.115 125.264 187.267 124.524 187.588 124.294C187.593 124.29 187.6 124.288 187.606 124.287C188.022 124.196 188.437 124.096 188.855 124.017C189.272 123.937 189.69 123.869 190.11 123.808C191.802 123.564 193.505 123.481 195.212 123.424C195.274 123.448 195.355 123.391 195.394 123.295C195.395 123.291 195.394 123.289 195.395 123.285Z" fill="#fc7caa" stroke="none"/>
</g>
</g>
</svg>
