<?xml version="1.0" encoding="UTF-8" standalone="no"?>
<!DOCTYPE svg PUBLIC "-//W3C//DTD SVG 1.1//EN" "http://www.w3.org/Graphics/SVG/1.1/DTD/svg11.dtd">
<!-- Created with Vectornator (http://vectornator.io/) -->
<svg height="100%" stroke-miterlimit="10" style="fill-rule:nonzero;clip-rule:evenodd;stroke-linecap:round;stroke-linejoin:round;" version="1.1" viewBox="101.547 124.1 122.155 11.7598" width="100%" xml:space="preserve" xmlns="http://www.w3.org/2000/svg" xmlns:vectornator="http://vectornator.io" xmlns:xlink="http://www.w3.org/1999/xlink">
<defs/>
<g id="Layer">
<g opacity="1">
<path d="M108.562 124.469C104.698 124.694 101.231 125.301 101.875 126.719C102.268 127.583 107.856 127.78 108.781 127.906C116.043 128.897 123.057 131.207 130.156 132.75C132.383 133.234 140.357 136.863 142.219 135.156C143.272 134.191 143.116 129.123 142.031 128.688C137.4 126.826 132.296 126.582 127.375 125.688C124.188 125.108 120.792 124.75 117.562 124.469C116.686 124.392 112.427 124.244 108.562 124.469ZM207.688 124.469C204.458 124.75 201.031 125.108 197.844 125.688C192.923 126.582 187.819 126.826 183.188 128.688C182.103 129.123 181.978 134.191 183.031 135.156C184.893 136.863 192.867 133.234 195.094 132.75C202.193 131.207 209.207 128.897 216.469 127.906C217.394 127.78 222.982 127.583 223.375 126.719C224.664 123.883 209.441 124.316 207.688 124.469Z" fill="#fc7caa" fill-rule="nonzero" stroke="none"/>
<path d="M113.015 124.295C111.567 124.305 110.12 124.359 108.682 124.431C108.684 124.367 108.669 124.312 108.625 124.297C107.413 124.378 106.202 124.469 105.003 124.669C104.401 124.769 103.797 124.893 103.216 125.082C102.719 125.244 102.161 125.464 101.819 125.88C101.426 126.356 101.554 126.912 102.105 127.166C102.656 127.421 103.292 127.513 103.887 127.605C104.781 127.742 105.683 127.821 106.584 127.897C107.284 127.957 107.989 127.974 108.686 128.065C109.29 128.144 109.893 128.235 110.494 128.333C111.095 128.431 111.694 128.539 112.293 128.652C112.892 128.765 113.489 128.886 114.085 129.011C117.668 129.759 121.205 130.711 124.754 131.599C125.935 131.895 127.118 132.178 128.304 132.45C129.271 132.672 130.217 132.861 131.156 133.164C133.657 133.973 136.112 134.996 138.704 135.489C139.516 135.643 140.408 135.78 141.238 135.645C141.626 135.582 141.973 135.458 142.275 135.201C142.587 134.936 142.723 134.466 142.815 134.085C143.002 133.313 143.052 132.486 143.015 131.694C143.004 131.456 142.994 131.217 142.971 130.98C142.949 130.755 142.92 130.531 142.881 130.308C142.797 129.828 142.677 129.231 142.356 128.836C142.281 128.745 142.196 128.669 142.085 128.626C141.698 128.474 141.308 128.325 140.914 128.191C140.116 127.919 139.339 127.703 138.521 127.502C135.677 126.802 132.763 126.49 129.873 126.053C128.509 125.846 127.152 125.595 125.789 125.38C123.032 124.946 120.238 124.621 117.454 124.424C115.981 124.32 114.498 124.285 113.015 124.295ZM112.984 124.364C114.465 124.354 115.946 124.389 117.418 124.493C120.199 124.69 122.991 125.013 125.744 125.449C127.105 125.665 128.461 125.922 129.822 126.133C132.702 126.581 135.605 126.906 138.438 127.616C139.644 127.919 140.82 128.293 141.977 128.751C142.072 128.788 142.149 128.858 142.211 128.937C142.521 129.323 142.634 129.908 142.713 130.375C142.798 130.876 142.817 131.243 142.838 131.753C142.846 131.95 142.843 132.274 142.836 132.471C142.81 133.188 142.743 133.95 142.467 134.621C142.398 134.79 142.307 134.99 142.163 135.111C141.985 135.261 141.86 135.332 141.634 135.402C140.751 135.673 139.691 135.484 138.82 135.314C138.421 135.236 138.026 135.14 137.632 135.037C135.641 134.519 133.719 133.779 131.775 133.113C130.678 132.738 129.6 132.494 128.463 132.226C127.283 131.948 126.106 131.658 124.931 131.356C120.802 130.294 116.683 129.158 112.494 128.35C111.339 128.127 110.043 127.903 108.877 127.748C108.176 127.654 107.465 127.636 106.761 127.575C106.246 127.53 105.734 127.478 105.22 127.426C104.349 127.339 103.418 127.239 102.589 126.941C102.477 126.901 102.333 126.841 102.23 126.776C102.104 126.696 102.048 126.605 102.014 126.459C101.887 125.92 102.573 125.637 102.962 125.488C103.05 125.455 103.138 125.423 103.228 125.394C103.528 125.297 103.889 125.206 104.181 125.143C104.694 125.033 105.231 124.951 105.751 124.885C106.665 124.767 107.582 124.702 108.501 124.641C108.563 124.663 108.641 124.604 108.675 124.509C108.677 124.505 108.675 124.502 108.677 124.498C110.106 124.427 111.545 124.374 112.984 124.364ZM207.744 124.297C205.538 124.497 203.332 124.709 201.137 125.01C199.22 125.272 197.323 125.642 195.41 125.931C192.929 126.306 190.425 126.597 187.971 127.132C186.337 127.488 184.736 127.967 183.174 128.564C182.793 128.71 182.599 129.139 182.477 129.496C182.27 130.108 182.194 130.766 182.16 131.408C182.141 131.756 182.138 132.164 182.152 132.497C182.162 132.734 182.179 132.971 182.205 133.207C182.291 133.966 182.428 135.043 183.183 135.454C183.675 135.723 184.29 135.746 184.835 135.724C186.009 135.677 187.173 135.38 188.297 135.06C189.729 134.653 191.134 134.154 192.538 133.66C193.281 133.399 194.022 133.121 194.782 132.914C195.467 132.727 196.166 132.598 196.857 132.435C198.635 132.017 200.404 131.559 202.172 131.101C206.305 130.031 210.436 128.946 214.652 128.249C215.299 128.142 215.941 128.004 216.593 127.936C218.268 127.759 219.956 127.724 221.617 127.42C222.021 127.346 222.431 127.279 222.815 127.132C223.035 127.048 223.224 126.893 223.4 126.736C223.452 126.689 223.459 126.608 223.476 126.539C223.621 125.976 223.011 125.605 222.586 125.413C221.356 124.858 219.901 124.718 218.576 124.584C218.267 124.553 217.958 124.527 217.648 124.503C217.329 124.478 217.009 124.456 216.69 124.439C216.041 124.406 215.392 124.373 214.743 124.352C214.106 124.333 213.469 124.324 212.832 124.319C211.161 124.305 209.472 124.302 207.803 124.428C207.803 124.365 207.787 124.311 207.744 124.297ZM212.877 124.39C213.488 124.394 214.099 124.403 214.709 124.422C215.358 124.443 216.006 124.474 216.655 124.508C217.283 124.54 217.911 124.591 218.537 124.654C219.855 124.788 221.304 124.925 222.527 125.478C222.952 125.669 223.505 126.004 223.395 126.552C223.384 126.603 223.389 126.667 223.35 126.701C223.186 126.846 223.012 126.993 222.807 127.071C222.43 127.213 222.028 127.278 221.631 127.35C221.135 127.439 220.632 127.487 220.132 127.55C218.966 127.7 217.789 127.726 216.621 127.845C215.967 127.911 215.321 128.049 214.673 128.153C214.07 128.251 213.466 128.334 212.865 128.445C208.671 129.224 204.548 130.366 200.414 131.405C199.236 131.7 198.061 131.992 196.877 132.265C196.183 132.425 195.481 132.553 194.793 132.737C193.639 133.047 192.516 133.49 191.387 133.875C190.167 134.292 188.941 134.7 187.691 135.019C186.789 135.249 185.863 135.455 184.929 135.488C184.427 135.506 183.854 135.485 183.403 135.234C182.88 134.943 182.704 134.287 182.612 133.738C182.459 132.823 182.425 131.895 182.51 130.972C182.563 130.394 182.646 129.786 182.881 129.25C182.94 129.115 183.043 128.868 183.201 128.812C183.976 128.536 184.746 128.24 185.536 128.008C186.324 127.777 187.126 127.595 187.93 127.423C190.374 126.903 192.863 126.62 195.332 126.252C197.242 125.967 199.137 125.6 201.05 125.341C203.237 125.046 205.434 124.838 207.632 124.641C207.694 124.662 207.768 124.6 207.799 124.505C207.8 124.502 207.798 124.499 207.799 124.495C208.878 124.416 209.965 124.398 211.045 124.391C211.656 124.387 212.266 124.386 212.877 124.39Z" fill="#fc7caa" stroke="none"/>
</g>
</g>
</svg>
