<?xml version="1.0" encoding="UTF-8" standalone="no"?>
<!DOCTYPE svg PUBLIC "-//W3C//DTD SVG 1.1//EN" "http://www.w3.org/Graphics/SVG/1.1/DTD/svg11.dtd">
<!-- Created with Vectornator (http://vectornator.io/) -->
<svg height="100%" stroke-miterlimit="10" style="fill-rule:nonzero;clip-rule:evenodd;stroke-linecap:round;stroke-linejoin:round;" version="1.1" viewBox="95.0878 123.214 136.793 11.9974" width="100%" xml:space="preserve" xmlns="http://www.w3.org/2000/svg" xmlns:vectornator="http://vectornator.io" xmlns:xlink="http://www.w3.org/1999/xlink">
<defs/>
<g id="Layer">
<g opacity="1">
<path d="M136.719 123.469C126.839 123.287 119.307 128.172 109.656 129.188C108.019 129.36 93.5054 128.217 95.5312 131.594C96.8533 133.797 101.666 133.693 103.812 134C112.44 135.232 124.007 135.703 132.406 132.781C136.704 131.286 142.342 123.572 136.719 123.469ZM190.219 123.469C184.595 123.572 190.234 131.286 194.531 132.781C202.93 135.703 214.529 135.232 223.156 134C225.303 133.693 230.115 133.797 231.438 131.594C233.463 128.217 218.919 129.36 217.281 129.188C207.631 128.172 200.099 123.287 190.219 123.469Z" fill="#fc7caa" fill-rule="nonzero" stroke="none"/>
<path d="M136.795 123.295C134.403 123.3 132.055 123.511 129.707 123.98C125.236 124.873 120.968 126.512 116.575 127.697C115.087 128.098 113.579 128.467 112.059 128.726C111.274 128.859 110.481 128.948 109.692 129.053C109.23 129.114 108.738 129.07 108.274 129.062C107.425 129.049 106.577 129.028 105.728 129.018C103.392 128.991 101.029 128.977 98.7084 129.285C98.4545 129.318 98.2003 129.355 97.9482 129.4C97.7165 129.442 97.4855 129.489 97.257 129.545C96.5149 129.728 94.9954 130.186 95.2413 131.246C95.375 131.823 95.8882 132.292 96.3629 132.601C97.463 133.319 98.8574 133.554 100.134 133.723C100.408 133.759 100.682 133.787 100.957 133.815C101.222 133.843 101.487 133.865 101.752 133.889C102.228 133.93 102.706 133.963 103.181 134.011C103.745 134.069 104.294 134.155 104.859 134.228C111.307 135.062 117.917 135.362 124.383 134.565C126.359 134.321 128.316 133.99 130.242 133.476C131.152 133.233 132.095 132.983 132.957 132.594C134.182 132.042 135.272 131.182 136.224 130.246C137.163 129.323 138.023 128.263 138.607 127.077C138.837 126.61 139.03 126.106 139.1 125.587C139.145 125.246 139.13 125.071 139.064 124.74C138.861 123.729 137.716 123.495 136.842 123.442C136.85 123.375 136.84 123.315 136.795 123.295ZM136.833 123.513C137.9 123.582 138.985 123.903 139.039 125.172C139.052 125.476 138.997 125.779 138.917 126.071C138.822 126.423 138.692 126.747 138.531 127.074C137.85 128.457 136.801 129.67 135.659 130.692C134.845 131.42 133.942 132.084 132.942 132.535C132.427 132.767 131.882 132.932 131.342 133.098C130.597 133.326 129.883 133.513 129.125 133.69C127.565 134.053 125.993 134.296 124.405 134.486C117.566 135.305 110.663 134.827 103.86 133.92C103.19 133.831 102.518 133.782 101.846 133.72C101.315 133.671 100.767 133.62 100.238 133.548C98.8979 133.364 97.3637 133.109 96.2746 132.236C95.9336 131.962 95.5805 131.584 95.4799 131.143C95.3212 130.448 96.117 130.081 96.654 129.915C96.847 129.856 97.04 129.797 97.2363 129.75C97.4573 129.696 97.6814 129.652 97.9054 129.613C98.1522 129.57 98.4005 129.534 98.649 129.503C98.9149 129.469 99.181 129.44 99.4479 129.416C101.493 129.227 103.558 129.241 105.609 129.276C106.894 129.299 108.203 129.407 109.488 129.333C109.931 129.307 110.368 129.22 110.808 129.16C113.511 128.793 116.15 128.128 118.765 127.36C122.019 126.404 125.228 125.286 128.541 124.541C130.414 124.12 132.314 123.813 134.232 123.693C135.034 123.643 135.839 123.642 136.642 123.642C136.705 123.669 136.789 123.615 136.831 123.519C136.832 123.517 136.832 123.515 136.833 123.513ZM190.285 123.295C189.859 123.315 189.44 123.351 189.033 123.487C188.781 123.57 188.539 123.69 188.329 123.852C187.262 124.68 187.67 126.162 188.174 127.185C188.864 128.584 189.929 129.812 191.086 130.845C191.915 131.584 192.835 132.257 193.852 132.714C194.375 132.949 194.928 133.116 195.477 133.284C196.226 133.512 196.947 133.7 197.71 133.876C199.677 134.33 201.679 134.626 203.688 134.814C210.177 135.421 216.687 134.962 223.129 134.1C225.406 133.796 227.752 133.844 229.904 132.931C230.611 132.63 231.522 131.976 231.703 131.179C231.935 130.158 230.489 129.747 229.766 129.575C229.655 129.548 229.544 129.523 229.432 129.501C229.315 129.477 229.196 129.456 229.079 129.435C228.864 129.397 228.538 129.347 228.322 129.322C228.052 129.29 227.783 129.259 227.513 129.234C225.182 129.018 222.83 129.055 220.493 129.104C219.476 129.125 218.443 129.201 217.425 129.146C216.986 129.122 216.55 129.053 216.114 128.994C210.404 128.215 205.072 125.984 199.507 124.609C197.259 124.054 194.974 123.634 192.661 123.488C191.888 123.439 191.114 123.436 190.339 123.435C190.343 123.37 190.329 123.312 190.285 123.295ZM190.331 123.506C192.657 123.516 194.953 123.708 197.236 124.176C202.07 125.167 206.679 126.965 211.457 128.169C213.368 128.65 215.295 129.004 217.252 129.238C217.827 129.307 218.438 129.255 219.014 129.245C219.759 129.232 220.504 129.215 221.25 129.206C223.699 129.175 226.192 129.149 228.62 129.52C228.864 129.557 229.09 129.597 229.332 129.647C229.547 129.692 229.757 129.741 229.968 129.802C230.577 129.977 231.707 130.368 231.512 131.209C231.287 132.18 230.015 132.775 229.178 133.051C228.93 133.132 228.677 133.198 228.423 133.259C227.008 133.594 225.55 133.672 224.106 133.8C223.427 133.861 222.754 133.955 222.078 134.043C218.099 134.56 214.088 134.838 210.075 134.818C207.179 134.803 204.293 134.65 201.426 134.228C199.498 133.944 197.581 133.55 195.717 132.977C195.179 132.811 194.638 132.647 194.125 132.415C192.921 131.871 191.849 131.021 190.913 130.098C189.987 129.186 189.138 128.139 188.562 126.967C188.054 125.933 187.589 124.282 189.047 123.803C189.407 123.685 189.776 123.658 190.152 123.641C190.214 123.665 190.294 123.607 190.331 123.512C190.332 123.51 190.33 123.508 190.331 123.506Z" fill="#fc7caa" stroke="none"/>
</g>
</g>
</svg>
