<?xml version="1.0" encoding="UTF-8" standalone="no"?>
<!DOCTYPE svg PUBLIC "-//W3C//DTD SVG 1.1//EN" "http://www.w3.org/Graphics/SVG/1.1/DTD/svg11.dtd">
<!-- Created with Vectornator (http://vectornator.io/) -->
<svg height="100%" stroke-miterlimit="10" style="fill-rule:nonzero;clip-rule:evenodd;stroke-linecap:round;stroke-linejoin:round;" version="1.1" viewBox="118.607 134.717 89.9121 12.8817" width="100%" xml:space="preserve" xmlns="http://www.w3.org/2000/svg" xmlns:vectornator="http://vectornator.io" xmlns:xlink="http://www.w3.org/1999/xlink">
<defs/>
<g id="Layer">
<g opacity="1">
<path d="M118.906 135C118.144 135.871 126.392 140.206 126.844 140.5C133.477 144.812 146.748 152.573 147.969 142.156C148.329 139.086 142.043 139.421 139.094 138.438C136.811 137.677 134.346 137.378 132 136.875C130.564 136.567 119.17 134.699 118.906 135ZM208.219 135C207.955 134.699 196.561 136.567 195.125 136.875C192.779 137.378 190.345 137.677 188.062 138.438C185.113 139.421 178.828 139.086 179.188 142.156C180.408 152.573 193.679 144.812 200.312 140.5C200.764 140.206 208.981 135.871 208.219 135Z" fill="#fc7caa" fill-rule="nonzero" stroke="none"/>
<path d="M118.853 134.882C118.786 134.89 118.735 134.924 118.727 134.972C118.426 135.489 119.266 136.071 119.592 136.329C121.033 137.47 122.678 138.383 124.269 139.287C125.068 139.741 125.917 140.147 126.693 140.641C128.992 142.107 131.315 143.525 133.756 144.744C135.212 145.471 136.705 146.137 138.252 146.642C140.345 147.325 142.983 147.929 145.107 146.985C146.814 146.226 147.674 144.535 147.98 142.765C148.077 142.203 148.17 141.634 147.903 141.103C147.566 140.43 146.829 140.065 146.155 139.82C144.16 139.093 141.984 139.085 139.93 138.605C138.874 138.358 137.855 137.994 136.794 137.759C135.605 137.496 134.402 137.304 133.206 137.076C130.744 136.607 128.279 136.178 125.802 135.793C124.165 135.538 122.526 135.296 120.882 135.088C120.424 135.031 119.964 134.978 119.504 134.947C119.352 134.937 119.198 134.92 119.047 134.939C119.018 134.912 118.975 134.892 118.924 134.884C118.9 134.88 118.875 134.88 118.853 134.882ZM119.132 134.992C119.369 134.977 119.636 135.027 119.847 135.047C120.133 135.073 120.563 135.122 120.841 135.157C122.484 135.364 124.123 135.607 125.759 135.862C128.235 136.247 130.699 136.668 133.157 137.15C134.348 137.384 135.546 137.582 136.73 137.851C137.787 138.091 138.8 138.462 139.852 138.714C141.892 139.205 144.058 139.224 146.038 139.96C146.686 140.201 147.399 140.556 147.719 141.207C148.048 141.874 147.822 142.703 147.652 143.381C147.288 144.84 146.486 146.19 145.065 146.812C143.98 147.287 142.744 147.306 141.587 147.164C140.131 146.984 138.708 146.531 137.346 146.001C133.671 144.569 130.301 142.483 126.994 140.359C126.218 139.86 125.368 139.45 124.568 138.992C122.991 138.089 121.359 137.178 119.931 136.042C119.665 135.83 119.411 135.61 119.196 135.345C119.143 135.28 119.015 135.115 119.085 135.028C119.087 135.018 119.083 135.008 119.081 134.997C119.098 134.996 119.114 134.993 119.132 134.992ZM207.845 134.781C207.651 134.794 207.457 134.828 207.314 134.841C207.159 134.856 207.004 134.872 206.848 134.89C206.024 134.982 205.202 135.096 204.381 135.213C201.483 135.627 198.585 136.081 195.706 136.615C194.73 136.797 193.759 137.004 192.785 137.191C191.592 137.42 190.395 137.64 189.222 137.961C188.705 138.102 188.2 138.283 187.684 138.428C185.649 138.997 183.495 139.014 181.473 139.646C180.731 139.878 179.901 140.209 179.415 140.855C178.961 141.458 179.037 142.13 179.164 142.832C179.234 143.221 179.322 143.579 179.445 143.954C179.601 144.432 179.804 144.89 180.075 145.314C181.202 147.075 183.139 147.546 185.117 147.395C187.171 147.238 189.171 146.521 191.045 145.712C193.305 144.736 195.461 143.535 197.565 142.262C198.756 141.542 199.903 140.756 201.119 140.079C202.987 139.039 204.879 137.998 206.632 136.769C206.89 136.589 207.14 136.398 207.39 136.207C207.498 136.124 207.602 136.035 207.704 135.945C207.893 135.778 208.327 135.403 208.313 135.112C208.313 135.11 208.312 135.109 208.312 135.107C208.314 135.105 208.317 135.103 208.32 135.101C208.405 135.015 208.429 134.9 208.373 134.845C208.232 134.776 208.038 134.768 207.845 134.781ZM207.902 135.131C207.974 135.128 208.045 135.131 208.065 135.156C208.098 135.189 208.15 135.19 208.206 135.171C208.201 135.463 207.85 135.736 207.654 135.909C207.554 135.997 207.453 136.083 207.347 136.164C207.099 136.355 206.85 136.544 206.594 136.723C205.076 137.788 203.448 138.706 201.832 139.613C201.334 139.893 200.826 140.157 200.335 140.451C199.39 141.017 198.48 141.642 197.536 142.211C195.438 143.474 193.28 144.659 191.025 145.619C189.782 146.148 188.508 146.613 187.193 146.926C184.741 147.51 181.783 147.597 180.271 145.191C179.91 144.617 179.672 143.975 179.513 143.317C179.377 142.758 179.19 142.015 179.346 141.441C179.598 140.514 180.655 140.1 181.474 139.85C182.732 139.468 184.057 139.32 185.352 139.124C186.129 139.006 186.913 138.888 187.672 138.68C188.576 138.433 189.453 138.143 190.37 137.939C191.546 137.676 192.736 137.487 193.919 137.261C196.122 136.84 198.325 136.456 200.542 136.109C202.429 135.813 204.319 135.522 206.216 135.292C206.719 135.231 207.225 135.168 207.732 135.145C207.756 135.144 207.83 135.134 207.902 135.131Z" fill="#fc7caa" stroke="none"/>
</g>
</g>
</svg>
