<?xml version="1.0" encoding="UTF-8" standalone="no"?>
<!DOCTYPE svg PUBLIC "-//W3C//DTD SVG 1.1//EN" "http://www.w3.org/Graphics/SVG/1.1/DTD/svg11.dtd">
<!-- Created with Vectornator (http://vectornator.io/) -->
<svg height="100%" stroke-miterlimit="10" style="fill-rule:nonzero;clip-rule:evenodd;stroke-linecap:round;stroke-linejoin:round;" version="1.1" viewBox="121.465 127.377 83.0955 12.6" width="100%" xml:space="preserve" xmlns="http://www.w3.org/2000/svg" xmlns:vectornator="http://vectornator.io" xmlns:xlink="http://www.w3.org/1999/xlink">
<defs/>
<g id="Layer">
<g opacity="1">
<path d="M127.969 127.719C126.95 127.594 126.012 127.59 125.219 127.75C115.823 129.648 127.661 140.712 133.469 139.656C136.885 139.035 138.169 134.593 136.25 131.875C134.673 129.641 131.026 128.094 127.969 127.719ZM198.062 127.719C195.006 128.094 191.358 129.641 189.781 131.875C187.862 134.593 189.115 139.035 192.531 139.656C198.339 140.712 210.208 129.648 200.812 127.75C200.019 127.59 199.081 127.594 198.062 127.719Z" fill="#fc7caa" fill-rule="nonzero" stroke="none"/>
<path d="M126.583 127.456C124.523 127.475 121.471 128.412 121.525 130.945C121.533 131.303 121.604 131.659 121.71 132C121.869 132.513 122.115 133 122.398 133.456C123.251 134.826 124.433 135.981 125.709 136.956C126.528 137.582 127.396 138.137 128.315 138.604C129.423 139.166 130.615 139.623 131.856 139.768C132.678 139.864 133.516 139.805 134.29 139.493C136.914 138.431 137.88 135.02 136.712 132.561C136.168 131.414 135.162 130.537 134.115 129.857C132.305 128.681 130.227 128.036 128.11 127.705C128.126 127.636 128.112 127.572 128.067 127.546C127.572 127.495 127.082 127.451 126.583 127.456ZM128.084 127.775C130.433 128.144 132.775 128.909 134.687 130.365C135.371 130.886 135.998 131.5 136.429 132.25C137.804 134.639 136.956 138.294 134.267 139.359C133.532 139.65 132.736 139.693 131.958 139.594C130.415 139.398 128.943 138.719 127.626 137.919C125.83 136.828 124.128 135.38 122.953 133.622C122.584 133.068 122.262 132.469 122.071 131.829C121.974 131.505 121.909 131.165 121.904 130.826C121.87 128.377 124.977 127.726 126.894 127.806C127.221 127.82 127.546 127.856 127.871 127.891C127.933 127.926 128.026 127.878 128.081 127.783C128.082 127.78 128.082 127.778 128.084 127.775ZM198.104 127.548C195.653 127.921 193.203 128.714 191.213 130.238C190.503 130.782 189.85 131.424 189.4 132.205C187.969 134.686 188.843 138.424 191.636 139.525C192.41 139.83 193.248 139.878 194.067 139.774C195.645 139.575 197.163 138.884 198.513 138.071C199.399 137.537 200.239 136.919 201.015 136.236C201.963 135.402 202.85 134.448 203.506 133.363C203.779 132.91 204.021 132.419 204.175 131.91C204.276 131.575 204.346 131.225 204.353 130.874C204.398 128.624 201.86 127.724 199.992 127.607C199.7 127.589 199.359 127.589 199.066 127.6C198.77 127.612 198.475 127.643 198.18 127.674C198.177 127.61 198.149 127.559 198.104 127.548ZM199.506 127.662C201.439 127.677 204.317 128.51 204.269 130.898C204.262 131.244 204.194 131.589 204.091 131.919C203.934 132.421 203.691 132.904 203.417 133.35C202.583 134.706 201.396 135.851 200.141 136.815C198.45 138.115 196.287 139.334 194.12 139.588C193.339 139.679 192.542 139.626 191.808 139.326C189.278 138.294 188.405 134.943 189.528 132.591C190.054 131.489 191.019 130.652 192.027 130C193.833 128.833 195.911 128.203 198.022 127.889C198.083 127.904 198.151 127.84 198.174 127.746C198.174 127.744 198.174 127.743 198.174 127.742C198.618 127.697 199.059 127.658 199.506 127.662Z" fill="#fc7caa" stroke="none"/>
</g>
</g>
</svg>
