<?xml version="1.0" encoding="UTF-8" standalone="no"?>
<!DOCTYPE svg PUBLIC "-//W3C//DTD SVG 1.1//EN" "http://www.w3.org/Graphics/SVG/1.1/DTD/svg11.dtd">
<!-- Created with Vectornator (http://vectornator.io/) -->
<svg height="100%" stroke-miterlimit="10" style="fill-rule:nonzero;clip-rule:evenodd;stroke-linecap:round;stroke-linejoin:round;" version="1.1" viewBox="104.968 120.089 115.065 10.6232" width="100%" xml:space="preserve" xmlns="http://www.w3.org/2000/svg" xmlns:vectornator="http://vectornator.io" xmlns:xlink="http://www.w3.org/1999/xlink">
<defs/>
<g id="Layer">
<g opacity="1">
<path d="M122.188 120.344C119.048 120.388 115.888 120.735 113.062 121.188C106.338 122.264 100.829 125.808 110.219 128.625C116.469 130.5 125.394 131.108 131.781 129.656C138.51 128.127 137.719 123.223 131.25 121.375C128.444 120.573 125.327 120.299 122.188 120.344ZM202.844 120.344C199.704 120.299 196.556 120.573 193.75 121.375C187.281 123.223 186.49 128.127 193.219 129.656C199.606 131.108 208.531 130.5 214.781 128.625C224.171 125.808 218.662 122.264 211.938 121.188C209.112 120.735 205.984 120.388 202.844 120.344Z" fill="#fc7caa" fill-rule="nonzero" stroke="none"/>
<path d="M122.258 120.171C119.671 120.247 117.105 120.444 114.542 120.807C112.962 121.032 111.392 121.301 109.864 121.769C108.948 122.049 108.038 122.391 107.195 122.849C106.691 123.123 106.192 123.443 105.782 123.848C105.573 124.055 105.352 124.328 105.221 124.594C104.435 126.191 106.477 127.322 107.64 127.847C107.935 127.98 108.224 128.097 108.526 128.211C111.265 129.242 114.213 129.79 117.107 130.149C119.625 130.46 122.174 130.595 124.711 130.53C126.522 130.483 128.335 130.337 130.122 130.039C130.632 129.954 131.271 129.832 131.775 129.712C132.337 129.579 132.779 129.459 133.316 129.256C134.981 128.63 136.989 127.268 136.438 125.201C136.358 124.905 136.236 124.641 136.076 124.379C135.896 124.083 135.697 123.833 135.454 123.585C135.036 123.158 134.55 122.796 134.037 122.492C132.749 121.73 131.3 121.298 129.846 120.982C127.368 120.444 124.849 120.32 122.319 120.311C122.325 120.245 122.303 120.189 122.258 120.171ZM122.303 120.379C125.068 120.39 127.826 120.542 130.518 121.218C131.719 121.52 132.902 121.92 133.973 122.554C134.482 122.856 134.968 123.215 135.382 123.64C135.719 123.986 136.012 124.39 136.204 124.835C136.319 125.102 136.388 125.363 136.416 125.653C136.62 127.75 134.259 128.911 132.587 129.397C132.323 129.473 132.055 129.538 131.787 129.6C131.287 129.716 130.654 129.834 130.149 129.916C128.373 130.202 126.572 130.339 124.774 130.375C121.628 130.44 118.496 130.169 115.391 129.678C113.14 129.321 110.862 128.792 108.733 127.967C108.187 127.756 107.65 127.52 107.139 127.235C106.766 127.027 106.401 126.79 106.085 126.501C105.549 126.013 105.172 125.323 105.532 124.607C105.644 124.385 105.837 124.153 106.012 123.982C106.86 123.157 108.054 122.676 109.151 122.294C109.387 122.212 109.624 122.135 109.863 122.063C110.112 121.988 110.363 121.917 110.615 121.851C111.879 121.519 113.165 121.313 114.458 121.133C117.003 120.779 119.55 120.588 122.117 120.516C122.179 120.542 122.261 120.485 122.3 120.389C122.301 120.386 122.302 120.383 122.303 120.379ZM202.92 120.17C200.327 120.179 197.743 120.295 195.201 120.855C193.157 121.305 190.956 122.002 189.455 123.546C188.44 124.59 187.937 126.02 188.768 127.338C189.042 127.774 189.426 128.137 189.841 128.437C191.041 129.302 192.516 129.678 193.946 129.951C196.008 130.345 198.112 130.516 200.209 130.556C203.974 130.627 207.76 130.286 211.448 129.525C213.116 129.181 214.785 128.753 216.377 128.141C217.048 127.883 217.712 127.589 218.323 127.209C218.671 126.992 219.005 126.746 219.286 126.445C219.447 126.273 219.588 126.084 219.69 125.87C220.326 124.532 218.78 123.467 217.786 122.933C217.595 122.831 217.401 122.736 217.204 122.646C216.995 122.55 216.782 122.461 216.568 122.375C216.343 122.285 216.115 122.199 215.886 122.119C215.39 121.946 214.908 121.801 214.4 121.667C213.125 121.329 211.828 121.12 210.524 120.936C208.016 120.582 205.507 120.39 202.977 120.314C202.985 120.248 202.965 120.19 202.92 120.17ZM202.96 120.383C205.481 120.46 207.982 120.652 210.481 121.005C212.044 121.225 213.598 121.489 215.111 121.949C215.586 122.094 216.05 122.255 216.511 122.44C216.921 122.605 217.329 122.791 217.718 123.002C218.753 123.566 220.334 124.698 219.485 126.046C219.358 126.248 219.194 126.427 219.018 126.587C218.701 126.874 218.336 127.109 217.963 127.315C217.45 127.597 216.911 127.829 216.364 128.037C214.22 128.85 211.949 129.34 209.69 129.705C206.593 130.206 203.444 130.425 200.307 130.346C197.965 130.287 195.592 130.076 193.309 129.53C192.188 129.262 191.049 128.888 190.106 128.203C189.71 127.915 189.343 127.562 189.084 127.143C188.944 126.917 188.823 126.635 188.761 126.376C188.312 124.512 190.192 123.05 191.641 122.329C191.851 122.225 192.063 122.126 192.279 122.035C192.51 121.939 192.743 121.85 192.98 121.768C193.231 121.681 193.485 121.599 193.742 121.529C194.211 121.401 194.681 121.277 195.156 121.174C197.663 120.628 200.211 120.52 202.767 120.517C202.83 120.544 202.915 120.489 202.957 120.393C202.958 120.39 202.958 120.386 202.96 120.383Z" fill="#fc7caa" stroke="none"/>
</g>
</g>
</svg>
