<?xml version="1.0" encoding="UTF-8" standalone="no"?>
<!DOCTYPE svg PUBLIC "-//W3C//DTD SVG 1.1//EN" "http://www.w3.org/Graphics/SVG/1.1/DTD/svg11.dtd">
<!-- Created with Vectornator (http://vectornator.io/) -->
<svg height="100%" stroke-miterlimit="10" style="fill-rule:nonzero;clip-rule:evenodd;stroke-linecap:round;stroke-linejoin:round;" version="1.1" viewBox="4.02336 3.27107 318.451 211.689" width="100%" xml:space="preserve" xmlns="http://www.w3.org/2000/svg" xmlns:xlink="http://www.w3.org/1999/xlink">
<defs/>
<g id="hair-t-4">
<path d="M179.848 40.7785C173.273 37.1118 155.675 35.9598 148.409 33.986C141.967 32.2358 102.486 41.523 96.315 44.0696C63.6876 57.5342 78.3888 64.8752 45.3003 77.1632C38.7089 79.611 24.0238 77.6099 17.1411 76.1723C23.7152 92.3248 26.688 97.0056 37.8004 105.155C27.2249 111.603 24.437 115.016 14.6291 116.601C6.52336 117.911 9.49084 115.345 6.52336 116.793L13.6008 127.364L26.688 139.727C19.6005 147.098 17.1411 147.704 6.52336 152.122C13.329 167.482 15.0041 160.458 25.9324 172.323L17.1411 181.996L6.52336 190.296C23.7418 202.316 42.1052 212.034 61.9245 212.246C116.327 212.827 126.58 212.243 180.952 210.316C198.947 209.678 259.006 202.513 276.889 204.624C290.121 206.186 305.971 197.177 319.295 197.085C310.204 190.296 309.988 191.984 303.116 179.619C307.522 177.51 309.221 175.758 310.804 174.358C313.383 172.078 313.383 171.995 319.974 167.482C308.649 162.159 308.623 162.96 302.71 155.325C298.594 150.009 298.491 148.179 296.367 139.727C305.025 132.866 310.791 130.938 319.449 124.077C305.262 124.077 300.91 119.878 292.005 110.017C288.429 106.057 285.354 98.4243 282.343 94.0197C292.681 83.8981 292.372 86.2939 302.71 76.1723C292.84 74.892 282.559 73.8528 273.409 69.9355C253.276 61.3157 237.718 42.8633 216.672 36.8068C205.777 33.6717 194.518 41.6327 183.442 44.0456C187.938 33.0411 186.252 38.4911 190.749 27.4867C186.632 15.3979 182.766 13.9039 173.097 5.77107C176.473 23.2748 176.473 23.2748 179.848 40.7785Z" fill="#ffacca" fill-rule="nonzero" opacity="1" stroke="#fa4485" stroke-linecap="round" stroke-linejoin="round" stroke-width="5"/>
</g>
</svg>
