<?xml version="1.0" encoding="UTF-8" standalone="no"?>
<!DOCTYPE svg PUBLIC "-//W3C//DTD SVG 1.1//EN" "http://www.w3.org/Graphics/SVG/1.1/DTD/svg11.dtd">
<!-- Created with Vectornator (http://vectornator.io/) -->
<svg height="100%" stroke-miterlimit="10" style="fill-rule:nonzero;clip-rule:evenodd;stroke-linecap:round;stroke-linejoin:round;" version="1.1" viewBox="4.53086 1.85152 319.242 195.367" width="100%" xml:space="preserve" xmlns="http://www.w3.org/2000/svg" xmlns:xlink="http://www.w3.org/1999/xlink">
<defs/>
<g id="hair-t-7">
<path d="M84.3636 190.296C58.4144 186.076 32.3043 182.039 7.03086 174.798C18.9517 164.949 27.3647 156.494 32.6133 141.772C27.8038 139.634 22.164 138.804 18.1848 135.36C13.3278 131.155 10.7563 124.876 7.04208 119.635C17.5277 113.638 26.8693 105.523 35.0325 96.6194C28.3065 85.2425 26.6672 71.5003 23.7418 58.6118C39.5421 58.1667 55.6613 58.5166 71 54.6988C67.5134 45.5174 64.6489 36.0284 62.9606 26.3534C74.6721 31.8456 87.4145 35.2519 100.182 37.33C99.7075 22.8662 99.7075 22.8662 99.2332 8.40238C114.419 14.8242 128.33 26.713 144.791 27.6679C152.267 28.1016 155.886 17.5656 160.873 11.9782C162.865 9.74658 164.026 6.89375 165.602 4.35152C171.006 11.7669 174.875 20.2452 178.455 28.6938C194.802 21.8915 211.067 14.7162 226.496 6.02986C224.675 15.5742 220.276 25.4717 222.569 34.9135C239.467 30.7709 247.696 32.5503 263.601 25.4976C258.102 36.6577 259.073 38.9825 257.347 51.3037C272.141 47.6029 284.055 54.5183 298.276 49.01C290.01 63.2919 284.242 65.9589 273.894 78.8125C281.039 83.6601 287.491 89.7319 295.328 93.3554C300.589 95.7878 306.713 95.5314 312.406 96.6194C304.728 102.243 295.923 106.264 287.113 109.866C297.392 119.74 307.773 126.356 321.273 131.09C305.174 144.57 305.174 144.57 289.076 158.049C303.774 168.977 303.774 168.977 318.471 179.905C290.346 186.425 261.728 190.729 233.134 194.719" fill="#ffacca" fill-rule="nonzero" opacity="1" stroke="#fa4485" stroke-linecap="round" stroke-linejoin="round" stroke-width="5"/>
</g>
</svg>
