<?xml version="1.0" encoding="UTF-8" standalone="no"?>
<!DOCTYPE svg PUBLIC "-//W3C//DTD SVG 1.1//EN" "http://www.w3.org/Graphics/SVG/1.1/DTD/svg11.dtd">
<!-- Created with Vectornator (http://vectornator.io/) -->
<svg height="100%" stroke-miterlimit="10" style="fill-rule:nonzero;clip-rule:evenodd;stroke-linecap:round;stroke-linejoin:round;" version="1.1" viewBox="7.17486 5.60181 309.048 185.987" width="100%" xml:space="preserve" xmlns="http://www.w3.org/2000/svg" xmlns:xlink="http://www.w3.org/1999/xlink">
<defs/>
<g id="hair-t-5">
<path d="M163.013 38.3982C155.469 37.7867 150.244 30.4148 139.636 29.6914C127.715 28.8784 115.674 31.0463 107.319 32.6404C87.3735 36.4461 70.7447 45.4471 55.2287 58.5456C45.6408 66.6396 35.9573 80.6468 32.3625 90.4393C28.3487 101.373 18.7979 107.553 9.67486 115.07C13.9276 116.03 20.8397 113.893 22.4332 117.951C28.1532 132.517 26.8492 148.936 29.0571 164.429C70.1754 172.625 110.488 188.508 152.412 189.017C198.665 189.58 247.625 187.206 289.519 167.594C304.217 160.713 292.792 134.635 299.825 120.009C301.871 115.753 309.09 118.175 313.723 117.258C302.71 109.866 297.423 103.207 292.728 96.6194C283.369 83.4873 280.282 71.2697 265.899 58.5456C250.279 44.7275 232.76 37.9894 209.953 31.3083C204.349 29.6666 192.922 27.4531 187.861 26.4891C179.351 24.8678 174.038 36.2275 164.537 38.7107C170.332 26.641 172.193 29.5681 172.099 21.1809C172.056 17.2938 170.422 13.6639 165.602 10.4557C160.13 7.94665 157.218 8.0374 148.521 8.14249C160.787 21.7406 162.5 26.7318 163.013 38.3982Z" fill="#ffacca" fill-rule="nonzero" opacity="1" stroke="#fa4485" stroke-linecap="round" stroke-linejoin="round" stroke-width="5"/>
</g>
</svg>
