<?xml version="1.0" encoding="UTF-8" standalone="no"?>
<!DOCTYPE svg PUBLIC "-//W3C//DTD SVG 1.1//EN" "http://www.w3.org/Graphics/SVG/1.1/DTD/svg11.dtd">
<!-- Created with Vectornator (http://vectornator.io/) -->
<svg height="100%" stroke-miterlimit="10" style="fill-rule:nonzero;clip-rule:evenodd;stroke-linecap:round;stroke-linejoin:round;" version="1.1" viewBox="23.6455 20.614 279.778 161.791" width="100%" xml:space="preserve" xmlns="http://www.w3.org/2000/svg" xmlns:xlink="http://www.w3.org/1999/xlink">
<defs/>
<g id="hair-t-2">
<path d="M47.9615 179.905C47.8451 179.352 47.4544 178.737 46.8562 178.057C46.258 177.377 45.4523 176.631 44.5058 175.816C43.5593 175.001 42.4721 174.116 41.3108 173.158C40.1496 172.2 38.9144 171.168 37.6719 170.058C36.4294 168.948 35.1797 167.761 33.9896 166.492C32.7994 165.223 31.6688 163.872 30.6644 162.435C29.6601 160.998 28.782 159.475 28.0971 157.863C27.4121 156.25 26.9201 154.547 26.688 152.751C26.2424 149.301 26.0806 145.641 26.1685 141.844C26.2564 138.046 26.594 134.111 27.1472 130.112C27.7003 126.112 28.4691 122.048 29.4193 117.993C30.3695 113.938 31.5011 109.892 32.7801 105.928C34.0591 101.963 35.4854 98.0813 37.025 94.3545C38.5645 90.6276 40.2173 87.0559 41.9491 83.7128C43.6809 80.3696 45.4919 77.2549 47.3478 74.4418C49.2037 71.6287 51.1045 69.1173 53.0163 66.9808C55.5788 64.1169 58.4296 61.2806 61.5548 58.509C64.68 55.7375 68.0796 53.0308 71.7399 50.4263C75.4002 47.8218 79.3212 45.3193 83.4891 42.9564C87.657 40.5934 92.0717 38.3698 96.7197 36.323C101.368 34.2761 106.249 32.406 111.349 30.7499C116.45 29.0938 121.769 27.6518 127.295 26.461C132.82 25.2702 143.915 23.8117 149.838 23.1608C155.761 22.5099 156.933 28.8589 163.226 28.8226C169.486 28.7864 171.24 22.5561 177.173 23.1673C183.106 23.7785 192.796 25.0391 198.352 26.2162C203.909 27.3934 209.266 28.8332 214.398 30.495C219.53 32.1568 224.438 34.0405 229.097 36.1054C233.756 38.1704 238.166 40.4166 242.303 42.8034C246.44 45.1902 250.304 47.7175 253.871 50.3447C257.438 52.9719 260.707 55.699 263.655 58.4852C266.603 61.2715 269.229 64.1169 271.509 66.9808C273.234 69.1469 274.986 71.6443 276.732 74.3993C278.478 77.1543 280.218 80.1668 281.918 83.3631C283.619 86.5593 285.279 89.9394 286.865 93.4293C288.452 96.9193 289.965 100.519 291.37 104.155C292.775 107.792 294.073 111.464 295.229 115.099C296.386 118.733 297.401 122.33 298.241 125.816C299.081 129.302 299.746 132.676 300.202 135.865C300.658 139.054 300.905 142.058 300.91 144.803C300.911 145.532 300.92 146.318 300.923 147.133C300.926 147.948 300.923 148.793 300.902 149.64C300.881 150.487 300.841 151.336 300.768 152.161C300.696 152.985 300.592 153.785 300.442 154.533C300.292 155.281 300.097 155.977 299.843 156.594C299.59 157.212 299.278 157.75 298.894 158.182C298.51 158.614 298.054 158.94 297.514 159.134C296.973 159.327 296.347 159.386 295.623 159.286C295.676 159.652 295.448 160.2 295.011 160.884C294.573 161.568 293.924 162.388 293.136 163.299C292.348 164.21 291.419 165.212 290.42 166.259C289.422 167.307 288.353 168.399 287.284 169.492C286.215 170.585 285.146 171.678 284.147 172.725C283.149 173.772 282.22 174.774 281.432 175.685C280.643 176.596 279.995 177.417 279.557 178.1C279.119 178.784 278.892 179.332 278.945 179.698" fill="#ffacca" fill-rule="nonzero" opacity="1" stroke="#fa4485" stroke-linecap="round" stroke-linejoin="round" stroke-width="5"/>
</g>
</svg>
