<?xml version="1.0" encoding="UTF-8" standalone="no"?>
<!DOCTYPE svg PUBLIC "-//W3C//DTD SVG 1.1//EN" "http://www.w3.org/Graphics/SVG/1.1/DTD/svg11.dtd">
<!-- Created with Vectornator (http://vectornator.io/) -->
<svg height="100%" stroke-miterlimit="10" style="fill-rule:nonzero;clip-rule:evenodd;stroke-linecap:round;stroke-linejoin:round;" version="1.1" viewBox="23.1633 20.3892 280.793 162.016" width="100%" xml:space="preserve" xmlns="http://www.w3.org/2000/svg" xmlns:xlink="http://www.w3.org/1999/xlink">
<defs/>
<g id="hair-t-3">
<path d="M47.9615 179.905C47.572 179.495 47.1798 179.087 46.7856 178.681C46.3914 178.275 45.9951 177.87 45.5973 177.467C45.1994 177.064 44.8 176.662 44.3994 176.262C43.9988 175.861 43.5971 175.461 43.1948 175.062L41.986 173.866L40.7771 172.67C40.3742 172.271 39.9716 171.872 39.5697 171.472C39.1679 171.073 38.7668 170.672 38.3671 170.271C37.9673 169.869 37.5688 169.467 37.1721 169.063C36.7753 168.659 36.3803 168.253 35.9875 167.846C35.5948 167.438 35.2042 167.029 34.8164 166.617C34.4285 166.205 34.0434 165.791 33.6614 165.374C33.2795 164.958 32.9007 164.538 32.5255 164.115C32.1504 163.693 31.7789 163.267 31.4116 162.837C31.0443 162.408 30.6811 161.975 30.3225 161.538C29.9639 161.101 29.6099 160.66 29.261 160.215C28.8604 159.703 28.4997 159.146 28.1759 158.548C27.8521 157.95 27.5651 157.313 27.312 156.64C27.0588 155.968 26.8395 155.261 26.6508 154.525C26.4622 153.79 26.3043 153.026 26.1741 152.239C26.0439 151.452 25.9413 150.642 25.8633 149.815C25.7853 148.989 25.7319 148.145 25.7001 147.29C25.6682 146.435 25.6579 145.568 25.666 144.696C25.6741 143.825 25.7007 142.948 25.7427 142.071C25.7846 141.194 25.842 140.318 25.9117 139.447C25.9814 138.577 26.0634 137.713 26.1546 136.861C26.2459 136.009 26.3464 135.169 26.4531 134.347C26.5598 133.524 26.6727 132.72 26.7887 131.939C26.9048 131.158 27.0239 130.401 27.1431 129.673C27.2623 128.945 27.3815 128.247 27.4977 127.584C27.6139 126.92 27.7272 126.292 27.8343 125.705C27.9414 125.118 28.0424 124.572 28.1343 124.073C28.5646 121.736 29.0466 119.427 29.5805 117.149C30.1145 114.87 30.7005 112.622 31.3388 110.405C31.9771 108.189 32.6678 106.004 33.4113 103.852C34.1547 101.699 34.9508 99.5801 35.8001 97.495C36.6493 95.4099 37.5516 93.359 38.5074 91.3437C39.4632 89.3284 40.4724 87.3486 41.5354 85.4058C42.5984 83.4629 43.7152 81.5569 44.8862 79.6891C46.0572 77.8214 47.2823 75.9918 48.562 74.2018C49.8416 72.4119 51.1758 70.6614 52.5648 68.9519C53.9539 67.2424 55.3978 65.5737 56.8969 63.9473C58.3961 62.3209 59.9505 60.7367 61.5604 59.1961C63.1704 57.6555 64.836 56.1585 66.5575 54.7063C68.279 53.2542 70.0565 51.8469 71.8903 50.4859C73.7241 49.1249 75.6142 47.8101 77.5609 46.5429C79.5077 45.2757 81.5111 44.056 83.5716 42.8853C85.632 41.7145 87.7495 40.5927 89.9243 39.5211C93.1176 37.9478 96.34 36.4894 99.5874 35.1446C102.835 33.7998 106.107 32.5686 109.4 31.4496C112.693 30.3305 116.007 29.3236 119.338 28.4275C122.668 27.5313 126.015 26.7458 129.374 26.0697C132.733 25.3936 136.104 24.8267 139.484 24.3678C142.863 23.9088 146.251 23.5577 149.642 23.3131C153.034 23.0684 156.429 22.9302 159.824 22.8971C163.218 22.8639 166.613 22.9358 170.003 23.1112C173.392 23.2867 176.777 23.5658 180.154 23.947C183.53 24.3282 185.852 25.1494 189.206 25.7335C192.56 26.3177 194.484 36.5458 197.808 37.33C201.131 38.1142 206.901 29.1169 210.186 30.0984C213.471 31.0799 216.735 32.1592 219.972 33.335C223.21 34.5109 226.422 35.7832 229.604 37.1506C232.785 38.5179 235.937 39.9803 239.055 41.5364C242.173 43.0924 245.256 44.742 248.301 46.4839C250.128 47.5293 251.964 48.7426 253.799 50.107C255.633 51.4713 257.466 52.9867 259.286 54.6362C261.106 56.2858 262.914 58.0695 264.699 59.9706C266.484 61.8717 268.247 63.8901 269.976 66.009C271.706 68.1279 273.402 70.3473 275.054 72.6504C276.707 74.9534 278.316 77.3401 279.871 79.7936C281.426 82.2471 282.926 84.7675 284.363 87.3377C285.799 89.908 287.171 92.5282 288.467 95.1815C289.764 97.8349 290.986 100.521 292.122 103.224C293.259 105.927 294.31 108.646 295.265 111.364C296.22 114.083 297.079 116.8 297.832 119.501C298.585 122.201 299.231 124.884 299.761 127.533C300.291 130.182 300.704 132.796 300.989 135.359C301.275 137.923 301.434 140.435 301.454 142.879C301.475 145.323 301.358 147.7 301.093 149.991C300.828 152.283 300.415 154.489 299.843 156.594C299.816 156.695 299.78 156.789 299.736 156.876C299.693 156.964 299.641 157.046 299.582 157.122C299.524 157.198 299.459 157.269 299.388 157.335C299.316 157.401 299.239 157.463 299.157 157.52C299.075 157.578 298.988 157.632 298.896 157.683C298.805 157.734 298.71 157.782 298.611 157.827C298.513 157.873 298.411 157.916 298.307 157.958C298.203 158 298.097 158.04 297.989 158.08L297.662 158.198L297.335 158.315C297.226 158.355 297.117 158.396 297.01 158.438C296.903 158.48 296.797 158.524 296.693 158.57C296.59 158.616 296.489 158.665 296.391 158.716C296.293 158.768 296.198 158.823 296.108 158.881C296.017 158.94 295.931 159.002 295.85 159.07C295.769 159.137 295.693 159.209 295.623 159.286C295.255 159.693 294.889 160.103 294.526 160.514C294.162 160.926 293.801 161.34 293.442 161.755C293.083 162.17 292.726 162.588 292.372 163.006C292.017 163.425 291.664 163.846 291.312 164.268C290.961 164.69 290.611 165.113 290.263 165.537C289.914 165.962 289.567 166.387 289.222 166.814C288.876 167.241 288.531 167.668 288.187 168.097C287.843 168.525 287.501 168.954 287.158 169.384L286.135 170.676L285.111 171.968L284.089 173.261L283.067 174.555C282.726 174.985 282.385 175.416 282.043 175.846C281.701 176.276 281.359 176.706 281.016 177.135C280.672 177.564 280.328 177.992 279.983 178.419C279.638 178.846 279.292 179.273 278.945 179.698" fill="#ffacca" fill-rule="nonzero" opacity="1" stroke="#fa4485" stroke-linecap="round" stroke-linejoin="round" stroke-width="5"/>
</g>
</svg>
