<?xml version="1.0" encoding="UTF-8" standalone="no"?>
<!DOCTYPE svg PUBLIC "-//W3C//DTD SVG 1.1//EN" "http://www.w3.org/Graphics/SVG/1.1/DTD/svg11.dtd">
<!-- Created with Vectornator (http://vectornator.io/) -->
<svg height="100%" stroke-miterlimit="10" style="fill-rule:nonzero;clip-rule:evenodd;stroke-linecap:round;stroke-linejoin:round;" version="1.1" viewBox="4.37964 3.76298 318.953 187.961" width="100%" xml:space="preserve" xmlns="http://www.w3.org/2000/svg" xmlns:xlink="http://www.w3.org/1999/xlink">
<defs/>
<g id="hair-t-1">
<g opacity="1">
<path d="M90.8825 48.562C86.7713 44.1967 79.6316 49.9025 68.9488 53.7329C57.5059 57.836 47.6066 76.9232 44.5561 81.6396C34.7261 96.8376 36.147 102.92 23.7387 118.192C19.6031 123.282 11.638 121.592 8.80266 125.137C5.88605 128.782 21.4911 137.733 22.1552 139.559C24.1995 145.181 9.10571 146.217 8.5827 146.798C5.97661 149.693 15.1948 165.246 17.1786 167.383C39.7082 191.645 83.0793 192.83 114.222 190.682C120.887 190.222 127.092 187.081 133.676 186.61C139.819 186.172 146.27 187.805 152.451 187.968C169.995 188.429 187.627 187.397 205.158 188.194C212.372 188.522 220.391 192.156 227.552 191.361C231.304 190.944 234.229 188.42 238.184 188.42C242.618 188.42 246.607 190.636 251.078 190.23C258.965 189.513 268.689 180.18 275.735 176.657C285.359 171.845 296.5 173.519 305.594 167.835C307.328 166.751 319.841 159.52 319.393 157.429C319.213 156.589 318.164 156.143 317.357 155.846C313.524 154.434 309.997 155.914 306.047 153.358C303.754 151.874 293.946 138.327 295.415 135.94C295.604 135.632 299.188 134.842 299.487 134.809C307.052 133.968 313.518 121.949 317.131 115.807C317.524 115.138 318.747 114.377 318.262 113.771C317.334 112.611 315.574 115.043 314.19 115.581C311.701 116.549 306.267 113.147 303.603 112.703C295.968 111.431 288.052 100.77 284.849 94.3639C281.232 87.1311 297.129 70.8632 294.058 68.3034C293.881 68.1564 285.875 70.7411 281.297 70.9821C276.378 71.241 267.573 67.4341 263.105 65.3176C250.596 59.3924 244.026 41.1078 230.041 38.4439C223.435 37.1856 213.059 35.2379 206.741 37.7652C205.299 38.3422 192.377 44.0997 192.038 43.6467C190.891 42.1181 196.837 36.4209 197.467 35.2769C202.468 26.1832 203.55 9.26031 189.323 7.67953C180.807 6.73332 190.897 43.8696 183.216 41.1584C178.467 39.4823 180.714 32.1551 177.56 29.3955C171.466 24.0631 165.073 23.0723 157.428 21.252C141.777 17.5256 120.3 35 103.59 33.2411C98.2774 32.6818 91.0815 29.3039 88.6604 24.1927C88.2209 23.2647 87.3754 15.1957 85.4935 15.823C83.9868 16.3253 81.9712 37.4693 82.779 40.0273C83.2847 41.6287 92.1817 49.9415 90.8825 48.562Z" fill="#ffacca" fill-rule="nonzero" stroke="none"/>
<path d="M189.34 7.64971C186.912 7.35947 186.194 10.2727 185.915 12.099C185.875 12.3663 185.848 12.6305 185.818 12.8991C185.786 13.1818 185.753 13.4644 185.73 13.748C185.681 14.3619 185.66 14.9666 185.642 15.5824C185.497 20.5496 186.026 25.5027 186.189 30.4623C186.222 31.4715 186.295 32.4969 186.286 33.5065C186.281 34.0808 186.247 34.6498 186.228 35.2238C186.208 35.7978 186.201 36.3774 186.169 36.9509C186.143 37.4304 186.078 37.9026 185.993 38.3754C185.82 39.3497 185.45 40.9937 184.286 41.2343C183.653 41.3652 182.963 41.0632 182.432 40.7464C180.67 39.695 180.157 37.5444 179.827 35.6629C179.757 35.2637 179.701 34.8718 179.632 34.4725C179.496 33.6931 179.342 32.9064 179.144 32.1405C178.964 31.4437 178.691 30.7477 178.285 30.15C177.897 29.5778 177.363 29.1591 176.831 28.7255C176.091 28.1224 175.32 27.5571 174.519 27.0374C171.001 24.7551 167.01 23.503 162.966 22.5101C161.76 22.2139 160.546 21.9421 159.337 21.6612C158.05 21.3625 156.775 21.0258 155.463 20.8611C153.01 20.5534 150.52 20.7053 148.086 21.0953C144.204 21.7172 140.448 22.9265 136.758 24.2566C132.423 25.8195 128.16 27.5895 123.84 29.1938C123.057 29.4845 122.277 29.7889 121.488 30.0622C120.72 30.3281 119.949 30.5554 119.176 30.8038C118.402 31.0522 117.631 31.3212 116.853 31.5551C112.963 32.7247 108.733 33.5312 104.657 33.2919C100.793 33.065 96.9472 31.7131 93.7285 29.5743C92.0579 28.4642 90.5067 27.092 89.3963 25.408C89.1219 24.9919 88.7983 24.5014 88.645 24.0224C88.3801 23.1951 88.2776 22.3061 88.1083 21.4563C87.8427 20.1226 87.5724 18.7609 87.0936 17.4851C86.9953 17.2233 86.8815 16.9669 86.7618 16.7142C86.538 16.2416 86.1017 15.6056 85.4934 15.7873C85.3367 15.8341 85.2414 16.017 85.1714 16.1483C84.9892 16.49 84.8749 16.8701 84.7713 17.2411C84.3593 18.7169 84.1286 20.2457 83.9029 21.7588C83.2368 26.2255 82.8281 30.7436 82.6052 35.2531C82.5552 36.2637 82.5327 37.2759 82.5564 38.2876C82.5699 38.8636 82.5714 39.4869 82.7418 40.0439C82.8203 40.3005 82.9961 40.5425 83.1516 40.7562C83.954 41.8589 84.9282 42.8417 85.8739 43.82C87.0081 44.9933 88.175 46.1394 89.3573 47.2643C87.4205 46.4435 85.1775 46.9534 83.2687 47.5961C81.2504 48.2756 79.3045 49.1811 77.3655 50.0549C75.4284 50.9279 73.4929 51.7993 71.5209 52.5918C70.4236 53.0328 69.2959 53.4085 68.2034 53.8602C67.2106 54.2707 66.265 54.7744 65.3543 55.3433C62.0971 57.3782 59.3314 60.1539 56.8557 63.0614C54.1503 66.2386 51.7597 69.6738 49.5182 73.1894C47.8897 75.7437 46.3842 78.378 44.7957 80.9562C44.0922 82.0982 43.3517 83.2127 42.6589 84.3615C41.5269 86.2383 40.4659 88.157 39.4682 90.1086C37.1516 94.6402 35.2931 99.3878 32.9894 103.925C30.9352 107.97 28.4918 111.778 25.7495 115.39C25.0451 116.317 24.3303 117.247 23.5834 118.141C23.2121 118.586 22.958 118.868 22.5198 119.244C21.9612 119.723 21.3374 120.133 20.6855 120.473C18.7201 121.499 16.5297 121.906 14.392 122.405C13.0936 122.708 11.7583 123.014 10.5574 123.615C9.57958 124.104 8.26688 124.983 8.24491 126.211C8.23932 126.523 8.30629 126.835 8.41078 127.128C8.67768 127.874 9.16768 128.533 9.66947 129.138C10.2028 129.78 10.7929 130.386 11.4063 130.953C13.6089 132.986 16.0223 134.769 18.412 136.573C19.3263 137.263 20.2373 137.951 21.105 138.7C21.769 139.273 22.1432 139.691 22.149 140.622C22.1599 142.354 20.2595 143.444 18.8706 144.027C18.6032 144.14 18.3322 144.247 18.0607 144.349C17.7806 144.455 17.4964 144.559 17.2119 144.652C16.6593 144.832 16.0081 145.013 15.4458 145.159C14.8541 145.313 14.2674 145.45 13.67 145.579C12.864 145.753 12.0512 145.908 11.2404 146.057C11.0092 146.099 10.7788 146.141 10.5476 146.184C10.1731 146.252 9.79877 146.323 9.42554 146.398C8.97005 146.49 8.529 146.542 8.26442 146.964C7.7765 147.742 7.90244 148.811 8.04976 149.667C8.38038 151.589 9.14059 153.445 9.92316 155.219C10.2614 155.986 10.6065 156.721 10.9769 157.473C12.0379 159.626 13.199 161.728 14.4505 163.776C15.1565 164.931 15.8795 166.1 16.724 167.162C17.0326 167.55 17.3831 167.896 17.729 168.255C18.6858 169.248 19.6835 170.198 20.7147 171.114C23.5526 173.634 26.63 175.867 29.8866 177.817C37.5621 182.412 46.0875 185.47 54.7677 187.525C66.3364 190.264 78.2508 191.317 90.1183 191.516C95.8032 191.611 101.495 191.495 107.174 191.223C109.785 191.098 112.408 191.007 115.009 190.745C119.717 190.271 124.197 188.584 128.786 187.535C129.32 187.413 129.848 187.261 130.387 187.164C130.924 187.068 131.465 187.03 132.006 186.959C133.053 186.824 134.103 186.699 135.158 186.676C139.896 186.576 144.563 187.525 149.267 187.916C152.854 188.213 156.471 188.181 160.068 188.208C170.69 188.29 181.313 187.971 191.936 188.023C193.399 188.03 194.863 188.017 196.326 188.042C198.154 188.075 199.983 188.153 201.81 188.208C203.205 188.251 204.604 188.253 205.996 188.364C208.835 188.591 211.627 189.249 214.397 189.877C216.914 190.448 219.419 191.012 221.978 191.36C223.207 191.527 224.456 191.603 225.696 191.584C226.939 191.565 228.167 191.441 229.365 191.106C231.131 190.612 232.766 189.752 234.507 189.184C235.083 188.996 235.667 188.814 236.263 188.706C236.885 188.594 237.516 188.574 238.146 188.53C238.852 188.482 239.605 188.59 240.303 188.686C241.736 188.886 243.139 189.26 244.547 189.584C245.612 189.829 246.656 190.047 247.738 190.199C248.098 190.249 248.458 190.331 248.821 190.355C249.19 190.379 249.563 190.348 249.933 190.345C250.301 190.342 250.667 190.35 251.036 190.335C251.891 190.301 252.773 190.073 253.592 189.838C256.455 189.016 259.099 187.532 261.612 185.964C265.502 183.538 269.125 180.713 273.019 178.295C274.29 177.505 275.601 176.774 276.97 176.168C278.566 175.461 280.224 174.913 281.908 174.46C285.677 173.447 289.564 172.916 293.392 172.177C294.243 172.013 295.106 171.883 295.948 171.679C296.368 171.578 296.773 171.439 297.188 171.318C298.012 171.079 298.841 170.846 299.666 170.606C300.083 170.485 300.51 170.393 300.915 170.235C301.326 170.075 301.709 169.846 302.105 169.65C302.496 169.457 302.885 169.268 303.276 169.074C304.059 168.687 304.839 168.308 305.618 167.913C306.191 167.623 306.737 167.231 307.286 166.898C308.491 166.17 309.698 165.438 310.887 164.684C313.249 163.185 315.593 161.638 317.736 159.834C318.329 159.335 318.974 158.753 319.346 158.058C320.013 156.814 318.321 156.09 317.424 155.765C317.265 155.708 317.108 155.65 316.946 155.599C313.886 154.644 310.576 155.346 307.579 154.058C307.026 153.82 306.46 153.545 305.979 153.18C305.409 152.747 304.927 152.192 304.457 151.658C303.842 150.959 303.251 150.226 302.681 149.491C300.844 147.127 299.14 144.656 297.636 142.066C296.99 140.953 296.37 139.819 295.89 138.622C295.679 138.095 295.488 137.546 295.402 136.983C295.348 136.628 295.336 136.274 295.499 135.948C295.523 135.902 295.871 135.789 295.919 135.773C295.976 135.753 296.028 135.732 296.085 135.714C296.824 135.483 297.585 135.303 298.339 135.129C299.186 134.933 300.05 134.846 300.886 134.602C302.034 134.266 303.107 133.709 304.096 133.041C306.348 131.519 308.204 129.456 309.862 127.323C312.055 124.503 313.924 121.444 315.726 118.366C316.068 117.783 316.411 117.193 316.751 116.609C316.974 116.227 317.164 115.834 317.453 115.497C317.75 115.152 318.151 114.834 318.361 114.424C318.419 114.309 318.47 114.182 318.468 114.053C318.466 113.934 318.407 113.826 318.351 113.721C318.105 113.26 317.46 113.371 317.083 113.546C316.014 114.04 315.275 115.08 314.175 115.517C313.852 115.645 313.504 115.683 313.16 115.682C312.255 115.681 311.36 115.425 310.506 115.146C309.327 114.759 308.19 114.26 307.042 113.79C306.169 113.431 305.29 113.051 304.379 112.794C303.827 112.639 303.254 112.571 302.7 112.423C299.87 111.671 297.38 109.9 295.226 107.974C293.102 106.074 291.218 103.909 289.509 101.632C288.161 99.8362 286.924 97.9578 285.82 96.002C285.262 95.0123 284.657 94.0178 284.474 92.8796C284.119 90.6799 284.932 88.291 285.781 86.2935C287.351 82.5991 289.562 79.2154 291.606 75.7751C292.041 75.0441 292.525 74.2307 292.933 73.4821C293.12 73.1388 293.301 72.786 293.48 72.4381C293.942 71.537 294.432 70.5252 294.524 69.5012C294.562 69.0745 294.505 68.5266 294.124 68.2522C294.029 68.1844 293.736 68.292 293.655 68.3108C293.563 68.3323 293.465 68.3462 293.372 68.3693C292.629 68.5561 291.898 68.7675 291.157 68.9645C288.74 69.6076 286.301 70.2314 283.83 70.633C282.796 70.801 281.738 70.9479 280.688 70.9355C278.91 70.9146 277.135 70.5065 275.429 70.0378C273.158 69.4144 270.937 68.615 268.755 67.7351C267.271 67.1368 265.808 66.4896 264.354 65.8227C263.429 65.3981 262.506 64.9737 261.622 64.4664C259.314 63.1418 257.249 61.4307 255.338 59.5878C251.088 55.4884 247.54 50.7325 243.396 46.5325C242.966 46.0971 242.554 45.6431 242.108 45.225C241.672 44.8176 241.203 44.4535 240.751 44.0639C240.3 43.6745 239.854 43.2734 239.395 42.893C238.503 42.1531 237.521 41.496 236.526 40.9026C235.041 40.0156 233.447 39.2914 231.784 38.8047C230.657 38.4748 229.503 38.2871 228.35 38.0729C227.41 37.8983 226.463 37.724 225.52 37.5656C222.099 36.9907 218.65 36.5445 215.177 36.502C213.21 36.4779 211.226 36.5701 209.294 36.9704C208.689 37.0957 208.121 37.3127 207.547 37.507C209.343 36.9194 211.221 36.7162 213.099 36.6289C216.562 36.4678 220.041 36.8257 223.461 37.3411C225.076 37.5845 226.676 37.8619 228.282 38.1608C229.431 38.3747 230.592 38.5728 231.716 38.9023C233.931 39.5519 235.999 40.6254 237.892 41.9368C238.373 42.2695 238.848 42.5979 239.298 42.9711C239.756 43.3515 240.203 43.7527 240.654 44.142C241.104 44.5312 241.566 44.9058 242 45.3128C242.446 45.7306 242.859 46.1853 243.288 46.6203C246.788 50.1701 249.86 54.0998 253.289 57.7144C255.551 60.0975 257.974 62.3718 260.773 64.1151C262.095 64.9383 263.504 65.5927 264.92 66.2325C266.158 66.7916 267.407 67.3338 268.667 67.8424C271.111 68.8291 273.6 69.7301 276.161 70.3696C277.619 70.7339 279.13 71.0345 280.639 71.0526C281.699 71.0653 282.757 70.9192 283.801 70.7501C286.462 70.3186 289.082 69.6311 291.684 68.9352C292.244 68.7857 292.801 68.6371 293.363 68.4962C293.493 68.4635 293.712 68.4063 293.851 68.3791C293.899 68.3695 293.96 68.326 293.997 68.3596C294.055 68.4124 294.116 68.4625 294.163 68.5254C294.446 68.9061 294.402 69.4339 294.319 69.8719C294.182 70.593 293.888 71.2899 293.577 71.9502C292.332 74.5933 290.664 77.0596 289.177 79.5707C287.451 82.4849 285.63 85.5903 284.698 88.8791C284.283 90.3442 284.028 91.9542 284.415 93.4553C284.657 94.395 285.193 95.2535 285.664 96.0898C286.38 97.3603 287.154 98.5934 287.977 99.7975C290.029 102.801 292.374 105.661 295.09 108.091C296.507 109.359 298.039 110.528 299.724 111.418C300.638 111.901 301.594 112.304 302.593 112.57C303.146 112.717 303.721 112.785 304.271 112.941C305.862 113.389 307.373 114.137 308.906 114.746C309.987 115.175 311.099 115.582 312.253 115.76C313.046 115.883 313.858 115.867 314.575 115.468C314.83 115.326 315.095 115.126 315.326 114.951C315.647 114.708 315.76 114.611 316.078 114.365C316.198 114.271 316.316 114.173 316.439 114.082C316.854 113.775 317.571 113.267 318.068 113.702C318.108 113.737 318.15 113.772 318.175 113.819C318.226 113.911 318.289 114.007 318.293 114.111C318.299 114.333 318.065 114.599 317.951 114.746C317.71 115.055 317.405 115.299 317.17 115.614C316.758 116.169 316.435 116.853 316.087 117.448C315.74 118.044 315.365 118.681 315.014 119.273C312.977 122.71 310.828 126.136 308.174 129.138C306.819 130.671 305.321 132.118 303.579 133.207C302.741 133.73 301.845 134.168 300.895 134.446C300.31 134.617 299.714 134.673 299.119 134.797C298.506 134.925 298.04 135.045 297.422 135.197C296.862 135.335 296.292 135.468 295.753 135.675C295.614 135.729 295.409 135.793 295.324 135.929C295.166 136.182 295.149 136.499 295.168 136.787C295.23 137.726 295.634 138.675 296.036 139.51C296.63 140.744 297.286 141.941 297.997 143.11C299.543 145.649 301.269 148.085 303.12 150.409C303.65 151.074 304.197 151.73 304.779 152.35C305.1 152.694 305.437 153.041 305.813 153.326C306.302 153.697 306.871 153.982 307.433 154.224C310.569 155.574 314.104 154.779 317.288 155.931C317.427 155.982 317.561 156.03 317.697 156.087C318.438 156.397 319.683 157.059 319.151 158.049C318.796 158.71 318.174 159.262 317.61 159.737C317.196 160.084 316.779 160.431 316.351 160.761C314.328 162.321 312.163 163.701 309.999 165.054C308.981 165.691 307.954 166.318 306.925 166.937C306.477 167.208 306.036 167.521 305.569 167.757C304.791 168.15 303.999 168.532 303.218 168.918C302.826 169.112 302.438 169.3 302.047 169.494C301.66 169.685 301.287 169.913 300.886 170.07C300.49 170.223 300.073 170.313 299.666 170.431C299.254 170.55 298.839 170.662 298.427 170.782C297.605 171.02 296.8 171.304 295.968 171.504C295.13 171.705 294.267 171.829 293.421 171.992C289.586 172.731 285.694 173.261 281.917 174.275C280.215 174.732 278.535 175.289 276.922 176.002C275.535 176.615 274.218 177.35 272.931 178.149C268.679 180.786 264.743 183.908 260.442 186.472C258.285 187.757 256.026 188.948 253.602 189.643C252.808 189.87 251.953 190.088 251.123 190.121C250.758 190.135 250.386 190.128 250.021 190.131C249.657 190.133 249.291 190.164 248.928 190.14C248.571 190.117 248.219 190.044 247.864 189.994C246.789 189.842 245.752 189.614 244.693 189.369C243.102 189.002 241.52 188.583 239.893 188.403C239.352 188.344 238.768 188.278 238.224 188.316C237.582 188.36 236.935 188.377 236.302 188.491C235.689 188.602 235.089 188.787 234.497 188.979C233.049 189.449 231.669 190.123 230.233 190.628C228.794 191.134 227.317 191.337 225.793 191.36C223.931 191.388 222.075 191.164 220.242 190.853C215.521 190.052 210.912 188.515 206.123 188.13C204.364 187.989 202.588 187.999 200.825 187.945C199.362 187.9 197.906 187.835 196.443 187.808C194.614 187.775 192.78 187.789 190.95 187.779C180.331 187.722 169.712 188.033 159.093 187.945C155.869 187.918 152.628 187.921 149.413 187.652C144.699 187.258 140.024 186.304 135.275 186.403C134.206 186.426 133.135 186.549 132.075 186.686C131.527 186.757 130.979 186.804 130.435 186.901C129.89 186.998 129.356 187.148 128.816 187.272C124.244 188.314 119.787 190 115.097 190.472C112.503 190.733 109.886 190.826 107.281 190.95C101.611 191.22 95.9313 191.33 90.2549 191.233C78.4132 191.031 66.5243 189.972 54.9823 187.233C46.9994 185.338 39.1519 182.6 31.9746 178.588C28.0656 176.402 24.3754 173.826 21.027 170.85C19.9997 169.937 19.0138 168.991 18.0607 168.001C17.777 167.706 17.4766 167.425 17.2119 167.113C16.2907 166.028 15.5501 164.771 14.8116 163.561C13.9996 162.232 13.2241 160.876 12.4893 159.502C11.0888 156.884 9.74944 154.175 8.87913 151.326C8.58736 150.371 8.32209 149.375 8.31321 148.369C8.3098 147.983 8.34787 147.578 8.4986 147.218C8.55147 147.092 8.63564 146.99 8.71326 146.876C8.74841 146.887 8.796 146.841 8.8401 146.828C8.94678 146.796 9.05357 146.774 9.16209 146.75C9.38384 146.7 9.68328 146.641 9.88413 146.603C10.8441 146.421 11.8045 146.259 12.7625 146.067C13.6533 145.888 14.5369 145.7 15.4165 145.471C15.9895 145.323 16.6586 145.128 17.2216 144.945C17.7974 144.756 18.3707 144.545 18.9291 144.31C20.4782 143.66 22.5499 142.416 22.5393 140.495C22.5372 140.113 22.4735 139.658 22.2759 139.324C22.0712 138.978 21.737 138.686 21.4368 138.427C21.0534 138.096 20.6548 137.783 20.2561 137.47C19.4833 136.865 18.6976 136.277 17.9144 135.685C15.8009 134.087 13.6865 132.489 11.738 130.689C10.6722 129.705 9.53332 128.582 8.91816 127.245C8.75418 126.888 8.62865 126.49 8.6352 126.093C8.64416 125.551 8.93034 125.163 9.30845 124.796C9.83894 124.28 10.5129 123.914 11.1916 123.635C12.6535 123.033 14.2341 122.756 15.7678 122.405C17.4892 122.011 19.2187 121.549 20.7928 120.727C21.7285 120.238 22.6021 119.622 23.3394 118.863C23.8146 118.375 24.2323 117.836 24.6567 117.302C25.1462 116.687 25.5963 116.103 26.0715 115.478C28.8317 111.843 31.2825 108.015 33.3504 103.944C35.6551 99.4078 37.5121 94.6593 39.8293 90.1281C40.8225 88.1858 41.893 86.2782 43.0199 84.4103C43.79 83.1339 44.6071 81.8885 45.3812 80.6147C47.1632 77.6822 48.8853 74.7242 50.7672 71.8527C53.3938 67.8446 56.2403 63.9189 59.5975 60.4854C61.3859 58.6564 63.3357 56.9457 65.5104 55.5873C66.3889 55.0385 67.3041 54.5486 68.262 54.153C69.3526 53.7025 70.4744 53.3343 71.5697 52.8943C74.2593 51.8137 76.8781 50.5744 79.5317 49.4109C81.0306 48.7537 82.5521 48.0997 84.1273 47.6448C85.9083 47.1306 87.9578 46.8239 89.6305 47.8302C90.0319 48.0718 90.3741 48.3688 90.7038 48.6986C90.7402 48.7465 90.8217 48.7094 90.8989 48.6791C90.928 48.6969 90.9495 48.7398 90.977 48.7474C91.0303 48.7621 91.0247 48.7417 91.016 48.7279C91.0121 48.7225 91.01 48.7234 91.0062 48.7181C90.9983 48.712 90.9983 48.6994 90.9965 48.6986C91.0182 48.7201 91.0535 48.7574 91.055 48.6986C91.0552 48.6917 91.0391 48.6874 91.0355 48.6791C91.0255 48.656 91.0101 48.645 90.9867 48.6206C91.0417 48.5522 91.1028 48.4753 91.0648 48.4254C90.6405 48.0014 90.1892 47.6237 89.65 47.3521C89.6188 47.3364 89.5837 47.3378 89.5524 47.3229C89.2274 47.0153 88.8977 46.7075 88.5767 46.3959C87.3363 45.192 86.1119 43.9762 84.9372 42.7077C84.3417 42.0646 83.7461 41.4073 83.2297 40.6977C83.0769 40.4877 82.8969 40.2572 82.8199 40.0049C82.611 39.3211 82.6401 38.5347 82.6345 37.829C82.6275 36.9605 82.6501 36.0912 82.693 35.2238C82.9159 30.7162 83.3151 26.2042 83.981 21.7392C84.2063 20.2287 84.4381 18.7047 84.8494 17.2314C84.9515 16.8656 85.0605 16.4854 85.2397 16.1483C85.2867 16.0598 85.3786 15.8867 85.4934 15.8556C86.0677 15.6996 86.473 16.3081 86.6838 16.7533C86.8029 17.005 86.9177 17.2634 87.0155 17.5241C87.1283 17.8246 87.2179 18.1333 87.3082 18.4413C87.6478 19.5992 87.887 20.7902 88.1181 21.9734C88.2536 22.6673 88.3502 23.3865 88.5669 24.0615C88.7222 24.5449 89.0412 25.0367 89.3182 25.4568C90.5759 27.3642 92.3867 28.8716 94.3237 30.0524C97.4172 31.9384 100.993 33.1474 104.618 33.3602C108.706 33.6002 112.951 32.7866 116.853 31.6136C117.632 31.3795 118.401 31.1207 119.176 30.8721C119.95 30.6234 120.729 30.3967 121.498 30.1305C122.288 29.8569 123.066 29.5434 123.849 29.2524C128.169 27.6482 132.423 25.8877 136.758 24.3249C140.441 22.9974 144.201 21.7844 148.077 21.1636C150.502 20.775 152.98 20.6227 155.424 20.9294C156.734 21.0937 158.004 21.4313 159.288 21.7295C160.497 22.0103 161.712 22.2823 162.917 22.5784C167.269 23.6471 171.521 25.0316 175.221 27.6229C176.018 28.181 176.798 28.7791 177.524 29.428C177.804 29.6781 177.996 29.8882 178.207 30.1988C178.833 31.1218 179.107 32.2358 179.329 33.3114C179.492 34.1017 179.609 34.9071 179.749 35.7019C180.099 37.6964 180.673 39.9559 182.627 40.9513C183.121 41.203 183.714 41.4211 184.276 41.3026C185.504 41.0437 185.886 39.4055 186.071 38.3657C186.112 38.1372 186.15 37.9031 186.179 37.6729C186.21 37.4242 186.243 37.1816 186.257 36.9313C186.288 36.3575 186.296 35.7787 186.315 35.2043C186.335 34.6299 186.369 34.052 186.374 33.4773C186.383 32.467 186.3 31.4526 186.267 30.4427C186.094 25.1775 185.487 19.8987 185.759 14.6262C185.79 14.0309 185.829 13.4714 185.896 12.8796C185.955 12.3576 186.025 11.8528 186.13 11.338C186.465 9.69914 187.222 7.46891 189.301 7.71802C190.902 7.90983 192.476 8.2795 193.936 8.97671C194.78 9.37998 195.568 9.8799 196.287 10.4793C200.695 14.1525 201.308 20.6031 200.512 25.9056C200.374 26.827 200.165 27.8902 199.937 28.7938C199.476 30.6182 198.838 32.4043 198.024 34.1017C197.812 34.5451 197.603 35.0231 197.322 35.4287C196.976 35.9271 196.559 36.3779 196.161 36.8338C195.741 37.3138 195.183 37.9517 194.775 38.434C193.811 39.5739 192.69 40.8485 192.082 42.2295C191.923 42.5913 191.75 43.0595 191.877 43.459C191.894 43.5114 191.947 43.6756 192.043 43.7029C192.184 43.743 192.388 43.67 192.521 43.6346C192.91 43.5312 193.294 43.4005 193.672 43.2638C194.888 42.8247 196.088 42.3318 197.283 41.8393C199.497 40.926 201.69 39.9792 203.888 39.0292C205.095 38.5078 206.296 37.9165 207.547 37.507C206.423 37.8879 205.322 38.3279 204.22 38.8047C200.921 40.2323 197.623 41.6713 194.268 42.9613C193.697 43.1808 193.123 43.399 192.531 43.5565C192.489 43.5677 192.11 43.6628 192.082 43.6151C191.82 43.169 191.984 42.6739 192.18 42.2295C192.428 41.6643 192.771 41.1417 193.126 40.6391C194.066 39.3095 195.16 38.088 196.229 36.863C196.63 36.4036 197.052 35.9509 197.4 35.4482C197.684 35.0371 197.897 34.5509 198.112 34.1017C198.718 32.8367 199.224 31.5203 199.634 30.1793C200.063 28.7759 200.393 27.3376 200.61 25.8861C201.406 20.5671 200.787 14.1123 196.365 10.4305C195.643 9.82896 194.842 9.32309 193.994 8.91816C192.528 8.21817 190.947 7.84184 189.34 7.64971Z" fill="#ffacca" stroke="none"/>
</g>
<path d="M185.43 7.14762C184.176 6.52056 186.132 17.4567 186.315 18.6479C187.691 27.5932 186.09 33.4761 183.366 41.6485" fill="none" opacity="1" stroke="#fa4485" stroke-linecap="round" stroke-linejoin="round" stroke-width="5"/>
<path d="M184.841 6.26298C203.094 12.3473 207.32 31.1834 191.623 41.6485" fill="none" opacity="1" stroke="#fa4485" stroke-linecap="round" stroke-linejoin="round" stroke-width="5"/>
<path d="M182.776 41.0587C180.38 37.4635 180.327 32.1221 177.174 28.9687C157.555 9.34947 129.31 31.1534 107.877 32.8021C101.014 33.33 92.7982 28.2554 89.005 22.7762C86.9993 19.8792 84.8766 13.0452 84.8766 13.0452C84.8766 13.0452 80.093 46.2542 89.9537 46.2542" fill="none" opacity="1" stroke="#fa4485" stroke-linecap="round" stroke-linejoin="round" stroke-width="5"/>
<path d="M92.3953 46.866C67.6387 47.876 52.5221 64.9035 40.7839 86.0528C31.2719 103.191 29.8676 123.347 8.614 124.343C8.17864 131.479 15.4519 136.051 21.4777 138.074" fill="none" opacity="1" stroke="#fa4485" stroke-linecap="round" stroke-linejoin="round" stroke-width="5"/>
<path d="M191.328 42.2382C190.423 42.6908 193.063 41.1879 193.982 40.7638C196.585 39.5622 199.27 38.7999 201.944 37.815C209.465 35.0439 220.06 33.5023 227.893 36.6355C245.058 43.5014 253.017 63.6549 270.945 68.7773C277.698 70.7066 284.701 71.032 290.997 67.5978C292.075 67.01 294.804 63.1746 295.715 63.1746C297.509 63.1746 295.366 66.7704 294.831 68.4825C292.466 76.0487 290.841 85.3224 284.51 90.5984" fill="none" opacity="1" stroke="#fa4485" stroke-linecap="round" stroke-linejoin="round" stroke-width="5"/>
<path d="M285.1 91.7779C283.398 90.9273 287.298 97.8982 287.753 98.5601C290.973 103.244 295.929 107.86 300.728 110.945C304.6 113.434 309.891 115.423 314.587 114.484C316.787 114.044 320.485 108.996 320.485 111.24C320.485 118.615 313.132 124.685 307.61 130.725" fill="none" opacity="1" stroke="#fa4485" stroke-linecap="round" stroke-linejoin="round" stroke-width="5"/>
<path d="M296.889 136.402C294.264 136.402 306.44 150.679 307.215 151.343C310.836 154.447 318.961 153.652 320.78 155.472C322.518 157.21 280.94 178.286 280.94 178.286" fill="none" opacity="1" stroke="#fa4485" stroke-linecap="round" stroke-linejoin="round" stroke-width="5"/>
<path d="M297.178 136.436C297.15 136.433 300.709 135.369 301.991 134.795C304.366 133.731 307.033 131.122 308.681 129.11" fill="none" opacity="1" stroke="#fa4485" stroke-linecap="round" stroke-linejoin="round" stroke-width="5"/>
<path d="M22.0674 137.779C18.5696 139.528 17.5496 144.318 12.9262 145.741C11.0379 146.322 7.91212 143.384 7.02858 145.151C5.77467 147.659 12.5315 162.691 23.773 170.828C33.9038 178.162 48.41 178.795 51.1901 178.795" fill="none" opacity="1" stroke="#fa4485" stroke-linecap="round" stroke-linejoin="round" stroke-width="5"/>
</g>
</svg>
