<?xml version="1.0" encoding="UTF-8" standalone="no"?>
<!DOCTYPE svg PUBLIC "-//W3C//DTD SVG 1.1//EN" "http://www.w3.org/Graphics/SVG/1.1/DTD/svg11.dtd">
<!-- Created with Vectornator (http://vectornator.io/) -->
<svg height="100%" stroke-miterlimit="10" style="fill-rule:nonzero;clip-rule:evenodd;stroke-linecap:round;stroke-linejoin:round;" version="1.1" viewBox="3.10242 55.192 320.575 364.879" width="100%" xml:space="preserve" xmlns="http://www.w3.org/2000/svg" xmlns:xlink="http://www.w3.org/1999/xlink">
<defs/>
<g id="f-elf">
<g opacity="1">
<g opacity="1">
<path d="M155.739 236.359C149.741 233.361 151.46 246.069 150.587 249.56C150.37 250.427 148.932 251.215 148.333 251.814C144.386 255.761 137.765 254.655 133.523 258.897C131.156 261.264 129.66 264.884 127.727 267.591C122.589 274.784 117.119 281.977 111.629 288.841C109.44 291.576 106.331 293.435 104.223 296.246C99.3614 302.728 93.3234 308.124 86.8369 312.988C85.3319 314.117 83.1529 314.39 81.6853 315.564C79.7155 317.14 74.0459 321.265 77.1777 323.613C80.0042 325.733 90.3545 320.37 93.2763 323.291C95.8156 325.831 86.5013 336.657 96.174 334.238C99.7783 333.337 102.362 328.66 104.223 325.867C107.213 321.382 112.682 318.375 116.458 314.598C117.744 313.312 122.819 308.3 124.829 308.803C125.212 308.898 125.183 309.869 125.151 310.091C124.746 312.93 124.444 316.076 123.542 318.784C122.634 321.505 120.08 323.615 119.356 326.511C118.854 328.519 118.97 330.886 118.712 332.951C118.018 338.506 115.924 343.993 114.848 349.371C112.575 360.739 119.724 363.936 124.507 371.909C130.472 381.851 129.768 395.128 136.742 404.428C138.124 406.27 137.685 409.234 139.318 410.868C140.716 412.265 148.402 416.764 150.265 416.019C152.701 415.045 152.935 409.379 153.163 407.326C153.961 400.139 153.534 392.044 151.553 385.11C150.673 382.031 148.608 377.521 152.519 376.739C154.317 376.379 161.562 375.778 163.144 376.095C165.11 376.488 166.448 377.744 168.617 377.383C170.727 377.031 174.168 373.033 176.345 374.485C178.42 375.868 176.023 381.875 176.023 383.822C176.023 386.418 176.667 388.948 176.667 391.549C176.667 396.681 173.402 412.846 178.92 415.053C181.69 416.161 184.271 412.631 185.682 410.868C190.949 404.284 193.969 398.242 196.629 390.261C199.124 382.775 200.718 375.62 204.678 368.689C207.756 363.303 213.062 361.192 214.015 354.523C214.577 350.591 212.068 346.705 211.44 342.932C210.68 338.372 212.348 333.782 210.474 329.409C208.854 325.629 203.364 317.548 205.644 312.988C206.532 311.212 210.365 311.913 211.44 312.988C213.565 315.114 214.388 318.76 215.947 321.36C218.195 325.106 222.736 328.384 226.25 331.019C227.441 331.912 229.444 331.966 230.758 332.951C231.614 333.593 232.183 334.652 233.334 334.882C241.004 336.416 234.982 322.57 235.265 322.004C235.723 321.088 238.328 321.16 239.129 321.36C241.981 322.073 243.284 325.216 245.89 325.867C249.71 326.822 252.642 321.98 251.364 318.784C250.511 316.651 239.677 312.545 237.197 311.057C232.698 308.357 231.032 303.926 227.538 300.432C224.857 297.751 221.094 296.725 218.201 294.314C215.074 291.708 213.012 288.193 211.44 284.655C209.929 281.257 207.105 278.586 205 275.64C203.495 273.533 202.776 270.752 201.458 268.556C200.808 267.472 199.39 266.81 198.561 265.981C194.618 262.038 192.046 256.227 186.648 254.068C183.595 252.847 179.128 253.31 176.667 250.848C175.899 250.08 173.729 248.436 173.447 247.306C172.573 243.809 175.848 240.517 174.091 237.003C172.421 233.663 169.749 232.018 167.33 229.598C165.74 228.008 162.918 227.537 161.856 225.412" fill="#f4dfca" fill-rule="nonzero" opacity="1" stroke="#f4dfca" stroke-linecap="round" stroke-linejoin="round" stroke-width="1.43064"/>
</g>
<g opacity="1">
<path d="M150.057 236.577C132.558 232.87 114.927 235.049 97.5596 230.766C87.0887 228.183 75.0886 212.108 66.1096 208.495C52.1355 202.874 50.3918 202.936 37.7547 195.565C29.0416 190.482 26.0243 184.724 16.8019 173.029C15.1591 163.136 9.44179 151.012 11.203 142.816C12.4543 136.993 15.9498 142.059 25.4075 142.907C37.7547 144.015 50.5146 153.495 50.1018 148.459C49.267 138.272 52.9472 138.398 55.7552 128.65C60.9193 110.722 61.2978 104.641 73.9697 90.9486C102.316 60.3189 158.153 53.6753 197.307 60.9171C221.885 65.4628 255.865 85.8582 263.645 110.412C266.504 119.435 271.101 127.399 272.855 136.178C274.184 142.835 271.825 142.899 277.661 148.459C280.799 151.448 290.511 143.468 295.72 143.295C302.355 143.075 314.164 137.044 320.052 138.054C312.049 148.05 301.025 189.006 290.008 195.533C285.481 198.216 278.047 204.374 271.306 205.123C264.909 205.833 263.616 205.616 260.67 208.495C241.069 227.647 223.319 231.009 202.872 233.856C188.864 235.807 176.943 238.139 163.226 238.174C160.354 238.181 155.223 237.857 152.011 238.174" fill="#f4dfca" fill-rule="nonzero" stroke="none"/>
<path d="M168.277 57.9773C164.571 57.9489 160.862 58.0335 157.162 58.229C151.454 58.5307 145.755 59.1024 140.102 59.9525C114.964 63.7326 89.4397 73.128 72.1424 92.4945C69.2795 95.7 66.5708 99.0721 64.3773 102.777C59.4366 111.122 57.8641 120.753 54.9468 129.868C54.4498 131.421 53.8511 132.943 53.1362 134.409C52.2846 136.155 51.2759 137.843 50.5704 139.657C49.7484 141.77 49.4833 144.003 49.515 146.26C49.5261 147.048 49.5822 147.836 49.6312 148.623C49.6459 148.858 49.6757 149.222 49.4957 149.416C49.1873 149.75 47.6792 149.34 47.3268 149.242C44.9505 148.582 42.6904 147.537 40.404 146.628C36.6231 145.124 32.774 143.705 28.766 142.939C26.9971 142.601 25.1938 142.516 23.4214 142.213C21.8774 141.949 20.3707 141.539 18.8804 141.061C16.7908 140.39 13.1085 138.389 11.4735 140.828C10.4685 142.328 10.3669 144.509 10.3503 146.221C10.3176 149.595 11.0454 152.95 11.8704 156.204C12.8868 160.212 14.1516 164.154 15.1721 168.161C15.4964 169.435 15.7894 170.716 16.0435 172.005C16.1297 172.443 16.0958 172.923 16.2952 173.322C16.5739 173.879 17.0558 174.301 17.4377 174.794C18.4532 176.103 19.4575 177.414 20.4586 178.734C23.0527 182.155 25.5745 185.669 28.4852 188.833C30.2455 190.747 32.1672 192.501 34.2848 194.013C36.4012 195.524 38.6917 196.777 40.9559 198.05C45.1611 200.415 49.4675 202.529 53.9495 204.315C56.7835 205.444 59.6416 206.526 62.4795 207.645C63.9367 208.22 65.4343 208.735 66.8366 209.437C69.5173 210.778 71.8692 212.695 74.1563 214.607C78.2473 218.026 82.0958 221.743 86.2785 225.054C89.006 227.213 91.9237 229.305 95.1862 230.583C97.2352 231.385 99.446 231.667 101.596 232.083C103.048 232.365 104.5 232.708 105.963 232.926C108.134 233.25 110.353 233.394 112.537 233.623C119.088 234.309 125.697 234.426 132.269 234.862C138.14 235.252 143.954 235.91 149.726 237.06C149.901 237.178 150.194 237.057 150.375 236.789C150.556 236.521 150.559 236.209 150.385 236.092C145.29 235.08 140.159 234.432 134.98 234.039C127.323 233.459 119.634 233.334 111.995 232.539C110.188 232.35 108.359 232.234 106.563 231.967C104.749 231.698 102.941 231.27 101.141 230.922C99.3921 230.583 97.6365 230.324 95.9704 229.673C92.2261 228.209 88.9252 225.666 85.8525 223.137C82.191 220.124 78.7456 216.86 75.1052 213.823C72.7786 211.882 70.3856 209.945 67.6596 208.585C66.2374 207.875 64.7123 207.346 63.2348 206.764C60.396 205.647 57.5396 204.57 54.7047 203.443C50.2484 201.672 45.9702 199.574 41.7886 197.227C39.5421 195.967 37.2756 194.716 35.1756 193.219C32.7818 191.513 30.6395 189.496 28.6982 187.293C25.7629 183.963 23.1723 180.34 20.478 176.817C19.863 176.013 19.0358 174.928 18.4156 174.135C18.0516 173.67 17.5786 173.268 17.3119 172.741C17.1318 172.385 17.1832 171.952 17.1085 171.56C17.0272 171.133 16.9403 170.706 16.8471 170.282C16.6658 169.457 16.4271 168.505 16.2178 167.687C15.1925 163.682 13.9292 159.744 12.9064 155.739C12.0019 152.197 11.1821 148.488 11.4251 144.808C11.5042 143.609 11.6361 142.061 12.3352 141.003C12.9027 140.143 14.1082 140.526 14.9203 140.761C16.9178 141.337 18.8384 142.124 20.8652 142.61C23.795 143.312 26.8171 143.386 29.7535 144.062C34.051 145.052 38.1315 146.729 42.2146 148.361C42.9102 148.639 43.7178 148.959 44.4222 149.223C45.8005 149.738 48.8568 151.073 50.1444 149.755C50.9542 148.926 50.4693 147.012 50.4542 145.97C50.4227 143.802 50.6819 141.648 51.4708 139.618C52.1665 137.828 53.1592 136.162 53.9979 134.438C54.7292 132.935 55.3402 131.373 55.8472 129.781C58.7279 120.735 60.2578 111.159 65.1422 102.874C67.4784 98.9111 70.4126 95.3317 73.4979 91.9329C90.7802 72.8956 116.51 63.8854 141.38 60.3107C147.013 59.5011 152.689 58.9802 158.373 58.7132C165.283 58.3884 172.21 58.4529 179.112 58.9262C186.719 59.4477 194.441 60.322 201.846 62.1891C215.442 65.6173 228.466 72.1704 239.655 80.5757C247.762 86.6654 255.278 94.057 260.181 103.019C262.45 107.165 263.695 111.668 265.41 116.042C267.483 121.33 269.917 126.491 271.558 131.94C272.198 134.067 272.744 136.256 273.001 138.466C273.195 140.146 273.014 141.972 273.582 143.588C273.924 144.562 274.536 145.42 275.199 146.202C275.705 146.8 276.248 147.365 276.806 147.916C277.231 148.336 277.631 148.797 278.19 149.039C279.814 149.74 281.903 148.919 283.399 148.322C286.594 147.05 289.552 145.221 292.801 144.082C294.938 143.332 297.195 143.391 299.394 142.9C302.368 142.237 305.261 141.246 308.167 140.344C311.21 139.4 314.342 138.351 317.539 138.108C318.098 138.065 318.663 138.074 319.224 138.088C319.276 138.09 319.689 138.096 319.737 138.195C319.787 138.298 319.518 138.559 319.456 138.64C319.261 138.896 319.09 139.153 318.904 139.434C318.725 139.705 318.551 139.98 318.381 140.257C317.15 142.262 316.104 144.382 315.109 146.512C311.105 155.084 307.851 163.98 304.1 172.664C302.085 177.33 299.976 181.993 297.439 186.403C296.065 188.79 294.561 191.159 292.675 193.18C290.985 194.991 288.816 196.152 286.779 197.518C283.439 199.756 280.114 201.974 276.419 203.598C273.873 204.717 271.259 205.034 268.527 205.322C266.517 205.534 264.391 205.688 262.631 206.784C260.945 207.833 259.608 209.432 258.158 210.763C256.595 212.197 254.989 213.578 253.336 214.907C247.916 219.265 241.982 222.968 235.608 225.761C224.117 230.796 211.742 232.465 199.435 234.252C189.65 235.673 179.877 237.341 169.991 237.883C167.503 238.02 164.999 238.099 162.507 238.067C159.012 238.023 155.543 237.852 152.05 238.077C152.015 238.064 151.963 238.1 151.944 238.154C151.924 238.209 151.937 238.258 151.973 238.27C155.459 238.046 158.932 238.226 162.42 238.27C164.918 238.302 167.42 238.213 169.914 238.077C179.808 237.535 189.593 235.868 199.387 234.446C211.725 232.654 224.126 230.974 235.647 225.926C242.052 223.119 248.015 219.403 253.462 215.023C255.555 213.341 257.574 211.565 259.523 209.717C260.544 208.749 261.513 207.679 262.718 206.929C264.596 205.76 266.959 205.67 269.099 205.448C271.653 205.182 274.083 204.816 276.457 203.773C280.431 202.026 283.976 199.582 287.572 197.189C289.425 195.956 291.313 194.913 292.849 193.267C295.065 190.893 296.768 188.042 298.329 185.212C300.57 181.15 302.498 176.917 304.342 172.664C308.276 163.587 311.645 154.243 315.951 145.331C316.918 143.33 317.937 141.338 319.166 139.482C319.331 139.233 319.509 138.993 319.679 138.747C319.783 138.596 320.149 138.269 320.037 138.03C319.947 137.838 319.541 137.832 319.35 137.827C319.073 137.819 318.793 137.804 318.517 137.807C317.941 137.814 317.275 137.87 316.706 137.943C313.798 138.314 310.958 139.221 308.167 140.083C305.273 140.976 302.393 141.963 299.433 142.62C297.981 142.942 296.548 143.007 295.086 143.21C294.011 143.359 292.964 143.724 291.959 144.12C288.763 145.38 285.807 147.202 282.567 148.351C281.351 148.782 279.727 149.301 278.452 148.748C277.921 148.518 277.536 148.061 277.135 147.664C276.582 147.116 276.049 146.554 275.547 145.96C274.9 145.194 274.302 144.358 273.969 143.404C273.41 141.803 273.597 139.975 273.407 138.311C273.153 136.088 272.605 133.896 271.965 131.756C270.219 125.924 267.557 120.419 265.41 114.735C264.666 112.765 264.063 110.75 263.347 108.77C262.599 106.7 261.67 104.69 260.617 102.758C255.413 93.2066 247.276 85.4133 238.542 79.0846C227.677 71.2127 215.215 65.0229 202.185 61.7147C194.759 59.8292 187.014 58.9382 179.383 58.4033C175.687 58.1443 171.984 58.0057 168.277 57.9773Z" fill="#f4dfca" stroke="none"/>
</g>
<path d="M161.206 287.756C169.275 283.994 175.076 280.539 181.561 279.741C185.885 279.21 190.513 279.86 196.319 282.39C203.718 285.614 206.727 308.292 195.181 308.471C188.946 308.567 182.758 308.308 176.569 308.062C170.737 307.83 164.905 307.609 159.033 307.707" fill="none" opacity="1" stroke="#ffbbc4" stroke-linecap="butt" stroke-linejoin="round" stroke-width="5.5"/>
</g>
<path d="M163.451 58.6118C164.739 58.7631 170.555 58.9077 171.863 59.0484C173.171 59.1891 174.487 59.326 175.811 59.462C177.134 59.5979 178.465 59.7328 179.801 59.8695C181.137 60.0063 182.478 60.1449 183.823 60.2882C185.168 60.4316 186.516 60.5796 187.866 60.7351C189.216 60.8907 190.568 61.0538 191.92 61.2273C193.272 61.4009 194.623 61.5848 195.973 61.7819C197.322 61.9791 198.67 62.1895 200.014 62.416C201.358 62.6424 202.699 62.885 204.033 63.1465C205.368 63.4081 206.697 63.6885 208.019 63.9908C209.341 64.293 210.656 64.6171 211.962 64.9657C213.267 65.3144 214.563 65.6877 215.849 66.0885C217.134 66.4893 218.409 66.9176 219.671 67.3762C220.933 67.8348 222.182 68.3237 223.416 68.8459C224.651 69.368 225.871 69.9233 227.074 70.5146C228.278 71.1059 229.465 71.7333 230.635 72.3995C233.201 73.8616 235.703 75.5295 238.131 77.3808C240.559 79.232 242.913 81.2667 245.181 83.4623C247.449 85.6579 249.632 88.0144 251.718 90.5096C253.804 93.0047 255.793 95.6384 257.675 98.3883C259.556 101.138 261.33 104.004 262.985 106.964C264.64 109.924 266.177 112.977 267.583 116.102C268.989 119.227 270.265 122.423 271.4 125.669C272.536 128.914 273.53 132.208 274.372 135.529C275.214 138.849 275.904 142.196 276.43 145.548C276.957 148.899 277.32 152.255 277.509 155.592C277.698 158.929 277.713 162.248 277.542 165.527C277.371 168.805 277.014 172.043 276.462 175.217C275.909 178.392 275.159 181.503 274.202 184.529C273.245 187.555 272.08 190.496 270.696 193.329C269.313 196.161 267.71 198.886 265.878 201.481C264.046 204.075 261.984 206.539 259.68 208.851C258.073 210.465 256.422 211.983 254.731 213.411C253.04 214.84 251.31 216.179 249.544 217.435C247.777 218.691 245.974 219.863 244.138 220.959C242.302 222.054 240.434 223.073 238.535 224.021C236.637 224.968 234.709 225.845 232.755 226.658C230.801 227.47 228.82 228.218 226.817 228.907C224.814 229.597 222.788 230.228 220.742 230.807C218.697 231.385 216.631 231.912 214.55 232.393C212.469 232.874 210.372 233.309 208.262 233.704C206.152 234.099 204.029 234.455 201.896 234.777C199.764 235.099 197.622 235.388 195.475 235.649C193.327 235.911 191.173 236.145 189.017 236.358C186.86 236.571 184.701 236.763 182.543 236.941C180.384 237.118 178.227 237.281 176.073 237.435C173.919 237.589 171.769 237.734 169.627 237.877C167.485 238.02 165.35 238.161 163.226 238.305" fill="none" opacity="1" stroke="#e0b08a" stroke-linecap="butt" stroke-linejoin="round" stroke-width="6.83964"/>
<path d="M164.312 58.6118C163.024 58.7631 157.207 58.9077 155.9 59.0484C154.592 59.1891 153.276 59.326 151.952 59.462C150.629 59.5979 149.298 59.7328 147.962 59.8695C146.626 60.0063 145.284 60.1449 143.94 60.2882C142.595 60.4316 141.246 60.5796 139.896 60.7351C138.546 60.8907 137.195 61.0538 135.843 61.2273C134.491 61.4009 133.14 61.5848 131.79 61.7819C130.44 61.9791 129.093 62.1895 127.749 62.416C126.405 62.6424 125.064 62.885 123.729 63.1465C122.395 63.4081 121.065 63.6885 119.743 63.9908C118.421 64.293 117.107 64.6171 115.801 64.9657C114.496 65.3144 113.199 65.6877 111.914 66.0885C110.628 66.4893 109.354 66.9176 108.092 67.3762C106.83 67.8348 105.581 68.3237 104.347 68.8459C103.112 69.368 101.892 69.9233 100.688 70.5146C99.4846 71.1059 98.2973 71.7333 97.1281 72.3995C94.5622 73.8616 92.0597 75.5295 89.6315 77.3808C87.2034 79.232 84.8497 81.2667 82.5816 83.4623C80.3134 85.6579 78.1308 88.0144 76.0448 90.5096C73.9588 93.0047 71.9695 95.6384 70.0879 98.3883C68.2063 101.138 66.4324 104.004 64.7774 106.964C63.1224 109.924 61.5862 112.977 60.18 116.102C58.7738 119.227 57.4975 122.423 56.3623 125.669C55.2271 128.914 54.233 132.208 53.391 135.529C52.549 138.849 51.8591 142.196 51.3325 145.548C50.806 148.899 50.4426 152.255 50.2537 155.592C50.0647 158.929 50.0501 162.248 50.221 165.527C50.3919 168.805 50.7483 172.043 51.3012 175.217C51.8541 178.392 52.6036 181.503 53.5608 184.529C54.5179 187.555 55.6828 190.496 57.0664 193.329C58.45 196.161 60.0524 198.886 61.8847 201.481C63.717 204.075 65.7792 206.539 68.0823 208.851C69.6902 210.465 71.3412 211.983 73.0318 213.411C74.7224 214.84 76.4527 216.179 78.2192 217.435C79.9858 218.691 81.7887 219.863 83.6245 220.959C85.4604 222.054 87.3291 223.073 89.2275 224.021C91.1259 224.968 93.0538 225.845 95.008 226.658C96.9621 227.47 98.9425 228.218 100.946 228.907C102.949 229.597 104.975 230.228 107.021 230.807C109.066 231.385 111.131 231.912 113.212 232.393C115.294 232.874 117.391 233.309 119.501 233.704C121.611 234.099 123.734 234.455 125.866 234.777C127.999 235.099 130.14 235.388 132.288 235.649C134.436 235.911 136.59 236.145 138.746 236.358C140.902 236.571 143.062 236.763 145.22 236.941C147.378 237.118 149.536 237.281 151.69 237.435C153.844 237.589 155.993 237.734 158.136 237.877C160.278 238.02 162.413 238.161 164.537 238.305" fill="none" opacity="1" stroke="#e0b08a" stroke-linecap="butt" stroke-linejoin="round" stroke-width="6.83964"/>
<path d="M150.07 238.174C149.951 239.216 149.856 240.263 149.767 241.31C149.678 242.357 149.595 243.405 149.5 244.452C149.405 245.498 149.298 246.543 149.162 247.582C149.027 248.622 148.862 249.657 148.65 250.685C148.577 251.04 147.916 251.295 146.932 251.518C145.947 251.741 144.64 251.932 143.274 252.158C141.908 252.384 140.484 252.646 139.268 253.011C138.051 253.377 137.041 253.846 136.504 254.486C133.245 258.366 130.089 262.56 126.927 266.874C123.766 271.189 120.6 275.626 117.321 279.993C114.042 284.361 110.65 288.66 107.037 292.699C103.424 296.739 99.5901 300.519 95.4273 303.849C91.6641 306.86 87.3213 309.903 83.477 312.698C79.6327 315.494 76.2868 318.043 74.5176 320.066C72.7484 322.088 72.5558 323.584 75.018 324.274C77.4801 324.964 82.5971 324.848 91.4469 323.647C91.4004 324.746 91.3426 326.254 91.3387 327.859C91.3348 329.464 91.3848 331.165 91.554 332.651C91.7231 334.137 92.0114 335.408 92.484 336.151C92.9566 336.895 93.6136 337.111 94.5201 336.487C95.6229 335.729 96.698 334.93 97.7486 334.098C98.7992 333.267 99.8253 332.403 100.83 331.514C101.835 330.625 102.819 329.71 103.785 328.779C104.751 327.847 105.699 326.898 106.633 325.938C108.025 324.508 109.376 323.041 110.703 321.55C112.029 320.06 113.33 318.546 114.62 317.023C115.911 315.499 117.192 313.967 118.477 312.439C119.763 310.911 121.054 309.115 122.365 307.61C122.365 312.127 123.328 317.622 122.365 321.961C121.402 326.3 118.104 332.755 116.956 337.013C115.807 341.271 115.17 342.514 114.614 346.787C114.058 351.06 113.992 355.363 114.806 359.747C115.09 361.278 115.595 362.649 116.234 363.932C116.874 365.215 117.648 366.411 118.472 367.59C119.296 368.769 120.169 369.932 121.006 371.15C121.843 372.369 122.643 373.643 123.322 375.044C124.757 378.007 125.914 381.115 126.965 384.276C128.016 387.437 128.962 390.65 129.974 393.823C130.986 396.996 132.066 400.128 133.384 403.126C134.703 406.124 136.261 408.989 138.231 411.626C139.077 412.759 140.299 413.846 141.673 414.706C143.046 415.567 144.571 416.201 146.022 416.428C147.472 416.655 148.849 416.475 149.926 415.707C151.004 414.939 151.782 413.583 152.035 411.458C152.187 410.189 152.344 408.918 152.494 407.646C152.644 406.374 152.785 405.1 152.905 403.826C153.025 402.551 153.122 401.275 153.184 399.999C153.245 398.722 153.27 397.445 153.245 396.167C153.215 394.628 153.122 393.093 152.99 391.561C152.858 390.028 152.686 388.498 152.499 386.969C152.312 385.44 152.109 383.912 151.913 382.383C151.718 380.855 151.531 379.326 151.375 377.795L154.666 378.125L157.956 378.455L161.246 378.785L164.537 379.115" fill="none" opacity="1" stroke="#e0b08a" stroke-linecap="butt" stroke-linejoin="round" stroke-width="6.83964"/>
<path d="M277.661 160.292C286.393 158.295 294.798 155.648 302.355 157.902C300.082 168.189 290.614 183.709 282.439 189.018" fill="none" opacity="1" stroke="#e0b08a" stroke-linecap="butt" stroke-linejoin="round" stroke-width="4"/>
<path d="M50.1018 160.292C41.3697 158.295 32.9652 155.648 25.4075 157.902C27.6812 168.189 37.1485 183.709 45.3234 189.018" fill="none" opacity="1" stroke="#e0b08a" stroke-linecap="butt" stroke-linejoin="round" stroke-width="4"/>
<path d="M136.483 272.147C130.57 280.563 126.658 283.358 125.146 290.738C123.633 298.119 124.52 310.084 122.365 319.183L123.126 317.047L123.888 314.911" fill="none" opacity="1" stroke="#e0b08a" stroke-linecap="butt" stroke-linejoin="round" stroke-width="4"/>
<path d="M190.749 272.147C196.661 280.563 200.573 283.358 202.086 290.738C203.598 298.119 202.711 310.084 204.867 319.183L204.105 317.047L203.344 314.911" fill="none" opacity="1" stroke="#e0b08a" stroke-linecap="butt" stroke-linejoin="round" stroke-width="4"/>
<path d="M176.967 238.305C177.085 239.348 177.18 240.394 177.269 241.442C177.359 242.489 177.442 243.537 177.537 244.584C177.632 245.63 177.739 246.674 177.874 247.714C178.01 248.754 178.175 249.789 178.386 250.817C178.46 251.172 179.121 251.427 180.105 251.65C181.09 251.873 182.397 252.063 183.763 252.29C185.129 252.516 186.552 252.778 187.769 253.143C188.986 253.509 189.995 253.978 190.533 254.618C193.792 258.498 196.948 262.691 200.109 267.006C203.27 271.321 206.437 275.757 209.716 280.125C212.995 284.493 216.387 288.792 220 292.831C223.613 296.871 227.447 300.651 231.609 303.981C235.373 306.992 239.715 310.034 243.56 312.83C247.404 315.626 250.75 318.175 252.519 320.198C254.288 322.22 254.481 323.716 252.019 324.406C249.557 325.096 244.44 324.98 235.59 323.779C235.636 324.878 235.694 326.386 235.698 327.991C235.702 329.596 235.652 331.297 235.483 332.783C235.314 334.269 235.025 335.54 234.553 336.283C234.08 337.027 233.423 337.243 232.517 336.619C231.414 335.861 230.339 335.062 229.288 334.23C228.238 333.399 227.211 332.535 226.206 331.646C225.201 330.756 224.218 329.842 223.252 328.91C222.286 327.979 221.337 327.029 220.404 326.07C219.012 324.64 217.66 323.173 216.334 321.682C215.008 320.192 213.707 318.678 212.416 317.154C211.126 315.631 209.845 314.098 208.559 312.57C207.274 311.043 205.983 309.247 204.672 307.742C204.672 312.259 203.709 317.753 204.672 322.093C205.635 326.432 208.933 332.887 210.081 337.145C211.229 341.403 211.867 342.646 212.423 346.919C212.979 351.191 213.045 355.495 212.231 359.879C211.947 361.41 211.442 362.781 210.802 364.064C210.163 365.347 209.388 366.543 208.564 367.722C207.741 368.901 206.868 370.064 206.031 371.282C205.194 372.501 204.393 373.775 203.715 375.176C202.28 378.139 201.123 381.247 200.072 384.408C199.021 387.569 198.075 390.782 197.063 393.955C196.05 397.128 194.971 400.26 193.652 403.258C192.334 406.256 190.776 409.121 188.806 411.758C187.96 412.891 186.738 413.978 185.364 414.838C183.991 415.699 182.466 416.333 181.015 416.56C179.564 416.787 178.188 416.607 177.11 415.839C176.033 415.071 175.255 413.715 175.001 411.59C174.85 410.321 174.692 409.05 174.543 407.778C174.393 406.506 174.251 405.232 174.132 403.957C174.012 402.683 173.914 401.407 173.853 400.131C173.792 398.854 173.766 397.577 173.791 396.298C173.822 394.76 173.915 393.225 174.047 391.693C174.179 390.16 174.351 388.63 174.538 387.101C174.725 385.572 174.928 384.044 175.123 382.515C175.318 380.986 175.506 379.457 175.662 377.926L172.371 378.256L169.081 378.586L165.79 378.916L162.5 379.247" fill="none" opacity="1" stroke="#e0b08a" stroke-linecap="butt" stroke-linejoin="round" stroke-width="6.83964"/>
<path d="M278.49 148.208C299.271 143.131 299.271 143.131 320.052 138.054C312.798 154.907 311.835 179.698 289.076 196.387C277.638 204.774 266.398 207.595 253.858 214.223" fill="none" opacity="1" stroke="#e0b08a" stroke-linecap="butt" stroke-linejoin="round" stroke-width="7.25"/>
<path d="M48.2889 147.962C27.5082 142.885 27.5082 142.885 6.72742 137.808C13.9816 154.661 14.9443 179.452 37.7031 196.141C49.1409 204.528 60.639 207.595 73.1789 214.223" fill="none" opacity="1" stroke="#e0b08a" stroke-linecap="butt" stroke-linejoin="round" stroke-width="7.25"/>
<g opacity="1">
<path d="M164.106 287.466C154.278 287.868 144.955 280.78 134.645 281.717C126.196 282.485 126.697 290.928 125.064 296.807C124.462 298.974 122.132 300.882 123.627 303.274C124.731 305.041 127.752 306.42 129.615 307.106C134.491 308.903 139.55 307.002 144.465 306.388C151.108 305.557 157.904 305.029 164.585 304.711C174.454 304.241 183.606 309.079 193.567 307.585C200.28 306.578 200.991 302.058 200.752 296.567C200.681 294.934 200.981 292.872 200.273 291.298C199.254 289.033 191.409 283.204 189.016 282.196C184.654 280.36 178.408 281.368 174.165 283.154C172.694 283.774 171.778 285.349 170.333 286.029C168.406 286.936 166.234 287.379 164.106 287.466Z" fill="#fff1f6" fill-rule="nonzero" stroke="none"/>
<path d="M139.689 279.411C139.221 279.413 138.751 279.427 138.283 279.421C136.161 279.396 134.193 279.393 132.17 280.089C131.134 280.445 130.144 280.933 129.24 281.551C124.299 284.932 124.041 290.372 122.988 295.691C122.872 296.278 122.78 296.876 122.569 297.435C122.238 298.311 121.697 299.095 121.325 299.954C120.542 301.76 120.505 303.633 121.815 305.186C122.262 305.716 122.81 306.165 123.376 306.562C123.957 306.969 124.576 307.32 125.209 307.638C127.013 308.544 128.965 309.253 130.974 309.504C135.413 310.057 139.698 308.575 144.04 307.943C149.583 307.136 155.172 306.598 160.757 306.186C164.277 305.926 167.671 305.821 171.178 306.295C176.839 307.06 182.482 308.75 188.227 308.775C189.084 308.779 189.936 308.654 190.791 308.59C193.541 308.385 196.267 308.104 198.509 306.326C201.74 303.762 201.584 299.645 201.474 295.922C201.424 294.239 201.566 292.572 200.905 290.972C200.377 289.694 198.944 288.629 197.942 287.746C195.468 285.563 192.752 283.349 189.776 281.886C185.773 279.919 180.503 280.626 176.435 281.866C175.494 282.153 174.496 282.464 173.628 282.937C172.517 283.543 171.769 284.575 170.746 285.291C169.425 286.216 167.711 286.607 166.053 286.806C166.088 285.94 165.783 285.211 165.182 284.953C157.766 285.092 150.953 281.473 143.807 280.013C142.902 279.828 142.008 279.566 141.09 279.467C140.625 279.417 140.158 279.409 139.689 279.411ZM183.942 281.699C185.68 281.747 187.397 282.06 188.905 282.803C191.827 284.244 194.495 286.421 196.927 288.565C197.843 289.373 199.2 290.429 199.641 291.622C200.261 293.3 199.985 295.064 200.014 296.808C200.077 300.564 199.968 304.937 195.759 306.331C195.139 306.536 194.467 306.712 193.815 306.77C192.275 306.906 190.605 307.043 189.06 306.991C186.323 306.898 183.565 306.29 180.891 305.754C175.642 304.704 170.47 303.323 165.07 303.465C158.337 303.641 151.582 304.081 144.888 304.833C139.885 305.395 134.98 307.148 130.154 304.962C129.446 304.642 128.752 304.286 128.088 303.881C127.608 303.588 127.144 303.273 126.719 302.904C124.616 301.073 125.852 300.035 126.879 297.943C127.361 296.962 127.622 295.957 127.882 294.892C128.276 293.281 128.561 291.646 128.961 290.038C129.197 289.089 129.461 288.142 129.829 287.235C130.048 286.695 130.304 286.172 130.629 285.687C131.903 283.781 134.028 284.058 136.089 284.113C136.848 284.133 137.613 284.067 138.367 284.161C141.086 284.501 143.909 285.496 146.51 286.332C151.963 288.084 157.221 290.016 163.029 289.979C163.931 290.366 165.143 289.552 165.738 288.164C165.793 288.036 165.834 287.907 165.875 287.779C167.787 287.528 169.726 287.039 171.29 285.961C172.25 285.299 172.959 284.283 173.988 283.717C175.434 282.921 177.246 282.515 178.85 282.191C180.444 281.869 182.204 281.651 183.942 281.699Z" fill="#fff1f6" stroke="none"/>
</g>
<g opacity="1">
<path d="M213.806 349.98C213.457 348.777 211.783 348.387 210.572 348.064C208.86 347.607 207.074 348.715 205.303 348.783C202.355 348.896 199.604 349.018 196.68 349.262C190.547 349.773 185.202 347.871 179.195 347.585C175.95 347.431 172.603 348.023 169.375 348.304C162.786 348.877 156.144 349.895 149.495 349.262C141.952 348.543 134.87 347.825 127.22 347.825C124.82 347.825 116.077 347.47 114.286 349.262C112.247 351.3 113.675 356.903 114.765 359.082C116.023 361.599 118.153 363.653 119.315 366.268C121.284 370.698 121.377 381.023 126.261 383.034C128.498 383.955 131.115 383.636 133.447 383.753C139.282 384.044 146.691 387.238 152.369 384.232C156.435 382.079 157.791 378.483 163.148 378.483C165.125 378.483 170.428 379.134 172.01 380.399C174.809 382.639 171.99 382.469 175.124 384.232C176.504 385.008 180.281 385.348 181.83 385.429C184.376 385.563 186.451 384.008 188.776 383.274C192.6 382.066 203.128 383.539 205.303 380.639C206.62 378.883 206.267 375.703 207.219 373.693C208.733 370.497 211.983 367.797 212.968 364.352C214.128 360.289 214.946 353.909 213.806 349.98Z" fill="#fff1f6" fill-rule="nonzero" stroke="none"/>
<path d="M178.548 345.217C176.249 345.273 173.974 345.595 171.693 345.854C166.295 346.467 160.84 347.194 155.405 347.324C151.309 347.422 147.228 346.917 143.152 346.584C138.763 346.226 134.374 345.985 129.97 345.99C125.68 345.995 121.28 345.825 117.05 346.637C113.066 347.402 111.093 349.789 111.35 353.801C111.436 355.146 111.727 356.477 112.126 357.762C113.247 361.369 116.037 363.851 117.697 367.165C118.437 368.643 118.745 370.387 119.117 371.983C119.71 374.526 120.227 377.139 121.264 379.548C121.974 381.198 122.974 382.883 124.578 383.805C127.276 385.356 130.64 384.688 133.58 384.906C139.342 385.334 145.261 387.715 150.969 385.706C152.514 385.162 153.905 384.287 155.18 383.271C157.379 381.516 159.244 379.479 162.207 379.282C164.164 379.152 166.214 379.452 168.119 379.84C169.065 380.032 170.072 380.254 170.933 380.709C171.533 381.026 172.261 381.617 172.549 382.259C172.848 382.924 172.629 383.445 173.342 384.02C175.049 385.398 177.278 385.623 179.38 385.835C181.048 386.004 182.628 386.099 184.245 385.593C186.121 385.005 187.797 383.843 189.756 383.516C193.386 382.91 197.123 383.32 200.771 382.842C202.14 382.663 203.653 382.398 204.839 381.631C207.441 379.949 206.73 376.169 207.785 373.685C208.983 370.865 211.522 368.789 212.868 366.041C213.837 364.064 214.237 361.728 214.557 359.567C214.936 357.015 215.095 354.428 214.783 351.88C216.396 351.049 217.267 349.524 216.727 348.475C215.658 345.902 211.824 345.185 209.375 345.589C208.455 345.74 207.585 346.075 206.674 346.252C206.062 346.371 205.428 346.344 204.806 346.372C203.354 346.437 201.903 346.509 200.453 346.604C197.638 346.788 194.952 347.015 192.138 346.72C187.604 346.245 183.133 345.107 178.548 345.217ZM123.815 349.564C127.125 349.591 130.45 349.76 133.732 349.975C137.373 350.214 141.01 350.54 144.638 350.914C147.612 351.221 150.563 351.578 153.557 351.594C159.139 351.625 164.753 350.978 170.303 350.43C172.392 350.223 174.481 349.942 176.583 349.912C180.892 349.851 185.118 351.027 189.374 351.521C192.974 351.939 196.457 351.609 200.061 351.432C201.929 351.34 203.858 351.421 205.705 351.103C206.101 351.035 206.49 350.927 206.879 350.831C208.24 350.496 208.849 350.367 210.164 350.897C210.481 351.025 210.772 351.151 210.884 351.485C211.29 352.272 212.373 352.567 213.572 352.314C213.93 355.22 213.65 358.172 213.15 361.064C212.864 362.723 212.503 364.48 211.76 366.001C210.406 368.773 207.863 370.849 206.654 373.702C205.913 375.45 205.926 377.358 205.433 379.17C205.254 379.825 204.952 380.548 204.355 380.925C202.974 381.794 201.053 381.879 199.497 381.996C196.337 382.235 193.102 382.003 189.968 382.531C187.761 382.902 185.891 384.247 183.724 384.73C182.511 385.001 181.265 384.826 180.047 384.677C178.108 384.441 176.175 384.21 174.613 382.949C174.103 382.537 174.299 381.982 174.078 381.449C173.743 380.637 172.901 379.896 172.157 379.478C170.961 378.806 169.529 378.509 168.196 378.25C166.44 377.911 164.585 377.634 162.788 377.72C160.928 377.808 159.191 378.404 157.628 379.415C155.509 380.787 153.833 382.795 151.47 383.791C149.492 384.625 147.251 384.64 145.153 384.432C141.661 384.086 138.28 383.034 134.788 382.7C132.273 382.459 129.063 383.087 126.771 381.681C125.031 380.613 124.22 378.329 123.669 376.502C122.926 374.034 122.544 371.476 121.99 368.964C121.724 367.759 121.455 366.497 120.935 365.37C119.432 362.111 116.735 359.581 115.763 356.067C115.355 354.594 114.736 351.72 115.544 350.154C115.723 350.108 115.972 350.015 116.031 350.002C116.472 349.902 117.05 349.816 117.448 349.769C118.464 349.65 119.491 349.607 120.514 349.584C121.612 349.558 122.712 349.554 123.815 349.564Z" fill="#fff1f6" stroke="none"/>
</g>
<path d="M165.594 345.935C147.916 346.079 130.238 346.451 112.569 347.051C112.457 360.4 113.422 365.4 121.269 375.766C123.953 379.311 121.305 384.697 127.913 384.884C136.432 385.125 144.994 385.938 153.48 385.146C155.369 384.969 155.646 381.808 157.347 380.968C159.622 379.844 165.686 379.547 166.71 379.424" fill="none" opacity="1" stroke="#ffbbc4" stroke-linecap="butt" stroke-linejoin="round" stroke-width="5.5"/>
<path d="M161.903 345.935C179.581 346.079 197.259 346.451 214.928 347.051C215.04 360.4 214.075 365.4 206.228 375.766C203.544 379.311 206.192 384.697 199.584 384.884C191.065 385.125 182.503 385.938 174.018 385.146C172.128 384.969 171.852 381.808 170.15 380.968C167.875 379.844 161.811 379.547 160.787 379.424" fill="none" opacity="1" stroke="#ffbbc4" stroke-linecap="butt" stroke-linejoin="round" stroke-width="5.5"/>
<path d="M164.537 287.756C156.468 283.994 150.667 280.539 144.182 279.741C139.858 279.21 135.23 279.86 129.424 282.39C122.024 285.614 119.015 308.292 130.562 308.471C136.797 308.567 142.985 308.308 149.174 308.062C155.006 307.83 160.838 307.609 166.71 307.707" fill="none" opacity="1" stroke="#ffbbc4" stroke-linecap="butt" stroke-linejoin="round" stroke-width="5.5"/>
<path d="M161.206 287.756C169.275 283.994 175.076 280.539 181.561 279.741C185.885 279.21 190.513 279.86 196.319 282.39C203.718 285.614 206.727 308.292 195.181 308.471C188.946 308.567 182.758 308.308 176.569 308.062C170.737 307.83 164.905 307.609 159.033 307.707" fill="none" opacity="1" stroke="#ffbbc4" stroke-linecap="butt" stroke-linejoin="round" stroke-width="5.5"/>
</g>
</svg>
