<?xml version="1.0" encoding="UTF-8" standalone="no"?>
<!DOCTYPE svg PUBLIC "-//W3C//DTD SVG 1.1//EN" "http://www.w3.org/Graphics/SVG/1.1/DTD/svg11.dtd">
<!-- Created with Vectornator (http://vectornator.io/) -->
<svg height="100%" stroke-miterlimit="10" style="fill-rule:nonzero;clip-rule:evenodd;stroke-linecap:round;stroke-linejoin:round;" version="1.1" viewBox="3.10242 55.192 320.575 365.137" width="100%" xml:space="preserve" xmlns="http://www.w3.org/2000/svg" xmlns:xlink="http://www.w3.org/1999/xlink">
<defs/>
<g id="m-fairy">
<g opacity="1">
<path d="M165.5 58.25C131.949 58.4992 95.2284 67.9652 73.9688 90.9375C61.2968 104.63 60.914 110.729 55.75 128.656C52.942 138.405 51.1027 143.157 51.9375 153.344C52.3503 158.38 36.4175 156.127 29.3438 161.969C22.282 167.801 15.6084 170.39 6.71875 172.594C15.3224 179.634 20.6307 191.292 29.3438 196.375C41.9809 203.747 52.1509 202.878 66.125 208.5C75.104 212.112 87.0916 228.167 97.5625 230.75C114.93 235.034 132.563 232.855 150.062 236.562L151.812 238.031C150.635 241.262 151.157 247.308 150.594 249.562C150.377 250.429 148.942 251.214 148.344 251.812C144.397 255.759 137.773 254.664 133.531 258.906C131.164 261.273 129.652 264.887 127.719 267.594C122.58 274.788 117.115 281.981 111.625 288.844C109.437 291.579 106.327 293.44 104.219 296.25C99.3569 302.733 93.3303 308.135 86.8438 313C85.3388 314.129 83.1551 314.388 81.6875 315.562C79.7177 317.138 74.0557 321.276 77.1875 323.625C80.014 325.745 90.3595 320.359 93.2812 323.281C95.8206 325.821 86.5148 336.668 96.1875 334.25C99.7918 333.349 102.357 328.667 104.219 325.875C107.209 321.39 112.692 318.37 116.469 314.594C117.755 313.308 122.833 308.31 124.844 308.812C125.226 308.908 125.188 309.872 125.156 310.094C124.751 312.933 124.434 316.073 123.531 318.781C122.624 321.502 120.068 323.604 119.344 326.5C118.842 328.508 118.977 330.872 118.719 332.938C118.024 338.493 115.919 343.996 114.844 349.375C112.57 360.743 119.716 363.933 124.5 371.906C130.465 381.848 129.775 395.138 136.75 404.438C138.131 406.279 137.679 409.242 139.312 410.875C140.71 412.273 148.387 416.776 150.25 416.031C152.686 415.057 152.928 409.366 153.156 407.312C153.955 400.126 153.544 392.059 151.562 385.125C150.683 382.046 148.621 377.532 152.531 376.75C154.33 376.39 161.574 375.777 163.156 376.094C165.122 376.487 166.456 377.736 168.625 377.375C170.734 377.023 174.167 373.049 176.344 374.5C178.419 375.883 176.031 381.866 176.031 383.812C176.031 386.409 176.656 388.961 176.656 391.562C176.656 396.694 173.388 412.855 178.906 415.062C181.676 416.17 184.276 412.639 185.688 410.875C190.954 404.292 193.965 398.231 196.625 390.25C199.12 382.764 200.727 375.618 204.688 368.688C207.765 363.301 213.047 361.201 214 354.531C214.562 350.599 212.066 346.711 211.438 342.938C210.678 338.378 212.343 333.779 210.469 329.406C208.849 325.626 203.377 317.559 205.656 313C206.544 311.224 210.362 311.925 211.438 313C213.563 315.126 214.378 318.776 215.938 321.375C218.185 325.121 222.736 328.396 226.25 331.031C227.441 331.924 229.437 331.952 230.75 332.938C231.606 333.58 232.194 334.645 233.344 334.875C241.014 336.409 234.967 322.566 235.25 322C235.708 321.084 238.324 321.175 239.125 321.375C241.977 322.088 243.268 325.223 245.875 325.875C249.694 326.83 252.654 321.977 251.375 318.781C250.522 316.648 239.668 312.551 237.188 311.062C232.689 308.363 231.025 303.932 227.531 300.438C224.85 297.757 221.081 296.723 218.188 294.312C215.06 291.706 213.01 288.194 211.438 284.656C209.927 281.258 207.104 278.571 205 275.625C203.495 273.518 202.786 270.758 201.469 268.562C200.818 267.478 199.392 266.798 198.562 265.969C194.62 262.026 192.054 256.222 186.656 254.062C183.604 252.842 179.118 253.305 176.656 250.844C175.889 250.076 173.72 248.442 173.438 247.312C172.619 244.037 175.303 240.923 174.219 237.656C183.661 236.862 192.719 235.258 202.875 233.844C223.322 230.997 241.055 227.652 260.656 208.5C263.603 205.621 266.04 209.211 272.438 208.5C279.178 207.751 289.941 202.714 294.469 200.031C305.485 193.504 312.059 181.371 320.062 171.375C314.175 170.365 307.971 164.492 298.406 161.719C293.401 160.267 280.795 159.115 277.656 156.125C271.82 150.566 274.174 142.844 272.844 136.188C271.09 127.409 266.515 119.429 263.656 110.406C255.876 85.8524 221.89 65.452 197.312 60.9062C187.524 59.0958 176.684 58.1669 165.5 58.25Z" fill="#f4dfca" fill-rule="nonzero" stroke="none"/>
<path d="M165.716 57.7495C148.943 57.966 132.124 60.159 116.115 65.2932C106.874 68.257 97.916 72.1914 89.7179 77.4103C82.5276 81.9877 76.1549 87.5701 70.6176 94.0447C67.606 97.566 64.8596 101.329 62.7712 105.478C59.6007 111.777 57.994 118.745 56.1017 125.497C54.6683 130.613 52.8581 135.708 51.9095 140.944C51.3002 144.307 51.0684 147.675 51.2145 151.088C51.2495 151.905 51.3189 152.727 51.3715 153.543C51.3954 153.914 51.3282 154.27 51.1025 154.574C50.1686 155.833 47.2562 156.241 45.8566 156.502C42.5455 157.119 39.1882 157.512 35.9365 158.419C33.8736 158.994 31.8174 159.761 30.0293 160.963C28.4907 161.997 27.108 163.259 25.5793 164.315C22.8359 166.209 19.8809 167.773 16.7913 169.023C15.8591 169.4 14.918 169.741 13.9666 170.065C12.3049 170.631 10.6182 171.146 8.92247 171.601C8.5628 171.697 8.20708 171.777 7.8464 171.87C7.31762 172.006 6.23768 172.22 6.44525 172.979C6.54807 173.356 7.06415 173.64 7.30836 173.865C7.64965 174.179 7.99258 174.497 8.32839 174.818C8.66475 175.139 8.99986 175.462 9.326 175.793C11.3114 177.809 13.106 180.001 14.8633 182.216C18.5198 186.824 22.0221 191.815 26.7898 195.364C29.313 197.242 32.2175 198.655 35.107 199.87C42.803 203.107 51.1392 204.203 59.0946 206.596C62.3501 207.575 65.7011 208.592 68.6111 210.395C71.5612 212.223 74.214 214.529 76.8162 216.807C82.0024 221.348 87.0546 226.339 93.1928 229.597C95.8209 230.992 98.7337 231.572 101.633 232.119C111.763 234.029 122.065 234.041 132.313 234.764C134.871 234.945 137.425 235.215 139.98 235.437C142.173 235.627 144.354 236.067 146.526 236.423C147.256 236.543 147.981 236.666 148.712 236.782C149.046 236.835 149.414 236.796 149.72 236.939C150.044 237.09 150.256 237.402 150.527 237.634C150.59 237.687 150.655 237.738 150.718 237.791C150.834 237.888 151.272 238.284 151.267 238.295C150.811 239.475 150.719 240.841 150.617 242.084C150.498 243.531 150.471 244.983 150.415 246.433C150.382 247.299 150.36 248.174 150.236 249.033C150.193 249.328 150.164 249.653 149.989 249.908C149.601 250.475 148.95 250.849 148.431 251.275C147.634 251.93 146.949 252.602 146.033 253.102C143.639 254.41 140.878 254.763 138.343 255.692C135.886 256.591 133.664 257.993 132.044 260.074C130.578 261.957 129.52 264.103 128.255 266.116C127.177 267.832 125.939 269.456 124.746 271.093C121.689 275.288 118.554 279.429 115.364 283.524C113.842 285.478 112.371 287.513 110.724 289.364C108.98 291.324 106.797 292.83 105.018 294.755C104.151 295.694 103.415 296.742 102.62 297.737C100.96 299.814 99.1687 301.781 97.2841 303.656C94.9192 306.007 92.3966 308.215 89.7964 310.303C88.6598 311.215 87.5141 312.219 86.2767 312.993C85.0476 313.761 83.5894 314.04 82.3311 314.753C81.3045 315.334 80.3397 316.189 79.4504 316.961C78.8832 317.453 78.4157 317.853 77.8923 318.396C76.8543 319.47 75.2917 321.248 75.9755 322.89C76.8046 324.882 79.434 324.571 81.1205 324.314C83.5448 323.945 85.9166 323.189 88.3504 322.89C88.8092 322.834 89.2674 322.844 89.7291 322.823C90.1768 322.803 90.6314 322.699 91.0742 322.767C91.4044 322.818 91.6883 323.035 91.9934 323.171C92.3173 323.315 92.6526 323.447 92.9686 323.608C93.1896 323.72 93.2727 324.273 93.2936 324.482C93.3824 325.37 93.094 326.293 92.8341 327.127C92.6942 327.576 92.5062 328.097 92.3521 328.54C91.7094 330.388 89.8486 334.584 93.1928 334.929C93.6243 334.973 94.0518 334.956 94.4818 334.907C95.046 334.842 95.6139 334.725 96.1632 334.582C97.1806 334.317 98.0965 333.804 98.9206 333.158C102.081 330.68 103.541 326.792 106.195 323.877C108.717 321.107 111.88 319.046 114.703 316.613C115.834 315.639 116.882 314.579 117.965 313.553C119.513 312.087 121.136 310.628 122.998 309.574C123.244 309.435 124.497 308.826 124.679 309.226C124.808 309.508 124.797 309.88 124.758 310.179C124.694 310.659 124.622 311.145 124.556 311.625C124.489 312.115 124.436 312.604 124.365 313.094C124.06 315.214 123.771 317.468 122.908 319.449C122.022 321.483 120.373 323.086 119.467 325.11C118.176 327.992 118.628 331.356 118.133 334.402C117.452 338.591 116.09 342.62 115.084 346.732C114.114 350.698 113.469 354.743 114.916 358.681C116.061 361.798 118.267 364.314 120.33 366.853C122.312 369.291 124.166 371.792 125.52 374.643C128.468 380.851 129.402 387.739 131.45 394.248C132.318 397.007 133.37 399.726 134.835 402.229C135.417 403.223 136.182 404.107 136.74 405.109C137.61 406.669 137.464 408.59 138.321 410.154C138.935 411.274 140.036 411.951 141.078 412.62C142.848 413.755 144.727 414.8 146.672 415.601C147.552 415.964 148.567 416.376 149.541 416.397C151.935 416.449 152.73 412.894 153.038 411.106C153.14 410.517 153.218 409.918 153.285 409.324C153.357 408.684 153.37 408.435 153.431 407.811C154.171 400.127 153.954 392.456 151.884 384.978C151.752 384.503 151.514 383.808 151.368 383.341C150.884 381.791 149.585 378.236 151.738 377.243C152.746 376.779 154.051 376.771 155.134 376.661C157.707 376.4 160.437 376.036 163.003 376.347C164.22 376.494 165.315 377.269 166.501 377.546C169.097 378.153 170.519 376.705 172.576 375.45C173.424 374.933 174.537 374.216 175.591 374.486C177.614 375.005 176.76 378.582 176.477 379.956C176.209 381.25 175.761 382.572 175.726 383.902C175.657 386.492 176.288 389.071 176.353 391.658C176.399 393.485 176.112 395.351 175.939 397.162C175.824 398.357 175.715 399.552 175.625 400.749C175.531 401.996 175.454 403.242 175.423 404.493C175.403 405.312 175.397 406.117 175.423 406.937C175.446 407.66 175.497 408.513 175.58 409.234C175.867 411.727 176.872 415.816 180.198 415.5C182.905 415.243 185.046 412.062 186.554 410.12C190.762 404.7 193.921 398.657 196.216 392.196C199.02 384.305 200.793 376.082 204.914 368.713C206.54 365.806 209.16 363.69 211.225 361.125C212.611 359.403 213.661 357.471 214.106 355.296C214.94 351.221 212.785 347.633 211.875 343.773C211.184 340.84 211.632 337.87 211.651 334.895C211.66 333.382 211.558 331.845 211.113 330.389C210.615 328.762 209.718 327.262 208.938 325.76C207.941 323.838 206.957 321.899 206.237 319.853C205.597 318.037 204.691 314.658 205.979 312.836C206.431 312.196 207.371 312.092 208.086 312.107C209.941 312.148 211.149 312.794 212.189 314.315C213.915 316.842 214.555 319.942 216.336 322.442C218.205 325.065 220.755 327.138 223.286 329.089C224.288 329.861 225.298 330.759 226.391 331.398C227.47 332.03 228.774 332.125 229.888 332.676C230.974 333.213 231.571 334.361 232.657 334.862C233.114 335.073 233.65 335.153 234.148 335.176C234.537 335.193 234.936 335.166 235.313 335.064C238.107 334.303 237.53 330.362 237.129 328.293C237.075 328.012 237.013 327.732 236.95 327.453C236.768 326.651 236.562 325.865 236.333 325.076C236.102 324.276 235.838 323.477 235.605 322.677C235.507 322.344 235.32 322.028 235.616 321.814C236.196 321.396 237.113 321.411 237.791 321.422C240.402 321.466 241.548 323.165 243.429 324.729C244.111 325.296 244.901 325.747 245.738 326.04C246.329 326.247 247.076 326.208 247.677 326.074C250.29 325.492 252.073 322.557 251.869 319.976C251.736 318.282 250.686 317.568 249.302 316.737C248.418 316.205 247.503 315.727 246.579 315.268C244.57 314.271 242.512 313.369 240.47 312.443C239.22 311.878 237.94 311.331 236.793 310.572C235.611 309.788 234.57 308.818 233.632 307.758C231.322 305.149 229.668 301.954 226.996 299.665C224.852 297.828 222.178 296.841 219.845 295.293C218.205 294.206 216.788 292.86 215.563 291.325C214.334 289.786 213.316 288.085 212.436 286.326C211.867 285.19 211.404 284.002 210.754 282.907C209.06 280.052 206.566 277.782 204.802 274.983C203.511 272.933 202.824 270.574 201.63 268.47C200.88 267.149 199.242 266.438 198.222 265.354C196.1 263.098 194.443 260.466 192.382 258.158C190.632 256.197 188.522 254.425 185.96 253.663C183.396 252.9 180.56 253.013 178.158 251.735C177.221 251.236 176.468 250.432 175.681 249.728C174.882 249.015 173.956 248.276 173.585 247.24C172.898 245.326 174.146 242.683 174.47 240.851C174.566 240.311 174.68 239.762 174.65 239.214C174.628 238.819 174.438 238.437 174.481 238.037C174.527 237.617 175.034 237.708 175.356 237.679C176.14 237.607 176.927 237.525 177.71 237.443C180.446 237.156 183.167 236.811 185.892 236.434C191.131 235.71 196.362 234.89 201.596 234.136C207.817 233.241 214.041 232.369 220.17 230.953C230.365 228.599 240.056 224.617 248.663 218.623C251.6 216.578 254.397 214.342 257.07 211.965C257.913 211.215 258.695 210.499 259.514 209.723C260.192 209.08 260.902 208.219 261.778 207.784C263.153 207.101 264.725 207.67 266.105 208.019C266.813 208.198 267.526 208.363 268.246 208.49C270.871 208.955 273.537 208.548 276.092 207.896C279.951 206.912 283.68 205.411 287.301 203.771C291.716 201.772 295.971 199.533 299.699 196.395C304.652 192.225 308.612 187.026 312.41 181.823C314.329 179.194 316.211 176.534 318.183 173.943C318.507 173.517 318.84 173.099 319.169 172.677C319.435 172.335 319.862 171.951 319.965 171.522C320.049 171.171 319.6 171.185 319.393 171.13C319.146 171.064 318.898 171.001 318.653 170.928C318.172 170.785 317.629 170.597 317.163 170.413C314.601 169.401 312.213 167.953 309.809 166.624C306.18 164.616 302.468 162.798 298.477 161.625C295.552 160.765 292.477 160.371 289.487 159.809C286.828 159.308 284.184 158.758 281.596 157.959C279.494 157.31 277.82 156.378 276.462 154.619C273.114 150.28 273.715 144.678 273.38 139.543C273.28 138.018 273.067 136.537 272.73 135.048C271.307 128.767 268.539 122.902 266.172 116.945C264.504 112.745 263.32 108.352 261.296 104.301C256.191 94.0825 247.597 85.7932 238.441 79.1701C227.576 71.3117 215.115 65.1367 202.09 61.8408C197.645 60.7161 193.095 60.0205 188.549 59.4533C181.011 58.5127 173.442 58.1707 165.85 58.1642C165.868 57.9774 165.843 57.8038 165.716 57.7495ZM165.817 58.366C173.38 58.3741 180.927 58.718 188.437 59.655C192.975 60.2212 197.518 60.9199 201.955 62.0426C215.558 65.4848 228.584 72.0493 239.775 80.4704C248.303 86.8876 256.256 94.7836 261.072 104.424C263.094 108.472 264.27 112.872 265.937 117.068C268.421 123.321 271.53 129.563 272.73 136.236C273.829 142.356 272.167 149.474 276.249 154.765C278.114 157.182 280.381 157.886 283.244 158.677C285.593 159.325 288.012 159.76 290.406 160.201C293.458 160.763 296.549 161.215 299.508 162.174C303.381 163.428 306.98 165.327 310.527 167.296C312.64 168.47 314.74 169.701 316.994 170.592C317.734 170.884 318.491 171.116 319.259 171.32C319.401 171.358 319.782 171.34 319.729 171.556C319.635 171.945 319.221 172.297 318.978 172.609C318.649 173.033 318.317 173.46 317.992 173.887C317.664 174.318 317.351 174.753 317.028 175.188C315.407 177.368 313.821 179.573 312.219 181.767C308.438 186.947 304.496 192.131 299.564 196.283C295.864 199.398 291.638 201.619 287.257 203.603C283.654 205.234 279.941 206.726 276.103 207.705C273.584 208.348 270.968 208.758 268.38 208.299C266.444 207.956 263.663 206.663 261.722 207.627C260.803 208.083 260.076 208.951 259.357 209.633C258.541 210.407 257.764 211.106 256.925 211.853C254.262 214.22 251.476 216.454 248.551 218.488C239.631 224.693 229.575 228.696 218.993 231.009C212.85 232.352 206.629 233.2 200.408 234.092C195.202 234.838 190.007 235.655 184.794 236.356C182.073 236.721 179.343 237.054 176.611 237.32C176.22 237.358 175.826 237.385 175.434 237.421C174.927 237.467 174.263 237.449 174.19 238.104C174.16 238.376 174.223 238.656 174.268 238.923C174.285 239.018 174.308 239.108 174.324 239.203C174.332 239.247 174.346 239.382 174.347 239.337C174.29 239.863 174.26 240.398 174.168 240.918C173.834 242.796 172.579 245.426 173.282 247.386C173.663 248.447 174.594 249.209 175.412 249.941C176.448 250.869 177.398 251.813 178.718 252.34C180.973 253.24 183.459 253.232 185.769 253.921C188.296 254.674 190.367 256.424 192.091 258.359C194.15 260.671 195.809 263.32 197.931 265.578C198.915 266.626 200.599 267.413 201.305 268.661C202.497 270.769 203.186 273.131 204.477 275.184C206.237 277.984 208.727 280.254 210.418 283.109C211.064 284.201 211.533 285.384 212.099 286.517C212.983 288.287 214.003 289.999 215.238 291.55C216.473 293.1 217.899 294.452 219.553 295.551C221.877 297.095 224.547 298.091 226.682 299.923C229.344 302.208 230.983 305.4 233.285 308.005C234.233 309.078 235.295 310.058 236.49 310.852C237.647 311.619 238.93 312.174 240.189 312.746C242.228 313.672 244.282 314.574 246.287 315.571C247.399 316.124 248.507 316.696 249.549 317.375C250.668 318.105 251.358 318.725 251.466 320.111C251.656 322.557 249.919 325.529 247.307 325.805C246.898 325.848 246.401 325.854 246.007 325.715C245.197 325.429 244.435 324.988 243.776 324.437C243.069 323.847 242.446 323.153 241.736 322.565C240.363 321.427 238.899 320.948 237.118 321.097C236.541 321.145 235.896 321.238 235.414 321.59C234.775 322.057 235.146 322.72 235.336 323.35C235.457 323.754 235.585 324.156 235.706 324.561C235.93 325.309 236.143 326.067 236.333 326.825C236.472 327.375 236.596 327.915 236.703 328.473C237.121 330.639 237.756 334.963 234.327 334.806C233.873 334.785 233.376 334.73 232.959 334.537C231.882 334.038 231.285 332.888 230.202 332.351C229.095 331.802 227.798 331.701 226.727 331.073C225.306 330.24 223.991 329.059 222.703 328.035C220.53 326.307 218.37 324.439 216.751 322.162C214.83 319.461 214.266 315.996 212.155 313.419C211.915 313.125 211.628 312.797 211.303 312.578C209.953 311.665 206.723 311.14 205.587 312.746C204.457 314.342 204.845 316.806 205.295 318.541C206.216 322.086 208.159 325.247 209.757 328.506C210.603 330.234 211.064 331.993 211.147 333.92C211.275 336.949 210.647 340.023 211.191 343.033C211.836 346.598 213.907 349.936 213.825 353.626C213.685 359.959 207.921 363.153 204.858 367.996C200.594 374.74 198.849 382.787 196.362 390.269C193.999 397.374 190.723 404.06 186.117 409.985C184.794 411.687 182.734 414.807 180.344 415.029C177.698 415.276 176.665 412.12 176.309 410.075C175.44 405.086 176.272 399.843 176.734 394.853C176.88 393.286 177.011 391.742 176.914 390.168C176.782 388.027 176.275 385.875 176.331 383.722C176.378 381.935 177.082 380.171 177.351 378.409C177.574 376.947 177.846 374.478 175.961 373.993C174.698 373.668 173.38 374.455 172.352 375.08C170.492 376.211 169.192 377.6 166.859 377.042C165.653 376.753 164.547 375.984 163.306 375.831C160.693 375.509 157.922 375.87 155.303 376.134C154.11 376.254 152.71 376.282 151.604 376.795C148.909 378.044 150.081 381.522 150.74 383.644C150.883 384.102 151.116 384.801 151.245 385.269C153.235 392.488 153.556 399.971 152.825 407.396C152.757 408.092 152.691 408.786 152.612 409.481C152.546 410.064 152.477 410.651 152.377 411.23C152.151 412.534 151.858 414.029 151.032 415.108C150.728 415.505 150.334 415.854 149.81 415.837C148.504 415.793 147.154 415.122 146.01 414.581C144.334 413.788 142.699 412.865 141.157 411.835C140.305 411.266 139.478 410.699 138.971 409.772C138.115 408.21 138.259 406.293 137.39 404.728C137.062 404.136 136.61 403.623 136.236 403.058C135.447 401.869 134.762 400.597 134.162 399.303C132.325 395.336 131.297 391.05 130.239 386.827C128.743 380.86 127.153 374.911 123.603 369.789C121.312 366.484 118.263 363.66 116.407 360.06C115.301 357.915 114.754 355.574 114.782 353.166C114.812 350.479 115.499 347.845 116.183 345.264C117.031 342.064 118.004 338.897 118.649 335.646C118.974 334.004 119.185 332.363 119.276 330.692C119.38 328.795 119.403 326.878 120.196 325.11C121.103 323.084 122.748 321.488 123.637 319.449C124.525 317.413 124.833 315.106 125.15 312.925C125.291 311.955 125.424 310.972 125.554 310C125.599 309.659 125.6 309.289 125.497 308.957C125.203 308.006 123.765 308.578 123.166 308.857C121.143 309.796 119.408 311.405 117.786 312.914C116.595 314.022 115.455 315.182 114.221 316.243C111.356 318.708 108.162 320.8 105.601 323.608C102.999 326.461 101.574 330.323 98.4835 332.743C97.8063 333.274 97.0452 333.705 96.208 333.92C95.5759 334.083 94.933 334.21 94.28 334.245C93.9565 334.263 93.6234 334.254 93.3049 334.189C91.1076 333.74 92.4977 330.425 92.9237 329.19C93.0062 328.951 93.0983 328.711 93.1816 328.473C93.265 328.233 93.3469 327.995 93.4282 327.755C93.6281 327.165 93.6968 326.948 93.8653 326.354C94.0842 325.582 94.5312 323.475 93.5963 322.958C93.2747 322.78 92.9244 322.656 92.5875 322.509C92.2317 322.354 91.906 322.11 91.5226 322.05C91.0259 321.972 90.5117 322.086 90.0094 322.106C89.5212 322.125 89.0371 322.114 88.5522 322.173C85.8709 322.499 83.2802 323.395 80.5937 323.697C79.2188 323.852 76.7064 323.863 76.7041 321.826C76.7031 320.937 77.3013 320.081 77.8587 319.438C78.9043 318.232 80.1189 317.218 81.3671 316.232C81.7739 315.911 82.1551 315.583 82.6113 315.324C83.8897 314.6 85.3712 314.313 86.6242 313.531C88.1968 312.549 89.6516 311.271 91.0854 310.101C93.4465 308.173 95.7261 306.151 97.8894 304.003C99.8113 302.094 101.644 300.076 103.337 297.961C104.113 296.991 104.823 295.984 105.669 295.069C107.454 293.138 109.644 291.622 111.396 289.655C113.065 287.784 114.564 285.725 116.104 283.748C118.389 280.815 120.644 277.864 122.863 274.882C124.969 272.051 127.184 269.228 129.062 266.239C130.448 264.035 131.588 261.637 133.31 259.66C136.328 256.194 141.048 256.005 145.035 254.335C146.395 253.766 147.556 253.003 148.644 252.015C149.409 251.321 150.51 250.765 150.965 249.784C151.326 249.006 151.301 247.963 151.346 247.128C151.422 245.727 151.434 244.325 151.514 242.924C151.574 241.864 151.656 240.8 151.839 239.752C151.919 239.292 152.26 238.529 152.242 238.015C152.227 237.562 151.66 237.221 151.346 236.961C151.034 236.704 150.771 236.357 150.404 236.188C150.04 236.019 149.623 236.053 149.227 235.986C146.317 235.489 143.369 234.878 140.428 234.618C137.869 234.393 135.312 234.118 132.75 233.935C123.274 233.255 113.754 233.199 104.357 231.648C100.839 231.067 97.1399 230.506 93.955 228.812C84.9073 224 78.5526 215.568 70.0459 210.003C67.3816 208.26 64.4116 207.213 61.3924 206.237C55.8928 204.46 50.2158 203.392 44.6348 201.921C40.0224 200.706 35.5227 199.118 31.3183 196.844C30.0574 196.162 28.8257 195.448 27.6754 194.591C23.7118 191.636 20.6466 187.622 17.6208 183.763C15.2809 180.778 12.9536 177.772 10.29 175.064C9.59572 174.359 8.88107 173.655 8.12662 173.013C8.02024 172.922 7.91902 172.835 7.81277 172.744C13.23 171.44 18.5982 169.502 23.3935 166.657C24.9406 165.74 26.4314 164.739 27.8659 163.653C29.0484 162.759 30.1455 161.747 31.4528 161.03C33.221 160.061 35.1732 159.462 37.1247 158.99C40.8068 158.1 44.6207 157.838 48.2778 156.849C49.699 156.465 51.4703 155.884 52.2234 154.496C52.6688 153.674 52.4703 152.799 52.4139 151.906C52.3637 151.113 52.33 150.369 52.313 149.575C52.2431 146.293 52.5402 143.036 53.221 139.823C54.4001 134.258 56.2603 128.822 57.7831 123.345C59.3292 117.784 60.7462 112.116 63.1747 106.857C64.4875 104.013 66.116 101.325 67.961 98.7973C86.9068 72.8375 119.721 62.1812 150.516 59.4533C155.431 59.0179 160.357 58.8095 165.29 58.7471C165.468 58.8231 165.7 58.6622 165.817 58.3884C165.82 58.3807 165.814 58.3737 165.817 58.366Z" fill="#f4dfca" stroke="none"/>
</g>
<path d="M163.451 58.6118C164.739 58.7631 170.555 58.9077 171.863 59.0484C173.171 59.1891 174.487 59.326 175.811 59.462C177.134 59.5979 178.465 59.7328 179.801 59.8695C181.137 60.0063 182.478 60.1449 183.823 60.2882C185.168 60.4316 186.516 60.5796 187.866 60.7351C189.216 60.8907 190.568 61.0538 191.92 61.2273C193.272 61.4009 194.623 61.5848 195.973 61.7819C197.322 61.9791 198.67 62.1895 200.014 62.416C201.358 62.6424 202.699 62.885 204.033 63.1465C205.368 63.4081 206.697 63.6885 208.019 63.9908C209.341 64.293 210.656 64.6171 211.962 64.9657C213.267 65.3144 214.563 65.6877 215.849 66.0885C217.134 66.4893 218.409 66.9176 219.671 67.3762C220.933 67.8348 222.182 68.3237 223.416 68.8459C224.651 69.368 225.871 69.9233 227.074 70.5146C228.278 71.1059 229.465 71.7333 230.635 72.3995C233.201 73.8616 235.703 75.5295 238.131 77.3808C240.559 79.232 242.913 81.2667 245.181 83.4623C247.449 85.6579 249.632 88.0144 251.718 90.5096C253.804 93.0047 255.793 95.6384 257.675 98.3883C259.556 101.138 261.33 104.004 262.985 106.964C264.64 109.924 266.177 112.977 267.583 116.102C268.989 119.227 270.265 122.423 271.4 125.669C272.536 128.914 273.53 132.208 274.372 135.529C275.214 138.849 275.904 142.196 276.43 145.548C276.957 148.899 277.32 152.255 277.509 155.592C277.698 158.929 277.713 162.248 277.542 165.527C277.371 168.805 277.014 172.043 276.462 175.217C275.909 178.392 275.159 181.503 274.202 184.529C273.245 187.555 272.08 190.496 270.696 193.329C269.313 196.161 267.71 198.886 265.878 201.481C264.046 204.075 261.984 206.539 259.68 208.851C258.073 210.465 256.422 211.983 254.731 213.411C253.04 214.84 251.31 216.179 249.544 217.435C247.777 218.691 245.974 219.863 244.138 220.959C242.302 222.054 240.434 223.073 238.535 224.021C236.637 224.968 234.709 225.845 232.755 226.658C230.801 227.47 228.82 228.218 226.817 228.907C224.814 229.597 222.788 230.228 220.742 230.807C218.697 231.385 216.631 231.912 214.55 232.393C212.469 232.874 210.372 233.309 208.262 233.704C206.152 234.099 204.029 234.455 201.896 234.777C199.764 235.099 197.622 235.388 195.475 235.649C193.327 235.911 191.173 236.145 189.017 236.358C186.86 236.571 184.701 236.763 182.543 236.941C180.384 237.118 178.227 237.281 176.073 237.435C173.919 237.589 171.769 237.734 169.627 237.877C167.485 238.02 165.35 238.161 163.226 238.305" fill="none" opacity="1" stroke="#e0b08a" stroke-linecap="butt" stroke-linejoin="round" stroke-width="6.83964"/>
<path d="M164.312 58.6118C163.024 58.7631 157.207 58.9077 155.9 59.0484C154.592 59.1891 153.276 59.326 151.952 59.462C150.629 59.5979 149.298 59.7328 147.962 59.8695C146.626 60.0063 145.284 60.1449 143.94 60.2882C142.595 60.4316 141.246 60.5796 139.896 60.7351C138.546 60.8907 137.195 61.0538 135.843 61.2273C134.491 61.4009 133.14 61.5848 131.79 61.7819C130.44 61.9791 129.093 62.1895 127.749 62.416C126.405 62.6424 125.064 62.885 123.729 63.1465C122.395 63.4081 121.065 63.6885 119.743 63.9908C118.421 64.293 117.107 64.6171 115.801 64.9657C114.496 65.3144 113.199 65.6877 111.914 66.0885C110.628 66.4893 109.354 66.9176 108.092 67.3762C106.83 67.8348 105.581 68.3237 104.347 68.8459C103.112 69.368 101.892 69.9233 100.688 70.5146C99.4846 71.1059 98.2973 71.7333 97.1281 72.3995C94.5622 73.8616 92.0597 75.5295 89.6315 77.3808C87.2034 79.232 84.8497 81.2667 82.5816 83.4623C80.3134 85.6579 78.1308 88.0144 76.0448 90.5096C73.9588 93.0047 71.9695 95.6384 70.0879 98.3883C68.2063 101.138 66.4324 104.004 64.7774 106.964C63.1224 109.924 61.5862 112.977 60.18 116.102C58.7738 119.227 57.4975 122.423 56.3623 125.669C55.2271 128.914 54.233 132.208 53.391 135.529C52.549 138.849 51.8591 142.196 51.3325 145.548C50.806 148.899 50.4426 152.255 50.2537 155.592C50.0647 158.929 50.0501 162.248 50.221 165.527C50.3919 168.805 50.7483 172.043 51.3012 175.217C51.8541 178.392 52.6036 181.503 53.5608 184.529C54.5179 187.555 55.6828 190.496 57.0664 193.329C58.45 196.161 60.0524 198.886 61.8847 201.481C63.717 204.075 65.7792 206.539 68.0823 208.851C69.6902 210.465 71.3412 211.983 73.0318 213.411C74.7224 214.84 76.4527 216.179 78.2192 217.435C79.9858 218.691 81.7887 219.863 83.6245 220.959C85.4604 222.054 87.3291 223.073 89.2275 224.021C91.1259 224.968 93.0538 225.845 95.008 226.658C96.9621 227.47 98.9425 228.218 100.946 228.907C102.949 229.597 104.975 230.228 107.021 230.807C109.066 231.385 111.131 231.912 113.212 232.393C115.294 232.874 117.391 233.309 119.501 233.704C121.611 234.099 123.734 234.455 125.866 234.777C127.999 235.099 130.14 235.388 132.288 235.649C134.436 235.911 136.59 236.145 138.746 236.358C140.902 236.571 143.062 236.763 145.22 236.941C147.378 237.118 149.536 237.281 151.69 237.435C153.844 237.589 155.993 237.734 158.136 237.877C160.278 238.02 162.413 238.161 164.537 238.305" fill="none" opacity="1" stroke="#e0b08a" stroke-linecap="butt" stroke-linejoin="round" stroke-width="6.83964"/>
<path d="M150.07 238.174C151.38 261.571 142.506 246.278 132.783 258.581C116.878 278.707 108.531 295.148 88.5269 309.759C83.093 313.728 69.5532 319.09 74.1878 323.969C78.9134 328.943 85.2272 321.803 91.4469 323.647C82.5943 356.492 114.705 315.971 121.345 311.378C117.219 327.087 111.746 343.029 112.313 359.262C112.536 365.626 120.474 369.474 123.322 375.044C128.989 386.126 130.015 399.231 136.744 409.698C139.907 414.619 150.13 422.175 152.035 411.458C152.93 406.424 153.346 401.279 153.245 396.167C153.125 390.012 151.999 383.919 151.375 377.795C159.106 379.261 159.386 379.005 164.537 379.115" fill="none" opacity="1" stroke="#e0b08a" stroke-linecap="butt" stroke-linejoin="round" stroke-width="6.83964"/>
<path d="M176.382 238.174C175.072 261.571 183.946 246.278 193.669 258.581C209.574 278.707 217.921 295.148 237.925 309.759C243.359 313.728 256.899 319.09 252.264 323.969C247.539 328.943 241.225 321.803 235.005 323.647C243.858 356.492 211.747 315.971 205.107 311.378C209.233 327.087 214.707 343.029 214.139 359.262C213.916 365.626 205.978 369.474 203.13 375.044C197.463 386.126 196.437 399.231 189.709 409.698C186.545 414.619 176.322 422.175 174.417 411.458C173.522 406.424 173.106 401.279 173.207 396.167C173.327 390.012 174.453 383.919 175.077 377.795C167.346 379.261 167.066 379.005 161.915 379.115" fill="none" opacity="1" stroke="#e0b08a" stroke-linecap="butt" stroke-linejoin="round" stroke-width="6.83964"/>
<path d="M122.623 311.796C124.161 306.261 125.98 300.838 127.449 295.288" fill="none" opacity="1" stroke="#e0b08a" stroke-linecap="butt" stroke-linejoin="round" stroke-width="4"/>
<path d="M203.848 311.796C202.31 306.261 200.492 300.838 199.023 295.288" fill="none" opacity="1" stroke="#e0b08a" stroke-linecap="butt" stroke-linejoin="round" stroke-width="4"/>
<g opacity="1">
<path d="M216.341 346.962C215.326 344.795 211.734 347.989 209.355 347.885C206.148 347.746 202.925 346.836 199.657 346.731C193.507 346.532 187.426 346.974 181.299 347.193C176.968 347.347 172.785 346.672 168.483 346.5C159.775 346.152 151.156 348.083 142.39 347.77C134.633 347.493 127.166 347.447 119.414 347.77C118.058 347.826 112.419 347.173 111.562 347.654C110.209 348.416 111.099 356.854 111.447 358.508C112.601 363.99 115.504 366.803 117.451 371.67C119.582 376.999 121.024 383.672 125.648 387.372C129.058 390.1 133.058 388.859 136.963 388.642C140.097 388.468 143.527 388.254 146.662 388.411C148.62 388.509 151.967 388.991 153.82 388.296C155.767 387.566 155.777 384.776 156.822 383.446C157.978 381.975 162.372 382.028 164.096 381.945C165.822 381.863 169.585 381.263 170.561 383.216C172.021 386.135 169.25 388.658 174.602 389.104C181.195 389.653 188.01 388.757 194.577 388.411C196.713 388.299 199.494 389.528 201.504 388.411C204.382 386.812 206.941 377.304 208.316 374.21C209.678 371.147 212.207 368.56 213.627 365.435C216.061 360.081 218.803 352.22 216.341 346.962Z" fill="#ebf3fa" fill-rule="nonzero" stroke="none"/>
<path d="M215.951 344.82C214.234 344.717 212.079 346 210.688 346.409C209.992 346.614 209.237 346.474 208.531 346.399C206.359 346.166 204.22 345.696 202.044 345.491C200.431 345.338 198.804 345.333 197.186 345.334C190.337 345.337 183.466 346.228 176.625 345.759C172.621 345.485 168.657 345.096 164.637 345.242C158.814 345.453 153.047 346.404 147.226 346.627C143.866 346.755 140.492 346.577 137.133 346.514C133.294 346.443 129.456 346.455 125.617 346.559C123.491 346.616 121.335 346.841 119.208 346.773C117.037 346.704 114.811 346.337 112.646 346.555C111.65 346.656 110.747 347.024 110.248 347.936C109.379 349.525 109.727 352.596 109.853 354.325C110.064 357.211 110.45 360.04 111.629 362.711C113.065 365.964 115.159 368.863 116.551 372.141C117.93 375.384 118.85 378.805 120.426 381.969C121.101 383.323 121.882 384.633 122.842 385.806C123.931 387.139 125.251 388.358 126.852 389.038C129.382 390.113 132.176 389.713 134.82 389.422C137.063 389.176 139.324 389.066 141.579 388.98C143.347 388.912 145.122 388.88 146.889 388.99C149.2 389.135 151.545 389.449 153.805 388.776C156.084 388.097 156.262 385.242 157.313 383.534C157.823 382.704 160.728 382.552 161.538 382.496C163.612 382.354 165.921 382.006 167.984 382.295C168.71 382.397 169.536 382.634 169.978 383.272C171.267 385.131 169.632 388.13 172.25 389.065C174.386 389.828 177.222 389.635 179.435 389.609C183.91 389.557 188.362 389.074 192.825 388.793C193.747 388.735 194.622 388.635 195.536 388.725C197.681 388.936 200.129 389.79 202.037 388.34C203.009 387.602 203.664 386.43 204.221 385.371C205.309 383.302 206.11 381.084 206.898 378.89C207.549 377.08 208.101 375.189 208.98 373.471C209.886 371.701 211.12 370.128 212.205 368.47C214.307 365.259 215.789 361.466 216.76 357.761C217.608 354.528 218.037 351.105 217.05 347.896C217.834 347.376 218.225 346.567 217.907 346.031C217.421 345.198 216.731 344.867 215.951 344.82ZM214.158 347.61C214.411 347.575 214.639 347.637 214.777 347.892C215.041 348.338 215.705 348.438 216.4 348.212C217.362 351.347 216.935 354.693 216.107 357.85C214.98 362.146 213.175 366.127 210.671 369.787C209.696 371.212 208.731 372.631 208.007 374.206C206.871 376.677 206.142 379.353 205.157 381.884C204.365 383.916 203.449 386.586 201.687 388.007C200.723 388.784 199.377 388.627 198.244 388.511C197.245 388.408 196.264 388.163 195.257 388.13C193.973 388.087 192.652 388.259 191.372 388.344C186.946 388.638 182.515 389.031 178.074 388.926C176.37 388.885 174.132 389.04 172.526 388.232C171.327 387.628 171.562 386.289 171.529 385.15C171.505 384.32 171.345 383.398 170.873 382.697C170.217 381.724 168.915 381.477 167.831 381.397C165.884 381.254 163.814 381.478 161.864 381.591C160.198 381.688 157.407 381.761 156.33 383.36C155.578 384.475 155.376 385.807 154.7 386.949C154.524 387.247 154.209 387.713 153.836 387.813C151.743 388.376 149.591 388.051 147.464 387.895C145.661 387.763 143.852 387.773 142.045 387.823C139.761 387.886 137.468 387.975 135.194 388.201C132.8 388.439 130.226 388.825 127.944 387.82C126.485 387.177 125.299 386.02 124.321 384.786C123.417 383.643 122.687 382.369 122.059 381.057C120.173 377.115 119.232 372.802 117.317 368.872C115.771 365.698 113.719 362.804 112.779 359.36C111.937 356.273 111.737 352.802 111.99 349.631C112.022 349.226 112.133 348.829 112.214 348.437C112.551 348.426 112.888 348.423 113.224 348.433C113.755 348.448 114.283 348.484 114.813 348.515C116.049 348.586 117.283 348.725 118.521 348.763C119.96 348.808 121.413 348.689 122.852 348.661C126.005 348.601 129.156 348.61 132.309 348.647C136.968 348.703 141.642 349.02 146.301 348.913C152.092 348.78 157.843 347.91 163.633 347.746C167.533 347.635 171.375 348.054 175.258 348.341C182.154 348.852 189.083 348.004 195.989 348.028C197.503 348.034 199.025 348.039 200.533 348.188C202.692 348.401 204.814 348.881 206.97 349.12C209.318 349.381 210.758 349.008 212.913 348.124C213.232 347.992 213.735 347.668 214.158 347.61Z" fill="#ebf3fa" stroke="none"/>
</g>
<path d="M163.366 345.789C136.343 346.039 136.343 346.039 109.32 346.288C108.975 360.496 111.157 364.831 118.887 377.074C119.886 378.656 122.989 388.261 125.978 388.918C135.666 391.047 145.98 390.135 155.727 388.302C157.184 388.028 156.884 382.999 156.89 382.324C163.322 382.777 161.915 382.431 165.776 382.578" fill="none" opacity="1" stroke="#c6e0f6" stroke-linecap="butt" stroke-linejoin="round" stroke-width="7.25"/>
<path d="M163.086 345.789C190.109 346.039 190.109 346.039 217.132 346.288C217.477 360.496 215.295 364.831 207.565 377.074C206.566 378.656 203.463 388.261 200.474 388.918C190.786 391.047 180.472 390.135 170.725 388.302C169.268 388.028 169.568 382.999 169.562 382.324C163.13 382.777 166.01 382.617 161.915 382.64" fill="none" opacity="1" stroke="#c6e0f6" stroke-linecap="butt" stroke-linejoin="round" stroke-width="7.25"/>
<g opacity="1">
<path d="M277.661 166.877C285.065 168.43 290.86 174.827 298.418 177.082C296.144 187.368 285.836 189.728 277.661 195.037" fill="none" opacity="1" stroke="#e0b08a" stroke-linecap="butt" stroke-linejoin="round" stroke-width="4"/>
<path d="M50.1018 168.227C42.6978 169.78 36.9025 176.177 29.3447 178.432C31.6185 188.718 41.9269 191.078 50.1018 196.387" fill="none" opacity="1" stroke="#e0b08a" stroke-linecap="butt" stroke-linejoin="round" stroke-width="4"/>
<path d="M278.49 156.118C285.16 156.157 290.62 158.613 295.914 161.548C303.329 165.659 310.419 170.71 320.052 171.379C301.565 198.255 293.129 204.416 260.67 208.495" fill="none" opacity="1" stroke="#e0b08a" stroke-linecap="butt" stroke-linejoin="round" stroke-width="7.25"/>
<path d="M48.2889 156.118C41.6194 156.157 36.1596 158.613 30.8653 161.548C23.4507 165.659 16.3608 170.71 6.72742 171.379C25.2147 198.255 33.65 204.416 66.1096 208.495" fill="none" opacity="1" stroke="#e0b08a" stroke-linecap="butt" stroke-linejoin="round" stroke-width="7.25"/>
</g>
</g>
</svg>
