<?xml version="1.0" encoding="UTF-8" standalone="no"?>
<!DOCTYPE svg PUBLIC "-//W3C//DTD SVG 1.1//EN" "http://www.w3.org/Graphics/SVG/1.1/DTD/svg11.dtd">
<!-- Created with Vectornator (http://vectornator.io/) -->
<svg height="100%" stroke-miterlimit="10" style="fill-rule:nonzero;clip-rule:evenodd;stroke-linecap:round;stroke-linejoin:round;" version="1.1" viewBox="20.1168 55.192 286.219 365.137" width="100%" xml:space="preserve" xmlns="http://www.w3.org/2000/svg" xmlns:xlink="http://www.w3.org/1999/xlink">
<defs/>
<g id="m-human">
<g opacity="1">
<path d="M111.307 66.0369C109.06 66.7858 108.097 68.0205 106.155 69.2566C92.1497 78.1691 80.6539 88.2329 70.7383 101.454C67.2571 106.095 63.169 110.803 61.7231 116.586C59.5487 125.284 57.8012 133.826 54.9618 142.344C53.9398 145.41 54.5671 150.144 52.064 152.647C51.9839 152.727 44.6896 150.148 42.7269 150.393C37.0856 151.098 27.8352 158.806 25.6624 164.238C25.0042 165.883 25.2631 167.677 25.0185 169.389C23.0243 183.348 30.5556 197.079 42.4049 204.484C45.0082 206.111 47.1554 208.644 50.1322 209.636C54.3724 211.049 57.9916 209.303 61.7231 207.704C63.4631 206.958 65.3947 207.038 67.1966 206.738C70.7816 206.141 73.838 203.988 77.1777 202.874" fill="#f4dfca" fill-rule="nonzero" opacity="1" stroke="#f4dfca" stroke-linecap="round" stroke-linejoin="round" stroke-width="1.43064"/>
<path d="M114.848 65.071C113.155 65.9176 111.937 68.5201 110.663 69.9005C105.677 75.3017 103.452 79.8705 100.682 86.643C98.1642 92.7966 94.8449 98.7265 92.6323 104.995C90.2258 111.814 88.9108 119.01 86.8369 125.923C84.7221 132.973 83.3391 140.007 81.6853 147.174C79.2346 157.793 75.1502 168.389 71.7042 178.727C69.6341 184.937 68.1158 190.323 67.1966 196.757C66.9755 198.305 66.221 199.606 66.5527 201.265C67.3356 205.179 74.2824 215.019 77.8217 217.041C81.1687 218.954 85.3112 219.176 88.7687 220.905C92.2093 222.625 94.8797 225.217 98.7498 226.378C102.687 227.559 106.759 227.517 110.663 228.632C114.887 229.839 118.553 231.631 122.898 232.174C127.461 232.744 132.189 231.737 136.742 232.496C154.192 235.404 172.741 235.561 190.511 233.784C199.267 232.908 208.202 229.419 216.591 227.022C225.851 224.377 236.729 224.405 245.246 219.295C247.781 217.774 252.155 215.557 253.94 213.178C255.424 211.199 256.768 208.883 258.769 207.382C261.576 205.277 272.661 207.605 276.478 207.06C284.063 205.976 294.633 197.712 297.406 190.318C300.777 181.326 301.636 172.599 300.303 163.272C300.02 161.288 300.579 157.844 299.338 156.189C297.907 154.281 295.597 153.353 293.542 152.325C289.508 150.308 283.138 148.126 278.731 149.105C277.721 149.33 273.529 151.121 272.614 149.749C271.381 147.9 274.058 143.125 273.58 140.734C272.786 136.766 270.991 132.646 269.716 128.821C269.045 126.808 262.729 116.538 263.921 115.942" fill="#f4dfca" fill-rule="nonzero" opacity="1" stroke="#f4dfca" stroke-linecap="round" stroke-linejoin="round" stroke-width="1.43064"/>
<path d="M264.243 117.874C265.365 117.874 264.996 117.435 265.209 116.586C266.415 111.76 265.088 110.63 262.311 106.927C256.88 99.6862 252.392 92.8223 245.89 86.321C242.253 82.684 239.529 78.6385 234.943 76.018C230.94 73.7304 227.221 70.7608 222.708 69.2566C211.469 65.5101 198.95 65.1266 187.292 63.4611C181.826 62.6803 176.544 60.04 171.193 59.2755C162.175 57.9871 151.152 58.5447 142.216 59.9194C137.784 60.6013 133.456 62.2621 129.015 62.8172C122.106 63.6807 115.395 64.9193 111.629 71.5104C108.816 76.4329 110.643 84.2307 111.307 89.5407C111.599 91.8786 113.795 96.1556 112.595 98.5559C111.901 99.943 109.756 101.073 108.731 102.098C105.969 104.86 103.964 108.514 103.257 112.401C101.346 122.911 109.457 139.402 115.17 147.495C119.078 153.032 123.47 157.747 127.727 162.95C130.154 165.916 131.859 168.558 135.454 170.355C145.282 175.269 160.143 176.311 170.871 178.405C189.091 181.96 206.641 184.917 225.284 184.2C230.362 184.005 235.162 181.624 240.095 181.624" fill="#f4dfca" fill-rule="nonzero" opacity="1" stroke="#f4dfca" stroke-linecap="round" stroke-linejoin="round" stroke-width="1.43064"/>
<path d="M274.546 142.666C271.914 141.001 269.357 143.347 267.784 144.92C264.919 147.785 262.749 157.716 267.784 159.73C274.515 162.423 275.536 153.739 276.156 148.783C276.416 146.703 276.388 143.831 274.546 142.666Z" fill="#f4dfca" fill-rule="nonzero" opacity="1" stroke="#f4dfca" stroke-linecap="round" stroke-linejoin="round" stroke-width="1.43064"/>
<path d="M175.057 230.886C176.092 230.368 171.512 230.907 170.227 230.564C165.693 229.355 161.343 227.866 156.705 227.022C145.313 224.951 133.858 223.83 122.576 221.227C120.894 220.839 105.714 218.734 108.731 224.768C111.306 229.918 120.555 231.416 125.151 233.14C128.442 234.374 132.005 236.428 135.454 237.003C142.702 238.211 150.359 236.838 157.67 237.325C171.112 238.221 185.531 239.408 195.985 228.954" fill="#f4dfca" fill-rule="nonzero" opacity="1" stroke="#f4dfca" stroke-linecap="round" stroke-linejoin="round" stroke-width="1.43064"/>
<path d="M99.7157 213.178C96.6044 210.066 91.495 209.338 87.1588 209.958C85.4208 210.206 83.0672 213.365 83.9391 215.109C85.578 218.387 87.7854 218.83 90.3785 220.905C94.2914 224.035 97.3627 227.988 103.257 227.988C108.151 227.988 111.434 222.574 110.019 218.329" fill="#f4dfca" fill-rule="nonzero" opacity="1" stroke="#f4dfca" stroke-linecap="round" stroke-linejoin="round" stroke-width="1.43064"/>
<path d="M228.504 214.465C225.209 214.465 217.681 218.167 214.659 219.617C211.499 221.134 209.59 222.01 206.288 223.159C205.282 223.508 191.411 230.07 200.171 231.53C208.483 232.915 216.98 231.505 224.64 228.632C226.465 227.948 233.986 222.519 231.402 221.227" fill="#f4dfca" fill-rule="nonzero" opacity="1" stroke="#f4dfca" stroke-linecap="round" stroke-linejoin="round" stroke-width="1.43064"/>
<path d="M155.739 236.359C149.741 233.361 151.46 246.069 150.587 249.56C150.37 250.427 148.932 251.215 148.333 251.814C144.386 255.761 137.765 254.655 133.523 258.897C131.156 261.264 129.66 264.884 127.727 267.591C122.589 274.784 117.119 281.977 111.629 288.841C109.44 291.576 106.331 293.435 104.223 296.246C99.3614 302.728 93.3234 308.124 86.8369 312.988C85.3319 314.117 83.1529 314.39 81.6853 315.564C79.7155 317.14 74.0459 321.265 77.1777 323.613C80.0042 325.733 90.3545 320.37 93.2763 323.291C95.8156 325.831 86.5013 336.657 96.174 334.238C99.7783 333.337 102.362 328.66 104.223 325.867C107.213 321.382 112.682 318.375 116.458 314.598C117.744 313.312 122.819 308.3 124.829 308.803C125.212 308.898 125.183 309.869 125.151 310.091C124.746 312.93 124.444 316.076 123.542 318.784C122.634 321.505 120.08 323.615 119.356 326.511C118.854 328.519 118.97 330.886 118.712 332.951C118.018 338.506 115.924 343.993 114.848 349.371C112.575 360.739 119.724 363.936 124.507 371.909C130.472 381.851 129.768 395.128 136.742 404.428C138.124 406.27 137.685 409.234 139.318 410.868C140.716 412.265 148.402 416.764 150.265 416.019C152.701 415.045 152.935 409.379 153.163 407.326C153.961 400.139 153.534 392.044 151.553 385.11C150.673 382.031 148.608 377.521 152.519 376.739C154.317 376.379 161.562 375.778 163.144 376.095C165.11 376.488 166.448 377.744 168.617 377.383C170.727 377.031 174.168 373.033 176.345 374.485C178.42 375.868 176.023 381.875 176.023 383.822C176.023 386.418 176.667 388.948 176.667 391.549C176.667 396.681 173.402 412.846 178.92 415.053C181.69 416.161 184.271 412.631 185.682 410.868C190.949 404.284 193.969 398.242 196.629 390.261C199.124 382.775 200.718 375.62 204.678 368.689C207.756 363.303 213.062 361.192 214.015 354.523C214.577 350.591 212.068 346.705 211.44 342.932C210.68 338.372 212.348 333.782 210.474 329.409C208.854 325.629 203.364 317.548 205.644 312.988C206.532 311.212 210.365 311.913 211.44 312.988C213.565 315.114 214.388 318.76 215.947 321.36C218.195 325.106 222.736 328.384 226.25 331.019C227.441 331.912 229.444 331.966 230.758 332.951C231.614 333.593 232.183 334.652 233.334 334.882C241.004 336.416 234.982 322.57 235.265 322.004C235.723 321.088 238.328 321.16 239.129 321.36C241.981 322.073 243.284 325.216 245.89 325.867C249.71 326.822 252.642 321.98 251.364 318.784C250.511 316.651 239.677 312.545 237.197 311.057C232.698 308.357 231.032 303.926 227.538 300.432C224.857 297.751 221.094 296.725 218.201 294.314C215.074 291.708 213.012 288.193 211.44 284.655C209.929 281.257 207.105 278.586 205 275.64C203.495 273.533 202.776 270.752 201.458 268.556C200.808 267.472 199.39 266.81 198.561 265.981C194.618 262.038 192.046 256.227 186.648 254.068C183.595 252.847 179.128 253.31 176.667 250.848C175.899 250.08 173.729 248.436 173.447 247.306C172.573 243.809 175.848 240.517 174.091 237.003C172.421 233.663 169.749 232.018 167.33 229.598C165.74 228.008 162.918 227.537 161.856 225.412" fill="#f4dfca" fill-rule="nonzero" opacity="1" stroke="#f4dfca" stroke-linecap="round" stroke-linejoin="round" stroke-width="1.43064"/>
</g>
<path d="M163.451 58.6118C164.739 58.7631 170.555 58.9077 171.863 59.0484C173.171 59.1891 174.487 59.326 175.811 59.462C177.134 59.5979 178.465 59.7328 179.801 59.8695C181.137 60.0063 182.478 60.1449 183.823 60.2882C185.168 60.4316 186.516 60.5796 187.866 60.7351C189.216 60.8907 190.568 61.0538 191.92 61.2273C193.272 61.4009 194.623 61.5848 195.973 61.7819C197.322 61.9791 198.67 62.1895 200.014 62.416C201.358 62.6424 202.699 62.885 204.033 63.1465C205.368 63.4081 206.697 63.6885 208.019 63.9908C209.341 64.293 210.656 64.6171 211.962 64.9657C213.267 65.3144 214.563 65.6877 215.849 66.0885C217.134 66.4893 218.409 66.9176 219.671 67.3762C220.933 67.8348 222.182 68.3237 223.416 68.8459C224.651 69.368 225.871 69.9233 227.074 70.5146C228.278 71.1059 229.465 71.7333 230.635 72.3995C233.201 73.8616 235.703 75.5295 238.131 77.3808C240.559 79.232 242.913 81.2667 245.181 83.4623C247.449 85.6579 249.632 88.0144 251.718 90.5096C253.804 93.0047 255.793 95.6384 257.675 98.3883C259.556 101.138 261.33 104.004 262.985 106.964C264.64 109.924 266.177 112.977 267.583 116.102C268.989 119.227 270.265 122.423 271.4 125.669C272.536 128.914 273.53 132.208 274.372 135.529C275.214 138.849 275.904 142.196 276.43 145.548C276.957 148.899 277.32 152.255 277.509 155.592C277.698 158.929 277.713 162.248 277.542 165.527C277.371 168.805 277.014 172.043 276.462 175.217C275.909 178.392 275.159 181.503 274.202 184.529C273.245 187.555 272.08 190.496 270.696 193.329C269.313 196.161 267.71 198.886 265.878 201.481C264.046 204.075 261.984 206.539 259.68 208.851C258.073 210.465 256.422 211.983 254.731 213.411C253.04 214.84 251.31 216.179 249.544 217.435C247.777 218.691 245.974 219.863 244.138 220.959C242.302 222.054 240.434 223.073 238.535 224.021C236.637 224.968 234.709 225.845 232.755 226.658C230.801 227.47 228.82 228.218 226.817 228.907C224.814 229.597 222.788 230.228 220.742 230.807C218.697 231.385 216.631 231.912 214.55 232.393C212.469 232.874 210.372 233.309 208.262 233.704C206.152 234.099 204.029 234.455 201.896 234.777C199.764 235.099 197.622 235.388 195.475 235.649C193.327 235.911 191.173 236.145 189.017 236.358C186.86 236.571 184.701 236.763 182.543 236.941C180.384 237.118 178.227 237.281 176.073 237.435C173.919 237.589 171.769 237.734 169.627 237.877C167.485 238.02 165.35 238.161 163.226 238.305" fill="none" opacity="1" stroke="#e0b08a" stroke-linecap="butt" stroke-linejoin="round" stroke-width="6.83964"/>
<path d="M164.312 58.6118C163.024 58.7631 157.207 58.9077 155.9 59.0484C154.592 59.1891 153.276 59.326 151.952 59.462C150.629 59.5979 149.298 59.7328 147.962 59.8695C146.626 60.0063 145.284 60.1449 143.94 60.2882C142.595 60.4316 141.246 60.5796 139.896 60.7351C138.546 60.8907 137.195 61.0538 135.843 61.2273C134.491 61.4009 133.14 61.5848 131.79 61.7819C130.44 61.9791 129.093 62.1895 127.749 62.416C126.405 62.6424 125.064 62.885 123.729 63.1465C122.395 63.4081 121.065 63.6885 119.743 63.9908C118.421 64.293 117.107 64.6171 115.801 64.9657C114.496 65.3144 113.199 65.6877 111.914 66.0885C110.628 66.4893 109.354 66.9176 108.092 67.3762C106.83 67.8348 105.581 68.3237 104.347 68.8459C103.112 69.368 101.892 69.9233 100.688 70.5146C99.4846 71.1059 98.2973 71.7333 97.1281 72.3995C94.5622 73.8616 92.0597 75.5295 89.6315 77.3808C87.2034 79.232 84.8497 81.2667 82.5816 83.4623C80.3134 85.6579 78.1308 88.0144 76.0448 90.5096C73.9588 93.0047 71.9695 95.6384 70.0879 98.3883C68.2063 101.138 66.4324 104.004 64.7774 106.964C63.1224 109.924 61.5862 112.977 60.18 116.102C58.7738 119.227 57.4975 122.423 56.3623 125.669C55.2271 128.914 54.233 132.208 53.391 135.529C52.549 138.849 51.8591 142.196 51.3325 145.548C50.806 148.899 50.4426 152.255 50.2537 155.592C50.0647 158.929 50.0501 162.248 50.221 165.527C50.3919 168.805 50.7483 172.043 51.3012 175.217C51.8541 178.392 52.6036 181.503 53.5608 184.529C54.5179 187.555 55.6828 190.496 57.0664 193.329C58.45 196.161 60.0524 198.886 61.8847 201.481C63.717 204.075 65.7792 206.539 68.0823 208.851C69.6902 210.465 71.3412 211.983 73.0318 213.411C74.7224 214.84 76.4527 216.179 78.2192 217.435C79.9858 218.691 81.7887 219.863 83.6245 220.959C85.4604 222.054 87.3291 223.073 89.2275 224.021C91.1259 224.968 93.0538 225.845 95.008 226.658C96.9621 227.47 98.9425 228.218 100.946 228.907C102.949 229.597 104.975 230.228 107.021 230.807C109.066 231.385 111.131 231.912 113.212 232.393C115.294 232.874 117.391 233.309 119.501 233.704C121.611 234.099 123.734 234.455 125.866 234.777C127.999 235.099 130.14 235.388 132.288 235.649C134.436 235.911 136.59 236.145 138.746 236.358C140.902 236.571 143.062 236.763 145.22 236.941C147.378 237.118 149.536 237.281 151.69 237.435C153.844 237.589 155.993 237.734 158.136 237.877C160.278 238.02 162.413 238.161 164.537 238.305" fill="none" opacity="1" stroke="#e0b08a" stroke-linecap="butt" stroke-linejoin="round" stroke-width="6.83964"/>
<path d="M150.07 238.174C151.38 261.571 142.506 246.278 132.783 258.581C116.878 278.707 108.531 295.148 88.5269 309.759C83.093 313.728 69.5532 319.09 74.1878 323.969C78.9134 328.943 85.2272 321.803 91.4469 323.647C82.5943 356.492 114.705 315.971 121.345 311.378C117.219 327.087 111.746 343.029 112.313 359.262C112.536 365.626 120.474 369.474 123.322 375.044C128.989 386.126 130.015 399.231 136.744 409.698C139.907 414.619 150.13 422.175 152.035 411.458C152.93 406.424 153.346 401.279 153.245 396.167C153.125 390.012 151.999 383.919 151.375 377.795C159.106 379.261 159.386 379.005 164.537 379.115" fill="none" opacity="1" stroke="#e0b08a" stroke-linecap="butt" stroke-linejoin="round" stroke-width="6.83964"/>
<path d="M49.4092 150.175C7.33787 138.552 19.9893 223.679 65.5405 208.495" fill="none" opacity="1" stroke="#e0b08a" stroke-linecap="butt" stroke-linejoin="round" stroke-width="7.25"/>
<path d="M47.9615 164.445C31.9429 165.651 36.5013 182.861 45.8934 190.296" fill="none" opacity="1" stroke="#e0b08a" stroke-linecap="butt" stroke-linejoin="round" stroke-width="4"/>
<path d="M176.382 238.174C175.072 261.571 183.946 246.278 193.669 258.581C209.574 278.707 217.921 295.148 237.925 309.759C243.359 313.728 256.899 319.09 252.264 323.969C247.539 328.943 241.225 321.803 235.005 323.647C243.858 356.492 211.747 315.971 205.107 311.378C209.233 327.087 214.707 343.029 214.139 359.262C213.916 365.626 205.978 369.474 203.13 375.044C197.463 386.126 196.437 399.231 189.709 409.698C186.545 414.619 176.322 422.175 174.417 411.458C173.522 406.424 173.106 401.279 173.207 396.167C173.327 390.012 174.453 383.919 175.077 377.795C167.346 379.261 167.066 379.005 161.915 379.115" fill="none" opacity="1" stroke="#e0b08a" stroke-linecap="butt" stroke-linejoin="round" stroke-width="6.83964"/>
<path d="M277.043 150.175C319.114 138.552 306.463 223.679 260.912 208.495" fill="none" opacity="1" stroke="#e0b08a" stroke-linecap="butt" stroke-linejoin="round" stroke-width="7.25"/>
<path d="M278.49 164.445C294.509 165.651 289.951 182.861 280.559 190.296" fill="none" opacity="1" stroke="#e0b08a" stroke-linecap="butt" stroke-linejoin="round" stroke-width="4"/>
<path d="M122.623 311.796C124.161 306.261 125.98 300.838 127.449 295.288" fill="none" opacity="1" stroke="#e0b08a" stroke-linecap="butt" stroke-linejoin="round" stroke-width="4"/>
<path d="M203.848 311.796C202.31 306.261 200.492 300.838 199.023 295.288" fill="none" opacity="1" stroke="#e0b08a" stroke-linecap="butt" stroke-linejoin="round" stroke-width="4"/>
<g opacity="1">
<path d="M216.341 346.962C215.326 344.795 211.734 347.989 209.355 347.885C206.148 347.746 202.925 346.836 199.657 346.731C193.507 346.532 187.426 346.974 181.299 347.193C176.968 347.347 172.785 346.672 168.483 346.5C159.775 346.152 151.156 348.083 142.39 347.77C134.633 347.493 127.166 347.447 119.414 347.77C118.058 347.826 112.419 347.173 111.562 347.654C110.209 348.416 111.099 356.854 111.447 358.508C112.601 363.99 115.504 366.803 117.451 371.67C119.582 376.999 121.024 383.672 125.648 387.372C129.058 390.1 133.058 388.859 136.963 388.642C140.097 388.468 143.527 388.254 146.662 388.411C148.62 388.509 151.967 388.991 153.82 388.296C155.767 387.566 155.777 384.776 156.822 383.446C157.978 381.975 162.372 382.028 164.096 381.945C165.822 381.863 169.585 381.263 170.561 383.216C172.021 386.135 169.25 388.658 174.602 389.104C181.195 389.653 188.01 388.757 194.577 388.411C196.713 388.299 199.494 389.528 201.504 388.411C204.382 386.812 206.941 377.304 208.316 374.21C209.678 371.147 212.207 368.56 213.627 365.435C216.061 360.081 218.803 352.22 216.341 346.962Z" fill="#ebf3fa" fill-rule="nonzero" stroke="none"/>
<path d="M215.951 344.82C214.234 344.717 212.079 346 210.688 346.409C209.992 346.614 209.237 346.474 208.531 346.399C206.359 346.166 204.22 345.696 202.044 345.491C200.431 345.338 198.804 345.333 197.186 345.334C190.337 345.337 183.466 346.228 176.625 345.759C172.621 345.485 168.657 345.096 164.637 345.242C158.814 345.453 153.047 346.404 147.226 346.627C143.866 346.755 140.492 346.577 137.133 346.514C133.294 346.443 129.456 346.455 125.617 346.559C123.491 346.616 121.335 346.841 119.208 346.773C117.037 346.704 114.811 346.337 112.646 346.555C111.65 346.656 110.747 347.024 110.248 347.936C109.379 349.525 109.727 352.596 109.853 354.325C110.064 357.211 110.45 360.04 111.629 362.711C113.065 365.964 115.159 368.863 116.551 372.141C117.93 375.384 118.85 378.805 120.426 381.969C121.101 383.323 121.882 384.633 122.842 385.806C123.931 387.139 125.251 388.358 126.852 389.038C129.382 390.113 132.176 389.713 134.82 389.422C137.063 389.176 139.324 389.066 141.579 388.98C143.347 388.912 145.122 388.88 146.889 388.99C149.2 389.135 151.545 389.449 153.805 388.776C156.084 388.097 156.262 385.242 157.313 383.534C157.823 382.704 160.728 382.552 161.538 382.496C163.612 382.354 165.921 382.006 167.984 382.295C168.71 382.397 169.536 382.634 169.978 383.272C171.267 385.131 169.632 388.13 172.25 389.065C174.386 389.828 177.222 389.635 179.435 389.609C183.91 389.557 188.362 389.074 192.825 388.793C193.747 388.735 194.622 388.635 195.536 388.725C197.681 388.936 200.129 389.79 202.037 388.34C203.009 387.602 203.664 386.43 204.221 385.371C205.309 383.302 206.11 381.084 206.898 378.89C207.549 377.08 208.101 375.189 208.98 373.471C209.886 371.701 211.12 370.128 212.205 368.47C214.307 365.259 215.789 361.466 216.76 357.761C217.608 354.528 218.037 351.105 217.05 347.896C217.834 347.376 218.225 346.567 217.907 346.031C217.421 345.198 216.731 344.867 215.951 344.82ZM214.158 347.61C214.411 347.575 214.639 347.637 214.777 347.892C215.041 348.338 215.705 348.438 216.4 348.212C217.362 351.347 216.935 354.693 216.107 357.85C214.98 362.146 213.175 366.127 210.671 369.787C209.696 371.212 208.731 372.631 208.007 374.206C206.871 376.677 206.142 379.353 205.157 381.884C204.365 383.916 203.449 386.586 201.687 388.007C200.723 388.784 199.377 388.627 198.244 388.511C197.245 388.408 196.264 388.163 195.257 388.13C193.973 388.087 192.652 388.259 191.372 388.344C186.946 388.638 182.515 389.031 178.074 388.926C176.37 388.885 174.132 389.04 172.526 388.232C171.327 387.628 171.562 386.289 171.529 385.15C171.505 384.32 171.345 383.398 170.873 382.697C170.217 381.724 168.915 381.477 167.831 381.397C165.884 381.254 163.814 381.478 161.864 381.591C160.198 381.688 157.407 381.761 156.33 383.36C155.578 384.475 155.376 385.807 154.7 386.949C154.524 387.247 154.209 387.713 153.836 387.813C151.743 388.376 149.591 388.051 147.464 387.895C145.661 387.763 143.852 387.773 142.045 387.823C139.761 387.886 137.468 387.975 135.194 388.201C132.8 388.439 130.226 388.825 127.944 387.82C126.485 387.177 125.299 386.02 124.321 384.786C123.417 383.643 122.687 382.369 122.059 381.057C120.173 377.115 119.232 372.802 117.317 368.872C115.771 365.698 113.719 362.804 112.779 359.36C111.937 356.273 111.737 352.802 111.99 349.631C112.022 349.226 112.133 348.829 112.214 348.437C112.551 348.426 112.888 348.423 113.224 348.433C113.755 348.448 114.283 348.484 114.813 348.515C116.049 348.586 117.283 348.725 118.521 348.763C119.96 348.808 121.413 348.689 122.852 348.661C126.005 348.601 129.156 348.61 132.309 348.647C136.968 348.703 141.642 349.02 146.301 348.913C152.092 348.78 157.843 347.91 163.633 347.746C167.533 347.635 171.375 348.054 175.258 348.341C182.154 348.852 189.083 348.004 195.989 348.028C197.503 348.034 199.025 348.039 200.533 348.188C202.692 348.401 204.814 348.881 206.97 349.12C209.318 349.381 210.758 349.008 212.913 348.124C213.232 347.992 213.735 347.668 214.158 347.61Z" fill="#ebf3fa" stroke="none"/>
</g>
<path d="M163.366 345.789C136.343 346.039 136.343 346.039 109.32 346.288C108.975 360.496 111.157 364.831 118.887 377.074C119.886 378.656 122.989 388.261 125.978 388.918C135.666 391.047 145.98 390.135 155.727 388.302C157.184 388.028 156.884 382.999 156.89 382.324C163.322 382.777 161.915 382.431 165.776 382.578" fill="none" opacity="1" stroke="#c6e0f6" stroke-linecap="butt" stroke-linejoin="round" stroke-width="7.25"/>
<path d="M163.086 345.789C190.109 346.039 190.109 346.039 217.132 346.288C217.477 360.496 215.295 364.831 207.565 377.074C206.566 378.656 203.463 388.261 200.474 388.918C190.786 391.047 180.472 390.135 170.725 388.302C169.268 388.028 169.568 382.999 169.562 382.324C163.13 382.777 166.01 382.617 161.915 382.64" fill="none" opacity="1" stroke="#c6e0f6" stroke-linecap="butt" stroke-linejoin="round" stroke-width="7.25"/>
</g>
</svg>
