<?xml version="1.0" encoding="UTF-8" standalone="no"?>
<!DOCTYPE svg PUBLIC "-//W3C//DTD SVG 1.1//EN" "http://www.w3.org/Graphics/SVG/1.1/DTD/svg11.dtd">
<!-- Created with Vectornator (http://vectornator.io/) -->
<svg height="100%" stroke-miterlimit="10" style="fill-rule:nonzero;clip-rule:evenodd;stroke-linecap:round;stroke-linejoin:round;" version="1.1" viewBox="42.2604 160.044 241.491 111.729" width="100%" xml:space="preserve" xmlns="http://www.w3.org/2000/svg" xmlns:xlink="http://www.w3.org/1999/xlink">
<defs/>
<g id="hair-b-2">
<path d="M44.7604 164.27C49.0954 175.538 50.4457 180.668 53.0182 192.464C56.3961 207.953 60.8911 229.626 62.4541 245.402C67.911 239.136 74.3843 234.389 79.8412 228.124C94.9821 245.239 88.5088 249.986 103.65 267.102C108.84 252.591 111.244 238.067 118.698 241.798C133.285 249.1 142.924 268.314 159.209 269.25C173.715 270.084 189.939 247.447 202.283 239.782C207.243 252.733 206.811 249.712 211.771 262.664C226.875 248.422 219.108 249.717 234.212 235.476C237.664 244.538 239.822 252.738 243.274 261.801C262.263 212.172 262.263 212.172 281.251 162.544" fill="#ffacca" fill-rule="nonzero" opacity="1" stroke="#fa4485" stroke-linecap="round" stroke-linejoin="round" stroke-width="5"/>
</g>
</svg>
