<?xml version="1.0" encoding="UTF-8" standalone="no"?>
<!DOCTYPE svg PUBLIC "-//W3C//DTD SVG 1.1//EN" "http://www.w3.org/Graphics/SVG/1.1/DTD/svg11.dtd">
<!-- Created with Vectornator (http://vectornator.io/) -->
<svg height="100%" stroke-miterlimit="10" style="fill-rule:nonzero;clip-rule:evenodd;stroke-linecap:round;stroke-linejoin:round;" version="1.1" viewBox="6.15936 1.33426 136.172 112.443" width="100%" xml:space="preserve" xmlns="http://www.w3.org/2000/svg" xmlns:xlink="http://www.w3.org/1999/xlink">
<defs/>
<g id="hair-b-12">
<path d="M41.5629 79.33C39.0511 78.4927 38.5938 67.6897 38.0966 65.0794C35.8246 53.1515 34.6006 22.8014 49.266 16.9353C57.271 13.7333 58.3635 23.9648 62.7463 22.7126C78.1281 18.3178 90.283 6.48433 107.809 11.158C120.014 14.4126 119.575 36.9632 107.424 36.9632" fill="#ffacca" fill-rule="nonzero" opacity="1" stroke="#fa4485" stroke-linecap="round" stroke-linejoin="round" stroke-width="5"/>
<path d="M87.3961 41.585C72.526 31.6716 39.0222 33.0405 25.3865 45.4366C20.3503 50.0149 18.407 63.9239 28.0826 63.9239C29.8708 63.9239 24.34 64.5852 23.0756 65.8497C21.6576 67.2677 20.2751 68.7636 19.2241 70.4715C16.6907 74.5882 15.5068 81.1072 16.1429 85.8776C17.9693 99.5759 44.4805 93.5228 48.8808 84.7221" fill="#ffacca" fill-rule="nonzero" opacity="1" stroke="#fa4485" stroke-linecap="round" stroke-linejoin="round" stroke-width="5"/>
<path d="M103.958 44.6663C100.345 44.6663 106.067 32.865 107.039 31.1859C112.803 21.2295 120.56 15.3704 130.148 9.61738C130.592 9.35122 139.67 3.6265 139.777 3.84009C140.279 4.84404 137.159 7.16176 136.696 7.69161C128.875 16.6291 124.756 25.5467 124.756 37.3484" fill="#ffacca" fill-rule="nonzero" opacity="1" stroke="#fa4485" stroke-linecap="round" stroke-linejoin="round" stroke-width="5"/>
<path d="M52.7324 85.4924C45.4626 87.3099 5.78702 101.799 8.82496 110.913C9.37528 112.563 16.1959 108.087 16.9132 107.831C21.8495 106.068 38.6001 102.039 41.9481 107.061" fill="#ffacca" fill-rule="nonzero" opacity="1" stroke="#fa4485" stroke-linecap="round" stroke-linejoin="round" stroke-width="5"/>
</g>
</svg>
