<?xml version="1.0" encoding="UTF-8" standalone="no"?>
<!DOCTYPE svg PUBLIC "-//W3C//DTD SVG 1.1//EN" "http://www.w3.org/Graphics/SVG/1.1/DTD/svg11.dtd">
<!-- Created with Vectornator (http://vectornator.io/) -->
<svg height="100%" stroke-miterlimit="10" style="fill-rule:nonzero;clip-rule:evenodd;stroke-linecap:round;stroke-linejoin:round;" version="1.1" viewBox="21.2418 144.361 288.602 190.711" width="100%" xml:space="preserve" xmlns="http://www.w3.org/2000/svg" xmlns:xlink="http://www.w3.org/1999/xlink">
<defs/>
<g id="hair-b-14">
<path d="M271.509 147.452C282.845 139.878 302.249 207.463 302.929 217.67C304.355 239.054 271.117 238.543 296.418 259.244C299.527 261.789 304.785 262.106 307.323 263.799C307.934 264.206 294.49 271.23 292.726 271.482C284.69 272.63 273.981 271.176 268.14 265.335C267.108 264.303 265.451 261.878 265.451 261.878C265.451 261.878 266.041 264.013 266.604 264.951C269.969 270.561 277.206 277.111 273.902 284.543C271.194 290.636 259.061 290.454 254.695 296.067C242.539 311.696 277.952 309.44 258.537 312.97C256.822 313.281 255.746 313.608 253.927 313.738C252.266 313.856 250.598 313.738 248.933 313.738C246.008 313.738 242.593 314.218 239.713 313.738C224.492 311.201 230.085 282.417 227.421 281.085C224.994 279.872 225.59 286.194 224.732 288.768C222.937 294.154 223.645 291.831 221.274 296.835C217.022 305.813 218.253 310.063 214.936 319.183C214.337 320.831 203.066 332.991 200.915 332.561C178.452 328.069 163.268 261.479 163.268 244.591C163.268 238.35 158.288 222.682 162.884 218.085" fill="#ffacca" fill-rule="nonzero" opacity="1" stroke="#fa4485" stroke-linecap="round" stroke-linejoin="round" stroke-width="5"/>
<path d="M53.0163 157.344C52.5834 168.27 26.582 206.668 26.688 217.67C26.794 228.672 44.6323 233.22 42.0441 243.844C40.9679 248.262 39.215 252.112 36.3198 255.462C33.4246 258.811 29.3871 261.66 23.7418 264.076C26.3883 268.111 30.3662 270.375 34.7646 271.567C39.163 272.76 43.9819 272.88 48.3105 272.63C52.6648 272.377 56.8051 268.683 60.8394 264.58C64.8738 260.476 68.8021 255.963 72.7327 254.073C71.3053 256.646 70.6316 255.724 68.5455 259.244C66.4593 262.765 62.9606 265.496 62.9606 272.147C62.9606 274.068 65.4036 280.261 67.8467 282.342C70.2897 284.424 72.7327 287.626 72.7327 294.03C72.7327 298.381 68.6029 301.858 63.8452 304.565C59.0875 307.272 53.7019 309.21 51.1901 310.482C56.2803 310.092 60.8325 310.754 65.2065 310.856C69.5805 310.958 73.7761 310.501 78.1529 307.873C82.1768 305.457 85.1372 303.63 87.6762 301.389C90.2151 299.148 92.3326 296.494 94.6705 292.425C96.9169 297.438 98.7205 299.698 100.747 301.831C102.774 303.965 105.023 305.972 108.161 310.482C110.132 313.315 112.515 316.502 115.086 319.512C117.657 322.522 120.414 325.355 123.135 327.478C130.115 315.139 138.719 305.311 146.678 295.199C154.637 285.087 161.952 274.691 166.353 261.214C168.44 254.826 167.669 248.15 166.185 241.402C164.701 234.654 162.502 227.834 161.732 221.159" fill="#ffacca" fill-rule="nonzero" opacity="1" stroke="#fa4485" stroke-linecap="round" stroke-linejoin="round" stroke-width="5"/>
</g>
</svg>
