<?xml version="1.0" encoding="UTF-8" standalone="no"?>
<!DOCTYPE svg PUBLIC "-//W3C//DTD SVG 1.1//EN" "http://www.w3.org/Graphics/SVG/1.1/DTD/svg11.dtd">
<!-- Created with Vectornator (http://vectornator.io/) -->
<svg height="100%" stroke-miterlimit="10" style="fill-rule:nonzero;clip-rule:evenodd;stroke-linecap:round;stroke-linejoin:round;" version="1.1" viewBox="8.82454 30.5884 95.7113 353.643" width="100%" xml:space="preserve" xmlns="http://www.w3.org/2000/svg" xmlns:xlink="http://www.w3.org/1999/xlink">
<defs/>
<g id="hair-b-10">
<path d="M95.2744 43.6829C85.5864 38.4282 81.2052 34.7372 70.3663 33.3662C34.0901 28.7779 20.9391 82.1797 19.3614 108.513C16.1164 162.675 14.1759 216.91 12.1885 271.134C11.0731 301.566 7.51962 342.883 31.122 367.134C39.4995 375.742 54.2338 378.427 64.5427 381.732C56.76 367.901 52.0527 352.376 48.4758 336.914C66.584 346.97 81.125 348.961 102.036 344.64C96.6784 338.705 90.3342 333.529 85.9634 326.834C68.3549 299.86 63.5818 253.344 62.2935 222.103C60.4083 176.388 73.4267 142.656 97.1951 104.762" fill="#ffacca" fill-rule="nonzero" opacity="1" stroke="#fa4485" stroke-linecap="round" stroke-linejoin="round" stroke-width="5"/>
</g>
</svg>
