<?xml version="1.0" encoding="UTF-8" standalone="no"?>
<!DOCTYPE svg PUBLIC "-//W3C//DTD SVG 1.1//EN" "http://www.w3.org/Graphics/SVG/1.1/DTD/svg11.dtd">
<!-- Created with Vectornator (http://vectornator.io/) -->
<svg height="100%" stroke-miterlimit="10" style="fill-rule:nonzero;clip-rule:evenodd;stroke-linecap:round;stroke-linejoin:round;" version="1.1" viewBox="24.0096 159.659 280.643 198.282" width="100%" xml:space="preserve" xmlns="http://www.w3.org/2000/svg" xmlns:xlink="http://www.w3.org/1999/xlink">
<defs/>
<g id="hair-b-5">
<path d="M35.0325 162.159C35.0325 217.67 29.7853 245.909 26.688 295.665C25.7504 310.727 28.6929 335.346 31.194 350.23C45.4328 352.28 55.4021 355.969 69.7756 355.377C71.5764 319.652 71.5764 319.652 73.3772 283.926C76.9478 319.452 76.9478 319.452 80.5183 354.977C108.432 355.002 130.957 354.402 159.214 354.921C181.545 355.33 205.643 354.988 227.63 354.017C234.858 322.117 234.858 322.117 242.085 290.218C240.476 322.252 240.476 322.252 238.867 354.286C257.368 353.884 275.905 353.138 294.288 351.01C295.707 345.969 297.534 341.904 298.108 338.039C300.91 319.183 303.899 303.664 300.91 281.221C295.887 243.51 289.076 213.435 289.076 162.159" fill="#ffacca" fill-rule="nonzero" opacity="1" stroke="#fa4485" stroke-linecap="round" stroke-linejoin="round" stroke-width="5"/>
</g>
</svg>
