<?xml version="1.0" encoding="UTF-8" standalone="no"?>
<!DOCTYPE svg PUBLIC "-//W3C//DTD SVG 1.1//EN" "http://www.w3.org/Graphics/SVG/1.1/DTD/svg11.dtd">
<!-- Created with Vectornator (http://vectornator.io/) -->
<svg height="100%" stroke-miterlimit="10" style="fill-rule:nonzero;clip-rule:evenodd;stroke-linecap:round;stroke-linejoin:round;" version="1.1" viewBox="24.1746 94.6415 278.655 171.2" width="100%" xml:space="preserve" xmlns="http://www.w3.org/2000/svg" xmlns:xlink="http://www.w3.org/1999/xlink">
<defs/>
<g id="hair-b-6">
<path d="M44.6411 111.689C38.8917 130.646 29.1505 148.827 27.3929 168.558C24.7389 198.352 30.1914 228.316 31.5907 258.195C50.8815 260.768 50.8815 260.768 70.1723 263.342C71.9731 227.617 71.9731 227.617 73.7739 191.891C77.3445 227.417 77.3445 227.417 80.915 262.942C154.471 262.462 154.471 262.462 228.027 261.982C235.254 230.082 235.254 230.082 242.482 198.183C240.872 230.217 240.872 230.217 239.263 262.251C266.974 260.613 266.974 260.613 294.685 258.975C294.912 218.349 306.809 176.078 295.367 137.096C289.691 117.759 289.119 109.63 273.302 97.1415" fill="#ffacca" fill-rule="nonzero" opacity="1" stroke="#fa4485" stroke-linecap="round" stroke-linejoin="round" stroke-width="5"/>
</g>
</svg>
