<?xml version="1.0" encoding="UTF-8" standalone="no"?>
<!DOCTYPE svg PUBLIC "-//W3C//DTD SVG 1.1//EN" "http://www.w3.org/Graphics/SVG/1.1/DTD/svg11.dtd">
<!-- Created with Vectornator (http://vectornator.io/) -->
<svg height="100%" stroke-miterlimit="10" style="fill-rule:nonzero;clip-rule:evenodd;stroke-linecap:round;stroke-linejoin:round;" version="1.1" viewBox="16.2774 177.405 289.152 218.918" width="100%" xml:space="preserve" xmlns="http://www.w3.org/2000/svg" xmlns:xlink="http://www.w3.org/1999/xlink">
<defs/>
<g id="hair-b-9">
<path d="M73.378 198.878C73.378 196.976 62.7987 210.462 61.4695 212.323C55.8938 220.129 50.2083 227.635 45.7195 236.14C30.8985 264.222 19.8647 293.162 18.8293 325.262C18.2677 342.67 22.2721 358.81 30.7378 374.049C34.0757 380.057 39.1166 384.856 43.7988 389.799C45.3139 391.398 51.1473 394.625 49.1768 393.64C38.9611 388.532 45.2773 340.781 46.872 331.793C53.005 297.225 77.1422 267.185 79.9085 231.915C81.2488 214.827 77.0389 199.692 72.9939 183.512" fill="#ffacca" fill-rule="nonzero" opacity="1" stroke="#fa4485" stroke-linecap="round" stroke-linejoin="round" stroke-width="5"/>
<path d="M248.329 195.271C248.329 193.369 258.908 206.855 260.237 208.716C265.813 216.522 271.498 224.028 275.987 232.533C290.808 260.615 301.842 289.556 302.877 321.655C303.439 339.063 299.435 355.204 290.969 370.442C287.631 376.45 282.59 381.25 277.908 386.192C276.393 387.791 270.559 391.019 272.53 390.033C282.746 384.926 276.429 337.174 274.835 328.186C268.702 293.618 244.565 263.578 241.798 228.308C240.458 211.22 244.668 196.085 248.713 179.905" fill="#ffacca" fill-rule="nonzero" opacity="1" stroke="#fa4485" stroke-linecap="round" stroke-linejoin="round" stroke-width="5"/>
</g>
</svg>
