<?xml version="1.0" encoding="UTF-8" standalone="no"?>
<!DOCTYPE svg PUBLIC "-//W3C//DTD SVG 1.1//EN" "http://www.w3.org/Graphics/SVG/1.1/DTD/svg11.dtd">
<!-- Created with Vectornator (http://vectornator.io/) -->
<svg height="100%" stroke-miterlimit="10" style="fill-rule:nonzero;clip-rule:evenodd;stroke-linecap:round;stroke-linejoin:round;" version="1.1" viewBox="8.82454 27.1497 309.971 357.082" width="100%" xml:space="preserve" xmlns="http://www.w3.org/2000/svg" xmlns:xlink="http://www.w3.org/1999/xlink">
<defs/>
<g id="hair-b-11">
<path d="M232.346 40.2442C242.034 34.9895 246.415 31.2984 257.254 29.9275C293.53 25.3391 306.681 78.7409 308.259 105.074C311.504 159.237 313.444 213.472 315.432 267.695C316.547 298.128 320.1 339.444 296.498 363.695C288.121 372.303 273.386 374.988 263.077 378.293C270.86 364.462 275.567 348.937 279.144 333.475C261.036 343.531 246.495 345.523 225.584 341.202C230.942 335.266 237.286 330.09 241.657 323.395C259.265 296.421 264.038 249.905 265.327 218.664C267.212 172.949 254.193 139.218 230.425 101.323" fill="#ffacca" fill-rule="nonzero" opacity="1" stroke="#fa4485" stroke-linecap="round" stroke-linejoin="round" stroke-width="5"/>
<path d="M95.2744 43.6829C85.5864 38.4282 81.2052 34.7372 70.3663 33.3662C34.0901 28.7779 20.9391 82.1797 19.3614 108.513C16.1164 162.675 14.1759 216.91 12.1885 271.134C11.0731 301.566 7.51962 342.883 31.122 367.134C39.4995 375.742 54.2338 378.427 64.5427 381.732C56.76 367.901 52.0527 352.376 48.4758 336.914C66.584 346.97 81.125 348.961 102.036 344.64C96.6784 338.705 90.3342 333.529 85.9634 326.834C68.3549 299.86 63.5818 253.344 62.2935 222.103C60.4083 176.388 73.4267 142.656 97.1951 104.762" fill="#ffacca" fill-rule="nonzero" opacity="1" stroke="#fa4485" stroke-linecap="round" stroke-linejoin="round" stroke-width="5"/>
</g>
</svg>
