<?xml version="1.0" encoding="UTF-8" standalone="no"?>
<!DOCTYPE svg PUBLIC "-//W3C//DTD SVG 1.1//EN" "http://www.w3.org/Graphics/SVG/1.1/DTD/svg11.dtd">
<!-- Created with Vectornator (http://vectornator.io/) -->
<svg height="100%" stroke-miterlimit="10" style="fill-rule:nonzero;clip-rule:evenodd;stroke-linecap:round;stroke-linejoin:round;" version="1.1" viewBox="39.6202 200.988 244.93 108.335" width="100%" xml:space="preserve" xmlns="http://www.w3.org/2000/svg" xmlns:xlink="http://www.w3.org/1999/xlink">
<defs/>
<g id="hair-b-7">
<path d="M80.2927 205.793C80.2927 205.583 63.6071 216.558 61.0854 219.238C51.5281 229.392 43.0719 239.621 42.2622 254.195C42.1043 257.037 42.0437 260.19 42.2622 263.03C42.4995 266.115 43.4146 269.167 43.4146 272.25C43.4146 277.758 58.0785 255.381 60.3171 256.5C61.9323 257.308 57.4326 267.435 57.2439 268.024C56.6846 269.772 48.2247 304.242 48.4085 304.518C49.5123 306.174 57.7111 297.521 58.3963 296.835C67.9578 287.274 75.8163 277.834 83.75 267.256C84.5647 266.17 83.5539 290.252 86.8232 288.384C100.269 280.701 106.03 253.402 106.03 239.598C106.03 234.435 105.684 221.927 98.7317 221.927" fill="#ffacca" fill-rule="nonzero" opacity="1" stroke="#fa4485" stroke-linecap="round" stroke-linejoin="round" stroke-width="5"/>
<path d="M245.86 214.244C258.003 220.315 272.113 233.545 276.976 246.512C278.905 251.658 279.629 257.188 280.049 262.646C280.22 264.876 283.167 270.758 281.585 269.177C278.885 266.477 265.309 251.421 261.61 254.195C260.79 254.81 261.405 255.885 261.61 256.5C266.058 269.845 267.602 283.63 266.604 297.604C266.563 298.169 266.415 306.823 265.067 306.823C264.035 306.823 264.15 304.96 263.53 304.134C255.857 293.902 243.497 288.201 235.872 278.396C235.046 277.334 231.122 265.335 230.494 265.335C227.555 265.335 224.11 281.78 221.659 283.006C218.612 284.53 214.804 261.208 214.744 260.341C213.529 242.728 216.279 216.551 229.341 203.488" fill="#ffacca" fill-rule="nonzero" opacity="1" stroke="#fa4485" stroke-linecap="round" stroke-linejoin="round" stroke-width="5"/>
</g>
</svg>
