<?xml version="1.0" encoding="UTF-8" standalone="no"?>
<!DOCTYPE svg PUBLIC "-//W3C//DTD SVG 1.1//EN" "http://www.w3.org/Graphics/SVG/1.1/DTD/svg11.dtd">
<!-- Created with Vectornator (http://vectornator.io/) -->
<svg height="100%" stroke-miterlimit="10" style="fill-rule:nonzero;clip-rule:evenodd;stroke-linecap:round;stroke-linejoin:round;" version="1.1" viewBox="27.5855 173.227 266.294 152.533" width="100%" xml:space="preserve" xmlns="http://www.w3.org/2000/svg" xmlns:xlink="http://www.w3.org/1999/xlink">
<defs/>
<g id="hair-b-1">
<path d="M45.0723 175.727C45.8562 187.485 43.6325 223.709 38.1608 234.653C36.1678 238.638 31.1862 243.073 30.1403 247.256C29.4499 250.018 35.4624 245.091 37.7789 243.437C39.8145 241.983 59.895 226.352 60.3126 227.396C62.3598 232.514 59.9919 241.422 60.3126 246.874C61.2015 261.985 67.472 274.968 77.4994 285.831C78.1968 286.586 86.5267 297.931 87.0476 297.671C87.3892 297.5 87.0476 296.907 87.0476 296.525C87.0476 290.27 82.9403 264.969 89.3392 261.769C91.6866 260.596 90.3519 266.941 91.2488 269.408C92.7033 273.408 95.236 277.831 97.7416 281.248C100.792 285.407 135.435 308.188 139.754 305.309C140.063 305.103 139.145 302.182 138.99 301.872C135.688 295.268 138.706 284.009 140.899 277.428C141.619 275.269 141.119 278.169 141.281 278.574C143.95 285.245 148.032 291.408 150.83 298.053C152.896 302.96 156.2 307.711 157.322 312.948C157.461 313.596 158.229 323.26 158.85 323.26C160.302 323.26 159.291 320.328 159.996 319.059C162.421 314.693 164.927 310.512 168.398 306.837C172.596 302.392 178.521 300.518 182.148 295.379C183.305 293.74 190.03 277.428 192.078 277.428C192.473 277.428 193.817 283.07 193.988 283.539C194.742 285.615 200.593 314.475 193.606 314.475C192.79 314.475 194.514 313.096 195.133 312.566C197.24 310.76 199.251 308.689 201.626 307.219C206.569 304.159 211.099 301.722 215.375 297.671C225.001 288.552 232.355 280.609 238.673 269.026C239.28 267.913 242.14 260.242 243.638 260.242C249.06 260.242 249.594 283.644 250.131 286.595C250.473 288.474 250.513 290.032 250.513 291.942C250.513 293.215 250.11 296.969 250.513 295.761C255.466 280.901 264.726 270.961 266.554 254.513C266.921 251.211 266.38 233.68 268.464 231.597C268.766 231.295 270.281 233.392 270.373 233.507C272.338 235.963 275.395 237.109 278.012 238.854C279.287 239.704 291.379 246.3 291.379 247.256C291.379 247.35 285.909 241.631 285.65 241.145C284.536 239.056 283.513 236.832 282.595 234.653C279.122 226.404 272.66 189.299 276.915 180.79" fill="#ffacca" fill-rule="nonzero" opacity="1" stroke="#fa4485" stroke-linecap="round" stroke-linejoin="round" stroke-width="5"/>
</g>
</svg>
