<?xml version="1.0" encoding="UTF-8" standalone="no"?>
<!DOCTYPE svg PUBLIC "-//W3C//DTD SVG 1.1//EN" "http://www.w3.org/Graphics/SVG/1.1/DTD/svg11.dtd">
<!-- Created with Vectornator (http://vectornator.io/) -->
<svg height="100%" stroke-miterlimit="10" style="fill-rule:nonzero;clip-rule:evenodd;stroke-linecap:round;stroke-linejoin:round;" version="1.1" viewBox="13.3464 138.466 302.836 129.973" width="100%" xml:space="preserve" xmlns="http://www.w3.org/2000/svg" xmlns:xlink="http://www.w3.org/1999/xlink">
<defs/>
<g id="hair-b-4">
<path d="M51.8897 177.105C51.8287 177.105 57.0697 210.496 54.6861 219.077C54.1877 220.871 45.0522 233.47 45.192 233.75C45.7225 234.811 47.5337 233.303 48.6444 232.887C51.5504 231.797 67.4561 218.469 70.6536 221.666C76.2854 227.298 73.0981 238.141 82.737 243.244C90.3534 247.276 107.767 249.717 107.767 249.717C107.767 249.717 101.431 238.717 105.178 235.907C107.723 233.999 125.906 247.293 127.187 249.286C129.75 253.273 129.748 258.493 130.208 263.095C130.294 263.954 129.597 265.074 130.208 265.685C131.664 267.141 131.934 261.944 132.797 260.074C134.14 257.165 137.168 244.7 140.133 244.107C141.297 243.874 171.297 259.504 172.5 260.506C173.75 261.548 175.224 265.414 175.952 263.958C177.756 260.35 177.759 256.95 180.699 253.17C195.693 233.893 190.598 249.898 198.393 259.643C198.54 259.826 203.095 265.06 203.572 264.821C206.788 263.213 204.502 257.391 206.593 254.464C210.343 249.213 223.875 237.198 230.328 235.907C237.689 234.435 231.292 246.528 229.896 248.854C228.786 250.704 222.671 252.056 224.718 252.738C235.575 256.357 258.965 232.111 262.694 223.824C264.178 220.528 265.352 216.666 265.715 213.035C265.888 211.312 265.284 206.124 265.284 207.857C265.284 217.515 284.193 225.355 285.998 219.94C286.718 217.78 274.197 189.069 285.299 170.45" fill="#ffacca" fill-rule="nonzero" opacity="1" stroke="#fa4485" stroke-linecap="round" stroke-linejoin="round" stroke-width="5"/>
<path d="M42.1711 156.933C40.8649 156.28 39.4448 166.07 39.1503 167.291C37.616 173.647 35.8551 180.069 32.677 185.847C29.1145 192.325 22.5221 196.117 18.4358 202.246C17.8604 203.109 15.8464 203.973 15.8464 203.973C15.8464 203.973 18.2129 203.997 19.2989 204.404C25.5644 206.754 30.9983 208.808 37.8556 209.151C54.0129 209.959 63.1278 202.625 69.7905 189.3" fill="#ffacca" fill-rule="nonzero" opacity="1" stroke="#fa4485" stroke-linecap="round" stroke-linejoin="round" stroke-width="5"/>
<path d="M270.031 189.731C263.193 189.731 274.331 199.261 275.641 200.089C279.726 202.669 310.841 206.411 313.617 202.246C314.517 200.898 305.763 190.752 305.418 190.163C299.107 179.398 294.394 167.425 290.314 155.639C289.596 153.565 285.975 140.966 289.451 140.966" fill="#ffacca" fill-rule="nonzero" opacity="1" stroke="#fa4485" stroke-linecap="round" stroke-linejoin="round" stroke-width="5"/>
</g>
</svg>
