<?xml version="1.0" encoding="UTF-8" standalone="no"?>
<!DOCTYPE svg PUBLIC "-//W3C//DTD SVG 1.1//EN" "http://www.w3.org/Graphics/SVG/1.1/DTD/svg11.dtd">
<!-- Created with Vectornator (http://vectornator.io/) -->
<svg height="100%" stroke-miterlimit="10" style="fill-rule:nonzero;clip-rule:evenodd;stroke-linecap:round;stroke-linejoin:round;" version="1.1" viewBox="14.6411 171.695 301.242 115.909" width="100%" xml:space="preserve" xmlns="http://www.w3.org/2000/svg" xmlns:xlink="http://www.w3.org/1999/xlink">
<defs/>
<g id="hair-b-3">
<path d="M64.6118 178.079C60.4402 184.265 38.8869 201.79 33.5401 206.993C29.0135 211.399 21.7295 212.147 17.1411 216.488C20.9524 221.743 20.4167 222.477 28.3018 224.555C41.8632 228.13 55.9426 229.664 69.3589 233.75C71.7474 234.477 69.371 240.852 69.1087 241.315C65.7212 247.297 61.7953 252.958 58.1386 258.78C75.2376 255.19 91.9516 249.67 108.199 243.244C114.601 255.608 90.505 277.768 97.4098 274.747C112.219 268.931 129.367 261.388 141.428 251.012C159.338 268.058 159.338 268.058 177.247 285.104C180.803 273.174 184.085 260.589 191.488 250.58C198.266 256.189 234.597 285.166 242.994 274.747C234.098 263.865 233.408 256.843 236.162 243.172C250.765 246.868 265.862 249.931 280.917 249.423C279.283 238.677 269.196 233.917 269.168 222.529C287.889 221.389 298.542 222.418 313.383 210.486C297.94 212.675 279.549 184.79 267.441 174.195" fill="#ffacca" fill-rule="nonzero" opacity="1" stroke="#fa4485" stroke-linecap="round" stroke-linejoin="round" stroke-width="5"/>
</g>
</svg>
