<?xml version="1.0" encoding="UTF-8" standalone="no"?>
<!DOCTYPE svg PUBLIC "-//W3C//DTD SVG 1.1//EN" "http://www.w3.org/Graphics/SVG/1.1/DTD/svg11.dtd">
<!-- Created with Vectornator (http://vectornator.io/) -->
<svg height="100%" stroke-miterlimit="10" style="fill-rule:nonzero;clip-rule:evenodd;stroke-linecap:round;stroke-linejoin:round;" version="1.1" viewBox="3.10242 55.192 320.575 365.137" width="100%" xml:space="preserve" xmlns="http://www.w3.org/2000/svg" xmlns:xlink="http://www.w3.org/1999/xlink">
<defs/>
<g id="m-elf">
<g opacity="1">
<path d="M165.5 58.25C131.949 58.4992 95.2284 67.9652 73.9688 90.9375C61.2968 104.63 60.914 110.729 55.75 128.656C52.942 138.405 49.259 138.282 50.0938 148.469C50.5065 153.505 37.7534 144.014 25.4062 142.906C15.9486 142.058 12.4388 136.989 11.1875 142.812C9.4263 151.008 15.1697 163.138 16.8125 173.031C26.0349 184.727 29.037 190.48 37.75 195.562C50.3872 202.934 52.1509 202.878 66.125 208.5C75.104 212.112 87.0916 228.167 97.5625 230.75C114.93 235.034 132.563 232.855 150.062 236.562L151.812 238.031C150.635 241.262 151.157 247.308 150.594 249.562C150.377 250.429 148.942 251.214 148.344 251.812C144.397 255.759 137.773 254.664 133.531 258.906C131.164 261.273 129.652 264.887 127.719 267.594C122.58 274.788 117.115 281.981 111.625 288.844C109.437 291.579 106.327 293.44 104.219 296.25C99.3569 302.733 93.3303 308.135 86.8438 313C85.3388 314.129 83.1551 314.388 81.6875 315.562C79.7177 317.138 74.0557 321.276 77.1875 323.625C80.014 325.745 90.3595 320.359 93.2812 323.281C95.8206 325.821 86.5148 336.668 96.1875 334.25C99.7918 333.349 102.357 328.667 104.219 325.875C107.209 321.39 112.692 318.37 116.469 314.594C117.755 313.308 122.833 308.31 124.844 308.812C125.226 308.908 125.188 309.872 125.156 310.094C124.751 312.933 124.434 316.073 123.531 318.781C122.624 321.502 120.068 323.604 119.344 326.5C118.842 328.508 118.977 330.872 118.719 332.938C118.024 338.493 115.919 343.996 114.844 349.375C112.57 360.743 119.716 363.933 124.5 371.906C130.465 381.848 129.775 395.138 136.75 404.438C138.131 406.279 137.679 409.242 139.312 410.875C140.71 412.273 148.387 416.776 150.25 416.031C152.686 415.057 152.928 409.366 153.156 407.312C153.955 400.126 153.544 392.059 151.562 385.125C150.683 382.046 148.621 377.532 152.531 376.75C154.33 376.39 161.574 375.777 163.156 376.094C165.122 376.487 166.456 377.736 168.625 377.375C170.734 377.023 174.167 373.049 176.344 374.5C178.419 375.883 176.031 381.866 176.031 383.812C176.031 386.409 176.656 388.961 176.656 391.562C176.656 396.694 173.388 412.855 178.906 415.062C181.676 416.17 184.276 412.639 185.688 410.875C190.954 404.292 193.965 398.231 196.625 390.25C199.12 382.764 200.727 375.618 204.688 368.688C207.765 363.301 213.047 361.201 214 354.531C214.562 350.599 212.066 346.711 211.438 342.938C210.678 338.378 212.343 333.779 210.469 329.406C208.849 325.626 203.377 317.559 205.656 313C206.544 311.224 210.362 311.925 211.438 313C213.563 315.126 214.378 318.776 215.938 321.375C218.185 325.121 222.736 328.396 226.25 331.031C227.441 331.924 229.437 331.952 230.75 332.938C231.606 333.58 232.194 334.645 233.344 334.875C241.014 336.409 234.967 322.566 235.25 322C235.708 321.084 238.324 321.175 239.125 321.375C241.977 322.088 243.268 325.223 245.875 325.875C249.694 326.83 252.654 321.977 251.375 318.781C250.522 316.648 239.668 312.551 237.188 311.062C232.689 308.363 231.025 303.932 227.531 300.438C224.85 297.757 221.081 296.723 218.188 294.312C215.06 291.706 213.01 288.194 211.438 284.656C209.927 281.258 207.104 278.571 205 275.625C203.495 273.518 202.786 270.758 201.469 268.562C200.818 267.478 199.392 266.798 198.562 265.969C194.62 262.026 192.054 256.222 186.656 254.062C183.604 252.842 179.118 253.305 176.656 250.844C175.889 250.076 173.72 248.442 173.438 247.312C172.619 244.037 175.303 240.923 174.219 237.656C183.661 236.862 192.719 235.258 202.875 233.844C223.322 230.997 241.055 227.652 260.656 208.5C263.603 205.621 264.915 205.836 271.312 205.125C278.053 204.376 285.473 198.214 290 195.531C301.016 189.004 312.059 148.058 320.062 138.062C314.175 137.053 302.354 143.061 295.719 143.281C290.51 143.454 280.795 151.458 277.656 148.469C271.82 142.91 274.174 142.844 272.844 136.188C271.09 127.409 266.515 119.429 263.656 110.406C255.876 85.8524 221.89 65.452 197.312 60.9062C187.524 59.0958 176.684 58.1669 165.5 58.25Z" fill="#f4dfca" fill-rule="nonzero" stroke="none"/>
<path d="M165.716 57.7496C159.673 57.8276 153.635 58.1346 147.625 58.7808C120.475 61.6999 91.6234 70.8634 72.7698 91.6012C69.6213 95.0644 66.6359 98.7148 64.2509 102.754C59.3156 111.113 57.7698 120.754 54.8464 129.88C54.266 131.692 53.5327 133.447 52.683 135.149C51.9347 136.648 51.069 138.099 50.4636 139.666C49.6408 141.795 49.3676 144.034 49.3988 146.302C49.4096 147.09 49.4734 147.88 49.5221 148.667C49.5354 148.882 49.5701 149.209 49.4212 149.396C49.3201 149.522 48.8475 149.462 48.7262 149.452C48.1308 149.4 47.547 149.233 46.9776 149.059C44.3027 148.241 41.7347 147.053 39.1312 146.044C35.7725 144.743 32.3427 143.557 28.7963 142.883C27.3786 142.614 25.9538 142.496 24.5256 142.311C22.8944 142.101 21.2918 141.739 19.7169 141.269C18.7263 140.973 17.7482 140.624 16.7689 140.294C15.278 139.791 13.3782 139.055 11.9826 140.193C10.9127 141.065 10.6225 142.703 10.4469 143.982C10.1245 146.329 10.3375 148.728 10.716 151.055C11.5899 156.427 13.3904 161.617 14.8073 166.86C15.1562 168.15 15.4987 169.442 15.7825 170.749C15.8726 171.164 15.9358 171.588 16.0179 172.005C16.1052 172.447 16.0833 172.924 16.2869 173.327C16.5681 173.883 17.059 174.315 17.4414 174.807C17.7959 175.263 18.1426 175.717 18.4951 176.174C19.7559 177.811 21.0018 179.46 22.2502 181.106C25.132 184.906 28.0272 188.768 31.6434 191.912C34.2788 194.203 37.2598 195.949 40.2857 197.662C43.1894 199.307 46.137 200.884 49.1746 202.269C53.2914 204.146 57.5635 205.686 61.7737 207.336C64.1045 208.249 66.4741 209.072 68.6112 210.396C71.5614 212.224 74.214 214.529 76.8164 216.808C80.3963 219.942 83.8837 223.183 87.7004 226.033C90.2342 227.924 92.8943 229.734 95.9055 230.774C97.4028 231.291 98.9857 231.582 100.535 231.895C104.153 232.626 107.813 233.12 111.486 233.476C118.414 234.145 125.373 234.275 132.313 234.765C134.505 234.919 136.692 235.146 138.881 235.336C142.185 235.624 145.438 236.264 148.712 236.782C149.046 236.835 149.414 236.796 149.721 236.939C150.045 237.09 150.256 237.402 150.528 237.634C150.539 237.644 150.561 237.647 150.573 237.657C150.717 237.777 151.283 238.256 151.268 238.295C150.812 239.476 150.72 240.83 150.617 242.073C150.498 243.52 150.471 244.972 150.416 246.422C150.383 247.289 150.361 248.174 150.236 249.034C150.194 249.329 150.164 249.653 149.99 249.908C149.602 250.476 148.951 250.849 148.432 251.276C147.634 251.93 146.949 252.602 146.033 253.103C143.639 254.411 140.879 254.764 138.343 255.692C135.886 256.592 133.664 257.994 132.044 260.075C130.577 261.958 129.52 264.103 128.255 266.117C127.177 267.833 125.94 269.457 124.747 271.093C121.689 275.289 118.554 279.429 115.365 283.524C113.842 285.479 112.371 287.513 110.724 289.364C108.98 291.325 106.798 292.831 105.019 294.756C104.152 295.694 103.415 296.743 102.62 297.738C100.96 299.814 99.1689 301.782 97.2843 303.656C94.9193 306.008 92.3968 308.215 89.7966 310.303C88.6599 311.216 87.5255 312.22 86.2881 312.993C85.0589 313.761 83.5895 314.04 82.3313 314.753C81.3047 315.335 80.3397 316.189 79.4505 316.961C78.8834 317.454 78.4158 317.854 77.8924 318.396C76.8547 319.471 75.292 321.249 75.9757 322.891C76.8046 324.882 79.4344 324.571 81.1207 324.315C83.5449 323.945 85.9168 323.19 88.3506 322.891C88.8094 322.835 89.2675 322.845 89.7293 322.824C90.177 322.803 90.6315 322.688 91.0744 322.756C91.4046 322.807 91.6884 323.035 91.9935 323.171C92.3174 323.316 92.6528 323.447 92.9687 323.608C93.1899 323.721 93.2729 324.262 93.2938 324.471C93.3826 325.359 93.0942 326.294 92.8342 327.128C92.6944 327.577 92.5064 328.097 92.3522 328.54C91.7097 330.388 89.8492 334.585 93.1929 334.93C93.6244 334.974 94.052 334.945 94.482 334.896C95.0461 334.831 95.6141 334.725 96.1634 334.582C97.1807 334.317 98.0968 333.805 98.9208 333.159C102.082 330.681 103.541 326.793 106.196 323.877C108.717 321.107 111.88 319.046 114.703 316.614C115.834 315.639 116.882 314.579 117.965 313.554C119.513 312.088 121.136 310.629 122.998 309.574C123.244 309.435 124.497 308.826 124.679 309.227C124.808 309.509 124.798 309.881 124.758 310.18C124.694 310.66 124.622 311.146 124.556 311.626C124.489 312.116 124.436 312.605 124.366 313.094C124.06 315.214 123.771 317.469 122.908 319.45C122.022 321.483 120.374 323.086 119.467 325.11C118.176 327.993 118.628 331.357 118.133 334.403C117.452 338.591 116.09 342.62 115.084 346.733C114.115 350.698 113.47 354.743 114.916 358.682C116.061 361.799 118.267 364.314 120.33 366.853C122.312 369.292 124.166 371.792 125.52 374.644C128.469 380.852 129.402 387.74 131.45 394.248C132.318 397.008 133.37 399.726 134.835 402.229C135.417 403.224 136.182 404.108 136.741 405.11C137.61 406.67 137.464 408.591 138.321 410.154C138.935 411.275 140.036 411.952 141.078 412.62C142.848 413.755 144.728 414.8 146.672 415.602C147.552 415.965 148.567 416.377 149.541 416.398C151.936 416.449 152.73 412.895 153.039 411.107C153.14 410.518 153.219 409.919 153.285 409.325C153.357 408.685 153.371 408.436 153.431 407.812C154.172 400.128 153.954 392.457 151.884 384.978C151.753 384.503 151.514 383.808 151.368 383.342C150.885 381.792 149.586 378.237 151.738 377.244C152.746 376.779 154.051 376.771 155.135 376.661C157.707 376.4 160.437 376.036 163.004 376.347C164.22 376.495 165.315 377.27 166.501 377.547C169.097 378.154 170.519 376.706 172.576 375.451C173.424 374.934 174.537 374.216 175.591 374.487C177.614 375.006 176.761 378.583 176.477 379.957C176.21 381.251 175.761 382.572 175.726 383.902C175.658 386.492 176.289 389.071 176.354 391.659C176.399 393.486 176.113 395.352 175.939 397.163C175.824 398.357 175.704 399.553 175.614 400.75C175.52 401.997 175.454 403.243 175.423 404.494C175.403 405.313 175.397 406.118 175.423 406.937C175.447 407.661 175.497 408.514 175.58 409.235C175.867 411.729 176.872 415.817 180.198 415.501C182.906 415.244 185.046 412.063 186.554 410.121C190.762 404.7 193.921 398.647 196.216 392.186C199.02 384.295 200.804 376.082 204.926 368.714C206.552 365.807 209.16 363.69 211.225 361.125C212.612 359.404 213.672 357.472 214.117 355.297C214.951 351.221 212.785 347.634 211.875 343.774C211.184 340.84 211.633 337.87 211.651 334.896C211.661 333.383 211.558 331.846 211.113 330.39C210.616 328.762 209.718 327.263 208.939 325.761C207.942 323.839 206.958 321.888 206.237 319.842C205.598 318.027 204.692 314.658 205.979 312.836C206.431 312.198 207.372 312.092 208.087 312.108C209.941 312.148 211.15 312.795 212.189 314.316C213.916 316.843 214.555 319.942 216.337 322.443C218.206 325.066 220.755 327.15 223.286 329.101C224.288 329.873 225.298 330.759 226.391 331.399C227.471 332.03 228.775 332.126 229.889 332.677C230.974 333.213 231.571 334.372 232.657 334.874C233.114 335.084 233.639 335.154 234.137 335.176C234.527 335.194 234.925 335.167 235.303 335.064C238.099 334.303 237.542 330.365 237.141 328.294C237.086 328.013 237.025 327.732 236.962 327.453C236.78 326.652 236.563 325.866 236.334 325.077C236.102 324.277 235.85 323.477 235.616 322.678C235.519 322.344 235.322 322.027 235.616 321.815C236.195 321.397 237.103 321.411 237.78 321.423C240.391 321.467 241.549 323.166 243.429 324.729C244.111 325.297 244.901 325.748 245.738 326.041C246.33 326.248 247.076 326.208 247.678 326.074C250.292 325.492 252.073 322.548 251.87 319.965C251.736 318.271 250.686 317.569 249.303 316.737C248.418 316.205 247.503 315.727 246.579 315.269C244.57 314.272 242.512 313.369 240.47 312.444C239.221 311.878 237.94 311.332 236.793 310.572C235.611 309.789 234.571 308.818 233.632 307.759C231.322 305.149 229.668 301.955 226.997 299.666C224.852 297.829 222.179 296.83 219.845 295.283C218.205 294.195 216.788 292.86 215.563 291.326C214.334 289.786 213.316 288.086 212.436 286.327C211.867 285.191 211.404 284.003 210.755 282.908C209.06 280.052 206.566 277.783 204.803 274.983C203.511 272.933 202.825 270.574 201.63 268.471C200.88 267.149 199.243 266.438 198.223 265.354C196.1 263.099 194.443 260.467 192.383 258.158C190.632 256.197 188.534 254.425 185.971 253.663C183.408 252.901 180.561 253.014 178.158 251.735C177.221 251.236 176.468 250.432 175.681 249.729C174.883 249.015 173.968 248.277 173.596 247.24C172.91 245.327 174.158 242.683 174.482 240.851C174.577 240.311 174.68 239.762 174.65 239.215C174.627 238.803 174.421 238.385 174.504 237.97C174.575 237.619 175.077 237.704 175.356 237.679C176.14 237.607 176.927 237.526 177.71 237.444C180.446 237.156 183.167 236.812 185.893 236.435C191.132 235.71 196.362 234.891 201.597 234.137C207.411 233.3 213.218 232.481 218.96 231.222C230.088 228.783 240.589 224.464 249.852 217.771C252.8 215.642 255.614 213.326 258.293 210.867C259.865 209.423 261.368 207.546 263.337 206.585C264.58 205.978 265.983 205.809 267.338 205.643C269.522 205.376 271.736 205.309 273.862 204.702C278.352 203.418 282.339 200.689 286.17 198.122C287.064 197.523 287.954 196.921 288.86 196.34C289.738 195.776 290.648 195.278 291.449 194.602C294.407 192.106 296.475 188.554 298.32 185.209C300.825 180.669 302.943 175.928 304.979 171.164C307.134 166.118 309.164 161.02 311.267 155.953C312.581 152.789 313.917 149.629 315.37 146.526C316.218 144.715 317.103 142.912 318.105 141.179C318.417 140.639 318.802 140.009 319.147 139.487C319.426 139.065 319.532 138.917 319.764 138.612C319.86 138.486 320.158 138.188 320.055 138.007C319.985 137.884 319.39 137.876 319.349 137.873C319.212 137.863 319.071 137.854 318.934 137.85C318.793 137.846 318.66 137.849 318.519 137.85C318.267 137.853 317.884 137.862 317.634 137.884C316.877 137.951 316.484 138 315.728 138.13C314.68 138.311 313.641 138.557 312.612 138.825C310.736 139.315 308.892 139.894 307.041 140.473C304.21 141.358 301.364 142.31 298.444 142.861C296.513 143.225 294.653 143.191 292.783 143.847C289.806 144.892 287.077 146.515 284.186 147.759C282.978 148.279 281.709 148.793 280.397 148.981C278.204 149.295 277.289 148.05 275.936 146.537C275.11 145.615 274.3 144.639 273.885 143.455C273.322 141.851 273.505 140.022 273.313 138.355C273.056 136.131 272.508 133.938 271.867 131.797C270.122 125.965 267.469 120.466 265.321 114.782C264.385 112.306 263.668 109.743 262.664 107.294C261.822 105.24 260.822 103.265 259.694 101.353C254.455 92.4774 246.736 85.1703 238.441 79.1703C227.577 71.3119 215.115 65.1368 202.09 61.8409C197.645 60.7162 193.095 60.0206 188.549 59.4534C181.012 58.5128 173.443 58.1708 165.851 58.1643C165.868 57.9775 165.843 57.8039 165.716 57.7496ZM165.817 58.3549C173.381 58.363 180.927 58.7181 188.437 59.6551C192.975 60.2213 197.518 60.92 201.955 62.0427C215.559 65.4849 228.584 72.0494 239.775 80.4705C247.449 86.2453 254.559 93.1674 259.47 101.488C260.595 103.395 261.6 105.368 262.44 107.417C263.59 110.222 264.409 113.155 265.511 115.981C267.576 121.277 269.999 126.454 271.631 131.909C272.27 134.044 272.822 136.228 273.077 138.444C273.271 140.122 273.083 141.953 273.649 143.567C274.07 144.765 274.887 145.76 275.723 146.694C277.372 148.537 278.385 149.742 281.058 149.037C285.201 147.944 288.773 145.438 292.794 144.026C294.942 143.273 297.197 143.339 299.408 142.849C302.763 142.106 306.01 140.954 309.294 139.958C311.996 139.137 314.744 138.336 317.567 138.086C318.123 138.036 318.691 138.035 319.248 138.074C319.651 138.103 319.83 138.132 319.831 138.153C319.837 138.335 319.561 138.557 319.461 138.702C319.106 139.217 318.746 139.739 318.419 140.271C318.238 140.564 318.064 140.859 317.892 141.157C316.427 143.689 315.191 146.356 314.002 149.026C312.763 151.809 311.598 154.616 310.438 157.433C308.343 162.518 306.291 167.63 304.104 172.677C301.909 177.744 299.625 182.82 296.762 187.552C295.253 190.047 293.552 192.592 291.304 194.49C290.516 195.155 289.622 195.64 288.759 196.194C287.354 197.096 285.982 198.053 284.589 198.974C281.254 201.177 277.753 203.402 273.873 204.511C271.44 205.207 268.878 205.214 266.386 205.576C265.324 205.73 264.252 205.943 263.281 206.417C261.742 207.167 260.579 208.476 259.357 209.634C258.536 210.412 257.771 211.102 256.925 211.853C254.262 214.22 251.477 216.443 248.552 218.478C239.279 224.928 228.808 228.963 217.794 231.267C212.044 232.47 206.22 233.248 200.409 234.081C195.202 234.827 190.007 235.645 184.794 236.345C182.074 236.711 179.344 237.054 176.611 237.32C176.22 237.358 175.826 237.386 175.435 237.421C174.958 237.464 174.312 237.433 174.19 238.026C174.13 238.322 174.219 238.632 174.269 238.923C174.285 239.018 174.297 239.108 174.314 239.203C174.321 239.248 174.335 239.383 174.336 239.338C174.279 239.863 174.26 240.398 174.168 240.918C173.834 242.797 172.579 245.426 173.282 247.386C173.663 248.448 174.594 249.21 175.412 249.942C176.448 250.87 177.398 251.813 178.719 252.341C180.973 253.241 183.459 253.232 185.769 253.921C188.296 254.674 190.367 256.436 192.091 258.371C194.15 260.683 195.81 263.32 197.931 265.579C198.916 266.626 200.6 267.414 201.305 268.661C202.498 270.769 203.186 273.132 204.477 275.185C206.238 277.984 208.728 280.254 210.418 283.11C211.065 284.202 211.523 285.384 212.088 286.517C212.973 288.288 213.992 290 215.227 291.55C216.462 293.101 217.888 294.452 219.543 295.552C221.866 297.096 224.548 298.091 226.683 299.923C229.345 302.208 230.984 305.401 233.285 308.005C234.234 309.079 235.284 310.07 236.48 310.864C237.636 311.631 238.93 312.175 240.19 312.747C242.228 313.672 244.283 314.574 246.288 315.571C247.4 316.125 248.508 316.696 249.549 317.376C250.668 318.106 251.347 318.726 251.455 320.111C251.645 322.556 249.918 325.53 247.308 325.805C246.899 325.848 246.401 325.854 246.007 325.716C245.198 325.43 244.435 324.988 243.777 324.438C243.07 323.847 242.446 323.154 241.737 322.566C240.363 321.427 238.9 320.948 237.119 321.098C236.54 321.146 235.897 321.239 235.415 321.591C234.774 322.058 235.146 322.719 235.336 323.351C235.458 323.755 235.574 324.156 235.695 324.561C235.919 325.31 236.143 326.068 236.334 326.825C236.472 327.375 236.596 327.916 236.704 328.473C237.12 330.636 237.753 334.964 234.327 334.806C233.874 334.785 233.387 334.719 232.971 334.526C231.894 334.027 231.286 332.877 230.202 332.34C229.096 331.792 227.799 331.702 226.728 331.074C225.307 330.24 223.991 329.06 222.704 328.036C220.53 326.308 218.371 324.439 216.751 322.162C214.83 319.461 214.266 315.996 212.156 313.419C211.915 313.126 211.628 312.787 211.304 312.567C209.952 311.653 206.725 311.14 205.587 312.747C204.457 314.343 204.834 316.806 205.284 318.542C206.205 322.086 208.16 325.248 209.757 328.507C210.604 330.234 211.054 331.993 211.136 333.921C211.265 336.949 210.647 340.023 211.192 343.034C211.836 346.598 213.908 349.936 213.826 353.626C213.686 359.959 207.921 363.154 204.859 367.997C200.595 374.74 198.85 382.787 196.362 390.269C193.999 397.375 190.724 404.061 186.117 409.986C184.795 411.687 182.733 414.796 180.344 415.019C177.699 415.266 176.665 412.12 176.309 410.076C175.44 405.087 176.272 399.844 176.735 394.854C176.88 393.287 177.011 391.743 176.914 390.168C176.782 388.028 176.275 385.876 176.331 383.723C176.378 381.936 177.083 380.172 177.351 378.41C177.574 376.947 177.847 374.478 175.961 373.994C174.698 373.669 173.369 374.444 172.341 375.07C170.481 376.201 169.191 377.601 166.86 377.042C165.653 376.754 164.547 375.985 163.306 375.832C160.693 375.51 157.922 375.871 155.303 376.134C154.11 376.255 152.71 376.283 151.604 376.796C148.908 378.045 150.081 381.522 150.741 383.645C150.883 384.103 151.116 384.802 151.245 385.27C153.235 392.488 153.556 399.972 152.826 407.397C152.757 408.093 152.691 408.787 152.613 409.482C152.547 410.065 152.478 410.652 152.377 411.23C152.151 412.534 151.858 414.03 151.032 415.109C150.729 415.505 150.334 415.855 149.81 415.837C148.505 415.793 147.154 415.111 146.01 414.571C144.334 413.778 142.699 412.866 141.157 411.836C140.305 411.267 139.479 410.7 138.971 409.773C138.116 408.211 138.259 406.293 137.391 404.729C137.062 404.137 136.61 403.612 136.236 403.048C135.448 401.858 134.762 400.598 134.162 399.304C132.117 394.886 131.072 390.088 129.88 385.393C128.487 379.904 126.864 374.483 123.603 369.779C121.312 366.474 118.263 363.66 116.407 360.061C115.301 357.915 114.754 355.574 114.782 353.167C114.813 350.48 115.499 347.846 116.183 345.264C117.031 342.064 118.005 338.897 118.649 335.647C118.974 334.004 119.185 332.363 119.277 330.693C119.381 328.795 119.403 326.878 120.196 325.11C121.103 323.085 122.748 321.488 123.637 319.45C124.525 317.413 124.833 315.106 125.15 312.926C125.291 311.955 125.424 310.973 125.554 310C125.593 309.705 125.589 309.397 125.531 309.104C125.312 307.994 123.854 308.538 123.166 308.857C121.144 309.797 119.408 311.405 117.786 312.915C116.596 314.023 115.455 315.182 114.221 316.244C111.356 318.709 108.162 320.8 105.601 323.608C103 326.462 101.574 330.323 98.4837 332.744C97.8064 333.274 97.0455 333.705 96.2082 333.921C95.576 334.083 94.9332 334.21 94.2802 334.246C93.9566 334.263 93.6236 334.255 93.305 334.19C91.1074 333.741 92.4978 330.426 92.9239 329.191C93.0064 328.952 93.0872 328.712 93.1705 328.473C93.254 328.234 93.347 327.996 93.4283 327.756C93.6283 327.166 93.697 326.949 93.8655 326.355C94.0843 325.583 94.5311 323.475 93.5965 322.958C93.2748 322.78 92.9245 322.657 92.5876 322.51C92.2319 322.355 91.9062 322.11 91.5228 322.05C91.0261 321.972 90.5118 322.086 90.0095 322.106C89.5214 322.126 89.0373 322.115 88.5523 322.174C86.1081 322.471 83.723 323.228 81.2888 323.597C79.8586 323.814 77.132 324.171 76.7267 322.14C76.5572 321.291 77.0935 320.433 77.5786 319.786C78.5379 318.507 79.7986 317.47 81.0422 316.479C81.5488 316.076 82.0462 315.645 82.6115 315.325C83.8898 314.601 85.3714 314.313 86.6244 313.531C88.1969 312.55 89.6406 311.272 91.0744 310.101C93.4355 308.174 95.7263 306.152 97.8896 304.004C99.8114 302.095 101.644 300.077 103.337 297.962C104.114 296.992 104.823 295.973 105.669 295.059C107.455 293.127 109.644 291.622 111.397 289.656C113.065 287.784 114.564 285.725 116.104 283.749C118.389 280.816 120.644 277.865 122.864 274.882C124.97 272.051 127.184 269.229 129.062 266.24C130.448 264.036 131.578 261.638 133.299 259.66C136.317 256.194 141.048 256.005 145.035 254.336C146.395 253.766 147.556 253.004 148.645 252.015C149.409 251.322 150.51 250.765 150.965 249.785C151.326 249.006 151.29 247.963 151.335 247.128C151.411 245.727 151.424 244.326 151.503 242.925C151.563 241.865 151.646 240.8 151.828 239.753C151.879 239.459 151.957 239.112 152.03 238.822C152.065 238.681 152.268 238.172 152.232 237.948C152.162 237.523 151.654 237.217 151.346 236.962C151.035 236.704 150.771 236.358 150.404 236.188C150.04 236.02 149.623 236.054 149.228 235.986C146.317 235.49 143.369 234.878 140.428 234.619C137.87 234.393 135.312 234.119 132.75 233.935C122.906 233.23 113.018 233.186 103.27 231.469C100.094 230.91 96.8319 230.343 93.9552 228.813C87.3439 225.296 82.0034 219.78 76.3792 214.936C74.1733 213.036 71.9093 211.15 69.4295 209.611C67.4814 208.403 65.3553 207.624 63.2309 206.787C60.7317 205.801 58.2208 204.844 55.7207 203.861C50.6666 201.873 45.8257 199.533 41.104 196.855C37.4684 194.793 33.971 192.651 30.9709 189.704C27.3971 186.193 24.4836 182.047 21.4655 178.069C20.4632 176.747 19.4596 175.43 18.4391 174.123C18.0756 173.657 17.6089 173.259 17.3406 172.733C17.1579 172.375 17.1909 171.94 17.1164 171.545C17.0369 171.123 16.9718 170.697 16.881 170.278C16.6923 169.408 16.4734 168.552 16.2533 167.689C15.2305 163.678 13.9455 159.729 12.9242 155.718C12.0223 152.175 11.2098 148.467 11.4558 144.789C11.5308 143.667 11.6389 142.196 12.2516 141.179C12.8449 140.195 13.9209 140.533 14.8746 140.809C16.873 141.389 18.7986 142.171 20.8266 142.659C23.7543 143.364 26.7702 143.447 29.7043 144.127C34.1996 145.17 38.4571 146.963 42.7293 148.667C44.3769 149.324 46.0951 150.086 47.8631 150.348C48.6803 150.47 49.59 150.429 50.2058 149.799C51.0767 148.909 50.5562 147 50.5421 145.943C50.5132 143.783 50.7643 141.649 51.5509 139.621C52.1458 138.088 52.9923 136.661 53.7255 135.194C54.6002 133.443 55.3471 131.632 55.9449 129.768C58.8445 120.728 60.3802 111.157 65.2709 102.878C67.6051 98.9262 70.5297 95.3586 73.6105 91.9711C89.0862 74.9549 111.421 66.0237 133.602 61.7961C138.498 60.8629 143.439 60.1561 148.398 59.6551C154.015 59.0877 159.647 58.8186 165.29 58.7472C165.468 58.8233 165.7 58.6623 165.817 58.3885C165.822 58.377 165.813 58.3664 165.817 58.3549Z" fill="#f4dfca" stroke="none"/>
</g>
<path d="M163.451 58.6118C164.739 58.7631 170.555 58.9077 171.863 59.0484C173.171 59.1891 174.487 59.326 175.811 59.462C177.134 59.5979 178.465 59.7328 179.801 59.8695C181.137 60.0063 182.478 60.1449 183.823 60.2882C185.168 60.4316 186.516 60.5796 187.866 60.7351C189.216 60.8907 190.568 61.0538 191.92 61.2273C193.272 61.4009 194.623 61.5848 195.973 61.7819C197.322 61.9791 198.67 62.1895 200.014 62.416C201.358 62.6424 202.699 62.885 204.033 63.1465C205.368 63.4081 206.697 63.6885 208.019 63.9908C209.341 64.293 210.656 64.6171 211.962 64.9657C213.267 65.3144 214.563 65.6877 215.849 66.0885C217.134 66.4893 218.409 66.9176 219.671 67.3762C220.933 67.8348 222.182 68.3237 223.416 68.8459C224.651 69.368 225.871 69.9233 227.074 70.5146C228.278 71.1059 229.465 71.7333 230.635 72.3995C233.201 73.8616 235.703 75.5295 238.131 77.3808C240.559 79.232 242.913 81.2667 245.181 83.4623C247.449 85.6579 249.632 88.0144 251.718 90.5096C253.804 93.0047 255.793 95.6384 257.675 98.3883C259.556 101.138 261.33 104.004 262.985 106.964C264.64 109.924 266.177 112.977 267.583 116.102C268.989 119.227 270.265 122.423 271.4 125.669C272.536 128.914 273.53 132.208 274.372 135.529C275.214 138.849 275.904 142.196 276.43 145.548C276.957 148.899 277.32 152.255 277.509 155.592C277.698 158.929 277.713 162.248 277.542 165.527C277.371 168.805 277.014 172.043 276.462 175.217C275.909 178.392 275.159 181.503 274.202 184.529C273.245 187.555 272.08 190.496 270.696 193.329C269.313 196.161 267.71 198.886 265.878 201.481C264.046 204.075 261.984 206.539 259.68 208.851C258.073 210.465 256.422 211.983 254.731 213.411C253.04 214.84 251.31 216.179 249.544 217.435C247.777 218.691 245.974 219.863 244.138 220.959C242.302 222.054 240.434 223.073 238.535 224.021C236.637 224.968 234.709 225.845 232.755 226.658C230.801 227.47 228.82 228.218 226.817 228.907C224.814 229.597 222.788 230.228 220.742 230.807C218.697 231.385 216.631 231.912 214.55 232.393C212.469 232.874 210.372 233.309 208.262 233.704C206.152 234.099 204.029 234.455 201.896 234.777C199.764 235.099 197.622 235.388 195.475 235.649C193.327 235.911 191.173 236.145 189.017 236.358C186.86 236.571 184.701 236.763 182.543 236.941C180.384 237.118 178.227 237.281 176.073 237.435C173.919 237.589 171.769 237.734 169.627 237.877C167.485 238.02 165.35 238.161 163.226 238.305" fill="none" opacity="1" stroke="#e0b08a" stroke-linecap="butt" stroke-linejoin="round" stroke-width="6.83964"/>
<path d="M164.312 58.6118C163.024 58.7631 157.207 58.9077 155.9 59.0484C154.592 59.1891 153.276 59.326 151.952 59.462C150.629 59.5979 149.298 59.7328 147.962 59.8695C146.626 60.0063 145.284 60.1449 143.94 60.2882C142.595 60.4316 141.246 60.5796 139.896 60.7351C138.546 60.8907 137.195 61.0538 135.843 61.2273C134.491 61.4009 133.14 61.5848 131.79 61.7819C130.44 61.9791 129.093 62.1895 127.749 62.416C126.405 62.6424 125.064 62.885 123.729 63.1465C122.395 63.4081 121.065 63.6885 119.743 63.9908C118.421 64.293 117.107 64.6171 115.801 64.9657C114.496 65.3144 113.199 65.6877 111.914 66.0885C110.628 66.4893 109.354 66.9176 108.092 67.3762C106.83 67.8348 105.581 68.3237 104.347 68.8459C103.112 69.368 101.892 69.9233 100.688 70.5146C99.4846 71.1059 98.2973 71.7333 97.1281 72.3995C94.5622 73.8616 92.0597 75.5295 89.6315 77.3808C87.2034 79.232 84.8497 81.2667 82.5816 83.4623C80.3134 85.6579 78.1308 88.0144 76.0448 90.5096C73.9588 93.0047 71.9695 95.6384 70.0879 98.3883C68.2063 101.138 66.4324 104.004 64.7774 106.964C63.1224 109.924 61.5862 112.977 60.18 116.102C58.7738 119.227 57.4975 122.423 56.3623 125.669C55.2271 128.914 54.233 132.208 53.391 135.529C52.549 138.849 51.8591 142.196 51.3325 145.548C50.806 148.899 50.4426 152.255 50.2537 155.592C50.0647 158.929 50.0501 162.248 50.221 165.527C50.3919 168.805 50.7483 172.043 51.3012 175.217C51.8541 178.392 52.6036 181.503 53.5608 184.529C54.5179 187.555 55.6828 190.496 57.0664 193.329C58.45 196.161 60.0524 198.886 61.8847 201.481C63.717 204.075 65.7792 206.539 68.0823 208.851C69.6902 210.465 71.3412 211.983 73.0318 213.411C74.7224 214.84 76.4527 216.179 78.2192 217.435C79.9858 218.691 81.7887 219.863 83.6245 220.959C85.4604 222.054 87.3291 223.073 89.2275 224.021C91.1259 224.968 93.0538 225.845 95.008 226.658C96.9621 227.47 98.9425 228.218 100.946 228.907C102.949 229.597 104.975 230.228 107.021 230.807C109.066 231.385 111.131 231.912 113.212 232.393C115.294 232.874 117.391 233.309 119.501 233.704C121.611 234.099 123.734 234.455 125.866 234.777C127.999 235.099 130.14 235.388 132.288 235.649C134.436 235.911 136.59 236.145 138.746 236.358C140.902 236.571 143.062 236.763 145.22 236.941C147.378 237.118 149.536 237.281 151.69 237.435C153.844 237.589 155.993 237.734 158.136 237.877C160.278 238.02 162.413 238.161 164.537 238.305" fill="none" opacity="1" stroke="#e0b08a" stroke-linecap="butt" stroke-linejoin="round" stroke-width="6.83964"/>
<path d="M150.07 238.174C151.38 261.571 142.506 246.278 132.783 258.581C116.878 278.707 108.531 295.148 88.5269 309.759C83.093 313.728 69.5532 319.09 74.1878 323.969C78.9134 328.943 85.2272 321.803 91.4469 323.647C82.5943 356.492 114.705 315.971 121.345 311.378C117.219 327.087 111.746 343.029 112.313 359.262C112.536 365.626 120.474 369.474 123.322 375.044C128.989 386.126 130.015 399.231 136.744 409.698C139.907 414.619 150.13 422.175 152.035 411.458C152.93 406.424 153.346 401.279 153.245 396.167C153.125 390.012 151.999 383.919 151.375 377.795C159.106 379.261 159.386 379.005 164.537 379.115" fill="none" opacity="1" stroke="#e0b08a" stroke-linecap="butt" stroke-linejoin="round" stroke-width="6.83964"/>
<path d="M176.382 238.174C175.072 261.571 183.946 246.278 193.669 258.581C209.574 278.707 217.921 295.148 237.925 309.759C243.359 313.728 256.899 319.09 252.264 323.969C247.539 328.943 241.225 321.803 235.005 323.647C243.858 356.492 211.747 315.971 205.107 311.378C209.233 327.087 214.707 343.029 214.139 359.262C213.916 365.626 205.978 369.474 203.13 375.044C197.463 386.126 196.437 399.231 189.709 409.698C186.545 414.619 176.322 422.175 174.417 411.458C173.522 406.424 173.106 401.279 173.207 396.167C173.327 390.012 174.453 383.919 175.077 377.795C167.346 379.261 167.066 379.005 161.915 379.115" fill="none" opacity="1" stroke="#e0b08a" stroke-linecap="butt" stroke-linejoin="round" stroke-width="6.83964"/>
<path d="M122.623 311.796C124.161 306.261 125.98 300.838 127.449 295.288" fill="none" opacity="1" stroke="#e0b08a" stroke-linecap="butt" stroke-linejoin="round" stroke-width="4"/>
<path d="M203.848 311.796C202.31 306.261 200.492 300.838 199.023 295.288" fill="none" opacity="1" stroke="#e0b08a" stroke-linecap="butt" stroke-linejoin="round" stroke-width="4"/>
<g opacity="1">
<path d="M216.341 346.962C215.326 344.795 211.734 347.989 209.355 347.885C206.148 347.746 202.925 346.836 199.657 346.731C193.507 346.532 187.426 346.974 181.299 347.193C176.968 347.347 172.785 346.672 168.483 346.5C159.775 346.152 151.156 348.083 142.39 347.77C134.633 347.493 127.166 347.447 119.414 347.77C118.058 347.826 112.419 347.173 111.562 347.654C110.209 348.416 111.099 356.854 111.447 358.508C112.601 363.99 115.504 366.803 117.451 371.67C119.582 376.999 121.024 383.672 125.648 387.372C129.058 390.1 133.058 388.859 136.963 388.642C140.097 388.468 143.527 388.254 146.662 388.411C148.62 388.509 151.967 388.991 153.82 388.296C155.767 387.566 155.777 384.776 156.822 383.446C157.978 381.975 162.372 382.028 164.096 381.945C165.822 381.863 169.585 381.263 170.561 383.216C172.021 386.135 169.25 388.658 174.602 389.104C181.195 389.653 188.01 388.757 194.577 388.411C196.713 388.299 199.494 389.528 201.504 388.411C204.382 386.812 206.941 377.304 208.316 374.21C209.678 371.147 212.207 368.56 213.627 365.435C216.061 360.081 218.803 352.22 216.341 346.962Z" fill="#ebf3fa" fill-rule="nonzero" stroke="none"/>
<path d="M215.951 344.82C214.234 344.717 212.079 346 210.688 346.409C209.992 346.614 209.237 346.474 208.531 346.399C206.359 346.166 204.22 345.696 202.044 345.491C200.431 345.338 198.804 345.333 197.186 345.334C190.337 345.337 183.466 346.228 176.625 345.759C172.621 345.485 168.657 345.096 164.637 345.242C158.814 345.453 153.047 346.404 147.226 346.627C143.866 346.755 140.492 346.577 137.133 346.514C133.294 346.443 129.456 346.455 125.617 346.559C123.491 346.616 121.335 346.841 119.208 346.773C117.037 346.704 114.811 346.337 112.646 346.555C111.65 346.656 110.747 347.024 110.248 347.936C109.379 349.525 109.727 352.596 109.853 354.325C110.064 357.211 110.45 360.04 111.629 362.711C113.065 365.964 115.159 368.863 116.551 372.141C117.93 375.384 118.85 378.805 120.426 381.969C121.101 383.323 121.882 384.633 122.842 385.806C123.931 387.139 125.251 388.358 126.852 389.038C129.382 390.113 132.176 389.713 134.82 389.422C137.063 389.176 139.324 389.066 141.579 388.98C143.347 388.912 145.122 388.88 146.889 388.99C149.2 389.135 151.545 389.449 153.805 388.776C156.084 388.097 156.262 385.242 157.313 383.534C157.823 382.704 160.728 382.552 161.538 382.496C163.612 382.354 165.921 382.006 167.984 382.295C168.71 382.397 169.536 382.634 169.978 383.272C171.267 385.131 169.632 388.13 172.25 389.065C174.386 389.828 177.222 389.635 179.435 389.609C183.91 389.557 188.362 389.074 192.825 388.793C193.747 388.735 194.622 388.635 195.536 388.725C197.681 388.936 200.129 389.79 202.037 388.34C203.009 387.602 203.664 386.43 204.221 385.371C205.309 383.302 206.11 381.084 206.898 378.89C207.549 377.08 208.101 375.189 208.98 373.471C209.886 371.701 211.12 370.128 212.205 368.47C214.307 365.259 215.789 361.466 216.76 357.761C217.608 354.528 218.037 351.105 217.05 347.896C217.834 347.376 218.225 346.567 217.907 346.031C217.421 345.198 216.731 344.867 215.951 344.82ZM214.158 347.61C214.411 347.575 214.639 347.637 214.777 347.892C215.041 348.338 215.705 348.438 216.4 348.212C217.362 351.347 216.935 354.693 216.107 357.85C214.98 362.146 213.175 366.127 210.671 369.787C209.696 371.212 208.731 372.631 208.007 374.206C206.871 376.677 206.142 379.353 205.157 381.884C204.365 383.916 203.449 386.586 201.687 388.007C200.723 388.784 199.377 388.627 198.244 388.511C197.245 388.408 196.264 388.163 195.257 388.13C193.973 388.087 192.652 388.259 191.372 388.344C186.946 388.638 182.515 389.031 178.074 388.926C176.37 388.885 174.132 389.04 172.526 388.232C171.327 387.628 171.562 386.289 171.529 385.15C171.505 384.32 171.345 383.398 170.873 382.697C170.217 381.724 168.915 381.477 167.831 381.397C165.884 381.254 163.814 381.478 161.864 381.591C160.198 381.688 157.407 381.761 156.33 383.36C155.578 384.475 155.376 385.807 154.7 386.949C154.524 387.247 154.209 387.713 153.836 387.813C151.743 388.376 149.591 388.051 147.464 387.895C145.661 387.763 143.852 387.773 142.045 387.823C139.761 387.886 137.468 387.975 135.194 388.201C132.8 388.439 130.226 388.825 127.944 387.82C126.485 387.177 125.299 386.02 124.321 384.786C123.417 383.643 122.687 382.369 122.059 381.057C120.173 377.115 119.232 372.802 117.317 368.872C115.771 365.698 113.719 362.804 112.779 359.36C111.937 356.273 111.737 352.802 111.99 349.631C112.022 349.226 112.133 348.829 112.214 348.437C112.551 348.426 112.888 348.423 113.224 348.433C113.755 348.448 114.283 348.484 114.813 348.515C116.049 348.586 117.283 348.725 118.521 348.763C119.96 348.808 121.413 348.689 122.852 348.661C126.005 348.601 129.156 348.61 132.309 348.647C136.968 348.703 141.642 349.02 146.301 348.913C152.092 348.78 157.843 347.91 163.633 347.746C167.533 347.635 171.375 348.054 175.258 348.341C182.154 348.852 189.083 348.004 195.989 348.028C197.503 348.034 199.025 348.039 200.533 348.188C202.692 348.401 204.814 348.881 206.97 349.12C209.318 349.381 210.758 349.008 212.913 348.124C213.232 347.992 213.735 347.668 214.158 347.61Z" fill="#ebf3fa" stroke="none"/>
</g>
<path d="M163.366 345.789C136.343 346.039 136.343 346.039 109.32 346.288C108.975 360.496 111.157 364.831 118.887 377.074C119.886 378.656 122.989 388.261 125.978 388.918C135.666 391.047 145.98 390.135 155.727 388.302C157.184 388.028 156.884 382.999 156.89 382.324C163.322 382.777 161.915 382.431 165.776 382.578" fill="none" opacity="1" stroke="#c6e0f6" stroke-linecap="butt" stroke-linejoin="round" stroke-width="7.25"/>
<path d="M163.086 345.789C190.109 346.039 190.109 346.039 217.132 346.288C217.477 360.496 215.295 364.831 207.565 377.074C206.566 378.656 203.463 388.261 200.474 388.918C190.786 391.047 180.472 390.135 170.725 388.302C169.268 388.028 169.568 382.999 169.562 382.324C163.13 382.777 166.01 382.617 161.915 382.64" fill="none" opacity="1" stroke="#c6e0f6" stroke-linecap="butt" stroke-linejoin="round" stroke-width="7.25"/>
<g opacity="1">
<path d="M277.661 160.292C286.393 158.295 294.798 155.648 302.355 157.902C300.082 168.189 290.614 183.709 282.439 189.018" fill="none" opacity="1" stroke="#e0b08a" stroke-linecap="butt" stroke-linejoin="round" stroke-width="4"/>
<path d="M50.1018 160.292C41.3697 158.295 32.9652 155.648 25.4075 157.902C27.6812 168.189 37.1485 183.709 45.3234 189.018" fill="none" opacity="1" stroke="#e0b08a" stroke-linecap="butt" stroke-linejoin="round" stroke-width="4"/>
<path d="M278.49 148.208C299.271 143.131 299.271 143.131 320.052 138.054C312.798 154.907 311.835 179.698 289.076 196.387C277.638 204.774 266.398 207.595 253.858 214.223" fill="none" opacity="1" stroke="#e0b08a" stroke-linecap="butt" stroke-linejoin="round" stroke-width="7.25"/>
<path d="M48.2889 147.962C27.5082 142.885 27.5082 142.885 6.72742 137.808C13.9816 154.661 14.9443 179.452 37.7031 196.141C49.1409 204.528 60.639 207.595 73.1789 214.223" fill="none" opacity="1" stroke="#e0b08a" stroke-linecap="butt" stroke-linejoin="round" stroke-width="7.25"/>
</g>
</g>
</svg>
