<?xml version="1.0" encoding="UTF-8" standalone="no"?>
<!DOCTYPE svg PUBLIC "-//W3C//DTD SVG 1.1//EN" "http://www.w3.org/Graphics/SVG/1.1/DTD/svg11.dtd">
<!-- Created with Vectornator (http://vectornator.io/) -->
<svg height="100%" stroke-miterlimit="10" style="fill-rule:nonzero;clip-rule:evenodd;stroke-linecap:round;stroke-linejoin:round;" version="1.1" viewBox="20.1168 55.192 286.219 364.879" width="100%" xml:space="preserve" xmlns="http://www.w3.org/2000/svg" xmlns:xlink="http://www.w3.org/1999/xlink">
<defs/>
<g id="f-human">
<path d="M156.688 58.5938C151.687 58.7439 146.687 59.2189 142.219 59.9062C137.787 60.5881 133.441 62.2574 129 62.8125C124.879 63.3276 120.929 64.1305 117.531 65.9688L114.844 65.0625C113.151 65.9091 111.931 68.5258 110.656 69.9062C110.489 70.0876 110.38 70.258 110.219 70.4375L111.312 66.0312C109.066 66.7802 108.099 68.014 106.156 69.25C92.1509 78.1625 80.6656 88.248 70.75 101.469C67.2688 106.11 63.1646 110.81 61.7188 116.594C59.5444 125.291 57.8082 133.825 54.9688 142.344C53.9468 145.41 54.5656 150.153 52.0625 152.656C51.9823 152.736 44.6815 150.161 42.7188 150.406C37.0775 151.111 27.829 158.818 25.6562 164.25C24.998 165.896 25.2759 167.663 25.0312 169.375C23.0371 183.334 30.557 197.063 42.4062 204.469C45.0096 206.096 47.1482 208.633 50.125 209.625C54.3652 211.038 57.9873 209.318 61.7188 207.719C63.4587 206.973 65.3856 207.05 67.1875 206.75C67.7696 206.653 68.286 206.355 68.8438 206.188C71.3841 210.523 75.3605 215.63 77.8125 217.031C81.1595 218.944 85.3238 219.178 88.7812 220.906C90.7611 221.896 92.5299 223.09 94.375 224.219C96.8228 226.242 99.4266 228 103.25 228C103.837 228 104.308 227.707 104.844 227.562C106.799 227.833 108.746 228.079 110.656 228.625C113.851 229.538 116.815 230.649 119.906 231.438C121.765 232.001 123.811 232.62 125.156 233.125C128.447 234.359 132.019 236.425 135.469 237C140.925 237.909 146.558 237.496 152.156 237.375C150.589 240.335 151.201 247.134 150.594 249.562C150.377 250.429 148.942 251.214 148.344 251.812C144.397 255.759 137.773 254.664 133.531 258.906C131.164 261.273 129.652 264.887 127.719 267.594C122.58 274.788 117.115 281.981 111.625 288.844C109.437 291.579 106.327 293.44 104.219 296.25C99.3569 302.733 93.3303 308.135 86.8438 313C85.3388 314.129 83.1551 314.388 81.6875 315.562C79.7177 317.138 74.0557 321.276 77.1875 323.625C80.014 325.745 90.3595 320.359 93.2812 323.281C95.8206 325.821 86.5148 336.668 96.1875 334.25C99.7918 333.349 102.357 328.667 104.219 325.875C107.209 321.39 112.692 318.37 116.469 314.594C117.755 313.308 122.833 308.31 124.844 308.812C125.226 308.908 125.188 309.872 125.156 310.094C124.751 312.933 124.434 316.073 123.531 318.781C122.624 321.502 120.068 323.604 119.344 326.5C118.842 328.508 118.977 330.872 118.719 332.938C118.024 338.493 115.919 343.996 114.844 349.375C112.57 360.743 119.716 363.933 124.5 371.906C130.465 381.848 129.775 395.138 136.75 404.438C138.131 406.279 137.679 409.242 139.312 410.875C140.71 412.273 148.387 416.776 150.25 416.031C152.686 415.057 152.928 409.366 153.156 407.312C153.955 400.126 153.544 392.059 151.562 385.125C150.683 382.046 148.621 377.532 152.531 376.75C154.33 376.39 161.574 375.777 163.156 376.094C165.122 376.487 166.456 377.736 168.625 377.375C170.734 377.023 174.167 373.049 176.344 374.5C178.419 375.883 176.031 381.866 176.031 383.812C176.031 386.409 176.656 388.961 176.656 391.562C176.656 396.694 173.388 412.855 178.906 415.062C181.676 416.17 184.276 412.639 185.688 410.875C190.954 404.292 193.965 398.231 196.625 390.25C199.12 382.764 200.727 375.618 204.688 368.688C207.765 363.301 213.047 361.201 214 354.531C214.562 350.599 212.066 346.711 211.438 342.938C210.678 338.378 212.343 333.779 210.469 329.406C208.849 325.626 203.377 317.559 205.656 313C206.544 311.224 210.362 311.925 211.438 313C213.563 315.126 214.378 318.776 215.938 321.375C218.185 325.121 222.736 328.396 226.25 331.031C227.441 331.924 229.437 331.952 230.75 332.938C231.606 333.58 232.194 334.645 233.344 334.875C241.014 336.409 234.967 322.566 235.25 322C235.708 321.084 238.324 321.175 239.125 321.375C241.977 322.088 243.268 325.223 245.875 325.875C249.694 326.83 252.654 321.977 251.375 318.781C250.522 316.648 239.668 312.551 237.188 311.062C232.689 308.363 231.025 303.932 227.531 300.438C224.85 297.757 221.081 296.723 218.188 294.312C215.06 291.706 213.01 288.194 211.438 284.656C209.927 281.258 207.104 278.571 205 275.625C203.495 273.518 202.786 270.758 201.469 268.562C200.818 267.478 199.392 266.798 198.562 265.969C194.62 262.026 192.054 256.222 186.656 254.062C183.604 252.842 179.118 253.305 176.656 250.844C175.889 250.076 173.72 248.442 173.438 247.312C172.613 244.016 175.359 240.883 174.219 237.594C179.441 237.262 184.509 236.296 189.125 233.875C189.58 233.832 190.046 233.827 190.5 233.781C194.047 233.427 197.629 232.591 201.188 231.625C209.172 232.736 217.28 231.38 224.625 228.625C225.723 228.213 228.719 226.131 230.5 224.219C235.679 223.239 240.794 221.955 245.25 219.281C247.784 217.761 252.153 215.567 253.938 213.188C255.421 211.209 256.781 208.876 258.781 207.375C261.588 205.27 272.652 207.608 276.469 207.062C284.054 205.979 294.633 197.707 297.406 190.312C300.778 181.321 301.645 172.608 300.312 163.281C300.029 161.297 300.585 157.843 299.344 156.188C297.913 154.28 295.587 153.34 293.531 152.312C289.498 150.296 283.125 148.115 278.719 149.094C278.275 149.192 277.123 149.604 276 149.906C276.047 149.545 276.115 149.114 276.156 148.781C276.416 146.701 276.374 143.822 274.531 142.656C274.18 142.434 273.847 142.434 273.5 142.344C273.584 141.769 273.683 141.163 273.594 140.719C272.8 136.751 270.994 132.637 269.719 128.812C269.215 127.302 265.524 121.172 264.219 117.938L264.25 117.875C265.372 117.875 265.007 117.443 265.219 116.594C266.425 111.767 265.089 110.64 262.312 106.938C256.882 99.6965 252.376 92.8137 245.875 86.3125C242.238 82.6754 239.523 78.6518 234.938 76.0312C230.934 73.7437 227.231 70.7542 222.719 69.25C211.479 65.5035 198.939 65.1342 187.281 63.4688C181.815 62.6879 176.539 60.0457 171.188 59.2812C166.678 58.6371 161.688 58.4436 156.688 58.5938Z" fill="#f4dfca" fill-rule="nonzero" opacity="1" stroke="#f4dfca" stroke-linecap="round" stroke-linejoin="round" stroke-width="1.43064"/>
<path d="M163.451 58.6118C164.739 58.7631 170.555 58.9077 171.863 59.0484C173.171 59.1891 174.487 59.326 175.811 59.462C177.134 59.5979 178.465 59.7328 179.801 59.8695C181.137 60.0063 182.478 60.1449 183.823 60.2882C185.168 60.4316 186.516 60.5796 187.866 60.7351C189.216 60.8907 190.568 61.0538 191.92 61.2273C193.272 61.4009 194.623 61.5848 195.973 61.7819C197.322 61.9791 198.67 62.1895 200.014 62.416C201.358 62.6424 202.699 62.885 204.033 63.1465C205.368 63.4081 206.697 63.6885 208.019 63.9908C209.341 64.293 210.656 64.6171 211.962 64.9657C213.267 65.3144 214.563 65.6877 215.849 66.0885C217.134 66.4893 218.409 66.9176 219.671 67.3762C220.933 67.8348 222.182 68.3237 223.416 68.8459C224.651 69.368 225.871 69.9233 227.074 70.5146C228.278 71.1059 229.465 71.7333 230.635 72.3995C233.201 73.8616 235.703 75.5295 238.131 77.3808C240.559 79.232 242.913 81.2667 245.181 83.4623C247.449 85.6579 249.632 88.0144 251.718 90.5096C253.804 93.0047 255.793 95.6384 257.675 98.3883C259.556 101.138 261.33 104.004 262.985 106.964C264.64 109.924 266.177 112.977 267.583 116.102C268.989 119.227 270.265 122.423 271.4 125.669C272.536 128.914 273.53 132.208 274.372 135.529C275.214 138.849 275.904 142.196 276.43 145.548C276.957 148.899 277.32 152.255 277.509 155.592C277.698 158.929 277.713 162.248 277.542 165.527C277.371 168.805 277.014 172.043 276.462 175.217C275.909 178.392 275.159 181.503 274.202 184.529C273.245 187.555 272.08 190.496 270.696 193.329C269.313 196.161 267.71 198.886 265.878 201.481C264.046 204.075 261.984 206.539 259.68 208.851C258.073 210.465 256.422 211.983 254.731 213.411C253.04 214.84 251.31 216.179 249.544 217.435C247.777 218.691 245.974 219.863 244.138 220.959C242.302 222.054 240.434 223.073 238.535 224.021C236.637 224.968 234.709 225.845 232.755 226.658C230.801 227.47 228.82 228.218 226.817 228.907C224.814 229.597 222.788 230.228 220.742 230.807C218.697 231.385 216.631 231.912 214.55 232.393C212.469 232.874 210.372 233.309 208.262 233.704C206.152 234.099 204.029 234.455 201.896 234.777C199.764 235.099 197.622 235.388 195.475 235.649C193.327 235.911 191.173 236.145 189.017 236.358C186.86 236.571 184.701 236.763 182.543 236.941C180.384 237.118 178.227 237.281 176.073 237.435C173.919 237.589 171.769 237.734 169.627 237.877C167.485 238.02 165.35 238.161 163.226 238.305" fill="none" opacity="1" stroke="#e0b08a" stroke-linecap="butt" stroke-linejoin="round" stroke-width="6.83964"/>
<path d="M164.312 58.6118C163.024 58.7631 157.207 58.9077 155.9 59.0484C154.592 59.1891 153.276 59.326 151.952 59.462C150.629 59.5979 149.298 59.7328 147.962 59.8695C146.626 60.0063 145.284 60.1449 143.94 60.2882C142.595 60.4316 141.246 60.5796 139.896 60.7351C138.546 60.8907 137.195 61.0538 135.843 61.2273C134.491 61.4009 133.14 61.5848 131.79 61.7819C130.44 61.9791 129.093 62.1895 127.749 62.416C126.405 62.6424 125.064 62.885 123.729 63.1465C122.395 63.4081 121.065 63.6885 119.743 63.9908C118.421 64.293 117.107 64.6171 115.801 64.9657C114.496 65.3144 113.199 65.6877 111.914 66.0885C110.628 66.4893 109.354 66.9176 108.092 67.3762C106.83 67.8348 105.581 68.3237 104.347 68.8459C103.112 69.368 101.892 69.9233 100.688 70.5146C99.4846 71.1059 98.2973 71.7333 97.1281 72.3995C94.5622 73.8616 92.0597 75.5295 89.6315 77.3808C87.2034 79.232 84.8497 81.2667 82.5816 83.4623C80.3134 85.6579 78.1308 88.0144 76.0448 90.5096C73.9588 93.0047 71.9695 95.6384 70.0879 98.3883C68.2063 101.138 66.4324 104.004 64.7774 106.964C63.1224 109.924 61.5862 112.977 60.18 116.102C58.7738 119.227 57.4975 122.423 56.3623 125.669C55.2271 128.914 54.233 132.208 53.391 135.529C52.549 138.849 51.8591 142.196 51.3325 145.548C50.806 148.899 50.4426 152.255 50.2537 155.592C50.0647 158.929 50.0501 162.248 50.221 165.527C50.3919 168.805 50.7483 172.043 51.3012 175.217C51.8541 178.392 52.6036 181.503 53.5608 184.529C54.5179 187.555 55.6828 190.496 57.0664 193.329C58.45 196.161 60.0524 198.886 61.8847 201.481C63.717 204.075 65.7792 206.539 68.0823 208.851C69.6902 210.465 71.3412 211.983 73.0318 213.411C74.7224 214.84 76.4527 216.179 78.2192 217.435C79.9858 218.691 81.7887 219.863 83.6245 220.959C85.4604 222.054 87.3291 223.073 89.2275 224.021C91.1259 224.968 93.0538 225.845 95.008 226.658C96.9621 227.47 98.9425 228.218 100.946 228.907C102.949 229.597 104.975 230.228 107.021 230.807C109.066 231.385 111.131 231.912 113.212 232.393C115.294 232.874 117.391 233.309 119.501 233.704C121.611 234.099 123.734 234.455 125.866 234.777C127.999 235.099 130.14 235.388 132.288 235.649C134.436 235.911 136.59 236.145 138.746 236.358C140.902 236.571 143.062 236.763 145.22 236.941C147.378 237.118 149.536 237.281 151.69 237.435C153.844 237.589 155.993 237.734 158.136 237.877C160.278 238.02 162.413 238.161 164.537 238.305" fill="none" opacity="1" stroke="#e0b08a" stroke-linecap="butt" stroke-linejoin="round" stroke-width="6.83964"/>
<path d="M150.07 238.174C149.951 239.216 149.856 240.263 149.767 241.31C149.678 242.357 149.595 243.405 149.5 244.452C149.405 245.498 149.298 246.543 149.162 247.582C149.027 248.622 148.862 249.657 148.65 250.685C148.577 251.04 147.916 251.295 146.932 251.518C145.947 251.741 144.64 251.932 143.274 252.158C141.908 252.384 140.484 252.646 139.268 253.011C138.051 253.377 137.041 253.846 136.504 254.486C133.245 258.366 130.089 262.56 126.927 266.874C123.766 271.189 120.6 275.626 117.321 279.993C114.042 284.361 110.65 288.66 107.037 292.699C103.424 296.739 99.5901 300.519 95.4273 303.849C91.6641 306.86 87.3213 309.903 83.477 312.698C79.6327 315.494 76.2868 318.043 74.5176 320.066C72.7484 322.088 72.5558 323.584 75.018 324.274C77.4801 324.964 82.5971 324.848 91.4469 323.647C91.4004 324.746 91.3426 326.254 91.3387 327.859C91.3348 329.464 91.3848 331.165 91.554 332.651C91.7231 334.137 92.0114 335.408 92.484 336.151C92.9566 336.895 93.6136 337.111 94.5201 336.487C95.6229 335.729 96.698 334.93 97.7486 334.098C98.7992 333.267 99.8253 332.403 100.83 331.514C101.835 330.625 102.819 329.71 103.785 328.779C104.751 327.847 105.699 326.898 106.633 325.938C108.025 324.508 109.376 323.041 110.703 321.55C112.029 320.06 113.33 318.546 114.62 317.023C115.911 315.499 117.192 313.967 118.477 312.439C119.763 310.911 121.054 309.115 122.365 307.61C122.365 312.127 123.328 317.622 122.365 321.961C121.402 326.3 118.104 332.755 116.956 337.013C115.807 341.271 115.17 342.514 114.614 346.787C114.058 351.06 113.992 355.363 114.806 359.747C115.09 361.278 115.595 362.649 116.234 363.932C116.874 365.215 117.648 366.411 118.472 367.59C119.296 368.769 120.169 369.932 121.006 371.15C121.843 372.369 122.643 373.643 123.322 375.044C124.757 378.007 125.914 381.115 126.965 384.276C128.016 387.437 128.962 390.65 129.974 393.823C130.986 396.996 132.066 400.128 133.384 403.126C134.703 406.124 136.261 408.989 138.231 411.626C139.077 412.759 140.299 413.846 141.673 414.706C143.046 415.567 144.571 416.201 146.022 416.428C147.472 416.655 148.849 416.475 149.926 415.707C151.004 414.939 151.782 413.583 152.035 411.458C152.187 410.189 152.344 408.918 152.494 407.646C152.644 406.374 152.785 405.1 152.905 403.826C153.025 402.551 153.122 401.275 153.184 399.999C153.245 398.722 153.27 397.445 153.245 396.167C153.215 394.628 153.122 393.093 152.99 391.561C152.858 390.028 152.686 388.498 152.499 386.969C152.312 385.44 152.109 383.912 151.913 382.383C151.718 380.855 151.531 379.326 151.375 377.795L154.666 378.125L157.956 378.455L161.246 378.785L164.537 379.115" fill="none" opacity="1" stroke="#e0b08a" stroke-linecap="butt" stroke-linejoin="round" stroke-width="6.83964"/>
<path d="M49.4092 150.175C7.33787 138.552 19.9893 223.679 65.5405 208.495" fill="none" opacity="1" stroke="#e0b08a" stroke-linecap="butt" stroke-linejoin="round" stroke-width="7.25"/>
<path d="M47.9615 164.445C31.9429 165.651 36.5013 182.861 45.8934 190.296" fill="none" opacity="1" stroke="#e0b08a" stroke-linecap="butt" stroke-linejoin="round" stroke-width="4"/>
<path d="M277.043 150.175C319.114 138.552 306.463 223.679 260.912 208.495" fill="none" opacity="1" stroke="#e0b08a" stroke-linecap="butt" stroke-linejoin="round" stroke-width="7.25"/>
<path d="M278.49 164.445C294.509 165.651 289.951 182.861 280.559 190.296" fill="none" opacity="1" stroke="#e0b08a" stroke-linecap="butt" stroke-linejoin="round" stroke-width="4"/>
<path d="M136.483 272.147C130.57 280.563 126.658 283.358 125.146 290.738C123.633 298.119 124.52 310.084 122.365 319.183L123.126 317.047L123.888 314.911" fill="none" opacity="1" stroke="#e0b08a" stroke-linecap="butt" stroke-linejoin="round" stroke-width="4"/>
<path d="M190.749 272.147C196.661 280.563 200.573 283.358 202.086 290.738C203.598 298.119 202.711 310.084 204.867 319.183L204.105 317.047L203.344 314.911" fill="none" opacity="1" stroke="#e0b08a" stroke-linecap="butt" stroke-linejoin="round" stroke-width="4"/>
<path d="M176.967 238.305C177.085 239.348 177.18 240.394 177.269 241.442C177.359 242.489 177.442 243.537 177.537 244.584C177.632 245.63 177.739 246.674 177.874 247.714C178.01 248.754 178.175 249.789 178.386 250.817C178.46 251.172 179.121 251.427 180.105 251.65C181.09 251.873 182.397 252.063 183.763 252.29C185.129 252.516 186.552 252.778 187.769 253.143C188.986 253.509 189.995 253.978 190.533 254.618C193.792 258.498 196.948 262.691 200.109 267.006C203.27 271.321 206.437 275.757 209.716 280.125C212.995 284.493 216.387 288.792 220 292.831C223.613 296.871 227.447 300.651 231.609 303.981C235.373 306.992 239.715 310.034 243.56 312.83C247.404 315.626 250.75 318.175 252.519 320.198C254.288 322.22 254.481 323.716 252.019 324.406C249.557 325.096 244.44 324.98 235.59 323.779C235.636 324.878 235.694 326.386 235.698 327.991C235.702 329.596 235.652 331.297 235.483 332.783C235.314 334.269 235.025 335.54 234.553 336.283C234.08 337.027 233.423 337.243 232.517 336.619C231.414 335.861 230.339 335.062 229.288 334.23C228.238 333.399 227.211 332.535 226.206 331.646C225.201 330.756 224.218 329.842 223.252 328.91C222.286 327.979 221.337 327.029 220.404 326.07C219.012 324.64 217.66 323.173 216.334 321.682C215.008 320.192 213.707 318.678 212.416 317.154C211.126 315.631 209.845 314.098 208.559 312.57C207.274 311.043 205.983 309.247 204.672 307.742C204.672 312.259 203.709 317.753 204.672 322.093C205.635 326.432 208.933 332.887 210.081 337.145C211.229 341.403 211.867 342.646 212.423 346.919C212.979 351.191 213.045 355.495 212.231 359.879C211.947 361.41 211.442 362.781 210.802 364.064C210.163 365.347 209.388 366.543 208.564 367.722C207.741 368.901 206.868 370.064 206.031 371.282C205.194 372.501 204.393 373.775 203.715 375.176C202.28 378.139 201.123 381.247 200.072 384.408C199.021 387.569 198.075 390.782 197.063 393.955C196.05 397.128 194.971 400.26 193.652 403.258C192.334 406.256 190.776 409.121 188.806 411.758C187.96 412.891 186.738 413.978 185.364 414.838C183.991 415.699 182.466 416.333 181.015 416.56C179.564 416.787 178.188 416.607 177.11 415.839C176.033 415.071 175.255 413.715 175.001 411.59C174.85 410.321 174.692 409.05 174.543 407.778C174.393 406.506 174.251 405.232 174.132 403.957C174.012 402.683 173.914 401.407 173.853 400.131C173.792 398.854 173.766 397.577 173.791 396.298C173.822 394.76 173.915 393.225 174.047 391.693C174.179 390.16 174.351 388.63 174.538 387.101C174.725 385.572 174.928 384.044 175.123 382.515C175.318 380.986 175.506 379.457 175.662 377.926L172.371 378.256L169.081 378.586L165.79 378.916L162.5 379.247" fill="none" opacity="1" stroke="#e0b08a" stroke-linecap="butt" stroke-linejoin="round" stroke-width="6.83964"/>
<g opacity="1">
<path d="M164.106 287.466C154.278 287.868 144.955 280.78 134.645 281.717C126.196 282.485 126.697 290.928 125.064 296.807C124.462 298.974 122.132 300.882 123.627 303.274C124.731 305.041 127.752 306.42 129.615 307.106C134.491 308.903 139.55 307.002 144.465 306.388C151.108 305.557 157.904 305.029 164.585 304.711C174.454 304.241 183.606 309.079 193.567 307.585C200.28 306.578 200.991 302.058 200.752 296.567C200.681 294.934 200.981 292.872 200.273 291.298C199.254 289.033 191.409 283.204 189.016 282.196C184.654 280.36 178.408 281.368 174.165 283.154C172.694 283.774 171.778 285.349 170.333 286.029C168.406 286.936 166.234 287.379 164.106 287.466Z" fill="#fff1f6" fill-rule="nonzero" stroke="none"/>
<path d="M139.689 279.411C139.221 279.413 138.751 279.427 138.283 279.421C136.161 279.396 134.193 279.393 132.17 280.089C131.134 280.445 130.144 280.933 129.24 281.551C124.299 284.932 124.041 290.372 122.988 295.691C122.872 296.278 122.78 296.876 122.569 297.435C122.238 298.311 121.697 299.095 121.325 299.954C120.542 301.76 120.505 303.633 121.815 305.186C122.262 305.716 122.81 306.165 123.376 306.562C123.957 306.969 124.576 307.32 125.209 307.638C127.013 308.544 128.965 309.253 130.974 309.504C135.413 310.057 139.698 308.575 144.04 307.943C149.583 307.136 155.172 306.598 160.757 306.186C164.277 305.926 167.671 305.821 171.178 306.295C176.839 307.06 182.482 308.75 188.227 308.775C189.084 308.779 189.936 308.654 190.791 308.59C193.541 308.385 196.267 308.104 198.509 306.326C201.74 303.762 201.584 299.645 201.474 295.922C201.424 294.239 201.566 292.572 200.905 290.972C200.377 289.694 198.944 288.629 197.942 287.746C195.468 285.563 192.752 283.349 189.776 281.886C185.773 279.919 180.503 280.626 176.435 281.866C175.494 282.153 174.496 282.464 173.628 282.937C172.517 283.543 171.769 284.575 170.746 285.291C169.425 286.216 167.711 286.607 166.053 286.806C166.088 285.94 165.783 285.211 165.182 284.953C157.766 285.092 150.953 281.473 143.807 280.013C142.902 279.828 142.008 279.566 141.09 279.467C140.625 279.417 140.158 279.409 139.689 279.411ZM183.942 281.699C185.68 281.747 187.397 282.06 188.905 282.803C191.827 284.244 194.495 286.421 196.927 288.565C197.843 289.373 199.2 290.429 199.641 291.622C200.261 293.3 199.985 295.064 200.014 296.808C200.077 300.564 199.968 304.937 195.759 306.331C195.139 306.536 194.467 306.712 193.815 306.77C192.275 306.906 190.605 307.043 189.06 306.991C186.323 306.898 183.565 306.29 180.891 305.754C175.642 304.704 170.47 303.323 165.07 303.465C158.337 303.641 151.582 304.081 144.888 304.833C139.885 305.395 134.98 307.148 130.154 304.962C129.446 304.642 128.752 304.286 128.088 303.881C127.608 303.588 127.144 303.273 126.719 302.904C124.616 301.073 125.852 300.035 126.879 297.943C127.361 296.962 127.622 295.957 127.882 294.892C128.276 293.281 128.561 291.646 128.961 290.038C129.197 289.089 129.461 288.142 129.829 287.235C130.048 286.695 130.304 286.172 130.629 285.687C131.903 283.781 134.028 284.058 136.089 284.113C136.848 284.133 137.613 284.067 138.367 284.161C141.086 284.501 143.909 285.496 146.51 286.332C151.963 288.084 157.221 290.016 163.029 289.979C163.931 290.366 165.143 289.552 165.738 288.164C165.793 288.036 165.834 287.907 165.875 287.779C167.787 287.528 169.726 287.039 171.29 285.961C172.25 285.299 172.959 284.283 173.988 283.717C175.434 282.921 177.246 282.515 178.85 282.191C180.444 281.869 182.204 281.651 183.942 281.699Z" fill="#fff1f6" stroke="none"/>
</g>
<g opacity="1">
<path d="M213.806 349.98C213.457 348.777 211.783 348.387 210.572 348.064C208.86 347.607 207.074 348.715 205.303 348.783C202.355 348.896 199.604 349.018 196.68 349.262C190.547 349.773 185.202 347.871 179.195 347.585C175.95 347.431 172.603 348.023 169.375 348.304C162.786 348.877 156.144 349.895 149.495 349.262C141.952 348.543 134.87 347.825 127.22 347.825C124.82 347.825 116.077 347.47 114.286 349.262C112.247 351.3 113.675 356.903 114.765 359.082C116.023 361.599 118.153 363.653 119.315 366.268C121.284 370.698 121.377 381.023 126.261 383.034C128.498 383.955 131.115 383.636 133.447 383.753C139.282 384.044 146.691 387.238 152.369 384.232C156.435 382.079 157.791 378.483 163.148 378.483C165.125 378.483 170.428 379.134 172.01 380.399C174.809 382.639 171.99 382.469 175.124 384.232C176.504 385.008 180.281 385.348 181.83 385.429C184.376 385.563 186.451 384.008 188.776 383.274C192.6 382.066 203.128 383.539 205.303 380.639C206.62 378.883 206.267 375.703 207.219 373.693C208.733 370.497 211.983 367.797 212.968 364.352C214.128 360.289 214.946 353.909 213.806 349.98Z" fill="#fff1f6" fill-rule="nonzero" stroke="none"/>
<path d="M178.548 345.217C176.249 345.273 173.974 345.595 171.693 345.854C166.295 346.467 160.84 347.194 155.405 347.324C151.309 347.422 147.228 346.917 143.152 346.584C138.763 346.226 134.374 345.985 129.97 345.99C125.68 345.995 121.28 345.825 117.05 346.637C113.066 347.402 111.093 349.789 111.35 353.801C111.436 355.146 111.727 356.477 112.126 357.762C113.247 361.369 116.037 363.851 117.697 367.165C118.437 368.643 118.745 370.387 119.117 371.983C119.71 374.526 120.227 377.139 121.264 379.548C121.974 381.198 122.974 382.883 124.578 383.805C127.276 385.356 130.64 384.688 133.58 384.906C139.342 385.334 145.261 387.715 150.969 385.706C152.514 385.162 153.905 384.287 155.18 383.271C157.379 381.516 159.244 379.479 162.207 379.282C164.164 379.152 166.214 379.452 168.119 379.84C169.065 380.032 170.072 380.254 170.933 380.709C171.533 381.026 172.261 381.617 172.549 382.259C172.848 382.924 172.629 383.445 173.342 384.02C175.049 385.398 177.278 385.623 179.38 385.835C181.048 386.004 182.628 386.099 184.245 385.593C186.121 385.005 187.797 383.843 189.756 383.516C193.386 382.91 197.123 383.32 200.771 382.842C202.14 382.663 203.653 382.398 204.839 381.631C207.441 379.949 206.73 376.169 207.785 373.685C208.983 370.865 211.522 368.789 212.868 366.041C213.837 364.064 214.237 361.728 214.557 359.567C214.936 357.015 215.095 354.428 214.783 351.88C216.396 351.049 217.267 349.524 216.727 348.475C215.658 345.902 211.824 345.185 209.375 345.589C208.455 345.74 207.585 346.075 206.674 346.252C206.062 346.371 205.428 346.344 204.806 346.372C203.354 346.437 201.903 346.509 200.453 346.604C197.638 346.788 194.952 347.015 192.138 346.72C187.604 346.245 183.133 345.107 178.548 345.217ZM123.815 349.564C127.125 349.591 130.45 349.76 133.732 349.975C137.373 350.214 141.01 350.54 144.638 350.914C147.612 351.221 150.563 351.578 153.557 351.594C159.139 351.625 164.753 350.978 170.303 350.43C172.392 350.223 174.481 349.942 176.583 349.912C180.892 349.851 185.118 351.027 189.374 351.521C192.974 351.939 196.457 351.609 200.061 351.432C201.929 351.34 203.858 351.421 205.705 351.103C206.101 351.035 206.49 350.927 206.879 350.831C208.24 350.496 208.849 350.367 210.164 350.897C210.481 351.025 210.772 351.151 210.884 351.485C211.29 352.272 212.373 352.567 213.572 352.314C213.93 355.22 213.65 358.172 213.15 361.064C212.864 362.723 212.503 364.48 211.76 366.001C210.406 368.773 207.863 370.849 206.654 373.702C205.913 375.45 205.926 377.358 205.433 379.17C205.254 379.825 204.952 380.548 204.355 380.925C202.974 381.794 201.053 381.879 199.497 381.996C196.337 382.235 193.102 382.003 189.968 382.531C187.761 382.902 185.891 384.247 183.724 384.73C182.511 385.001 181.265 384.826 180.047 384.677C178.108 384.441 176.175 384.21 174.613 382.949C174.103 382.537 174.299 381.982 174.078 381.449C173.743 380.637 172.901 379.896 172.157 379.478C170.961 378.806 169.529 378.509 168.196 378.25C166.44 377.911 164.585 377.634 162.788 377.72C160.928 377.808 159.191 378.404 157.628 379.415C155.509 380.787 153.833 382.795 151.47 383.791C149.492 384.625 147.251 384.64 145.153 384.432C141.661 384.086 138.28 383.034 134.788 382.7C132.273 382.459 129.063 383.087 126.771 381.681C125.031 380.613 124.22 378.329 123.669 376.502C122.926 374.034 122.544 371.476 121.99 368.964C121.724 367.759 121.455 366.497 120.935 365.37C119.432 362.111 116.735 359.581 115.763 356.067C115.355 354.594 114.736 351.72 115.544 350.154C115.723 350.108 115.972 350.015 116.031 350.002C116.472 349.902 117.05 349.816 117.448 349.769C118.464 349.65 119.491 349.607 120.514 349.584C121.612 349.558 122.712 349.554 123.815 349.564Z" fill="#fff1f6" stroke="none"/>
</g>
<path d="M165.594 345.935C147.916 346.079 130.238 346.451 112.569 347.051C112.457 360.4 113.422 365.4 121.269 375.766C123.953 379.311 121.305 384.697 127.913 384.884C136.432 385.125 144.994 385.938 153.48 385.146C155.369 384.969 155.646 381.808 157.347 380.968C159.622 379.844 165.686 379.547 166.71 379.424" fill="none" opacity="1" stroke="#ffbbc4" stroke-linecap="butt" stroke-linejoin="round" stroke-width="5.5"/>
<path d="M161.903 345.935C179.581 346.079 197.259 346.451 214.928 347.051C215.04 360.4 214.075 365.4 206.228 375.766C203.544 379.311 206.192 384.697 199.584 384.884C191.065 385.125 182.503 385.938 174.018 385.146C172.128 384.969 171.852 381.808 170.15 380.968C167.875 379.844 161.811 379.547 160.787 379.424" fill="none" opacity="1" stroke="#ffbbc4" stroke-linecap="butt" stroke-linejoin="round" stroke-width="5.5"/>
<path d="M164.537 287.756C156.468 283.994 150.667 280.539 144.182 279.741C139.858 279.21 135.23 279.86 129.424 282.39C122.024 285.614 119.015 308.292 130.562 308.471C136.797 308.567 142.985 308.308 149.174 308.062C155.006 307.83 160.838 307.609 166.71 307.707" fill="none" opacity="1" stroke="#ffbbc4" stroke-linecap="butt" stroke-linejoin="round" stroke-width="5.5"/>
<path d="M161.206 287.756C169.275 283.994 175.076 280.539 181.561 279.741C185.885 279.21 190.513 279.86 196.319 282.39C203.718 285.614 206.727 308.292 195.181 308.471C188.946 308.567 182.758 308.308 176.569 308.062C170.737 307.83 164.905 307.609 159.033 307.707" fill="none" opacity="1" stroke="#ffbbc4" stroke-linecap="butt" stroke-linejoin="round" stroke-width="5.5"/>
</g>
</svg>
